<?xml version="1.0" encoding="utf-8" ?>
<svg baseProfile="full" height="600.0" version="1.1" width="800.0" xmlns="http://www.w3.org/2000/svg" xmlns:ev="http://www.w3.org/2001/xml-events" xmlns:xlink="http://www.w3.org/1999/xlink"><defs /><rect fill="white" height="600.0" stroke="black" width="800.0" x="0" y="0" /><rect fill="lightgray" height="50.0" width="780.0" x="10.0" y="10.0" /><rect fill="lightgray" height="50.0" width="780.0" x="10.0" y="540.0" /><rect fill="none" height="480.0" stroke="blue" width="546.0" x="10.0" y="60.0" /><rect fill="none" height="480.0" stroke="blue" width="234.0" x="556.0" y="60.0" /><text font-size="12" x="5" y="185.0">Task 1</text><rect fill="blue" height="192.0" width="156.0" x="25.6" y="60.0" /><text font-size="12" x="5" y="425.0">Task 2</text><rect fill="blue" height="192.0" width="156.0" x="259.6" y="300.0" /><line stroke="gray" stroke-width="0.5" x1="10.0" x2="10.0" y1="40.0" y2="590.0" /><text font-size="10" text-anchor="middle" x="10.0" y="35.0">2025-03-27</text><line stroke="gray" stroke-width="0.5" x1="25.6" x2="25.6" y1="40.0" y2="590.0" /><line stroke="gray" stroke-width="0.5" x1="41.2" x2="41.2" y1="40.0" y2="590.0" /><line stroke="gray" stroke-width="0.5" x1="56.8" x2="56.8" y1="40.0" y2="590.0" /><line stroke="gray" stroke-width="0.5" x1="72.4" x2="72.4" y1="40.0" y2="590.0" /><line stroke="gray" stroke-width="0.5" x1="88.0" x2="88.0" y1="40.0" y2="590.0" /><text font-size="10" text-anchor="middle" x="88.0" y="35.0">2025-04-01</text><line stroke="gray" stroke-width="0.5" x1="103.6" x2="103.6" y1="40.0" y2="590.0" /><line stroke="gray" stroke-width="0.5" x1="119.2" x2="119.2" y1="40.0" y2="590.0" /><line stroke="gray" stroke-width="0.5" x1="134.8" x2="134.8" y1="40.0" y2="590.0" /><line stroke="gray" stroke-width="0.5" x1="150.4" x2="150.4" y1="40.0" y2="590.0" /><line stroke="gray" stroke-width="0.5" x1="166.0" x2="166.0" y1="40.0" y2="590.0" /><text font-size="10" text-anchor="middle" x="166.0" y="35.0">2025-04-06</text><line stroke="gray" stroke-width="0.5" x1="181.6" x2="181.6" y1="40.0" y2="590.0" /><line stroke="gray" stroke-width="0.5" x1="197.2" x2="197.2" y1="40.0" y2="590.0" /><line stroke="gray" stroke-width="0.5" x1="212.79999999999998" x2="212.79999999999998" y1="40.0" y2="590.0" /><line stroke="gray" stroke-width="0.5" x1="228.4" x2="228.4" y1="40.0" y2="590.0" /><line stroke="gray" stroke-width="0.5" x1="244.0" x2="244.0" y1="40.0" y2="590.0" /><text font-size="10" text-anchor="middle" x="244.0" y="35.0">2025-04-11</text><line stroke="gray" stroke-width="0.5" x1="259.6" x2="259.6" y1="40.0" y2="590.0" /><line stroke="gray" stroke-width="0.5" x1="275.2" x2="275.2" y1="40.0" y2="590.0" /><line stroke="gray" stroke-width="0.5" x1="290.8" x2="290.8" y1="40.0" y2="590.0" /><line stroke="gray" stroke-width="0.5" x1="306.4" x2="306.4" y1="40.0" y2="590.0" /><line stroke="gray" stroke-width="0.5" x1="322.0" x2="322.0" y1="40.0" y2="590.0" /><text font-size="10" text-anchor="middle" x="322.0" y="35.0">2025-04-16</text><line stroke="gray" stroke-width="0.5" x1="337.59999999999997" x2="337.59999999999997" y1="40.0" y2="590.0" /><line stroke="gray" stroke-width="0.5" x1="353.2" x2="353.2" y1="40.0" y2="590.0" /><line stroke="gray" stroke-width="0.5" x1="368.8" x2="368.8" y1="40.0" y2="590.0" /><line stroke="gray" stroke-width="0.5" x1="384.4" x2="384.4" y1="40.0" y2="590.0" /><line stroke="gray" stroke-width="0.5" x1="400.0" x2="400.0" y1="40.0" y2="590.0" /><text font-size="10" text-anchor="middle" x="400.0" y="35.0">2025-04-21</text><line stroke="gray" stroke-width="0.5" x1="415.59999999999997" x2="415.59999999999997" y1="40.0" y2="590.0" /><line stroke="gray" stroke-width="0.5" x1="431.2" x2="431.2" y1="40.0" y2="590.0" /><line stroke="gray" stroke-width="0.5" x1="446.8" x2="446.8" y1="40.0" y2="590.0" /><line stroke="gray" stroke-width="0.5" x1="462.4" x2="462.4" y1="40.0" y2="590.0" /><line stroke="gray" stroke-width="0.5" x1="478.0" x2="478.0" y1="40.0" y2="590.0" /><text font-size="10" text-anchor="middle" x="478.0" y="35.0">2025-04-26</text><line stroke="gray" stroke-width="0.5" x1="493.59999999999997" x2="493.59999999999997" y1="40.0" y2="590.0" /><line stroke="gray" stroke-width="0.5" x1="509.2" x2="509.2" y1="40.0" y2="590.0" /><line stroke="gray" stroke-width="0.5" x1="524.8" x2="524.8" y1="40.0" y2="590.0" /><line stroke="gray" stroke-width="0.5" x1="540.4" x2="540.4" y1="40.0" y2="590.0" /><line stroke="gray" stroke-width="0.5" x1="556.0" x2="556.0" y1="40.0" y2="590.0" /><text font-size="10" text-anchor="middle" x="556.0" y="35.0">2025-05-01</text><line stroke="gray" stroke-width="0.5" x1="571.6" x2="571.6" y1="40.0" y2="590.0" /><line stroke="gray" stroke-width="0.5" x1="587.1999999999999" x2="587.1999999999999" y1="40.0" y2="590.0" /><line stroke="gray" stroke-width="0.5" x1="602.8" x2="602.8" y1="40.0" y2="590.0" /><line stroke="gray" stroke-width="0.5" x1="618.4" x2="618.4" y1="40.0" y2="590.0" /><line stroke="gray" stroke-width="0.5" x1="634.0" x2="634.0" y1="40.0" y2="590.0" /><text font-size="10" text-anchor="middle" x="634.0" y="35.0">2025-05-06</text><line stroke="gray" stroke-width="0.5" x1="649.6" x2="649.6" y1="40.0" y2="590.0" /><line stroke="gray" stroke-width="0.5" x1="665.1999999999999" x2="665.1999999999999" y1="40.0" y2="590.0" /><line stroke="gray" stroke-width="0.5" x1="680.8" x2="680.8" y1="40.0" y2="590.0" /><line stroke="gray" stroke-width="0.5" x1="696.4" x2="696.4" y1="40.0" y2="590.0" /><line stroke="gray" stroke-width="0.5" x1="712.0" x2="712.0" y1="40.0" y2="590.0" /><text font-size="10" text-anchor="middle" x="712.0" y="35.0">2025-05-11</text><line stroke="gray" stroke-width="0.5" x1="727.6" x2="727.6" y1="40.0" y2="590.0" /><line stroke="gray" stroke-width="0.5" x1="743.1999999999999" x2="743.1999999999999" y1="40.0" y2="590.0" /><line stroke="gray" stroke-width="0.5" x1="758.8" x2="758.8" y1="40.0" y2="590.0" /><line stroke="gray" stroke-width="0.5" x1="774.4" x2="774.4" y1="40.0" y2="590.0" /><line stroke="gray" stroke-width="0.5" x1="790.0" x2="790.0" y1="40.0" y2="590.0" /><text font-size="10" text-anchor="middle" x="790.0" y="35.0">2025-05-16</text></svg>