<?xml version="1.0" encoding="utf-8" ?>
<svg baseProfile="full" height="600.0" version="1.1" width="800.0" xmlns="http://www.w3.org/2000/svg" xmlns:ev="http://www.w3.org/2001/xml-events" xmlns:xlink="http://www.w3.org/1999/xlink"><defs /><rect fill="white" height="600.0" stroke="black" stroke-width="2" width="800.0" x="0" y="0" /><rect fill="lightgray" height="50.0" stroke="black" stroke-width="1" width="780.0" x="10.0" y="10.0" /><rect fill="lightgray" height="50.0" stroke="black" stroke-width="1" width="780.0" x="10.0" y="540.0" /><rect fill="none" height="480.0" stroke="blue" stroke-dasharray="4" stroke-width="1" width="780.0" x="10.0" y="60.0" /><rect fill="none" height="480.0" stroke="red" stroke-width="1" width="780.0" x="10.0" y="60.0" /><rect fill="lightgrey" height="53.333333333333336" stroke="black" stroke-width="1" width="780.0" x="10.0" y="60.0" /><text dominant-baseline="middle" font-size="10" text-anchor="middle" x="400.0" y="86.66666666666667">2025</text><rect fill="lightgrey" height="53.333333333333336" stroke="black" stroke-width="1" width="780.0" x="10.0" y="113.33333333333334" /><line stroke="black" stroke-width="1" x1="240.2857142857143" x2="240.2857142857143" y1="113.33333333333334" y2="166.66666666666669" /><text dominant-baseline="middle" font-size="10" text-anchor="middle" x="125.14285714285715" y="140.0">Jan</text><line stroke="black" stroke-width="1" x1="448.2857142857143" x2="448.2857142857143" y1="113.33333333333334" y2="166.66666666666669" /><text dominant-baseline="middle" font-size="10" text-anchor="middle" x="344.2857142857143" y="140.0">Feb</text><line stroke="black" stroke-width="1" x1="678.5714285714286" x2="678.5714285714286" y1="113.33333333333334" y2="166.66666666666669" /><text dominant-baseline="middle" font-size="10" text-anchor="middle" x="563.4285714285714" y="140.0">Mar</text><text dominant-baseline="middle" font-size="10" text-anchor="middle" x="734.2857142857142" y="140.0">Apr</text><rect fill="lightgrey" height="53.333333333333336" stroke="black" stroke-width="1" width="780.0" x="10.0" y="166.66666666666669" /><line stroke="black" stroke-width="1" x1="47.142857142857146" x2="47.142857142857146" y1="166.66666666666669" y2="220.00000000000003" /><text dominant-baseline="middle" font-size="10" text-anchor="middle" x="28.571428571428573" y="193.33333333333334">01</text><line stroke="black" stroke-width="1" x1="99.14285714285714" x2="99.14285714285714" y1="166.66666666666669" y2="220.00000000000003" /><text dominant-baseline="middle" font-size="10" text-anchor="middle" x="73.14285714285714" y="193.33333333333334">02 (12)</text><line stroke="black" stroke-width="1" x1="151.14285714285714" x2="151.14285714285714" y1="166.66666666666669" y2="220.00000000000003" /><text dominant-baseline="middle" font-size="10" text-anchor="middle" x="125.14285714285714" y="193.33333333333334">03 (19)</text><line stroke="black" stroke-width="1" x1="203.14285714285714" x2="203.14285714285714" y1="166.66666666666669" y2="220.00000000000003" /><text dominant-baseline="middle" font-size="10" text-anchor="middle" x="177.14285714285714" y="193.33333333333334">04 (26)</text><line stroke="black" stroke-width="1" x1="255.14285714285714" x2="255.14285714285714" y1="166.66666666666669" y2="220.00000000000003" /><text dominant-baseline="middle" font-size="10" text-anchor="middle" x="229.14285714285714" y="193.33333333333334">05 (02)</text><line stroke="black" stroke-width="1" x1="307.14285714285717" x2="307.14285714285717" y1="166.66666666666669" y2="220.00000000000003" /><text dominant-baseline="middle" font-size="10" text-anchor="middle" x="281.14285714285717" y="193.33333333333334">06 (09)</text><line stroke="black" stroke-width="1" x1="359.14285714285717" x2="359.14285714285717" y1="166.66666666666669" y2="220.00000000000003" /><text dominant-baseline="middle" font-size="10" text-anchor="middle" x="333.14285714285717" y="193.33333333333334">07 (16)</text><line stroke="black" stroke-width="1" x1="411.14285714285717" x2="411.14285714285717" y1="166.66666666666669" y2="220.00000000000003" /><text dominant-baseline="middle" font-size="10" text-anchor="middle" x="385.14285714285717" y="193.33333333333334">08 (23)</text><line stroke="black" stroke-width="1" x1="463.14285714285717" x2="463.14285714285717" y1="166.66666666666669" y2="220.00000000000003" /><text dominant-baseline="middle" font-size="10" text-anchor="middle" x="437.14285714285717" y="193.33333333333334">09 (02)</text><line stroke="black" stroke-width="1" x1="515.1428571428571" x2="515.1428571428571" y1="166.66666666666669" y2="220.00000000000003" /><text dominant-baseline="middle" font-size="10" text-anchor="middle" x="489.1428571428571" y="193.33333333333334">10 (09)</text><line stroke="black" stroke-width="1" x1="567.1428571428571" x2="567.1428571428571" y1="166.66666666666669" y2="220.00000000000003" /><text dominant-baseline="middle" font-size="10" text-anchor="middle" x="541.1428571428571" y="193.33333333333334">11 (16)</text><line stroke="black" stroke-width="1" x1="619.1428571428571" x2="619.1428571428571" y1="166.66666666666669" y2="220.00000000000003" /><text dominant-baseline="middle" font-size="10" text-anchor="middle" x="593.1428571428571" y="193.33333333333334">12 (23)</text><line stroke="black" stroke-width="1" x1="671.1428571428571" x2="671.1428571428571" y1="166.66666666666669" y2="220.00000000000003" /><text dominant-baseline="middle" font-size="10" text-anchor="middle" x="645.1428571428571" y="193.33333333333334">13 (30)</text><line stroke="black" stroke-width="1" x1="723.1428571428571" x2="723.1428571428571" y1="166.66666666666669" y2="220.00000000000003" /><text dominant-baseline="middle" font-size="10" text-anchor="middle" x="697.1428571428571" y="193.33333333333334">14 (06)</text><line stroke="black" stroke-width="1" x1="775.1428571428572" x2="775.1428571428572" y1="166.66666666666669" y2="220.00000000000003" /><text dominant-baseline="middle" font-size="10" text-anchor="middle" x="749.1428571428571" y="193.33333333333334">15 (13)</text><rect fill="lightgrey" height="53.333333333333336" stroke="black" stroke-width="1" width="780.0" x="10.0" y="220.00000000000003" /><line stroke="black" stroke-width="1" x1="17.42857142857143" x2="17.42857142857143" y1="220.00000000000003" y2="273.33333333333337" /><line stroke="black" stroke-width="1" x1="24.857142857142858" x2="24.857142857142858" y1="220.00000000000003" y2="273.33333333333337" /><line stroke="black" stroke-width="1" x1="32.285714285714285" x2="32.285714285714285" y1="220.00000000000003" y2="273.33333333333337" /><line stroke="black" stroke-width="1" x1="39.714285714285715" x2="39.714285714285715" y1="220.00000000000003" y2="273.33333333333337" /><line stroke="black" stroke-width="1" x1="47.142857142857146" x2="47.142857142857146" y1="220.00000000000003" y2="273.33333333333337" /><line stroke="black" stroke-width="1" x1="54.57142857142857" x2="54.57142857142857" y1="220.00000000000003" y2="273.33333333333337" /><line stroke="black" stroke-width="1" x1="62.0" x2="62.0" y1="220.00000000000003" y2="273.33333333333337" /><line stroke="black" stroke-width="1" x1="69.42857142857143" x2="69.42857142857143" y1="220.00000000000003" y2="273.33333333333337" /><line stroke="black" stroke-width="1" x1="76.85714285714286" x2="76.85714285714286" y1="220.00000000000003" y2="273.33333333333337" /><line stroke="black" stroke-width="1" x1="84.28571428571429" x2="84.28571428571429" y1="220.00000000000003" y2="273.33333333333337" /><line stroke="black" stroke-width="1" x1="91.71428571428572" x2="91.71428571428572" y1="220.00000000000003" y2="273.33333333333337" /><line stroke="black" stroke-width="1" x1="99.14285714285714" x2="99.14285714285714" y1="220.00000000000003" y2="273.33333333333337" /><line stroke="black" stroke-width="1" x1="106.57142857142857" x2="106.57142857142857" y1="220.00000000000003" y2="273.33333333333337" /><line stroke="black" stroke-width="1" x1="114.0" x2="114.0" y1="220.00000000000003" y2="273.33333333333337" /><line stroke="black" stroke-width="1" x1="121.42857142857143" x2="121.42857142857143" y1="220.00000000000003" y2="273.33333333333337" /><line stroke="black" stroke-width="1" x1="128.85714285714286" x2="128.85714285714286" y1="220.00000000000003" y2="273.33333333333337" /><line stroke="black" stroke-width="1" x1="136.28571428571428" x2="136.28571428571428" y1="220.00000000000003" y2="273.33333333333337" /><line stroke="black" stroke-width="1" x1="143.71428571428572" x2="143.71428571428572" y1="220.00000000000003" y2="273.33333333333337" /><line stroke="black" stroke-width="1" x1="151.14285714285714" x2="151.14285714285714" y1="220.00000000000003" y2="273.33333333333337" /><line stroke="black" stroke-width="1" x1="158.57142857142858" x2="158.57142857142858" y1="220.00000000000003" y2="273.33333333333337" /><line stroke="black" stroke-width="1" x1="166.0" x2="166.0" y1="220.00000000000003" y2="273.33333333333337" /><line stroke="black" stroke-width="1" x1="173.42857142857144" x2="173.42857142857144" y1="220.00000000000003" y2="273.33333333333337" /><line stroke="black" stroke-width="1" x1="180.85714285714286" x2="180.85714285714286" y1="220.00000000000003" y2="273.33333333333337" /><line stroke="black" stroke-width="1" x1="188.28571428571428" x2="188.28571428571428" y1="220.00000000000003" y2="273.33333333333337" /><line stroke="black" stroke-width="1" x1="195.71428571428572" x2="195.71428571428572" y1="220.00000000000003" y2="273.33333333333337" /><line stroke="black" stroke-width="1" x1="203.14285714285714" x2="203.14285714285714" y1="220.00000000000003" y2="273.33333333333337" /><line stroke="black" stroke-width="1" x1="210.57142857142858" x2="210.57142857142858" y1="220.00000000000003" y2="273.33333333333337" /><line stroke="black" stroke-width="1" x1="218.0" x2="218.0" y1="220.00000000000003" y2="273.33333333333337" /><line stroke="black" stroke-width="1" x1="225.42857142857144" x2="225.42857142857144" y1="220.00000000000003" y2="273.33333333333337" /><line stroke="black" stroke-width="1" x1="232.85714285714286" x2="232.85714285714286" y1="220.00000000000003" y2="273.33333333333337" /><line stroke="black" stroke-width="1" x1="240.2857142857143" x2="240.2857142857143" y1="220.00000000000003" y2="273.33333333333337" /><line stroke="black" stroke-width="1" x1="247.71428571428572" x2="247.71428571428572" y1="220.00000000000003" y2="273.33333333333337" /><line stroke="black" stroke-width="1" x1="255.14285714285714" x2="255.14285714285714" y1="220.00000000000003" y2="273.33333333333337" /><line stroke="black" stroke-width="1" x1="262.57142857142856" x2="262.57142857142856" y1="220.00000000000003" y2="273.33333333333337" /><line stroke="black" stroke-width="1" x1="270.0" x2="270.0" y1="220.00000000000003" y2="273.33333333333337" /><line stroke="black" stroke-width="1" x1="277.42857142857144" x2="277.42857142857144" y1="220.00000000000003" y2="273.33333333333337" /><line stroke="black" stroke-width="1" x1="284.8571428571429" x2="284.8571428571429" y1="220.00000000000003" y2="273.33333333333337" /><line stroke="black" stroke-width="1" x1="292.2857142857143" x2="292.2857142857143" y1="220.00000000000003" y2="273.33333333333337" /><line stroke="black" stroke-width="1" x1="299.7142857142857" x2="299.7142857142857" y1="220.00000000000003" y2="273.33333333333337" /><line stroke="black" stroke-width="1" x1="307.14285714285717" x2="307.14285714285717" y1="220.00000000000003" y2="273.33333333333337" /><line stroke="black" stroke-width="1" x1="314.57142857142856" x2="314.57142857142856" y1="220.00000000000003" y2="273.33333333333337" /><line stroke="black" stroke-width="1" x1="322.0" x2="322.0" y1="220.00000000000003" y2="273.33333333333337" /><line stroke="black" stroke-width="1" x1="329.42857142857144" x2="329.42857142857144" y1="220.00000000000003" y2="273.33333333333337" /><line stroke="black" stroke-width="1" x1="336.8571428571429" x2="336.8571428571429" y1="220.00000000000003" y2="273.33333333333337" /><line stroke="black" stroke-width="1" x1="344.2857142857143" x2="344.2857142857143" y1="220.00000000000003" y2="273.33333333333337" /><line stroke="black" stroke-width="1" x1="351.7142857142857" x2="351.7142857142857" y1="220.00000000000003" y2="273.33333333333337" /><line stroke="black" stroke-width="1" x1="359.14285714285717" x2="359.14285714285717" y1="220.00000000000003" y2="273.33333333333337" /><line stroke="black" stroke-width="1" x1="366.57142857142856" x2="366.57142857142856" y1="220.00000000000003" y2="273.33333333333337" /><line stroke="black" stroke-width="1" x1="374.0" x2="374.0" y1="220.00000000000003" y2="273.33333333333337" /><line stroke="black" stroke-width="1" x1="381.42857142857144" x2="381.42857142857144" y1="220.00000000000003" y2="273.33333333333337" /><line stroke="black" stroke-width="1" x1="388.8571428571429" x2="388.8571428571429" y1="220.00000000000003" y2="273.33333333333337" /><line stroke="black" stroke-width="1" x1="396.2857142857143" x2="396.2857142857143" y1="220.00000000000003" y2="273.33333333333337" /><line stroke="black" stroke-width="1" x1="403.7142857142857" x2="403.7142857142857" y1="220.00000000000003" y2="273.33333333333337" /><line stroke="black" stroke-width="1" x1="411.14285714285717" x2="411.14285714285717" y1="220.00000000000003" y2="273.33333333333337" /><line stroke="black" stroke-width="1" x1="418.5714285714286" x2="418.5714285714286" y1="220.00000000000003" y2="273.33333333333337" /><line stroke="black" stroke-width="1" x1="426.0" x2="426.0" y1="220.00000000000003" y2="273.33333333333337" /><line stroke="black" stroke-width="1" x1="433.42857142857144" x2="433.42857142857144" y1="220.00000000000003" y2="273.33333333333337" /><line stroke="black" stroke-width="1" x1="440.8571428571429" x2="440.8571428571429" y1="220.00000000000003" y2="273.33333333333337" /><line stroke="black" stroke-width="1" x1="448.2857142857143" x2="448.2857142857143" y1="220.00000000000003" y2="273.33333333333337" /><line stroke="black" stroke-width="1" x1="455.7142857142857" x2="455.7142857142857" y1="220.00000000000003" y2="273.33333333333337" /><line stroke="black" stroke-width="1" x1="463.14285714285717" x2="463.14285714285717" y1="220.00000000000003" y2="273.33333333333337" /><line stroke="black" stroke-width="1" x1="470.5714285714286" x2="470.5714285714286" y1="220.00000000000003" y2="273.33333333333337" /><line stroke="black" stroke-width="1" x1="478.0" x2="478.0" y1="220.00000000000003" y2="273.33333333333337" /><line stroke="black" stroke-width="1" x1="485.42857142857144" x2="485.42857142857144" y1="220.00000000000003" y2="273.33333333333337" /><line stroke="black" stroke-width="1" x1="492.8571428571429" x2="492.8571428571429" y1="220.00000000000003" y2="273.33333333333337" /><line stroke="black" stroke-width="1" x1="500.2857142857143" x2="500.2857142857143" y1="220.00000000000003" y2="273.33333333333337" /><line stroke="black" stroke-width="1" x1="507.7142857142857" x2="507.7142857142857" y1="220.00000000000003" y2="273.33333333333337" /><line stroke="black" stroke-width="1" x1="515.1428571428571" x2="515.1428571428571" y1="220.00000000000003" y2="273.33333333333337" /><line stroke="black" stroke-width="1" x1="522.5714285714286" x2="522.5714285714286" y1="220.00000000000003" y2="273.33333333333337" /><line stroke="black" stroke-width="1" x1="530.0" x2="530.0" y1="220.00000000000003" y2="273.33333333333337" /><line stroke="black" stroke-width="1" x1="537.4285714285714" x2="537.4285714285714" y1="220.00000000000003" y2="273.33333333333337" /><line stroke="black" stroke-width="1" x1="544.8571428571429" x2="544.8571428571429" y1="220.00000000000003" y2="273.33333333333337" /><line stroke="black" stroke-width="1" x1="552.2857142857143" x2="552.2857142857143" y1="220.00000000000003" y2="273.33333333333337" /><line stroke="black" stroke-width="1" x1="559.7142857142858" x2="559.7142857142858" y1="220.00000000000003" y2="273.33333333333337" /><line stroke="black" stroke-width="1" x1="567.1428571428571" x2="567.1428571428571" y1="220.00000000000003" y2="273.33333333333337" /><line stroke="black" stroke-width="1" x1="574.5714285714286" x2="574.5714285714286" y1="220.00000000000003" y2="273.33333333333337" /><line stroke="black" stroke-width="1" x1="582.0" x2="582.0" y1="220.00000000000003" y2="273.33333333333337" /><line stroke="black" stroke-width="1" x1="589.4285714285714" x2="589.4285714285714" y1="220.00000000000003" y2="273.33333333333337" /><line stroke="black" stroke-width="1" x1="596.8571428571429" x2="596.8571428571429" y1="220.00000000000003" y2="273.33333333333337" /><line stroke="black" stroke-width="1" x1="604.2857142857143" x2="604.2857142857143" y1="220.00000000000003" y2="273.33333333333337" /><line stroke="black" stroke-width="1" x1="611.7142857142858" x2="611.7142857142858" y1="220.00000000000003" y2="273.33333333333337" /><line stroke="black" stroke-width="1" x1="619.1428571428571" x2="619.1428571428571" y1="220.00000000000003" y2="273.33333333333337" /><line stroke="black" stroke-width="1" x1="626.5714285714286" x2="626.5714285714286" y1="220.00000000000003" y2="273.33333333333337" /><line stroke="black" stroke-width="1" x1="634.0" x2="634.0" y1="220.00000000000003" y2="273.33333333333337" /><line stroke="black" stroke-width="1" x1="641.4285714285714" x2="641.4285714285714" y1="220.00000000000003" y2="273.33333333333337" /><line stroke="black" stroke-width="1" x1="648.8571428571429" x2="648.8571428571429" y1="220.00000000000003" y2="273.33333333333337" /><line stroke="black" stroke-width="1" x1="656.2857142857143" x2="656.2857142857143" y1="220.00000000000003" y2="273.33333333333337" /><line stroke="black" stroke-width="1" x1="663.7142857142858" x2="663.7142857142858" y1="220.00000000000003" y2="273.33333333333337" /><line stroke="black" stroke-width="1" x1="671.1428571428571" x2="671.1428571428571" y1="220.00000000000003" y2="273.33333333333337" /><line stroke="black" stroke-width="1" x1="678.5714285714286" x2="678.5714285714286" y1="220.00000000000003" y2="273.33333333333337" /><line stroke="black" stroke-width="1" x1="686.0" x2="686.0" y1="220.00000000000003" y2="273.33333333333337" /><line stroke="black" stroke-width="1" x1="693.4285714285714" x2="693.4285714285714" y1="220.00000000000003" y2="273.33333333333337" /><line stroke="black" stroke-width="1" x1="700.8571428571429" x2="700.8571428571429" y1="220.00000000000003" y2="273.33333333333337" /><line stroke="black" stroke-width="1" x1="708.2857142857143" x2="708.2857142857143" y1="220.00000000000003" y2="273.33333333333337" /><line stroke="black" stroke-width="1" x1="715.7142857142858" x2="715.7142857142858" y1="220.00000000000003" y2="273.33333333333337" /><line stroke="black" stroke-width="1" x1="723.1428571428571" x2="723.1428571428571" y1="220.00000000000003" y2="273.33333333333337" /><line stroke="black" stroke-width="1" x1="730.5714285714286" x2="730.5714285714286" y1="220.00000000000003" y2="273.33333333333337" /><line stroke="black" stroke-width="1" x1="738.0" x2="738.0" y1="220.00000000000003" y2="273.33333333333337" /><line stroke="black" stroke-width="1" x1="745.4285714285714" x2="745.4285714285714" y1="220.00000000000003" y2="273.33333333333337" /><line stroke="black" stroke-width="1" x1="752.8571428571429" x2="752.8571428571429" y1="220.00000000000003" y2="273.33333333333337" /><line stroke="black" stroke-width="1" x1="760.2857142857143" x2="760.2857142857143" y1="220.00000000000003" y2="273.33333333333337" /><line stroke="black" stroke-width="1" x1="767.7142857142858" x2="767.7142857142858" y1="220.00000000000003" y2="273.33333333333337" /><line stroke="black" stroke-width="1" x1="775.1428571428572" x2="775.1428571428572" y1="220.00000000000003" y2="273.33333333333337" /><line stroke="black" stroke-width="1" x1="782.5714285714286" x2="782.5714285714286" y1="220.00000000000003" y2="273.33333333333337" /><line stroke="black" stroke-width="1" x1="790.0" x2="790.0" y1="220.00000000000003" y2="273.33333333333337" /><rect fill="none" height="266.6666666666667" stroke="purple" stroke-width="1" width="780.0" x="10.0" y="273.33333333333337" /><line stroke="gray" stroke-width="1" x1="10.0" x2="790.0" y1="273.33333333333337" y2="273.33333333333337" /><line stroke="gray" stroke-width="1" x1="10.0" x2="790.0" y1="300.00000000000006" y2="300.00000000000006" /><line stroke="gray" stroke-width="1" x1="10.0" x2="790.0" y1="326.6666666666667" y2="326.6666666666667" /><line stroke="gray" stroke-width="1" x1="10.0" x2="790.0" y1="353.33333333333337" y2="353.33333333333337" /><line stroke="gray" stroke-width="1" x1="10.0" x2="790.0" y1="380.00000000000006" y2="380.00000000000006" /><line stroke="gray" stroke-width="1" x1="10.0" x2="790.0" y1="406.66666666666674" y2="406.66666666666674" /><line stroke="gray" stroke-width="1" x1="10.0" x2="790.0" y1="433.33333333333337" y2="433.33333333333337" /><line stroke="gray" stroke-width="1" x1="10.0" x2="790.0" y1="460.00000000000006" y2="460.00000000000006" /><line stroke="gray" stroke-width="1" x1="10.0" x2="790.0" y1="486.66666666666674" y2="486.66666666666674" /><line stroke="gray" stroke-width="1" x1="10.0" x2="790.0" y1="513.3333333333334" y2="513.3333333333334" /><line stroke="gray" stroke-width="1" x1="10.0" x2="790.0" y1="540.0" y2="540.0" /><line stroke="gray" stroke-width="1" x1="240.2857142857143" x2="240.2857142857143" y1="273.33333333333337" y2="540.0" /><line stroke="gray" stroke-width="1" x1="448.2857142857143" x2="448.2857142857143" y1="273.33333333333337" y2="540.0" /><line stroke="gray" stroke-width="1" x1="678.5714285714286" x2="678.5714285714286" y1="273.33333333333337" y2="540.0" /><line stroke="gray" stroke-width="1" x1="47.142857142857146" x2="47.142857142857146" y1="273.33333333333337" y2="540.0" /><line stroke="gray" stroke-width="1" x1="99.14285714285714" x2="99.14285714285714" y1="273.33333333333337" y2="540.0" /><line stroke="gray" stroke-width="1" x1="151.14285714285714" x2="151.14285714285714" y1="273.33333333333337" y2="540.0" /><line stroke="gray" stroke-width="1" x1="203.14285714285714" x2="203.14285714285714" y1="273.33333333333337" y2="540.0" /><line stroke="gray" stroke-width="1" x1="255.14285714285714" x2="255.14285714285714" y1="273.33333333333337" y2="540.0" /><line stroke="gray" stroke-width="1" x1="307.14285714285717" x2="307.14285714285717" y1="273.33333333333337" y2="540.0" /><line stroke="gray" stroke-width="1" x1="359.14285714285717" x2="359.14285714285717" y1="273.33333333333337" y2="540.0" /><line stroke="gray" stroke-width="1" x1="411.14285714285717" x2="411.14285714285717" y1="273.33333333333337" y2="540.0" /><line stroke="gray" stroke-width="1" x1="463.14285714285717" x2="463.14285714285717" y1="273.33333333333337" y2="540.0" /><line stroke="gray" stroke-width="1" x1="515.1428571428571" x2="515.1428571428571" y1="273.33333333333337" y2="540.0" /><line stroke="gray" stroke-width="1" x1="567.1428571428571" x2="567.1428571428571" y1="273.33333333333337" y2="540.0" /><line stroke="gray" stroke-width="1" x1="619.1428571428571" x2="619.1428571428571" y1="273.33333333333337" y2="540.0" /><line stroke="gray" stroke-width="1" x1="671.1428571428571" x2="671.1428571428571" y1="273.33333333333337" y2="540.0" /><line stroke="gray" stroke-width="1" x1="723.1428571428571" x2="723.1428571428571" y1="273.33333333333337" y2="540.0" /><line stroke="gray" stroke-width="1" x1="775.1428571428572" x2="775.1428571428572" y1="273.33333333333337" y2="540.0" /><line stroke="gray" stroke-width="1" x1="17.42857142857143" x2="17.42857142857143" y1="273.33333333333337" y2="540.0" /><line stroke="gray" stroke-width="1" x1="24.857142857142858" x2="24.857142857142858" y1="273.33333333333337" y2="540.0" /><line stroke="gray" stroke-width="1" x1="32.285714285714285" x2="32.285714285714285" y1="273.33333333333337" y2="540.0" /><line stroke="gray" stroke-width="1" x1="39.714285714285715" x2="39.714285714285715" y1="273.33333333333337" y2="540.0" /><line stroke="gray" stroke-width="1" x1="47.142857142857146" x2="47.142857142857146" y1="273.33333333333337" y2="540.0" /><line stroke="gray" stroke-width="1" x1="54.57142857142857" x2="54.57142857142857" y1="273.33333333333337" y2="540.0" /><line stroke="gray" stroke-width="1" x1="62.0" x2="62.0" y1="273.33333333333337" y2="540.0" /><line stroke="gray" stroke-width="1" x1="69.42857142857143" x2="69.42857142857143" y1="273.33333333333337" y2="540.0" /><line stroke="gray" stroke-width="1" x1="76.85714285714286" x2="76.85714285714286" y1="273.33333333333337" y2="540.0" /><line stroke="gray" stroke-width="1" x1="84.28571428571429" x2="84.28571428571429" y1="273.33333333333337" y2="540.0" /><line stroke="gray" stroke-width="1" x1="91.71428571428572" x2="91.71428571428572" y1="273.33333333333337" y2="540.0" /><line stroke="gray" stroke-width="1" x1="99.14285714285714" x2="99.14285714285714" y1="273.33333333333337" y2="540.0" /><line stroke="gray" stroke-width="1" x1="106.57142857142857" x2="106.57142857142857" y1="273.33333333333337" y2="540.0" /><line stroke="gray" stroke-width="1" x1="114.0" x2="114.0" y1="273.33333333333337" y2="540.0" /><line stroke="gray" stroke-width="1" x1="121.42857142857143" x2="121.42857142857143" y1="273.33333333333337" y2="540.0" /><line stroke="gray" stroke-width="1" x1="128.85714285714286" x2="128.85714285714286" y1="273.33333333333337" y2="540.0" /><line stroke="gray" stroke-width="1" x1="136.28571428571428" x2="136.28571428571428" y1="273.33333333333337" y2="540.0" /><line stroke="gray" stroke-width="1" x1="143.71428571428572" x2="143.71428571428572" y1="273.33333333333337" y2="540.0" /><line stroke="gray" stroke-width="1" x1="151.14285714285714" x2="151.14285714285714" y1="273.33333333333337" y2="540.0" /><line stroke="gray" stroke-width="1" x1="158.57142857142858" x2="158.57142857142858" y1="273.33333333333337" y2="540.0" /><line stroke="gray" stroke-width="1" x1="166.0" x2="166.0" y1="273.33333333333337" y2="540.0" /><line stroke="gray" stroke-width="1" x1="173.42857142857144" x2="173.42857142857144" y1="273.33333333333337" y2="540.0" /><line stroke="gray" stroke-width="1" x1="180.85714285714286" x2="180.85714285714286" y1="273.33333333333337" y2="540.0" /><line stroke="gray" stroke-width="1" x1="188.28571428571428" x2="188.28571428571428" y1="273.33333333333337" y2="540.0" /><line stroke="gray" stroke-width="1" x1="195.71428571428572" x2="195.71428571428572" y1="273.33333333333337" y2="540.0" /><line stroke="gray" stroke-width="1" x1="203.14285714285714" x2="203.14285714285714" y1="273.33333333333337" y2="540.0" /><line stroke="gray" stroke-width="1" x1="210.57142857142858" x2="210.57142857142858" y1="273.33333333333337" y2="540.0" /><line stroke="gray" stroke-width="1" x1="218.0" x2="218.0" y1="273.33333333333337" y2="540.0" /><line stroke="gray" stroke-width="1" x1="225.42857142857144" x2="225.42857142857144" y1="273.33333333333337" y2="540.0" /><line stroke="gray" stroke-width="1" x1="232.85714285714286" x2="232.85714285714286" y1="273.33333333333337" y2="540.0" /><line stroke="gray" stroke-width="1" x1="240.2857142857143" x2="240.2857142857143" y1="273.33333333333337" y2="540.0" /><line stroke="gray" stroke-width="1" x1="247.71428571428572" x2="247.71428571428572" y1="273.33333333333337" y2="540.0" /><line stroke="gray" stroke-width="1" x1="255.14285714285714" x2="255.14285714285714" y1="273.33333333333337" y2="540.0" /><line stroke="gray" stroke-width="1" x1="262.57142857142856" x2="262.57142857142856" y1="273.33333333333337" y2="540.0" /><line stroke="gray" stroke-width="1" x1="270.0" x2="270.0" y1="273.33333333333337" y2="540.0" /><line stroke="gray" stroke-width="1" x1="277.42857142857144" x2="277.42857142857144" y1="273.33333333333337" y2="540.0" /><line stroke="gray" stroke-width="1" x1="284.8571428571429" x2="284.8571428571429" y1="273.33333333333337" y2="540.0" /><line stroke="gray" stroke-width="1" x1="292.2857142857143" x2="292.2857142857143" y1="273.33333333333337" y2="540.0" /><line stroke="gray" stroke-width="1" x1="299.7142857142857" x2="299.7142857142857" y1="273.33333333333337" y2="540.0" /><line stroke="gray" stroke-width="1" x1="307.14285714285717" x2="307.14285714285717" y1="273.33333333333337" y2="540.0" /><line stroke="gray" stroke-width="1" x1="314.57142857142856" x2="314.57142857142856" y1="273.33333333333337" y2="540.0" /><line stroke="gray" stroke-width="1" x1="322.0" x2="322.0" y1="273.33333333333337" y2="540.0" /><line stroke="gray" stroke-width="1" x1="329.42857142857144" x2="329.42857142857144" y1="273.33333333333337" y2="540.0" /><line stroke="gray" stroke-width="1" x1="336.8571428571429" x2="336.8571428571429" y1="273.33333333333337" y2="540.0" /><line stroke="gray" stroke-width="1" x1="344.2857142857143" x2="344.2857142857143" y1="273.33333333333337" y2="540.0" /><line stroke="gray" stroke-width="1" x1="351.7142857142857" x2="351.7142857142857" y1="273.33333333333337" y2="540.0" /><line stroke="gray" stroke-width="1" x1="359.14285714285717" x2="359.14285714285717" y1="273.33333333333337" y2="540.0" /><line stroke="gray" stroke-width="1" x1="366.57142857142856" x2="366.57142857142856" y1="273.33333333333337" y2="540.0" /><line stroke="gray" stroke-width="1" x1="374.0" x2="374.0" y1="273.33333333333337" y2="540.0" /><line stroke="gray" stroke-width="1" x1="381.42857142857144" x2="381.42857142857144" y1="273.33333333333337" y2="540.0" /><line stroke="gray" stroke-width="1" x1="388.8571428571429" x2="388.8571428571429" y1="273.33333333333337" y2="540.0" /><line stroke="gray" stroke-width="1" x1="396.2857142857143" x2="396.2857142857143" y1="273.33333333333337" y2="540.0" /><line stroke="gray" stroke-width="1" x1="403.7142857142857" x2="403.7142857142857" y1="273.33333333333337" y2="540.0" /><line stroke="gray" stroke-width="1" x1="411.14285714285717" x2="411.14285714285717" y1="273.33333333333337" y2="540.0" /><line stroke="gray" stroke-width="1" x1="418.5714285714286" x2="418.5714285714286" y1="273.33333333333337" y2="540.0" /><line stroke="gray" stroke-width="1" x1="426.0" x2="426.0" y1="273.33333333333337" y2="540.0" /><line stroke="gray" stroke-width="1" x1="433.42857142857144" x2="433.42857142857144" y1="273.33333333333337" y2="540.0" /><line stroke="gray" stroke-width="1" x1="440.8571428571429" x2="440.8571428571429" y1="273.33333333333337" y2="540.0" /><line stroke="gray" stroke-width="1" x1="448.2857142857143" x2="448.2857142857143" y1="273.33333333333337" y2="540.0" /><line stroke="gray" stroke-width="1" x1="455.7142857142857" x2="455.7142857142857" y1="273.33333333333337" y2="540.0" /><line stroke="gray" stroke-width="1" x1="463.14285714285717" x2="463.14285714285717" y1="273.33333333333337" y2="540.0" /><line stroke="gray" stroke-width="1" x1="470.5714285714286" x2="470.5714285714286" y1="273.33333333333337" y2="540.0" /><line stroke="gray" stroke-width="1" x1="478.0" x2="478.0" y1="273.33333333333337" y2="540.0" /><line stroke="gray" stroke-width="1" x1="485.42857142857144" x2="485.42857142857144" y1="273.33333333333337" y2="540.0" /><line stroke="gray" stroke-width="1" x1="492.8571428571429" x2="492.8571428571429" y1="273.33333333333337" y2="540.0" /><line stroke="gray" stroke-width="1" x1="500.2857142857143" x2="500.2857142857143" y1="273.33333333333337" y2="540.0" /><line stroke="gray" stroke-width="1" x1="507.7142857142857" x2="507.7142857142857" y1="273.33333333333337" y2="540.0" /><line stroke="gray" stroke-width="1" x1="515.1428571428571" x2="515.1428571428571" y1="273.33333333333337" y2="540.0" /><line stroke="gray" stroke-width="1" x1="522.5714285714286" x2="522.5714285714286" y1="273.33333333333337" y2="540.0" /><line stroke="gray" stroke-width="1" x1="530.0" x2="530.0" y1="273.33333333333337" y2="540.0" /><line stroke="gray" stroke-width="1" x1="537.4285714285714" x2="537.4285714285714" y1="273.33333333333337" y2="540.0" /><line stroke="gray" stroke-width="1" x1="544.8571428571429" x2="544.8571428571429" y1="273.33333333333337" y2="540.0" /><line stroke="gray" stroke-width="1" x1="552.2857142857143" x2="552.2857142857143" y1="273.33333333333337" y2="540.0" /><line stroke="gray" stroke-width="1" x1="559.7142857142858" x2="559.7142857142858" y1="273.33333333333337" y2="540.0" /><line stroke="gray" stroke-width="1" x1="567.1428571428571" x2="567.1428571428571" y1="273.33333333333337" y2="540.0" /><line stroke="gray" stroke-width="1" x1="574.5714285714286" x2="574.5714285714286" y1="273.33333333333337" y2="540.0" /><line stroke="gray" stroke-width="1" x1="582.0" x2="582.0" y1="273.33333333333337" y2="540.0" /><line stroke="gray" stroke-width="1" x1="589.4285714285714" x2="589.4285714285714" y1="273.33333333333337" y2="540.0" /><line stroke="gray" stroke-width="1" x1="596.8571428571429" x2="596.8571428571429" y1="273.33333333333337" y2="540.0" /><line stroke="gray" stroke-width="1" x1="604.2857142857143" x2="604.2857142857143" y1="273.33333333333337" y2="540.0" /><line stroke="gray" stroke-width="1" x1="611.7142857142858" x2="611.7142857142858" y1="273.33333333333337" y2="540.0" /><line stroke="gray" stroke-width="1" x1="619.1428571428571" x2="619.1428571428571" y1="273.33333333333337" y2="540.0" /><line stroke="gray" stroke-width="1" x1="626.5714285714286" x2="626.5714285714286" y1="273.33333333333337" y2="540.0" /><line stroke="gray" stroke-width="1" x1="634.0" x2="634.0" y1="273.33333333333337" y2="540.0" /><line stroke="gray" stroke-width="1" x1="641.4285714285714" x2="641.4285714285714" y1="273.33333333333337" y2="540.0" /><line stroke="gray" stroke-width="1" x1="648.8571428571429" x2="648.8571428571429" y1="273.33333333333337" y2="540.0" /><line stroke="gray" stroke-width="1" x1="656.2857142857143" x2="656.2857142857143" y1="273.33333333333337" y2="540.0" /><line stroke="gray" stroke-width="1" x1="663.7142857142858" x2="663.7142857142858" y1="273.33333333333337" y2="540.0" /><line stroke="gray" stroke-width="1" x1="671.1428571428571" x2="671.1428571428571" y1="273.33333333333337" y2="540.0" /><line stroke="gray" stroke-width="1" x1="678.5714285714286" x2="678.5714285714286" y1="273.33333333333337" y2="540.0" /><line stroke="gray" stroke-width="1" x1="686.0" x2="686.0" y1="273.33333333333337" y2="540.0" /><line stroke="gray" stroke-width="1" x1="693.4285714285714" x2="693.4285714285714" y1="273.33333333333337" y2="540.0" /><line stroke="gray" stroke-width="1" x1="700.8571428571429" x2="700.8571428571429" y1="273.33333333333337" y2="540.0" /><line stroke="gray" stroke-width="1" x1="708.2857142857143" x2="708.2857142857143" y1="273.33333333333337" y2="540.0" /><line stroke="gray" stroke-width="1" x1="715.7142857142858" x2="715.7142857142858" y1="273.33333333333337" y2="540.0" /><line stroke="gray" stroke-width="1" x1="723.1428571428571" x2="723.1428571428571" y1="273.33333333333337" y2="540.0" /><line stroke="gray" stroke-width="1" x1="730.5714285714286" x2="730.5714285714286" y1="273.33333333333337" y2="540.0" /><line stroke="gray" stroke-width="1" x1="738.0" x2="738.0" y1="273.33333333333337" y2="540.0" /><line stroke="gray" stroke-width="1" x1="745.4285714285714" x2="745.4285714285714" y1="273.33333333333337" y2="540.0" /><line stroke="gray" stroke-width="1" x1="752.8571428571429" x2="752.8571428571429" y1="273.33333333333337" y2="540.0" /><line stroke="gray" stroke-width="1" x1="760.2857142857143" x2="760.2857142857143" y1="273.33333333333337" y2="540.0" /><line stroke="gray" stroke-width="1" x1="767.7142857142858" x2="767.7142857142858" y1="273.33333333333337" y2="540.0" /><line stroke="gray" stroke-width="1" x1="775.1428571428572" x2="775.1428571428572" y1="273.33333333333337" y2="540.0" /><line stroke="gray" stroke-width="1" x1="782.5714285714286" x2="782.5714285714286" y1="273.33333333333337" y2="540.0" /><line stroke="gray" stroke-width="1" x1="790.0" x2="790.0" y1="273.33333333333337" y2="540.0" /></svg>