<?xml version="1.0" encoding="utf-8" ?>
<svg baseProfile="full" height="600.0" version="1.1" width="800.0" xmlns="http://www.w3.org/2000/svg" xmlns:ev="http://www.w3.org/2001/xml-events" xmlns:xlink="http://www.w3.org/1999/xlink"><defs /><rect fill="white" height="600.0" stroke="black" stroke-width="2" width="800.0" x="0" y="0" /><rect fill="lightgray" height="50.0" stroke="black" stroke-width="1" width="780.0" x="10.0" y="10.0" /><rect fill="lightgray" height="50.0" stroke="black" stroke-width="1" width="780.0" x="10.0" y="540.0" /><rect fill="none" height="480.0" stroke="blue" stroke-dasharray="4" stroke-width="1" width="780.0" x="10.0" y="60.0" /><rect fill="none" height="480.0" stroke="red" stroke-width="1" width="390.0" x="10.0" y="60.0" /><rect fill="lightgrey" height="53.333333333333336" stroke="black" stroke-width="1" width="390.0" x="10.0" y="60.0" /><text dominant-baseline="middle" font-size="10" text-anchor="middle" x="205.0" y="86.66666666666667">2025</text><rect fill="lightgrey" height="53.333333333333336" stroke="black" stroke-width="1" width="390.0" x="10.0" y="113.33333333333334" /><line stroke="black" stroke-width="1" x1="105.95238095238095" x2="105.95238095238095" y1="113.33333333333334" y2="166.66666666666669" /><text dominant-baseline="middle" font-size="10" text-anchor="middle" x="57.976190476190474" y="140.0">Jan</text><line stroke="black" stroke-width="1" x1="192.61904761904762" x2="192.61904761904762" y1="113.33333333333334" y2="166.66666666666669" /><text dominant-baseline="middle" font-size="10" text-anchor="middle" x="149.28571428571428" y="140.0">Feb</text><line stroke="black" stroke-width="1" x1="288.57142857142856" x2="288.57142857142856" y1="113.33333333333334" y2="166.66666666666669" /><text dominant-baseline="middle" font-size="10" text-anchor="middle" x="240.59523809523807" y="140.0">Mar</text><line stroke="black" stroke-width="1" x1="381.42857142857144" x2="381.42857142857144" y1="113.33333333333334" y2="166.66666666666669" /><text dominant-baseline="middle" font-size="10" text-anchor="middle" x="335.0" y="140.0">Apr</text><rect fill="lightgrey" height="53.333333333333336" stroke="black" stroke-width="1" width="390.0" x="10.0" y="166.66666666666669" /><line stroke="black" stroke-width="1" x1="25.476190476190474" x2="25.476190476190474" y1="166.66666666666669" y2="220.00000000000003" /><line stroke="black" stroke-width="1" x1="47.142857142857146" x2="47.142857142857146" y1="166.66666666666669" y2="220.00000000000003" /><text dominant-baseline="middle" font-size="10" text-anchor="middle" x="36.30952380952381" y="193.33333333333334">02</text><line stroke="black" stroke-width="1" x1="68.80952380952381" x2="68.80952380952381" y1="166.66666666666669" y2="220.00000000000003" /><text dominant-baseline="middle" font-size="10" text-anchor="middle" x="57.97619047619048" y="193.33333333333334">03</text><line stroke="black" stroke-width="1" x1="90.47619047619048" x2="90.47619047619048" y1="166.66666666666669" y2="220.00000000000003" /><text dominant-baseline="middle" font-size="10" text-anchor="middle" x="79.64285714285714" y="193.33333333333334">04</text><line stroke="black" stroke-width="1" x1="112.14285714285715" x2="112.14285714285715" y1="166.66666666666669" y2="220.00000000000003" /><text dominant-baseline="middle" font-size="10" text-anchor="middle" x="101.30952380952382" y="193.33333333333334">05</text><line stroke="black" stroke-width="1" x1="133.8095238095238" x2="133.8095238095238" y1="166.66666666666669" y2="220.00000000000003" /><text dominant-baseline="middle" font-size="10" text-anchor="middle" x="122.97619047619048" y="193.33333333333334">06</text><line stroke="black" stroke-width="1" x1="155.47619047619048" x2="155.47619047619048" y1="166.66666666666669" y2="220.00000000000003" /><text dominant-baseline="middle" font-size="10" text-anchor="middle" x="144.64285714285714" y="193.33333333333334">07</text><line stroke="black" stroke-width="1" x1="177.14285714285714" x2="177.14285714285714" y1="166.66666666666669" y2="220.00000000000003" /><text dominant-baseline="middle" font-size="10" text-anchor="middle" x="166.3095238095238" y="193.33333333333334">08</text><line stroke="black" stroke-width="1" x1="198.80952380952382" x2="198.80952380952382" y1="166.66666666666669" y2="220.00000000000003" /><text dominant-baseline="middle" font-size="10" text-anchor="middle" x="187.97619047619048" y="193.33333333333334">09</text><line stroke="black" stroke-width="1" x1="220.47619047619048" x2="220.47619047619048" y1="166.66666666666669" y2="220.00000000000003" /><text dominant-baseline="middle" font-size="10" text-anchor="middle" x="209.64285714285717" y="193.33333333333334">10</text><line stroke="black" stroke-width="1" x1="242.14285714285714" x2="242.14285714285714" y1="166.66666666666669" y2="220.00000000000003" /><text dominant-baseline="middle" font-size="10" text-anchor="middle" x="231.3095238095238" y="193.33333333333334">11</text><line stroke="black" stroke-width="1" x1="263.80952380952385" x2="263.80952380952385" y1="166.66666666666669" y2="220.00000000000003" /><text dominant-baseline="middle" font-size="10" text-anchor="middle" x="252.97619047619048" y="193.33333333333334">12</text><line stroke="black" stroke-width="1" x1="285.4761904761905" x2="285.4761904761905" y1="166.66666666666669" y2="220.00000000000003" /><text dominant-baseline="middle" font-size="10" text-anchor="middle" x="274.64285714285717" y="193.33333333333334">13</text><line stroke="black" stroke-width="1" x1="307.14285714285717" x2="307.14285714285717" y1="166.66666666666669" y2="220.00000000000003" /><text dominant-baseline="middle" font-size="10" text-anchor="middle" x="296.30952380952385" y="193.33333333333334">14</text><line stroke="black" stroke-width="1" x1="328.8095238095238" x2="328.8095238095238" y1="166.66666666666669" y2="220.00000000000003" /><text dominant-baseline="middle" font-size="10" text-anchor="middle" x="317.9761904761905" y="193.33333333333334">15</text><line stroke="black" stroke-width="1" x1="350.4761904761905" x2="350.4761904761905" y1="166.66666666666669" y2="220.00000000000003" /><text dominant-baseline="middle" font-size="10" text-anchor="middle" x="339.6428571428571" y="193.33333333333334">16</text><line stroke="black" stroke-width="1" x1="372.14285714285717" x2="372.14285714285717" y1="166.66666666666669" y2="220.00000000000003" /><text dominant-baseline="middle" font-size="10" text-anchor="middle" x="361.30952380952385" y="193.33333333333334">17</text><line stroke="black" stroke-width="1" x1="393.8095238095238" x2="393.8095238095238" y1="166.66666666666669" y2="220.00000000000003" /><text dominant-baseline="middle" font-size="10" text-anchor="middle" x="382.9761904761905" y="193.33333333333334">18</text><rect fill="lightgrey" height="53.333333333333336" stroke="black" stroke-width="1" width="390.0" x="10.0" y="220.00000000000003" /><rect fill="none" height="266.6666666666667" stroke="purple" stroke-width="1" width="390.0" x="10.0" y="273.33333333333337" /><line stroke="gray" stroke-width="1" x1="10.0" x2="400.0" y1="273.33333333333337" y2="273.33333333333337" /><line stroke="gray" stroke-width="1" x1="10.0" x2="400.0" y1="300.00000000000006" y2="300.00000000000006" /><line stroke="gray" stroke-width="1" x1="10.0" x2="400.0" y1="326.6666666666667" y2="326.6666666666667" /><line stroke="gray" stroke-width="1" x1="10.0" x2="400.0" y1="353.33333333333337" y2="353.33333333333337" /><line stroke="gray" stroke-width="1" x1="10.0" x2="400.0" y1="380.00000000000006" y2="380.00000000000006" /><line stroke="gray" stroke-width="1" x1="10.0" x2="400.0" y1="406.66666666666674" y2="406.66666666666674" /><line stroke="gray" stroke-width="1" x1="10.0" x2="400.0" y1="433.33333333333337" y2="433.33333333333337" /><line stroke="gray" stroke-width="1" x1="10.0" x2="400.0" y1="460.00000000000006" y2="460.00000000000006" /><line stroke="gray" stroke-width="1" x1="10.0" x2="400.0" y1="486.66666666666674" y2="486.66666666666674" /><line stroke="gray" stroke-width="1" x1="10.0" x2="400.0" y1="513.3333333333334" y2="513.3333333333334" /><line stroke="gray" stroke-width="1" x1="10.0" x2="400.0" y1="540.0" y2="540.0" /><line stroke="gray" stroke-width="1" x1="105.95238095238095" x2="105.95238095238095" y1="273.33333333333337" y2="540.0" /><line stroke="gray" stroke-width="1" x1="192.61904761904762" x2="192.61904761904762" y1="273.33333333333337" y2="540.0" /><line stroke="gray" stroke-width="1" x1="288.57142857142856" x2="288.57142857142856" y1="273.33333333333337" y2="540.0" /><line stroke="gray" stroke-width="1" x1="381.42857142857144" x2="381.42857142857144" y1="273.33333333333337" y2="540.0" /><line stroke="gray" stroke-width="1" x1="25.476190476190474" x2="25.476190476190474" y1="273.33333333333337" y2="540.0" /><line stroke="gray" stroke-width="1" x1="47.142857142857146" x2="47.142857142857146" y1="273.33333333333337" y2="540.0" /><line stroke="gray" stroke-width="1" x1="68.80952380952381" x2="68.80952380952381" y1="273.33333333333337" y2="540.0" /><line stroke="gray" stroke-width="1" x1="90.47619047619048" x2="90.47619047619048" y1="273.33333333333337" y2="540.0" /><line stroke="gray" stroke-width="1" x1="112.14285714285715" x2="112.14285714285715" y1="273.33333333333337" y2="540.0" /><line stroke="gray" stroke-width="1" x1="133.8095238095238" x2="133.8095238095238" y1="273.33333333333337" y2="540.0" /><line stroke="gray" stroke-width="1" x1="155.47619047619048" x2="155.47619047619048" y1="273.33333333333337" y2="540.0" /><line stroke="gray" stroke-width="1" x1="177.14285714285714" x2="177.14285714285714" y1="273.33333333333337" y2="540.0" /><line stroke="gray" stroke-width="1" x1="198.80952380952382" x2="198.80952380952382" y1="273.33333333333337" y2="540.0" /><line stroke="gray" stroke-width="1" x1="220.47619047619048" x2="220.47619047619048" y1="273.33333333333337" y2="540.0" /><line stroke="gray" stroke-width="1" x1="242.14285714285714" x2="242.14285714285714" y1="273.33333333333337" y2="540.0" /><line stroke="gray" stroke-width="1" x1="263.80952380952385" x2="263.80952380952385" y1="273.33333333333337" y2="540.0" /><line stroke="gray" stroke-width="1" x1="285.4761904761905" x2="285.4761904761905" y1="273.33333333333337" y2="540.0" /><line stroke="gray" stroke-width="1" x1="307.14285714285717" x2="307.14285714285717" y1="273.33333333333337" y2="540.0" /><line stroke="gray" stroke-width="1" x1="328.8095238095238" x2="328.8095238095238" y1="273.33333333333337" y2="540.0" /><line stroke="gray" stroke-width="1" x1="350.4761904761905" x2="350.4761904761905" y1="273.33333333333337" y2="540.0" /><line stroke="gray" stroke-width="1" x1="372.14285714285717" x2="372.14285714285717" y1="273.33333333333337" y2="540.0" /><line stroke="gray" stroke-width="1" x1="393.8095238095238" x2="393.8095238095238" y1="273.33333333333337" y2="540.0" /><line stroke="gray" stroke-width="1" x1="13.095238095238095" x2="13.095238095238095" y1="273.33333333333337" y2="540.0" /><line stroke="gray" stroke-width="1" x1="16.19047619047619" x2="16.19047619047619" y1="273.33333333333337" y2="540.0" /><line stroke="gray" stroke-width="1" x1="19.285714285714285" x2="19.285714285714285" y1="273.33333333333337" y2="540.0" /><line stroke="gray" stroke-width="1" x1="22.38095238095238" x2="22.38095238095238" y1="273.33333333333337" y2="540.0" /><line stroke="gray" stroke-width="1" x1="25.476190476190474" x2="25.476190476190474" y1="273.33333333333337" y2="540.0" /><line stroke="gray" stroke-width="1" x1="28.571428571428573" x2="28.571428571428573" y1="273.33333333333337" y2="540.0" /><line stroke="gray" stroke-width="1" x1="31.666666666666668" x2="31.666666666666668" y1="273.33333333333337" y2="540.0" /><line stroke="gray" stroke-width="1" x1="34.76190476190476" x2="34.76190476190476" y1="273.33333333333337" y2="540.0" /><line stroke="gray" stroke-width="1" x1="37.85714285714286" x2="37.85714285714286" y1="273.33333333333337" y2="540.0" /><line stroke="gray" stroke-width="1" x1="40.95238095238095" x2="40.95238095238095" y1="273.33333333333337" y2="540.0" /><line stroke="gray" stroke-width="1" x1="44.04761904761905" x2="44.04761904761905" y1="273.33333333333337" y2="540.0" /><line stroke="gray" stroke-width="1" x1="47.142857142857146" x2="47.142857142857146" y1="273.33333333333337" y2="540.0" /><line stroke="gray" stroke-width="1" x1="50.23809523809524" x2="50.23809523809524" y1="273.33333333333337" y2="540.0" /><line stroke="gray" stroke-width="1" x1="53.333333333333336" x2="53.333333333333336" y1="273.33333333333337" y2="540.0" /><line stroke="gray" stroke-width="1" x1="56.42857142857143" x2="56.42857142857143" y1="273.33333333333337" y2="540.0" /><line stroke="gray" stroke-width="1" x1="59.523809523809526" x2="59.523809523809526" y1="273.33333333333337" y2="540.0" /><line stroke="gray" stroke-width="1" x1="62.61904761904762" x2="62.61904761904762" y1="273.33333333333337" y2="540.0" /><line stroke="gray" stroke-width="1" x1="65.71428571428572" x2="65.71428571428572" y1="273.33333333333337" y2="540.0" /><line stroke="gray" stroke-width="1" x1="68.80952380952381" x2="68.80952380952381" y1="273.33333333333337" y2="540.0" /><line stroke="gray" stroke-width="1" x1="71.9047619047619" x2="71.9047619047619" y1="273.33333333333337" y2="540.0" /><line stroke="gray" stroke-width="1" x1="75.0" x2="75.0" y1="273.33333333333337" y2="540.0" /><line stroke="gray" stroke-width="1" x1="78.0952380952381" x2="78.0952380952381" y1="273.33333333333337" y2="540.0" /><line stroke="gray" stroke-width="1" x1="81.19047619047619" x2="81.19047619047619" y1="273.33333333333337" y2="540.0" /><line stroke="gray" stroke-width="1" x1="84.28571428571429" x2="84.28571428571429" y1="273.33333333333337" y2="540.0" /><line stroke="gray" stroke-width="1" x1="87.38095238095238" x2="87.38095238095238" y1="273.33333333333337" y2="540.0" /><line stroke="gray" stroke-width="1" x1="90.47619047619048" x2="90.47619047619048" y1="273.33333333333337" y2="540.0" /><line stroke="gray" stroke-width="1" x1="93.57142857142857" x2="93.57142857142857" y1="273.33333333333337" y2="540.0" /><line stroke="gray" stroke-width="1" x1="96.66666666666667" x2="96.66666666666667" y1="273.33333333333337" y2="540.0" /><line stroke="gray" stroke-width="1" x1="99.76190476190476" x2="99.76190476190476" y1="273.33333333333337" y2="540.0" /><line stroke="gray" stroke-width="1" x1="102.85714285714286" x2="102.85714285714286" y1="273.33333333333337" y2="540.0" /><line stroke="gray" stroke-width="1" x1="105.95238095238095" x2="105.95238095238095" y1="273.33333333333337" y2="540.0" /><line stroke="gray" stroke-width="1" x1="109.04761904761905" x2="109.04761904761905" y1="273.33333333333337" y2="540.0" /><line stroke="gray" stroke-width="1" x1="112.14285714285715" x2="112.14285714285715" y1="273.33333333333337" y2="540.0" /><line stroke="gray" stroke-width="1" x1="115.23809523809524" x2="115.23809523809524" y1="273.33333333333337" y2="540.0" /><line stroke="gray" stroke-width="1" x1="118.33333333333334" x2="118.33333333333334" y1="273.33333333333337" y2="540.0" /><line stroke="gray" stroke-width="1" x1="121.42857142857143" x2="121.42857142857143" y1="273.33333333333337" y2="540.0" /><line stroke="gray" stroke-width="1" x1="124.52380952380953" x2="124.52380952380953" y1="273.33333333333337" y2="540.0" /><line stroke="gray" stroke-width="1" x1="127.61904761904762" x2="127.61904761904762" y1="273.33333333333337" y2="540.0" /><line stroke="gray" stroke-width="1" x1="130.71428571428572" x2="130.71428571428572" y1="273.33333333333337" y2="540.0" /><line stroke="gray" stroke-width="1" x1="133.8095238095238" x2="133.8095238095238" y1="273.33333333333337" y2="540.0" /><line stroke="gray" stroke-width="1" x1="136.90476190476193" x2="136.90476190476193" y1="273.33333333333337" y2="540.0" /><line stroke="gray" stroke-width="1" x1="140.0" x2="140.0" y1="273.33333333333337" y2="540.0" /><line stroke="gray" stroke-width="1" x1="143.0952380952381" x2="143.0952380952381" y1="273.33333333333337" y2="540.0" /><line stroke="gray" stroke-width="1" x1="146.1904761904762" x2="146.1904761904762" y1="273.33333333333337" y2="540.0" /><line stroke="gray" stroke-width="1" x1="149.28571428571428" x2="149.28571428571428" y1="273.33333333333337" y2="540.0" /><line stroke="gray" stroke-width="1" x1="152.38095238095238" x2="152.38095238095238" y1="273.33333333333337" y2="540.0" /><line stroke="gray" stroke-width="1" x1="155.47619047619048" x2="155.47619047619048" y1="273.33333333333337" y2="540.0" /><line stroke="gray" stroke-width="1" x1="158.57142857142858" x2="158.57142857142858" y1="273.33333333333337" y2="540.0" /><line stroke="gray" stroke-width="1" x1="161.66666666666669" x2="161.66666666666669" y1="273.33333333333337" y2="540.0" /><line stroke="gray" stroke-width="1" x1="164.76190476190476" x2="164.76190476190476" y1="273.33333333333337" y2="540.0" /><line stroke="gray" stroke-width="1" x1="167.85714285714286" x2="167.85714285714286" y1="273.33333333333337" y2="540.0" /><line stroke="gray" stroke-width="1" x1="170.95238095238096" x2="170.95238095238096" y1="273.33333333333337" y2="540.0" /><line stroke="gray" stroke-width="1" x1="174.04761904761907" x2="174.04761904761907" y1="273.33333333333337" y2="540.0" /><line stroke="gray" stroke-width="1" x1="177.14285714285714" x2="177.14285714285714" y1="273.33333333333337" y2="540.0" /><line stroke="gray" stroke-width="1" x1="180.23809523809524" x2="180.23809523809524" y1="273.33333333333337" y2="540.0" /><line stroke="gray" stroke-width="1" x1="183.33333333333334" x2="183.33333333333334" y1="273.33333333333337" y2="540.0" /><line stroke="gray" stroke-width="1" x1="186.42857142857144" x2="186.42857142857144" y1="273.33333333333337" y2="540.0" /><line stroke="gray" stroke-width="1" x1="189.52380952380952" x2="189.52380952380952" y1="273.33333333333337" y2="540.0" /><line stroke="gray" stroke-width="1" x1="192.61904761904762" x2="192.61904761904762" y1="273.33333333333337" y2="540.0" /><line stroke="gray" stroke-width="1" x1="195.71428571428572" x2="195.71428571428572" y1="273.33333333333337" y2="540.0" /><line stroke="gray" stroke-width="1" x1="198.80952380952382" x2="198.80952380952382" y1="273.33333333333337" y2="540.0" /><line stroke="gray" stroke-width="1" x1="201.9047619047619" x2="201.9047619047619" y1="273.33333333333337" y2="540.0" /><line stroke="gray" stroke-width="1" x1="205.0" x2="205.0" y1="273.33333333333337" y2="540.0" /><line stroke="gray" stroke-width="1" x1="208.0952380952381" x2="208.0952380952381" y1="273.33333333333337" y2="540.0" /><line stroke="gray" stroke-width="1" x1="211.1904761904762" x2="211.1904761904762" y1="273.33333333333337" y2="540.0" /><line stroke="gray" stroke-width="1" x1="214.2857142857143" x2="214.2857142857143" y1="273.33333333333337" y2="540.0" /><line stroke="gray" stroke-width="1" x1="217.38095238095238" x2="217.38095238095238" y1="273.33333333333337" y2="540.0" /><line stroke="gray" stroke-width="1" x1="220.47619047619048" x2="220.47619047619048" y1="273.33333333333337" y2="540.0" /><line stroke="gray" stroke-width="1" x1="223.57142857142858" x2="223.57142857142858" y1="273.33333333333337" y2="540.0" /><line stroke="gray" stroke-width="1" x1="226.66666666666669" x2="226.66666666666669" y1="273.33333333333337" y2="540.0" /><line stroke="gray" stroke-width="1" x1="229.76190476190476" x2="229.76190476190476" y1="273.33333333333337" y2="540.0" /><line stroke="gray" stroke-width="1" x1="232.85714285714286" x2="232.85714285714286" y1="273.33333333333337" y2="540.0" /><line stroke="gray" stroke-width="1" x1="235.95238095238096" x2="235.95238095238096" y1="273.33333333333337" y2="540.0" /><line stroke="gray" stroke-width="1" x1="239.04761904761907" x2="239.04761904761907" y1="273.33333333333337" y2="540.0" /><line stroke="gray" stroke-width="1" x1="242.14285714285714" x2="242.14285714285714" y1="273.33333333333337" y2="540.0" /><line stroke="gray" stroke-width="1" x1="245.23809523809524" x2="245.23809523809524" y1="273.33333333333337" y2="540.0" /><line stroke="gray" stroke-width="1" x1="248.33333333333334" x2="248.33333333333334" y1="273.33333333333337" y2="540.0" /><line stroke="gray" stroke-width="1" x1="251.42857142857144" x2="251.42857142857144" y1="273.33333333333337" y2="540.0" /><line stroke="gray" stroke-width="1" x1="254.52380952380952" x2="254.52380952380952" y1="273.33333333333337" y2="540.0" /><line stroke="gray" stroke-width="1" x1="257.6190476190476" x2="257.6190476190476" y1="273.33333333333337" y2="540.0" /><line stroke="gray" stroke-width="1" x1="260.7142857142857" x2="260.7142857142857" y1="273.33333333333337" y2="540.0" /><line stroke="gray" stroke-width="1" x1="263.80952380952385" x2="263.80952380952385" y1="273.33333333333337" y2="540.0" /><line stroke="gray" stroke-width="1" x1="266.9047619047619" x2="266.9047619047619" y1="273.33333333333337" y2="540.0" /><line stroke="gray" stroke-width="1" x1="270.0" x2="270.0" y1="273.33333333333337" y2="540.0" /><line stroke="gray" stroke-width="1" x1="273.09523809523813" x2="273.09523809523813" y1="273.33333333333337" y2="540.0" /><line stroke="gray" stroke-width="1" x1="276.1904761904762" x2="276.1904761904762" y1="273.33333333333337" y2="540.0" /><line stroke="gray" stroke-width="1" x1="279.2857142857143" x2="279.2857142857143" y1="273.33333333333337" y2="540.0" /><line stroke="gray" stroke-width="1" x1="282.3809523809524" x2="282.3809523809524" y1="273.33333333333337" y2="540.0" /><line stroke="gray" stroke-width="1" x1="285.4761904761905" x2="285.4761904761905" y1="273.33333333333337" y2="540.0" /><line stroke="gray" stroke-width="1" x1="288.57142857142856" x2="288.57142857142856" y1="273.33333333333337" y2="540.0" /><line stroke="gray" stroke-width="1" x1="291.6666666666667" x2="291.6666666666667" y1="273.33333333333337" y2="540.0" /><line stroke="gray" stroke-width="1" x1="294.76190476190476" x2="294.76190476190476" y1="273.33333333333337" y2="540.0" /><line stroke="gray" stroke-width="1" x1="297.8571428571429" x2="297.8571428571429" y1="273.33333333333337" y2="540.0" /><line stroke="gray" stroke-width="1" x1="300.95238095238096" x2="300.95238095238096" y1="273.33333333333337" y2="540.0" /><line stroke="gray" stroke-width="1" x1="304.04761904761904" x2="304.04761904761904" y1="273.33333333333337" y2="540.0" /><line stroke="gray" stroke-width="1" x1="307.14285714285717" x2="307.14285714285717" y1="273.33333333333337" y2="540.0" /><line stroke="gray" stroke-width="1" x1="310.23809523809524" x2="310.23809523809524" y1="273.33333333333337" y2="540.0" /><line stroke="gray" stroke-width="1" x1="313.33333333333337" x2="313.33333333333337" y1="273.33333333333337" y2="540.0" /><line stroke="gray" stroke-width="1" x1="316.42857142857144" x2="316.42857142857144" y1="273.33333333333337" y2="540.0" /><line stroke="gray" stroke-width="1" x1="319.5238095238095" x2="319.5238095238095" y1="273.33333333333337" y2="540.0" /><line stroke="gray" stroke-width="1" x1="322.61904761904765" x2="322.61904761904765" y1="273.33333333333337" y2="540.0" /><line stroke="gray" stroke-width="1" x1="325.7142857142857" x2="325.7142857142857" y1="273.33333333333337" y2="540.0" /><line stroke="gray" stroke-width="1" x1="328.8095238095238" x2="328.8095238095238" y1="273.33333333333337" y2="540.0" /><line stroke="gray" stroke-width="1" x1="331.9047619047619" x2="331.9047619047619" y1="273.33333333333337" y2="540.0" /><line stroke="gray" stroke-width="1" x1="335.0" x2="335.0" y1="273.33333333333337" y2="540.0" /><line stroke="gray" stroke-width="1" x1="338.09523809523813" x2="338.09523809523813" y1="273.33333333333337" y2="540.0" /><line stroke="gray" stroke-width="1" x1="341.1904761904762" x2="341.1904761904762" y1="273.33333333333337" y2="540.0" /><line stroke="gray" stroke-width="1" x1="344.2857142857143" x2="344.2857142857143" y1="273.33333333333337" y2="540.0" /><line stroke="gray" stroke-width="1" x1="347.3809523809524" x2="347.3809523809524" y1="273.33333333333337" y2="540.0" /><line stroke="gray" stroke-width="1" x1="350.4761904761905" x2="350.4761904761905" y1="273.33333333333337" y2="540.0" /><line stroke="gray" stroke-width="1" x1="353.57142857142856" x2="353.57142857142856" y1="273.33333333333337" y2="540.0" /><line stroke="gray" stroke-width="1" x1="356.6666666666667" x2="356.6666666666667" y1="273.33333333333337" y2="540.0" /><line stroke="gray" stroke-width="1" x1="359.76190476190476" x2="359.76190476190476" y1="273.33333333333337" y2="540.0" /><line stroke="gray" stroke-width="1" x1="362.8571428571429" x2="362.8571428571429" y1="273.33333333333337" y2="540.0" /><line stroke="gray" stroke-width="1" x1="365.95238095238096" x2="365.95238095238096" y1="273.33333333333337" y2="540.0" /><line stroke="gray" stroke-width="1" x1="369.04761904761904" x2="369.04761904761904" y1="273.33333333333337" y2="540.0" /><line stroke="gray" stroke-width="1" x1="372.14285714285717" x2="372.14285714285717" y1="273.33333333333337" y2="540.0" /><line stroke="gray" stroke-width="1" x1="375.23809523809524" x2="375.23809523809524" y1="273.33333333333337" y2="540.0" /><line stroke="gray" stroke-width="1" x1="378.33333333333337" x2="378.33333333333337" y1="273.33333333333337" y2="540.0" /><line stroke="gray" stroke-width="1" x1="381.42857142857144" x2="381.42857142857144" y1="273.33333333333337" y2="540.0" /><line stroke="gray" stroke-width="1" x1="384.5238095238095" x2="384.5238095238095" y1="273.33333333333337" y2="540.0" /><line stroke="gray" stroke-width="1" x1="387.61904761904765" x2="387.61904761904765" y1="273.33333333333337" y2="540.0" /><line stroke="gray" stroke-width="1" x1="390.7142857142857" x2="390.7142857142857" y1="273.33333333333337" y2="540.0" /><line stroke="gray" stroke-width="1" x1="393.8095238095238" x2="393.8095238095238" y1="273.33333333333337" y2="540.0" /><line stroke="gray" stroke-width="1" x1="396.9047619047619" x2="396.9047619047619" y1="273.33333333333337" y2="540.0" /><line stroke="gray" stroke-width="1" x1="400.0" x2="400.0" y1="273.33333333333337" y2="540.0" /><rect fill="blue" height="21.333333333333336" width="3.0952380952380953" x="378.33333333333337" y="276.00000000000006" /><text fill="white" font-family="Arial" font-size="10" text-anchor="start" x="378.33333333333337" y="289.66666666666674" /><rect fill="blue" height="21.333333333333336" width="3.0952380952380953" x="378.33333333333337" y="276.00000000000006" /><text fill="white" font-family="Arial" font-size="10" text-anchor="start" x="378.33333333333337" y="289.66666666666674" /><rect fill="blue" height="21.333333333333336" width="3.0952380952380953" x="378.33333333333337" y="302.66666666666674" /><text fill="white" font-family="Arial" font-size="10" text-anchor="start" x="378.33333333333337" y="316.3333333333334" /><rect fill="blue" height="21.333333333333336" width="3.0952380952380953" x="378.33333333333337" y="276.00000000000006" /><text fill="white" font-family="Arial" font-size="10" text-anchor="start" x="378.33333333333337" y="289.66666666666674" /><rect fill="blue" height="21.333333333333336" width="3.0952380952380953" x="378.33333333333337" y="276.00000000000006" /><text fill="white" font-family="Arial" font-size="10" text-anchor="start" x="378.33333333333337" y="289.66666666666674" /><rect fill="blue" height="21.333333333333336" width="3.0952380952380953" x="378.33333333333337" y="276.00000000000006" /><text fill="white" font-family="Arial" font-size="10" text-anchor="start" x="378.33333333333337" y="289.66666666666674" /></svg>