<?xml version="1.0" encoding="utf-8" ?>
<svg baseProfile="full" height="600.0" version="1.1" width="800.0" xmlns="http://www.w3.org/2000/svg" xmlns:ev="http://www.w3.org/2001/xml-events" xmlns:xlink="http://www.w3.org/1999/xlink"><defs /><rect fill="white" height="600.0" stroke="black" stroke-width="2" width="800.0" x="0" y="0" /><rect fill="lightgray" height="50.0" stroke="black" stroke-width="1" width="780.0" x="10.0" y="10.0" /><text font-size="14" text-anchor="middle" x="400.0" y="35.0">test</text><rect fill="lightgray" height="50.0" stroke="black" stroke-width="1" width="780.0" x="10.0" y="540.0" /><rect fill="none" height="480.0" stroke="blue" stroke-dasharray="4" stroke-width="1" width="780.0" x="10.0" y="60.0" /><rect fill="none" height="480.0" stroke="red" stroke-width="1" width="546.0" x="10.0" y="60.0" /><rect fill="lightgrey" height="53.333333333333336" stroke="black" stroke-width="1" width="546.0" x="10.0" y="60.0" /><text dominant-baseline="middle" font-size="10" text-anchor="middle" x="283.0" y="86.66666666666667">2025</text><rect fill="lightgrey" height="53.333333333333336" stroke="black" stroke-width="1" width="546.0" x="10.0" y="113.33333333333334" /><line stroke="black" stroke-width="1" x1="196.0" x2="196.0" y1="113.33333333333334" y2="166.66666666666669" /><text dominant-baseline="middle" font-size="10" text-anchor="middle" x="103.0" y="140.0">Jan</text><line stroke="black" stroke-width="1" x1="364.0" x2="364.0" y1="113.33333333333334" y2="166.66666666666669" /><text dominant-baseline="middle" font-size="10" text-anchor="middle" x="280.0" y="140.0">Feb</text><line stroke="black" stroke-width="1" x1="550.0" x2="550.0" y1="113.33333333333334" y2="166.66666666666669" /><text dominant-baseline="middle" font-size="10" text-anchor="middle" x="457.0" y="140.0">Mar</text><rect fill="lightgrey" height="53.333333333333336" stroke="black" stroke-width="1" width="546.0" x="10.0" y="166.66666666666669" /><line stroke="black" stroke-width="1" x1="40.0" x2="40.0" y1="166.66666666666669" y2="220.00000000000003" /><text dominant-baseline="middle" font-size="10" text-anchor="middle" x="25.0" y="193.33333333333334">01</text><line stroke="black" stroke-width="1" x1="82.0" x2="82.0" y1="166.66666666666669" y2="220.00000000000003" /><text dominant-baseline="middle" font-size="10" text-anchor="middle" x="61.0" y="193.33333333333334">02</text><line stroke="black" stroke-width="1" x1="124.0" x2="124.0" y1="166.66666666666669" y2="220.00000000000003" /><text dominant-baseline="middle" font-size="10" text-anchor="middle" x="103.0" y="193.33333333333334">03</text><line stroke="black" stroke-width="1" x1="166.0" x2="166.0" y1="166.66666666666669" y2="220.00000000000003" /><text dominant-baseline="middle" font-size="10" text-anchor="middle" x="145.0" y="193.33333333333334">04</text><line stroke="black" stroke-width="1" x1="208.0" x2="208.0" y1="166.66666666666669" y2="220.00000000000003" /><text dominant-baseline="middle" font-size="10" text-anchor="middle" x="187.0" y="193.33333333333334">05</text><line stroke="black" stroke-width="1" x1="250.0" x2="250.0" y1="166.66666666666669" y2="220.00000000000003" /><text dominant-baseline="middle" font-size="10" text-anchor="middle" x="229.0" y="193.33333333333334">06</text><line stroke="black" stroke-width="1" x1="292.0" x2="292.0" y1="166.66666666666669" y2="220.00000000000003" /><text dominant-baseline="middle" font-size="10" text-anchor="middle" x="271.0" y="193.33333333333334">07</text><line stroke="black" stroke-width="1" x1="334.0" x2="334.0" y1="166.66666666666669" y2="220.00000000000003" /><text dominant-baseline="middle" font-size="10" text-anchor="middle" x="313.0" y="193.33333333333334">08</text><line stroke="black" stroke-width="1" x1="376.0" x2="376.0" y1="166.66666666666669" y2="220.00000000000003" /><text dominant-baseline="middle" font-size="10" text-anchor="middle" x="355.0" y="193.33333333333334">09</text><line stroke="black" stroke-width="1" x1="418.0" x2="418.0" y1="166.66666666666669" y2="220.00000000000003" /><text dominant-baseline="middle" font-size="10" text-anchor="middle" x="397.0" y="193.33333333333334">10</text><line stroke="black" stroke-width="1" x1="460.0" x2="460.0" y1="166.66666666666669" y2="220.00000000000003" /><text dominant-baseline="middle" font-size="10" text-anchor="middle" x="439.0" y="193.33333333333334">11</text><line stroke="black" stroke-width="1" x1="502.0" x2="502.0" y1="166.66666666666669" y2="220.00000000000003" /><text dominant-baseline="middle" font-size="10" text-anchor="middle" x="481.0" y="193.33333333333334">12</text><line stroke="black" stroke-width="1" x1="544.0" x2="544.0" y1="166.66666666666669" y2="220.00000000000003" /><text dominant-baseline="middle" font-size="10" text-anchor="middle" x="523.0" y="193.33333333333334">13</text><rect fill="lightgrey" height="53.333333333333336" stroke="black" stroke-width="1" width="546.0" x="10.0" y="220.00000000000003" /><line stroke="black" stroke-width="1" x1="16.0" x2="16.0" y1="220.00000000000003" y2="273.33333333333337" /><line stroke="black" stroke-width="1" x1="22.0" x2="22.0" y1="220.00000000000003" y2="273.33333333333337" /><line stroke="black" stroke-width="1" x1="28.0" x2="28.0" y1="220.00000000000003" y2="273.33333333333337" /><line stroke="black" stroke-width="1" x1="34.0" x2="34.0" y1="220.00000000000003" y2="273.33333333333337" /><line stroke="black" stroke-width="1" x1="40.0" x2="40.0" y1="220.00000000000003" y2="273.33333333333337" /><line stroke="black" stroke-width="1" x1="46.0" x2="46.0" y1="220.00000000000003" y2="273.33333333333337" /><line stroke="black" stroke-width="1" x1="52.0" x2="52.0" y1="220.00000000000003" y2="273.33333333333337" /><line stroke="black" stroke-width="1" x1="58.0" x2="58.0" y1="220.00000000000003" y2="273.33333333333337" /><line stroke="black" stroke-width="1" x1="64.0" x2="64.0" y1="220.00000000000003" y2="273.33333333333337" /><line stroke="black" stroke-width="1" x1="70.0" x2="70.0" y1="220.00000000000003" y2="273.33333333333337" /><line stroke="black" stroke-width="1" x1="76.0" x2="76.0" y1="220.00000000000003" y2="273.33333333333337" /><line stroke="black" stroke-width="1" x1="82.0" x2="82.0" y1="220.00000000000003" y2="273.33333333333337" /><line stroke="black" stroke-width="1" x1="88.0" x2="88.0" y1="220.00000000000003" y2="273.33333333333337" /><line stroke="black" stroke-width="1" x1="94.0" x2="94.0" y1="220.00000000000003" y2="273.33333333333337" /><line stroke="black" stroke-width="1" x1="100.0" x2="100.0" y1="220.00000000000003" y2="273.33333333333337" /><line stroke="black" stroke-width="1" x1="106.0" x2="106.0" y1="220.00000000000003" y2="273.33333333333337" /><line stroke="black" stroke-width="1" x1="112.0" x2="112.0" y1="220.00000000000003" y2="273.33333333333337" /><line stroke="black" stroke-width="1" x1="118.0" x2="118.0" y1="220.00000000000003" y2="273.33333333333337" /><line stroke="black" stroke-width="1" x1="124.0" x2="124.0" y1="220.00000000000003" y2="273.33333333333337" /><line stroke="black" stroke-width="1" x1="130.0" x2="130.0" y1="220.00000000000003" y2="273.33333333333337" /><line stroke="black" stroke-width="1" x1="136.0" x2="136.0" y1="220.00000000000003" y2="273.33333333333337" /><line stroke="black" stroke-width="1" x1="142.0" x2="142.0" y1="220.00000000000003" y2="273.33333333333337" /><line stroke="black" stroke-width="1" x1="148.0" x2="148.0" y1="220.00000000000003" y2="273.33333333333337" /><line stroke="black" stroke-width="1" x1="154.0" x2="154.0" y1="220.00000000000003" y2="273.33333333333337" /><line stroke="black" stroke-width="1" x1="160.0" x2="160.0" y1="220.00000000000003" y2="273.33333333333337" /><line stroke="black" stroke-width="1" x1="166.0" x2="166.0" y1="220.00000000000003" y2="273.33333333333337" /><line stroke="black" stroke-width="1" x1="172.0" x2="172.0" y1="220.00000000000003" y2="273.33333333333337" /><line stroke="black" stroke-width="1" x1="178.0" x2="178.0" y1="220.00000000000003" y2="273.33333333333337" /><line stroke="black" stroke-width="1" x1="184.0" x2="184.0" y1="220.00000000000003" y2="273.33333333333337" /><line stroke="black" stroke-width="1" x1="190.0" x2="190.0" y1="220.00000000000003" y2="273.33333333333337" /><line stroke="black" stroke-width="1" x1="196.0" x2="196.0" y1="220.00000000000003" y2="273.33333333333337" /><line stroke="black" stroke-width="1" x1="202.0" x2="202.0" y1="220.00000000000003" y2="273.33333333333337" /><line stroke="black" stroke-width="1" x1="208.0" x2="208.0" y1="220.00000000000003" y2="273.33333333333337" /><line stroke="black" stroke-width="1" x1="214.0" x2="214.0" y1="220.00000000000003" y2="273.33333333333337" /><line stroke="black" stroke-width="1" x1="220.0" x2="220.0" y1="220.00000000000003" y2="273.33333333333337" /><line stroke="black" stroke-width="1" x1="226.0" x2="226.0" y1="220.00000000000003" y2="273.33333333333337" /><line stroke="black" stroke-width="1" x1="232.0" x2="232.0" y1="220.00000000000003" y2="273.33333333333337" /><line stroke="black" stroke-width="1" x1="238.0" x2="238.0" y1="220.00000000000003" y2="273.33333333333337" /><line stroke="black" stroke-width="1" x1="244.0" x2="244.0" y1="220.00000000000003" y2="273.33333333333337" /><line stroke="black" stroke-width="1" x1="250.0" x2="250.0" y1="220.00000000000003" y2="273.33333333333337" /><line stroke="black" stroke-width="1" x1="256.0" x2="256.0" y1="220.00000000000003" y2="273.33333333333337" /><line stroke="black" stroke-width="1" x1="262.0" x2="262.0" y1="220.00000000000003" y2="273.33333333333337" /><line stroke="black" stroke-width="1" x1="268.0" x2="268.0" y1="220.00000000000003" y2="273.33333333333337" /><line stroke="black" stroke-width="1" x1="274.0" x2="274.0" y1="220.00000000000003" y2="273.33333333333337" /><line stroke="black" stroke-width="1" x1="280.0" x2="280.0" y1="220.00000000000003" y2="273.33333333333337" /><line stroke="black" stroke-width="1" x1="286.0" x2="286.0" y1="220.00000000000003" y2="273.33333333333337" /><line stroke="black" stroke-width="1" x1="292.0" x2="292.0" y1="220.00000000000003" y2="273.33333333333337" /><line stroke="black" stroke-width="1" x1="298.0" x2="298.0" y1="220.00000000000003" y2="273.33333333333337" /><line stroke="black" stroke-width="1" x1="304.0" x2="304.0" y1="220.00000000000003" y2="273.33333333333337" /><line stroke="black" stroke-width="1" x1="310.0" x2="310.0" y1="220.00000000000003" y2="273.33333333333337" /><line stroke="black" stroke-width="1" x1="316.0" x2="316.0" y1="220.00000000000003" y2="273.33333333333337" /><line stroke="black" stroke-width="1" x1="322.0" x2="322.0" y1="220.00000000000003" y2="273.33333333333337" /><line stroke="black" stroke-width="1" x1="328.0" x2="328.0" y1="220.00000000000003" y2="273.33333333333337" /><line stroke="black" stroke-width="1" x1="334.0" x2="334.0" y1="220.00000000000003" y2="273.33333333333337" /><line stroke="black" stroke-width="1" x1="340.0" x2="340.0" y1="220.00000000000003" y2="273.33333333333337" /><line stroke="black" stroke-width="1" x1="346.0" x2="346.0" y1="220.00000000000003" y2="273.33333333333337" /><line stroke="black" stroke-width="1" x1="352.0" x2="352.0" y1="220.00000000000003" y2="273.33333333333337" /><line stroke="black" stroke-width="1" x1="358.0" x2="358.0" y1="220.00000000000003" y2="273.33333333333337" /><line stroke="black" stroke-width="1" x1="364.0" x2="364.0" y1="220.00000000000003" y2="273.33333333333337" /><line stroke="black" stroke-width="1" x1="370.0" x2="370.0" y1="220.00000000000003" y2="273.33333333333337" /><line stroke="black" stroke-width="1" x1="376.0" x2="376.0" y1="220.00000000000003" y2="273.33333333333337" /><line stroke="black" stroke-width="1" x1="382.0" x2="382.0" y1="220.00000000000003" y2="273.33333333333337" /><line stroke="black" stroke-width="1" x1="388.0" x2="388.0" y1="220.00000000000003" y2="273.33333333333337" /><line stroke="black" stroke-width="1" x1="394.0" x2="394.0" y1="220.00000000000003" y2="273.33333333333337" /><line stroke="black" stroke-width="1" x1="400.0" x2="400.0" y1="220.00000000000003" y2="273.33333333333337" /><line stroke="black" stroke-width="1" x1="406.0" x2="406.0" y1="220.00000000000003" y2="273.33333333333337" /><line stroke="black" stroke-width="1" x1="412.0" x2="412.0" y1="220.00000000000003" y2="273.33333333333337" /><line stroke="black" stroke-width="1" x1="418.0" x2="418.0" y1="220.00000000000003" y2="273.33333333333337" /><line stroke="black" stroke-width="1" x1="424.0" x2="424.0" y1="220.00000000000003" y2="273.33333333333337" /><line stroke="black" stroke-width="1" x1="430.0" x2="430.0" y1="220.00000000000003" y2="273.33333333333337" /><line stroke="black" stroke-width="1" x1="436.0" x2="436.0" y1="220.00000000000003" y2="273.33333333333337" /><line stroke="black" stroke-width="1" x1="442.0" x2="442.0" y1="220.00000000000003" y2="273.33333333333337" /><line stroke="black" stroke-width="1" x1="448.0" x2="448.0" y1="220.00000000000003" y2="273.33333333333337" /><line stroke="black" stroke-width="1" x1="454.0" x2="454.0" y1="220.00000000000003" y2="273.33333333333337" /><line stroke="black" stroke-width="1" x1="460.0" x2="460.0" y1="220.00000000000003" y2="273.33333333333337" /><line stroke="black" stroke-width="1" x1="466.0" x2="466.0" y1="220.00000000000003" y2="273.33333333333337" /><line stroke="black" stroke-width="1" x1="472.0" x2="472.0" y1="220.00000000000003" y2="273.33333333333337" /><line stroke="black" stroke-width="1" x1="478.0" x2="478.0" y1="220.00000000000003" y2="273.33333333333337" /><line stroke="black" stroke-width="1" x1="484.0" x2="484.0" y1="220.00000000000003" y2="273.33333333333337" /><line stroke="black" stroke-width="1" x1="490.0" x2="490.0" y1="220.00000000000003" y2="273.33333333333337" /><line stroke="black" stroke-width="1" x1="496.0" x2="496.0" y1="220.00000000000003" y2="273.33333333333337" /><line stroke="black" stroke-width="1" x1="502.0" x2="502.0" y1="220.00000000000003" y2="273.33333333333337" /><line stroke="black" stroke-width="1" x1="508.0" x2="508.0" y1="220.00000000000003" y2="273.33333333333337" /><line stroke="black" stroke-width="1" x1="514.0" x2="514.0" y1="220.00000000000003" y2="273.33333333333337" /><line stroke="black" stroke-width="1" x1="520.0" x2="520.0" y1="220.00000000000003" y2="273.33333333333337" /><line stroke="black" stroke-width="1" x1="526.0" x2="526.0" y1="220.00000000000003" y2="273.33333333333337" /><line stroke="black" stroke-width="1" x1="532.0" x2="532.0" y1="220.00000000000003" y2="273.33333333333337" /><line stroke="black" stroke-width="1" x1="538.0" x2="538.0" y1="220.00000000000003" y2="273.33333333333337" /><line stroke="black" stroke-width="1" x1="544.0" x2="544.0" y1="220.00000000000003" y2="273.33333333333337" /><line stroke="black" stroke-width="1" x1="550.0" x2="550.0" y1="220.00000000000003" y2="273.33333333333337" /><line stroke="black" stroke-width="1" x1="556.0" x2="556.0" y1="220.00000000000003" y2="273.33333333333337" /><rect fill="none" height="266.6666666666667" stroke="purple" stroke-width="1" width="546.0" x="10.0" y="273.33333333333337" /><line stroke="gray" stroke-width="1" x1="10.0" x2="556.0" y1="273.33333333333337" y2="273.33333333333337" /><line stroke="gray" stroke-width="1" x1="10.0" x2="556.0" y1="300.00000000000006" y2="300.00000000000006" /><line stroke="gray" stroke-width="1" x1="10.0" x2="556.0" y1="326.6666666666667" y2="326.6666666666667" /><line stroke="gray" stroke-width="1" x1="10.0" x2="556.0" y1="353.33333333333337" y2="353.33333333333337" /><line stroke="gray" stroke-width="1" x1="10.0" x2="556.0" y1="380.00000000000006" y2="380.00000000000006" /><line stroke="gray" stroke-width="1" x1="10.0" x2="556.0" y1="406.66666666666674" y2="406.66666666666674" /><line stroke="gray" stroke-width="1" x1="10.0" x2="556.0" y1="433.33333333333337" y2="433.33333333333337" /><line stroke="gray" stroke-width="1" x1="10.0" x2="556.0" y1="460.00000000000006" y2="460.00000000000006" /><line stroke="gray" stroke-width="1" x1="10.0" x2="556.0" y1="486.66666666666674" y2="486.66666666666674" /><line stroke="gray" stroke-width="1" x1="10.0" x2="556.0" y1="513.3333333333334" y2="513.3333333333334" /><line stroke="gray" stroke-width="1" x1="10.0" x2="556.0" y1="540.0" y2="540.0" /><line stroke="gray" stroke-width="1" x1="196.0" x2="196.0" y1="273.33333333333337" y2="540.0" /><line stroke="gray" stroke-width="1" x1="364.0" x2="364.0" y1="273.33333333333337" y2="540.0" /><line stroke="gray" stroke-width="1" x1="550.0" x2="550.0" y1="273.33333333333337" y2="540.0" /><line stroke="gray" stroke-width="1" x1="40.0" x2="40.0" y1="273.33333333333337" y2="540.0" /><line stroke="gray" stroke-width="1" x1="82.0" x2="82.0" y1="273.33333333333337" y2="540.0" /><line stroke="gray" stroke-width="1" x1="124.0" x2="124.0" y1="273.33333333333337" y2="540.0" /><line stroke="gray" stroke-width="1" x1="166.0" x2="166.0" y1="273.33333333333337" y2="540.0" /><line stroke="gray" stroke-width="1" x1="208.0" x2="208.0" y1="273.33333333333337" y2="540.0" /><line stroke="gray" stroke-width="1" x1="250.0" x2="250.0" y1="273.33333333333337" y2="540.0" /><line stroke="gray" stroke-width="1" x1="292.0" x2="292.0" y1="273.33333333333337" y2="540.0" /><line stroke="gray" stroke-width="1" x1="334.0" x2="334.0" y1="273.33333333333337" y2="540.0" /><line stroke="gray" stroke-width="1" x1="376.0" x2="376.0" y1="273.33333333333337" y2="540.0" /><line stroke="gray" stroke-width="1" x1="418.0" x2="418.0" y1="273.33333333333337" y2="540.0" /><line stroke="gray" stroke-width="1" x1="460.0" x2="460.0" y1="273.33333333333337" y2="540.0" /><line stroke="gray" stroke-width="1" x1="502.0" x2="502.0" y1="273.33333333333337" y2="540.0" /><line stroke="gray" stroke-width="1" x1="544.0" x2="544.0" y1="273.33333333333337" y2="540.0" /><line stroke="gray" stroke-width="1" x1="16.0" x2="16.0" y1="273.33333333333337" y2="540.0" /><line stroke="gray" stroke-width="1" x1="22.0" x2="22.0" y1="273.33333333333337" y2="540.0" /><line stroke="gray" stroke-width="1" x1="28.0" x2="28.0" y1="273.33333333333337" y2="540.0" /><line stroke="gray" stroke-width="1" x1="34.0" x2="34.0" y1="273.33333333333337" y2="540.0" /><line stroke="gray" stroke-width="1" x1="40.0" x2="40.0" y1="273.33333333333337" y2="540.0" /><line stroke="gray" stroke-width="1" x1="46.0" x2="46.0" y1="273.33333333333337" y2="540.0" /><line stroke="gray" stroke-width="1" x1="52.0" x2="52.0" y1="273.33333333333337" y2="540.0" /><line stroke="gray" stroke-width="1" x1="58.0" x2="58.0" y1="273.33333333333337" y2="540.0" /><line stroke="gray" stroke-width="1" x1="64.0" x2="64.0" y1="273.33333333333337" y2="540.0" /><line stroke="gray" stroke-width="1" x1="70.0" x2="70.0" y1="273.33333333333337" y2="540.0" /><line stroke="gray" stroke-width="1" x1="76.0" x2="76.0" y1="273.33333333333337" y2="540.0" /><line stroke="gray" stroke-width="1" x1="82.0" x2="82.0" y1="273.33333333333337" y2="540.0" /><line stroke="gray" stroke-width="1" x1="88.0" x2="88.0" y1="273.33333333333337" y2="540.0" /><line stroke="gray" stroke-width="1" x1="94.0" x2="94.0" y1="273.33333333333337" y2="540.0" /><line stroke="gray" stroke-width="1" x1="100.0" x2="100.0" y1="273.33333333333337" y2="540.0" /><line stroke="gray" stroke-width="1" x1="106.0" x2="106.0" y1="273.33333333333337" y2="540.0" /><line stroke="gray" stroke-width="1" x1="112.0" x2="112.0" y1="273.33333333333337" y2="540.0" /><line stroke="gray" stroke-width="1" x1="118.0" x2="118.0" y1="273.33333333333337" y2="540.0" /><line stroke="gray" stroke-width="1" x1="124.0" x2="124.0" y1="273.33333333333337" y2="540.0" /><line stroke="gray" stroke-width="1" x1="130.0" x2="130.0" y1="273.33333333333337" y2="540.0" /><line stroke="gray" stroke-width="1" x1="136.0" x2="136.0" y1="273.33333333333337" y2="540.0" /><line stroke="gray" stroke-width="1" x1="142.0" x2="142.0" y1="273.33333333333337" y2="540.0" /><line stroke="gray" stroke-width="1" x1="148.0" x2="148.0" y1="273.33333333333337" y2="540.0" /><line stroke="gray" stroke-width="1" x1="154.0" x2="154.0" y1="273.33333333333337" y2="540.0" /><line stroke="gray" stroke-width="1" x1="160.0" x2="160.0" y1="273.33333333333337" y2="540.0" /><line stroke="gray" stroke-width="1" x1="166.0" x2="166.0" y1="273.33333333333337" y2="540.0" /><line stroke="gray" stroke-width="1" x1="172.0" x2="172.0" y1="273.33333333333337" y2="540.0" /><line stroke="gray" stroke-width="1" x1="178.0" x2="178.0" y1="273.33333333333337" y2="540.0" /><line stroke="gray" stroke-width="1" x1="184.0" x2="184.0" y1="273.33333333333337" y2="540.0" /><line stroke="gray" stroke-width="1" x1="190.0" x2="190.0" y1="273.33333333333337" y2="540.0" /><line stroke="gray" stroke-width="1" x1="196.0" x2="196.0" y1="273.33333333333337" y2="540.0" /><line stroke="gray" stroke-width="1" x1="202.0" x2="202.0" y1="273.33333333333337" y2="540.0" /><line stroke="gray" stroke-width="1" x1="208.0" x2="208.0" y1="273.33333333333337" y2="540.0" /><line stroke="gray" stroke-width="1" x1="214.0" x2="214.0" y1="273.33333333333337" y2="540.0" /><line stroke="gray" stroke-width="1" x1="220.0" x2="220.0" y1="273.33333333333337" y2="540.0" /><line stroke="gray" stroke-width="1" x1="226.0" x2="226.0" y1="273.33333333333337" y2="540.0" /><line stroke="gray" stroke-width="1" x1="232.0" x2="232.0" y1="273.33333333333337" y2="540.0" /><line stroke="gray" stroke-width="1" x1="238.0" x2="238.0" y1="273.33333333333337" y2="540.0" /><line stroke="gray" stroke-width="1" x1="244.0" x2="244.0" y1="273.33333333333337" y2="540.0" /><line stroke="gray" stroke-width="1" x1="250.0" x2="250.0" y1="273.33333333333337" y2="540.0" /><line stroke="gray" stroke-width="1" x1="256.0" x2="256.0" y1="273.33333333333337" y2="540.0" /><line stroke="gray" stroke-width="1" x1="262.0" x2="262.0" y1="273.33333333333337" y2="540.0" /><line stroke="gray" stroke-width="1" x1="268.0" x2="268.0" y1="273.33333333333337" y2="540.0" /><line stroke="gray" stroke-width="1" x1="274.0" x2="274.0" y1="273.33333333333337" y2="540.0" /><line stroke="gray" stroke-width="1" x1="280.0" x2="280.0" y1="273.33333333333337" y2="540.0" /><line stroke="gray" stroke-width="1" x1="286.0" x2="286.0" y1="273.33333333333337" y2="540.0" /><line stroke="gray" stroke-width="1" x1="292.0" x2="292.0" y1="273.33333333333337" y2="540.0" /><line stroke="gray" stroke-width="1" x1="298.0" x2="298.0" y1="273.33333333333337" y2="540.0" /><line stroke="gray" stroke-width="1" x1="304.0" x2="304.0" y1="273.33333333333337" y2="540.0" /><line stroke="gray" stroke-width="1" x1="310.0" x2="310.0" y1="273.33333333333337" y2="540.0" /><line stroke="gray" stroke-width="1" x1="316.0" x2="316.0" y1="273.33333333333337" y2="540.0" /><line stroke="gray" stroke-width="1" x1="322.0" x2="322.0" y1="273.33333333333337" y2="540.0" /><line stroke="gray" stroke-width="1" x1="328.0" x2="328.0" y1="273.33333333333337" y2="540.0" /><line stroke="gray" stroke-width="1" x1="334.0" x2="334.0" y1="273.33333333333337" y2="540.0" /><line stroke="gray" stroke-width="1" x1="340.0" x2="340.0" y1="273.33333333333337" y2="540.0" /><line stroke="gray" stroke-width="1" x1="346.0" x2="346.0" y1="273.33333333333337" y2="540.0" /><line stroke="gray" stroke-width="1" x1="352.0" x2="352.0" y1="273.33333333333337" y2="540.0" /><line stroke="gray" stroke-width="1" x1="358.0" x2="358.0" y1="273.33333333333337" y2="540.0" /><line stroke="gray" stroke-width="1" x1="364.0" x2="364.0" y1="273.33333333333337" y2="540.0" /><line stroke="gray" stroke-width="1" x1="370.0" x2="370.0" y1="273.33333333333337" y2="540.0" /><line stroke="gray" stroke-width="1" x1="376.0" x2="376.0" y1="273.33333333333337" y2="540.0" /><line stroke="gray" stroke-width="1" x1="382.0" x2="382.0" y1="273.33333333333337" y2="540.0" /><line stroke="gray" stroke-width="1" x1="388.0" x2="388.0" y1="273.33333333333337" y2="540.0" /><line stroke="gray" stroke-width="1" x1="394.0" x2="394.0" y1="273.33333333333337" y2="540.0" /><line stroke="gray" stroke-width="1" x1="400.0" x2="400.0" y1="273.33333333333337" y2="540.0" /><line stroke="gray" stroke-width="1" x1="406.0" x2="406.0" y1="273.33333333333337" y2="540.0" /><line stroke="gray" stroke-width="1" x1="412.0" x2="412.0" y1="273.33333333333337" y2="540.0" /><line stroke="gray" stroke-width="1" x1="418.0" x2="418.0" y1="273.33333333333337" y2="540.0" /><line stroke="gray" stroke-width="1" x1="424.0" x2="424.0" y1="273.33333333333337" y2="540.0" /><line stroke="gray" stroke-width="1" x1="430.0" x2="430.0" y1="273.33333333333337" y2="540.0" /><line stroke="gray" stroke-width="1" x1="436.0" x2="436.0" y1="273.33333333333337" y2="540.0" /><line stroke="gray" stroke-width="1" x1="442.0" x2="442.0" y1="273.33333333333337" y2="540.0" /><line stroke="gray" stroke-width="1" x1="448.0" x2="448.0" y1="273.33333333333337" y2="540.0" /><line stroke="gray" stroke-width="1" x1="454.0" x2="454.0" y1="273.33333333333337" y2="540.0" /><line stroke="gray" stroke-width="1" x1="460.0" x2="460.0" y1="273.33333333333337" y2="540.0" /><line stroke="gray" stroke-width="1" x1="466.0" x2="466.0" y1="273.33333333333337" y2="540.0" /><line stroke="gray" stroke-width="1" x1="472.0" x2="472.0" y1="273.33333333333337" y2="540.0" /><line stroke="gray" stroke-width="1" x1="478.0" x2="478.0" y1="273.33333333333337" y2="540.0" /><line stroke="gray" stroke-width="1" x1="484.0" x2="484.0" y1="273.33333333333337" y2="540.0" /><line stroke="gray" stroke-width="1" x1="490.0" x2="490.0" y1="273.33333333333337" y2="540.0" /><line stroke="gray" stroke-width="1" x1="496.0" x2="496.0" y1="273.33333333333337" y2="540.0" /><line stroke="gray" stroke-width="1" x1="502.0" x2="502.0" y1="273.33333333333337" y2="540.0" /><line stroke="gray" stroke-width="1" x1="508.0" x2="508.0" y1="273.33333333333337" y2="540.0" /><line stroke="gray" stroke-width="1" x1="514.0" x2="514.0" y1="273.33333333333337" y2="540.0" /><line stroke="gray" stroke-width="1" x1="520.0" x2="520.0" y1="273.33333333333337" y2="540.0" /><line stroke="gray" stroke-width="1" x1="526.0" x2="526.0" y1="273.33333333333337" y2="540.0" /><line stroke="gray" stroke-width="1" x1="532.0" x2="532.0" y1="273.33333333333337" y2="540.0" /><line stroke="gray" stroke-width="1" x1="538.0" x2="538.0" y1="273.33333333333337" y2="540.0" /><line stroke="gray" stroke-width="1" x1="544.0" x2="544.0" y1="273.33333333333337" y2="540.0" /><line stroke="gray" stroke-width="1" x1="550.0" x2="550.0" y1="273.33333333333337" y2="540.0" /><line stroke="gray" stroke-width="1" x1="556.0" x2="556.0" y1="273.33333333333337" y2="540.0" /><rect fill="blue" height="21.333333333333336" width="330.0" x="34.0" y="273.33333333333337" /><text fill="white" font-size="10" x="39.0" y="284.00000000000006">Task 1</text><rect fill="blue" height="21.333333333333336" width="336.0" x="220.0" y="300.00000000000006" /><text fill="white" font-size="10" x="225.0" y="310.66666666666674">Task 2</text><rect fill="none" height="480.0" stroke="red" stroke-width="1" width="234.0" x="556.0" y="60.0" /><rect fill="lightgrey" height="53.333333333333336" stroke="black" stroke-width="1" width="234.0" x="556.0" y="60.0" /><text dominant-baseline="middle" font-size="10" text-anchor="middle" x="673.0" y="86.66666666666667">2025</text><rect fill="lightgrey" height="53.333333333333336" stroke="black" stroke-width="1" width="234.0" x="556.0" y="113.33333333333334" /><line stroke="black" stroke-width="1" x1="653.7910447761194" x2="653.7910447761194" y1="113.33333333333334" y2="166.66666666666669" /><text dominant-baseline="middle" font-size="10" text-anchor="middle" x="604.8955223880597" y="140.0">Apr</text><line stroke="black" stroke-width="1" x1="762.0597014925373" x2="762.0597014925373" y1="113.33333333333334" y2="166.66666666666669" /><text dominant-baseline="middle" font-size="10" text-anchor="middle" x="707.9253731343283" y="140.0">May</text><text dominant-baseline="middle" font-size="10" text-anchor="middle" x="776.0298507462687" y="140.0">J</text><rect fill="lightgrey" height="53.333333333333336" stroke="black" stroke-width="1" width="234.0" x="556.0" y="166.66666666666669" /><line stroke="black" stroke-width="1" x1="569.9701492537314" x2="569.9701492537314" y1="166.66666666666669" y2="220.00000000000003" /><line stroke="black" stroke-width="1" x1="594.4179104477612" x2="594.4179104477612" y1="166.66666666666669" y2="220.00000000000003" /><text dominant-baseline="middle" font-size="10" text-anchor="middle" x="582.1940298507463" y="193.33333333333334">15</text><line stroke="black" stroke-width="1" x1="618.8656716417911" x2="618.8656716417911" y1="166.66666666666669" y2="220.00000000000003" /><text dominant-baseline="middle" font-size="10" text-anchor="middle" x="606.6417910447761" y="193.33333333333334">16</text><line stroke="black" stroke-width="1" x1="643.3134328358209" x2="643.3134328358209" y1="166.66666666666669" y2="220.00000000000003" /><text dominant-baseline="middle" font-size="10" text-anchor="middle" x="631.0895522388059" y="193.33333333333334">17</text><line stroke="black" stroke-width="1" x1="667.7611940298507" x2="667.7611940298507" y1="166.66666666666669" y2="220.00000000000003" /><text dominant-baseline="middle" font-size="10" text-anchor="middle" x="655.5373134328358" y="193.33333333333334">18</text><line stroke="black" stroke-width="1" x1="692.2089552238806" x2="692.2089552238806" y1="166.66666666666669" y2="220.00000000000003" /><text dominant-baseline="middle" font-size="10" text-anchor="middle" x="679.9850746268656" y="193.33333333333334">19</text><line stroke="black" stroke-width="1" x1="716.6567164179105" x2="716.6567164179105" y1="166.66666666666669" y2="220.00000000000003" /><text dominant-baseline="middle" font-size="10" text-anchor="middle" x="704.4328358208955" y="193.33333333333334">20</text><line stroke="black" stroke-width="1" x1="741.1044776119403" x2="741.1044776119403" y1="166.66666666666669" y2="220.00000000000003" /><text dominant-baseline="middle" font-size="10" text-anchor="middle" x="728.8805970149253" y="193.33333333333334">21</text><line stroke="black" stroke-width="1" x1="765.5522388059701" x2="765.5522388059701" y1="166.66666666666669" y2="220.00000000000003" /><text dominant-baseline="middle" font-size="10" text-anchor="middle" x="753.3283582089553" y="193.33333333333334">22</text><line stroke="black" stroke-width="1" x1="790.0" x2="790.0" y1="166.66666666666669" y2="220.00000000000003" /><text dominant-baseline="middle" font-size="10" text-anchor="middle" x="777.776119402985" y="193.33333333333334">23</text><rect fill="lightgrey" height="53.333333333333336" stroke="black" stroke-width="1" width="234.0" x="556.0" y="220.00000000000003" /><rect fill="none" height="266.6666666666667" stroke="purple" stroke-width="1" width="234.0" x="556.0" y="273.33333333333337" /><line stroke="gray" stroke-width="1" x1="556.0" x2="790.0" y1="273.33333333333337" y2="273.33333333333337" /><line stroke="gray" stroke-width="1" x1="556.0" x2="790.0" y1="300.00000000000006" y2="300.00000000000006" /><line stroke="gray" stroke-width="1" x1="556.0" x2="790.0" y1="326.6666666666667" y2="326.6666666666667" /><line stroke="gray" stroke-width="1" x1="556.0" x2="790.0" y1="353.33333333333337" y2="353.33333333333337" /><line stroke="gray" stroke-width="1" x1="556.0" x2="790.0" y1="380.00000000000006" y2="380.00000000000006" /><line stroke="gray" stroke-width="1" x1="556.0" x2="790.0" y1="406.66666666666674" y2="406.66666666666674" /><line stroke="gray" stroke-width="1" x1="556.0" x2="790.0" y1="433.33333333333337" y2="433.33333333333337" /><line stroke="gray" stroke-width="1" x1="556.0" x2="790.0" y1="460.00000000000006" y2="460.00000000000006" /><line stroke="gray" stroke-width="1" x1="556.0" x2="790.0" y1="486.66666666666674" y2="486.66666666666674" /><line stroke="gray" stroke-width="1" x1="556.0" x2="790.0" y1="513.3333333333334" y2="513.3333333333334" /><line stroke="gray" stroke-width="1" x1="556.0" x2="790.0" y1="540.0" y2="540.0" /><line stroke="gray" stroke-width="1" x1="653.7910447761194" x2="653.7910447761194" y1="273.33333333333337" y2="540.0" /><line stroke="gray" stroke-width="1" x1="762.0597014925373" x2="762.0597014925373" y1="273.33333333333337" y2="540.0" /><line stroke="gray" stroke-width="1" x1="569.9701492537314" x2="569.9701492537314" y1="273.33333333333337" y2="540.0" /><line stroke="gray" stroke-width="1" x1="594.4179104477612" x2="594.4179104477612" y1="273.33333333333337" y2="540.0" /><line stroke="gray" stroke-width="1" x1="618.8656716417911" x2="618.8656716417911" y1="273.33333333333337" y2="540.0" /><line stroke="gray" stroke-width="1" x1="643.3134328358209" x2="643.3134328358209" y1="273.33333333333337" y2="540.0" /><line stroke="gray" stroke-width="1" x1="667.7611940298507" x2="667.7611940298507" y1="273.33333333333337" y2="540.0" /><line stroke="gray" stroke-width="1" x1="692.2089552238806" x2="692.2089552238806" y1="273.33333333333337" y2="540.0" /><line stroke="gray" stroke-width="1" x1="716.6567164179105" x2="716.6567164179105" y1="273.33333333333337" y2="540.0" /><line stroke="gray" stroke-width="1" x1="741.1044776119403" x2="741.1044776119403" y1="273.33333333333337" y2="540.0" /><line stroke="gray" stroke-width="1" x1="765.5522388059701" x2="765.5522388059701" y1="273.33333333333337" y2="540.0" /><line stroke="gray" stroke-width="1" x1="790.0" x2="790.0" y1="273.33333333333337" y2="540.0" /><line stroke="gray" stroke-width="1" x1="559.4925373134329" x2="559.4925373134329" y1="273.33333333333337" y2="540.0" /><line stroke="gray" stroke-width="1" x1="562.9850746268656" x2="562.9850746268656" y1="273.33333333333337" y2="540.0" /><line stroke="gray" stroke-width="1" x1="566.4776119402985" x2="566.4776119402985" y1="273.33333333333337" y2="540.0" /><line stroke="gray" stroke-width="1" x1="569.9701492537314" x2="569.9701492537314" y1="273.33333333333337" y2="540.0" /><line stroke="gray" stroke-width="1" x1="573.4626865671642" x2="573.4626865671642" y1="273.33333333333337" y2="540.0" /><line stroke="gray" stroke-width="1" x1="576.955223880597" x2="576.955223880597" y1="273.33333333333337" y2="540.0" /><line stroke="gray" stroke-width="1" x1="580.4477611940299" x2="580.4477611940299" y1="273.33333333333337" y2="540.0" /><line stroke="gray" stroke-width="1" x1="583.9402985074627" x2="583.9402985074627" y1="273.33333333333337" y2="540.0" /><line stroke="gray" stroke-width="1" x1="587.4328358208955" x2="587.4328358208955" y1="273.33333333333337" y2="540.0" /><line stroke="gray" stroke-width="1" x1="590.9253731343283" x2="590.9253731343283" y1="273.33333333333337" y2="540.0" /><line stroke="gray" stroke-width="1" x1="594.4179104477612" x2="594.4179104477612" y1="273.33333333333337" y2="540.0" /><line stroke="gray" stroke-width="1" x1="597.9104477611941" x2="597.9104477611941" y1="273.33333333333337" y2="540.0" /><line stroke="gray" stroke-width="1" x1="601.4029850746268" x2="601.4029850746268" y1="273.33333333333337" y2="540.0" /><line stroke="gray" stroke-width="1" x1="604.8955223880597" x2="604.8955223880597" y1="273.33333333333337" y2="540.0" /><line stroke="gray" stroke-width="1" x1="608.3880597014926" x2="608.3880597014926" y1="273.33333333333337" y2="540.0" /><line stroke="gray" stroke-width="1" x1="611.8805970149253" x2="611.8805970149253" y1="273.33333333333337" y2="540.0" /><line stroke="gray" stroke-width="1" x1="615.3731343283582" x2="615.3731343283582" y1="273.33333333333337" y2="540.0" /><line stroke="gray" stroke-width="1" x1="618.8656716417911" x2="618.8656716417911" y1="273.33333333333337" y2="540.0" /><line stroke="gray" stroke-width="1" x1="622.3582089552239" x2="622.3582089552239" y1="273.33333333333337" y2="540.0" /><line stroke="gray" stroke-width="1" x1="625.8507462686567" x2="625.8507462686567" y1="273.33333333333337" y2="540.0" /><line stroke="gray" stroke-width="1" x1="629.3432835820895" x2="629.3432835820895" y1="273.33333333333337" y2="540.0" /><line stroke="gray" stroke-width="1" x1="632.8358208955224" x2="632.8358208955224" y1="273.33333333333337" y2="540.0" /><line stroke="gray" stroke-width="1" x1="636.3283582089553" x2="636.3283582089553" y1="273.33333333333337" y2="540.0" /><line stroke="gray" stroke-width="1" x1="639.820895522388" x2="639.820895522388" y1="273.33333333333337" y2="540.0" /><line stroke="gray" stroke-width="1" x1="643.3134328358209" x2="643.3134328358209" y1="273.33333333333337" y2="540.0" /><line stroke="gray" stroke-width="1" x1="646.8059701492538" x2="646.8059701492538" y1="273.33333333333337" y2="540.0" /><line stroke="gray" stroke-width="1" x1="650.2985074626865" x2="650.2985074626865" y1="273.33333333333337" y2="540.0" /><line stroke="gray" stroke-width="1" x1="653.7910447761194" x2="653.7910447761194" y1="273.33333333333337" y2="540.0" /><line stroke="gray" stroke-width="1" x1="657.2835820895523" x2="657.2835820895523" y1="273.33333333333337" y2="540.0" /><line stroke="gray" stroke-width="1" x1="660.776119402985" x2="660.776119402985" y1="273.33333333333337" y2="540.0" /><line stroke="gray" stroke-width="1" x1="664.2686567164179" x2="664.2686567164179" y1="273.33333333333337" y2="540.0" /><line stroke="gray" stroke-width="1" x1="667.7611940298507" x2="667.7611940298507" y1="273.33333333333337" y2="540.0" /><line stroke="gray" stroke-width="1" x1="671.2537313432836" x2="671.2537313432836" y1="273.33333333333337" y2="540.0" /><line stroke="gray" stroke-width="1" x1="674.7462686567164" x2="674.7462686567164" y1="273.33333333333337" y2="540.0" /><line stroke="gray" stroke-width="1" x1="678.2388059701492" x2="678.2388059701492" y1="273.33333333333337" y2="540.0" /><line stroke="gray" stroke-width="1" x1="681.7313432835821" x2="681.7313432835821" y1="273.33333333333337" y2="540.0" /><line stroke="gray" stroke-width="1" x1="685.223880597015" x2="685.223880597015" y1="273.33333333333337" y2="540.0" /><line stroke="gray" stroke-width="1" x1="688.7164179104477" x2="688.7164179104477" y1="273.33333333333337" y2="540.0" /><line stroke="gray" stroke-width="1" x1="692.2089552238806" x2="692.2089552238806" y1="273.33333333333337" y2="540.0" /><line stroke="gray" stroke-width="1" x1="695.7014925373135" x2="695.7014925373135" y1="273.33333333333337" y2="540.0" /><line stroke="gray" stroke-width="1" x1="699.1940298507462" x2="699.1940298507462" y1="273.33333333333337" y2="540.0" /><line stroke="gray" stroke-width="1" x1="702.6865671641791" x2="702.6865671641791" y1="273.33333333333337" y2="540.0" /><line stroke="gray" stroke-width="1" x1="706.1791044776119" x2="706.1791044776119" y1="273.33333333333337" y2="540.0" /><line stroke="gray" stroke-width="1" x1="709.6716417910447" x2="709.6716417910447" y1="273.33333333333337" y2="540.0" /><line stroke="gray" stroke-width="1" x1="713.1641791044776" x2="713.1641791044776" y1="273.33333333333337" y2="540.0" /><line stroke="gray" stroke-width="1" x1="716.6567164179105" x2="716.6567164179105" y1="273.33333333333337" y2="540.0" /><line stroke="gray" stroke-width="1" x1="720.1492537313433" x2="720.1492537313433" y1="273.33333333333337" y2="540.0" /><line stroke="gray" stroke-width="1" x1="723.6417910447761" x2="723.6417910447761" y1="273.33333333333337" y2="540.0" /><line stroke="gray" stroke-width="1" x1="727.1343283582089" x2="727.1343283582089" y1="273.33333333333337" y2="540.0" /><line stroke="gray" stroke-width="1" x1="730.6268656716418" x2="730.6268656716418" y1="273.33333333333337" y2="540.0" /><line stroke="gray" stroke-width="1" x1="734.1194029850747" x2="734.1194029850747" y1="273.33333333333337" y2="540.0" /><line stroke="gray" stroke-width="1" x1="737.6119402985074" x2="737.6119402985074" y1="273.33333333333337" y2="540.0" /><line stroke="gray" stroke-width="1" x1="741.1044776119403" x2="741.1044776119403" y1="273.33333333333337" y2="540.0" /><line stroke="gray" stroke-width="1" x1="744.5970149253731" x2="744.5970149253731" y1="273.33333333333337" y2="540.0" /><line stroke="gray" stroke-width="1" x1="748.0895522388059" x2="748.0895522388059" y1="273.33333333333337" y2="540.0" /><line stroke="gray" stroke-width="1" x1="751.5820895522388" x2="751.5820895522388" y1="273.33333333333337" y2="540.0" /><line stroke="gray" stroke-width="1" x1="755.0746268656717" x2="755.0746268656717" y1="273.33333333333337" y2="540.0" /><line stroke="gray" stroke-width="1" x1="758.5671641791045" x2="758.5671641791045" y1="273.33333333333337" y2="540.0" /><line stroke="gray" stroke-width="1" x1="762.0597014925373" x2="762.0597014925373" y1="273.33333333333337" y2="540.0" /><line stroke="gray" stroke-width="1" x1="765.5522388059701" x2="765.5522388059701" y1="273.33333333333337" y2="540.0" /><line stroke="gray" stroke-width="1" x1="769.044776119403" x2="769.044776119403" y1="273.33333333333337" y2="540.0" /><line stroke="gray" stroke-width="1" x1="772.5373134328358" x2="772.5373134328358" y1="273.33333333333337" y2="540.0" /><line stroke="gray" stroke-width="1" x1="776.0298507462686" x2="776.0298507462686" y1="273.33333333333337" y2="540.0" /><line stroke="gray" stroke-width="1" x1="779.5223880597015" x2="779.5223880597015" y1="273.33333333333337" y2="540.0" /><line stroke="gray" stroke-width="1" x1="783.0149253731344" x2="783.0149253731344" y1="273.33333333333337" y2="540.0" /><line stroke="gray" stroke-width="1" x1="786.5074626865671" x2="786.5074626865671" y1="273.33333333333337" y2="540.0" /><line stroke="gray" stroke-width="1" x1="790.0" x2="790.0" y1="273.33333333333337" y2="540.0" /><rect fill="blue" height="21.333333333333336" width="41.910447761194064" x="556.0" y="300.00000000000006" /><text fill="white" font-size="10" x="561.0" y="310.66666666666674">Task 2</text></svg>