<?xml version="1.0" encoding="utf-8" ?>
<svg baseProfile="full" height="600.0" version="1.1" width="800.0" xmlns="http://www.w3.org/2000/svg" xmlns:ev="http://www.w3.org/2001/xml-events" xmlns:xlink="http://www.w3.org/1999/xlink"><defs /><rect fill="white" height="600.0" stroke="black" stroke-width="2" width="800.0" x="0" y="0" /><rect fill="lightgray" height="50.0" stroke="black" stroke-width="1" width="780.0" x="10.0" y="10.0" /><text font-size="14" text-anchor="middle" x="400.0" y="35.0">header</text><rect fill="lightgray" height="50.0" stroke="black" stroke-width="1" width="780.0" x="10.0" y="540.0" /><text font-size="14" text-anchor="middle" x="400.0" y="565.0">footer</text><rect fill="none" height="480.0" stroke="blue" stroke-dasharray="4" stroke-width="1" width="780.0" x="10.0" y="60.0" /><rect fill="none" height="480.0" stroke="red" stroke-width="1" width="546.0" x="10.0" y="60.0" /><rect fill="none" height="20.0" stroke="green" stroke-width="1" width="546.0" x="10.0" y="60.0" /><rect fill="none" height="20.0" stroke="orange" stroke-width="1" width="546.0" x="10.0" y="80.0" /><rect fill="none" height="440.0" stroke="purple" stroke-width="1" width="546.0" x="10.0" y="100.0" /><line stroke="gray" stroke-width="1" x1="10.0" x2="556.0" y1="100.0" y2="100.0" /><line stroke="gray" stroke-width="1" x1="10.0" x2="556.0" y1="144.0" y2="144.0" /><line stroke="gray" stroke-width="1" x1="10.0" x2="556.0" y1="188.0" y2="188.0" /><line stroke="gray" stroke-width="1" x1="10.0" x2="556.0" y1="232.0" y2="232.0" /><line stroke="gray" stroke-width="1" x1="10.0" x2="556.0" y1="276.0" y2="276.0" /><line stroke="gray" stroke-width="1" x1="10.0" x2="556.0" y1="320.0" y2="320.0" /><line stroke="gray" stroke-width="1" x1="10.0" x2="556.0" y1="364.0" y2="364.0" /><line stroke="gray" stroke-width="1" x1="10.0" x2="556.0" y1="408.0" y2="408.0" /><line stroke="gray" stroke-width="1" x1="10.0" x2="556.0" y1="452.0" y2="452.0" /><line stroke="gray" stroke-width="1" x1="10.0" x2="556.0" y1="496.0" y2="496.0" /><line stroke="gray" stroke-width="1" x1="10.0" x2="556.0" y1="540.0" y2="540.0" /><line stroke="black" stroke-width="2" x1="18.950819672131146" x2="18.950819672131146" y1="100.0" y2="540.0" /><line stroke="black" stroke-width="2" x1="81.60655737704919" x2="81.60655737704919" y1="100.0" y2="540.0" /><line stroke="black" stroke-width="2" x1="144.2622950819672" x2="144.2622950819672" y1="100.0" y2="540.0" /><line stroke="black" stroke-width="2" x1="206.91803278688525" x2="206.91803278688525" y1="100.0" y2="540.0" /><line stroke="black" stroke-width="2" x1="269.5737704918033" x2="269.5737704918033" y1="100.0" y2="540.0" /><line stroke="black" stroke-width="2" x1="332.2295081967213" x2="332.2295081967213" y1="100.0" y2="540.0" /><line stroke="black" stroke-width="2" x1="394.8852459016394" x2="394.8852459016394" y1="100.0" y2="540.0" /><line stroke="black" stroke-width="2" x1="457.5409836065574" x2="457.5409836065574" y1="100.0" y2="540.0" /><line stroke="black" stroke-width="2" x1="520.1967213114755" x2="520.1967213114755" y1="100.0" y2="540.0" /><text font-size="12" font-weight="bold" text-anchor="middle" x="18.950819672131146" y="58.0">Mar 30</text><text font-size="12" font-weight="bold" text-anchor="middle" x="81.60655737704919" y="58.0">Apr 06</text><text font-size="12" font-weight="bold" text-anchor="middle" x="144.2622950819672" y="58.0">Apr 13</text><text font-size="12" font-weight="bold" text-anchor="middle" x="206.91803278688525" y="58.0">Apr 20</text><text font-size="12" font-weight="bold" text-anchor="middle" x="269.5737704918033" y="58.0">Apr 27</text><text font-size="12" font-weight="bold" text-anchor="middle" x="332.2295081967213" y="58.0">May 04</text><text font-size="12" font-weight="bold" text-anchor="middle" x="394.8852459016394" y="58.0">May 11</text><text font-size="12" font-weight="bold" text-anchor="middle" x="457.5409836065574" y="58.0">May 18</text><text font-size="12" font-weight="bold" text-anchor="middle" x="520.1967213114755" y="58.0">May 25</text><line stroke="gray" stroke-width="1" x1="18.950819672131146" x2="18.950819672131146" y1="100.0" y2="540.0" /><line stroke="gray" stroke-width="1" x1="27.901639344262296" x2="27.901639344262296" y1="100.0" y2="540.0" /><line stroke="gray" stroke-width="1" x1="36.852459016393446" x2="36.852459016393446" y1="100.0" y2="540.0" /><line stroke="gray" stroke-width="1" x1="45.80327868852459" x2="45.80327868852459" y1="100.0" y2="540.0" /><line stroke="gray" stroke-width="1" x1="54.75409836065574" x2="54.75409836065574" y1="100.0" y2="540.0" /><line stroke="gray" stroke-width="1" x1="63.70491803278689" x2="63.70491803278689" y1="100.0" y2="540.0" /><line stroke="gray" stroke-width="1" x1="72.65573770491804" x2="72.65573770491804" y1="100.0" y2="540.0" /><line stroke="gray" stroke-width="1" x1="81.60655737704919" x2="81.60655737704919" y1="100.0" y2="540.0" /><line stroke="gray" stroke-width="1" x1="90.55737704918033" x2="90.55737704918033" y1="100.0" y2="540.0" /><line stroke="gray" stroke-width="1" x1="99.50819672131148" x2="99.50819672131148" y1="100.0" y2="540.0" /><line stroke="gray" stroke-width="1" x1="108.45901639344262" x2="108.45901639344262" y1="100.0" y2="540.0" /><line stroke="gray" stroke-width="1" x1="117.40983606557378" x2="117.40983606557378" y1="100.0" y2="540.0" /><line stroke="gray" stroke-width="1" x1="126.36065573770493" x2="126.36065573770493" y1="100.0" y2="540.0" /><line stroke="gray" stroke-width="1" x1="135.31147540983608" x2="135.31147540983608" y1="100.0" y2="540.0" /><line stroke="gray" stroke-width="1" x1="144.2622950819672" x2="144.2622950819672" y1="100.0" y2="540.0" /><line stroke="gray" stroke-width="1" x1="153.21311475409837" x2="153.21311475409837" y1="100.0" y2="540.0" /><line stroke="gray" stroke-width="1" x1="162.16393442622953" x2="162.16393442622953" y1="100.0" y2="540.0" /><line stroke="gray" stroke-width="1" x1="171.11475409836066" x2="171.11475409836066" y1="100.0" y2="540.0" /><line stroke="gray" stroke-width="1" x1="180.06557377049182" x2="180.06557377049182" y1="100.0" y2="540.0" /><line stroke="gray" stroke-width="1" x1="189.01639344262296" x2="189.01639344262296" y1="100.0" y2="540.0" /><line stroke="gray" stroke-width="1" x1="197.96721311475412" x2="197.96721311475412" y1="100.0" y2="540.0" /><line stroke="gray" stroke-width="1" x1="206.91803278688525" x2="206.91803278688525" y1="100.0" y2="540.0" /><line stroke="gray" stroke-width="1" x1="215.8688524590164" x2="215.8688524590164" y1="100.0" y2="540.0" /><line stroke="gray" stroke-width="1" x1="224.81967213114757" x2="224.81967213114757" y1="100.0" y2="540.0" /><line stroke="gray" stroke-width="1" x1="233.7704918032787" x2="233.7704918032787" y1="100.0" y2="540.0" /><line stroke="gray" stroke-width="1" x1="242.72131147540986" x2="242.72131147540986" y1="100.0" y2="540.0" /><line stroke="gray" stroke-width="1" x1="251.672131147541" x2="251.672131147541" y1="100.0" y2="540.0" /><line stroke="gray" stroke-width="1" x1="260.62295081967216" x2="260.62295081967216" y1="100.0" y2="540.0" /><line stroke="gray" stroke-width="1" x1="269.5737704918033" x2="269.5737704918033" y1="100.0" y2="540.0" /><line stroke="gray" stroke-width="1" x1="278.5245901639344" x2="278.5245901639344" y1="100.0" y2="540.0" /><line stroke="gray" stroke-width="1" x1="287.4754098360656" x2="287.4754098360656" y1="100.0" y2="540.0" /><line stroke="gray" stroke-width="1" x1="296.42622950819674" x2="296.42622950819674" y1="100.0" y2="540.0" /><line stroke="gray" stroke-width="1" x1="305.3770491803279" x2="305.3770491803279" y1="100.0" y2="540.0" /><line stroke="gray" stroke-width="1" x1="314.32786885245906" x2="314.32786885245906" y1="100.0" y2="540.0" /><line stroke="gray" stroke-width="1" x1="323.27868852459017" x2="323.27868852459017" y1="100.0" y2="540.0" /><line stroke="gray" stroke-width="1" x1="332.2295081967213" x2="332.2295081967213" y1="100.0" y2="540.0" /><line stroke="gray" stroke-width="1" x1="341.1803278688525" x2="341.1803278688525" y1="100.0" y2="540.0" /><line stroke="gray" stroke-width="1" x1="350.13114754098365" x2="350.13114754098365" y1="100.0" y2="540.0" /><line stroke="gray" stroke-width="1" x1="359.08196721311475" x2="359.08196721311475" y1="100.0" y2="540.0" /><line stroke="gray" stroke-width="1" x1="368.0327868852459" x2="368.0327868852459" y1="100.0" y2="540.0" /><line stroke="gray" stroke-width="1" x1="376.9836065573771" x2="376.9836065573771" y1="100.0" y2="540.0" /><line stroke="gray" stroke-width="1" x1="385.93442622950823" x2="385.93442622950823" y1="100.0" y2="540.0" /><line stroke="gray" stroke-width="1" x1="394.8852459016394" x2="394.8852459016394" y1="100.0" y2="540.0" /><line stroke="gray" stroke-width="1" x1="403.8360655737705" x2="403.8360655737705" y1="100.0" y2="540.0" /><line stroke="gray" stroke-width="1" x1="412.78688524590166" x2="412.78688524590166" y1="100.0" y2="540.0" /><line stroke="gray" stroke-width="1" x1="421.7377049180328" x2="421.7377049180328" y1="100.0" y2="540.0" /><line stroke="gray" stroke-width="1" x1="430.688524590164" x2="430.688524590164" y1="100.0" y2="540.0" /><line stroke="gray" stroke-width="1" x1="439.63934426229514" x2="439.63934426229514" y1="100.0" y2="540.0" /><line stroke="gray" stroke-width="1" x1="448.59016393442624" x2="448.59016393442624" y1="100.0" y2="540.0" /><line stroke="gray" stroke-width="1" x1="457.5409836065574" x2="457.5409836065574" y1="100.0" y2="540.0" /><line stroke="gray" stroke-width="1" x1="466.49180327868856" x2="466.49180327868856" y1="100.0" y2="540.0" /><line stroke="gray" stroke-width="1" x1="475.4426229508197" x2="475.4426229508197" y1="100.0" y2="540.0" /><line stroke="gray" stroke-width="1" x1="484.39344262295083" x2="484.39344262295083" y1="100.0" y2="540.0" /><line stroke="gray" stroke-width="1" x1="493.344262295082" x2="493.344262295082" y1="100.0" y2="540.0" /><line stroke="gray" stroke-width="1" x1="502.29508196721315" x2="502.29508196721315" y1="100.0" y2="540.0" /><line stroke="gray" stroke-width="1" x1="511.2459016393443" x2="511.2459016393443" y1="100.0" y2="540.0" /><line stroke="gray" stroke-width="1" x1="520.1967213114755" x2="520.1967213114755" y1="100.0" y2="540.0" /><line stroke="gray" stroke-width="1" x1="529.1475409836066" x2="529.1475409836066" y1="100.0" y2="540.0" /><line stroke="gray" stroke-width="1" x1="538.0983606557378" x2="538.0983606557378" y1="100.0" y2="540.0" /><line stroke="gray" stroke-width="1" x1="547.0491803278688" x2="547.0491803278688" y1="100.0" y2="540.0" /><line stroke="gray" stroke-width="1" x1="556.0" x2="556.0" y1="100.0" y2="540.0" /><text font-size="10" text-anchor="middle" x="18.950819672131146" y="78.0">30</text><text font-size="10" text-anchor="middle" x="72.65573770491804" y="78.0">05</text><text font-size="10" text-anchor="middle" x="126.36065573770493" y="78.0">11</text><text font-size="10" text-anchor="middle" x="180.06557377049182" y="78.0">17</text><text font-size="10" text-anchor="middle" x="233.7704918032787" y="78.0">23</text><text font-size="10" text-anchor="middle" x="287.4754098360656" y="78.0">29</text><text font-size="10" text-anchor="middle" x="341.1803278688525" y="78.0">05</text><text font-size="10" text-anchor="middle" x="394.8852459016394" y="78.0">11</text><text font-size="10" text-anchor="middle" x="448.59016393442624" y="78.0">17</text><text font-size="10" text-anchor="middle" x="502.29508196721315" y="78.0">23</text><text font-size="10" text-anchor="middle" x="556.0" y="78.0">29</text><rect fill="none" height="480.0" stroke="red" stroke-width="1" width="234.0" x="556.0" y="60.0" /><rect fill="none" height="20.0" stroke="green" stroke-width="1" width="234.0" x="556.0" y="60.0" /><rect fill="none" height="20.0" stroke="orange" stroke-width="1" width="234.0" x="556.0" y="80.0" /><rect fill="none" height="440.0" stroke="purple" stroke-width="1" width="234.0" x="556.0" y="100.0" /><line stroke="gray" stroke-width="1" x1="556.0" x2="790.0" y1="100.0" y2="100.0" /><line stroke="gray" stroke-width="1" x1="556.0" x2="790.0" y1="144.0" y2="144.0" /><line stroke="gray" stroke-width="1" x1="556.0" x2="790.0" y1="188.0" y2="188.0" /><line stroke="gray" stroke-width="1" x1="556.0" x2="790.0" y1="232.0" y2="232.0" /><line stroke="gray" stroke-width="1" x1="556.0" x2="790.0" y1="276.0" y2="276.0" /><line stroke="gray" stroke-width="1" x1="556.0" x2="790.0" y1="320.0" y2="320.0" /><line stroke="gray" stroke-width="1" x1="556.0" x2="790.0" y1="364.0" y2="364.0" /><line stroke="gray" stroke-width="1" x1="556.0" x2="790.0" y1="408.0" y2="408.0" /><line stroke="gray" stroke-width="1" x1="556.0" x2="790.0" y1="452.0" y2="452.0" /><line stroke="gray" stroke-width="1" x1="556.0" x2="790.0" y1="496.0" y2="496.0" /><line stroke="gray" stroke-width="1" x1="556.0" x2="790.0" y1="540.0" y2="540.0" /><line stroke="black" stroke-width="2" x1="563.8" x2="563.8" y1="100.0" y2="540.0" /><line stroke="black" stroke-width="2" x1="591.1" x2="591.1" y1="100.0" y2="540.0" /><line stroke="black" stroke-width="2" x1="618.4" x2="618.4" y1="100.0" y2="540.0" /><line stroke="black" stroke-width="2" x1="645.7" x2="645.7" y1="100.0" y2="540.0" /><line stroke="black" stroke-width="2" x1="673.0" x2="673.0" y1="100.0" y2="540.0" /><line stroke="black" stroke-width="2" x1="700.3" x2="700.3" y1="100.0" y2="540.0" /><line stroke="black" stroke-width="2" x1="727.6" x2="727.6" y1="100.0" y2="540.0" /><line stroke="black" stroke-width="2" x1="754.9" x2="754.9" y1="100.0" y2="540.0" /><line stroke="black" stroke-width="2" x1="782.2" x2="782.2" y1="100.0" y2="540.0" /><text font-size="12" font-weight="bold" text-anchor="middle" x="563.8" y="58.0">Jun 01</text><text font-size="12" font-weight="bold" text-anchor="middle" x="618.4" y="58.0">Jun 15</text><text font-size="12" font-weight="bold" text-anchor="middle" x="673.0" y="58.0">Jun 29</text><text font-size="12" font-weight="bold" text-anchor="middle" x="727.6" y="58.0">Jul 13</text><text font-size="12" font-weight="bold" text-anchor="middle" x="782.2" y="58.0">Jul 27</text><line stroke="gray" stroke-width="1" x1="559.9" x2="559.9" y1="100.0" y2="540.0" /><line stroke="gray" stroke-width="1" x1="563.8" x2="563.8" y1="100.0" y2="540.0" /><line stroke="gray" stroke-width="1" x1="567.7" x2="567.7" y1="100.0" y2="540.0" /><line stroke="gray" stroke-width="1" x1="571.6" x2="571.6" y1="100.0" y2="540.0" /><line stroke="gray" stroke-width="1" x1="575.5" x2="575.5" y1="100.0" y2="540.0" /><line stroke="gray" stroke-width="1" x1="579.4" x2="579.4" y1="100.0" y2="540.0" /><line stroke="gray" stroke-width="1" x1="583.3" x2="583.3" y1="100.0" y2="540.0" /><line stroke="gray" stroke-width="1" x1="587.2" x2="587.2" y1="100.0" y2="540.0" /><line stroke="gray" stroke-width="1" x1="591.1" x2="591.1" y1="100.0" y2="540.0" /><line stroke="gray" stroke-width="1" x1="595.0" x2="595.0" y1="100.0" y2="540.0" /><line stroke="gray" stroke-width="1" x1="598.9" x2="598.9" y1="100.0" y2="540.0" /><line stroke="gray" stroke-width="1" x1="602.8" x2="602.8" y1="100.0" y2="540.0" /><line stroke="gray" stroke-width="1" x1="606.7" x2="606.7" y1="100.0" y2="540.0" /><line stroke="gray" stroke-width="1" x1="610.6" x2="610.6" y1="100.0" y2="540.0" /><line stroke="gray" stroke-width="1" x1="614.5" x2="614.5" y1="100.0" y2="540.0" /><line stroke="gray" stroke-width="1" x1="618.4" x2="618.4" y1="100.0" y2="540.0" /><line stroke="gray" stroke-width="1" x1="622.3" x2="622.3" y1="100.0" y2="540.0" /><line stroke="gray" stroke-width="1" x1="626.2" x2="626.2" y1="100.0" y2="540.0" /><line stroke="gray" stroke-width="1" x1="630.1" x2="630.1" y1="100.0" y2="540.0" /><line stroke="gray" stroke-width="1" x1="634.0" x2="634.0" y1="100.0" y2="540.0" /><line stroke="gray" stroke-width="1" x1="637.9" x2="637.9" y1="100.0" y2="540.0" /><line stroke="gray" stroke-width="1" x1="641.8" x2="641.8" y1="100.0" y2="540.0" /><line stroke="gray" stroke-width="1" x1="645.7" x2="645.7" y1="100.0" y2="540.0" /><line stroke="gray" stroke-width="1" x1="649.6" x2="649.6" y1="100.0" y2="540.0" /><line stroke="gray" stroke-width="1" x1="653.5" x2="653.5" y1="100.0" y2="540.0" /><line stroke="gray" stroke-width="1" x1="657.4" x2="657.4" y1="100.0" y2="540.0" /><line stroke="gray" stroke-width="1" x1="661.3" x2="661.3" y1="100.0" y2="540.0" /><line stroke="gray" stroke-width="1" x1="665.2" x2="665.2" y1="100.0" y2="540.0" /><line stroke="gray" stroke-width="1" x1="669.1" x2="669.1" y1="100.0" y2="540.0" /><line stroke="gray" stroke-width="1" x1="673.0" x2="673.0" y1="100.0" y2="540.0" /><line stroke="gray" stroke-width="1" x1="676.9" x2="676.9" y1="100.0" y2="540.0" /><line stroke="gray" stroke-width="1" x1="680.8" x2="680.8" y1="100.0" y2="540.0" /><line stroke="gray" stroke-width="1" x1="684.7" x2="684.7" y1="100.0" y2="540.0" /><line stroke="gray" stroke-width="1" x1="688.6" x2="688.6" y1="100.0" y2="540.0" /><line stroke="gray" stroke-width="1" x1="692.5" x2="692.5" y1="100.0" y2="540.0" /><line stroke="gray" stroke-width="1" x1="696.4" x2="696.4" y1="100.0" y2="540.0" /><line stroke="gray" stroke-width="1" x1="700.3" x2="700.3" y1="100.0" y2="540.0" /><line stroke="gray" stroke-width="1" x1="704.2" x2="704.2" y1="100.0" y2="540.0" /><line stroke="gray" stroke-width="1" x1="708.1" x2="708.1" y1="100.0" y2="540.0" /><line stroke="gray" stroke-width="1" x1="712.0" x2="712.0" y1="100.0" y2="540.0" /><line stroke="gray" stroke-width="1" x1="715.9" x2="715.9" y1="100.0" y2="540.0" /><line stroke="gray" stroke-width="1" x1="719.8" x2="719.8" y1="100.0" y2="540.0" /><line stroke="gray" stroke-width="1" x1="723.7" x2="723.7" y1="100.0" y2="540.0" /><line stroke="gray" stroke-width="1" x1="727.6" x2="727.6" y1="100.0" y2="540.0" /><line stroke="gray" stroke-width="1" x1="731.5" x2="731.5" y1="100.0" y2="540.0" /><line stroke="gray" stroke-width="1" x1="735.4" x2="735.4" y1="100.0" y2="540.0" /><line stroke="gray" stroke-width="1" x1="739.3" x2="739.3" y1="100.0" y2="540.0" /><line stroke="gray" stroke-width="1" x1="743.2" x2="743.2" y1="100.0" y2="540.0" /><line stroke="gray" stroke-width="1" x1="747.1" x2="747.1" y1="100.0" y2="540.0" /><line stroke="gray" stroke-width="1" x1="751.0" x2="751.0" y1="100.0" y2="540.0" /><line stroke="gray" stroke-width="1" x1="754.9" x2="754.9" y1="100.0" y2="540.0" /><line stroke="gray" stroke-width="1" x1="758.8" x2="758.8" y1="100.0" y2="540.0" /><line stroke="gray" stroke-width="1" x1="762.7" x2="762.7" y1="100.0" y2="540.0" /><line stroke="gray" stroke-width="1" x1="766.6" x2="766.6" y1="100.0" y2="540.0" /><line stroke="gray" stroke-width="1" x1="770.5" x2="770.5" y1="100.0" y2="540.0" /><line stroke="gray" stroke-width="1" x1="774.4" x2="774.4" y1="100.0" y2="540.0" /><line stroke="gray" stroke-width="1" x1="778.3" x2="778.3" y1="100.0" y2="540.0" /><line stroke="gray" stroke-width="1" x1="782.2" x2="782.2" y1="100.0" y2="540.0" /><line stroke="gray" stroke-width="1" x1="786.1" x2="786.1" y1="100.0" y2="540.0" /><line stroke="gray" stroke-width="1" x1="790.0" x2="790.0" y1="100.0" y2="540.0" /><text font-size="10" text-anchor="middle" x="559.9" y="78.0">31</text><text font-size="10" text-anchor="middle" x="610.6" y="78.0">13</text><text font-size="10" text-anchor="middle" x="661.3" y="78.0">26</text><text font-size="10" text-anchor="middle" x="712.0" y="78.0">09</text><text font-size="10" text-anchor="middle" x="762.7" y="78.0">22</text></svg>