<?xml version="1.0" encoding="utf-8" ?>
<svg baseProfile="full" height="600.0" version="1.1" width="800.0" xmlns="http://www.w3.org/2000/svg" xmlns:ev="http://www.w3.org/2001/xml-events" xmlns:xlink="http://www.w3.org/1999/xlink"><defs /><rect fill="white" height="600.0" stroke="black" stroke-width="2" width="800.0" x="0" y="0" /><rect fill="lightgray" height="50.0" stroke="black" stroke-width="1" width="780.0" x="10.0" y="10.0" /><text font-size="14" text-anchor="middle" x="400.0" y="35.0">trial</text><rect fill="lightgray" height="50.0" stroke="black" stroke-width="1" width="780.0" x="10.0" y="540.0" /><rect fill="none" height="480.0" stroke="blue" stroke-dasharray="4" stroke-width="1" width="780.0" x="10.0" y="60.0" /><rect fill="none" height="480.0" stroke="red" stroke-width="1" width="780.0" x="10.0" y="60.0" /><rect fill="lightgrey" height="53.333333333333336" stroke="black" stroke-width="1" width="780.0" x="10.0" y="60.0" /><text dominant-baseline="middle" font-size="10" text-anchor="middle" x="400.0" y="86.66666666666667">2025</text><rect fill="lightgrey" height="53.333333333333336" stroke="black" stroke-width="1" width="780.0" x="10.0" y="113.33333333333334" /><line stroke="black" stroke-width="1" x1="259.2783505154639" x2="259.2783505154639" y1="113.33333333333334" y2="166.66666666666669" /><text dominant-baseline="middle" font-size="10" text-anchor="middle" x="134.63917525773195" y="140.0">Jan</text><line stroke="black" stroke-width="1" x1="484.4329896907216" x2="484.4329896907216" y1="113.33333333333334" y2="166.66666666666669" /><text dominant-baseline="middle" font-size="10" text-anchor="middle" x="371.85567010309273" y="140.0">Feb</text><line stroke="black" stroke-width="1" x1="733.7113402061856" x2="733.7113402061856" y1="113.33333333333334" y2="166.66666666666669" /><text dominant-baseline="middle" font-size="10" text-anchor="middle" x="609.0721649484536" y="140.0">Mar</text><text dominant-baseline="middle" font-size="10" text-anchor="middle" x="761.8556701030927" y="140.0">Apr</text><rect fill="lightgrey" height="53.333333333333336" stroke="black" stroke-width="1" width="780.0" x="10.0" y="166.66666666666669" /><line stroke="black" stroke-width="1" x1="50.20618556701031" x2="50.20618556701031" y1="166.66666666666669" y2="220.00000000000003" /><text dominant-baseline="middle" font-size="10" text-anchor="middle" x="30.103092783505154" y="193.33333333333334">01</text><line stroke="black" stroke-width="1" x1="106.49484536082474" x2="106.49484536082474" y1="166.66666666666669" y2="220.00000000000003" /><text dominant-baseline="middle" font-size="10" text-anchor="middle" x="78.35051546391753" y="193.33333333333334">02 (12)</text><line stroke="black" stroke-width="1" x1="162.78350515463916" x2="162.78350515463916" y1="166.66666666666669" y2="220.00000000000003" /><text dominant-baseline="middle" font-size="10" text-anchor="middle" x="134.63917525773195" y="193.33333333333334">03 (19)</text><line stroke="black" stroke-width="1" x1="219.0721649484536" x2="219.0721649484536" y1="166.66666666666669" y2="220.00000000000003" /><text dominant-baseline="middle" font-size="10" text-anchor="middle" x="190.92783505154637" y="193.33333333333334">04 (26)</text><line stroke="black" stroke-width="1" x1="275.36082474226805" x2="275.36082474226805" y1="166.66666666666669" y2="220.00000000000003" /><text dominant-baseline="middle" font-size="10" text-anchor="middle" x="247.21649484536084" y="193.33333333333334">05 (02)</text><line stroke="black" stroke-width="1" x1="331.64948453608247" x2="331.64948453608247" y1="166.66666666666669" y2="220.00000000000003" /><text dominant-baseline="middle" font-size="10" text-anchor="middle" x="303.50515463917526" y="193.33333333333334">06 (09)</text><line stroke="black" stroke-width="1" x1="387.9381443298969" x2="387.9381443298969" y1="166.66666666666669" y2="220.00000000000003" /><text dominant-baseline="middle" font-size="10" text-anchor="middle" x="359.7938144329897" y="193.33333333333334">07 (16)</text><line stroke="black" stroke-width="1" x1="444.2268041237113" x2="444.2268041237113" y1="166.66666666666669" y2="220.00000000000003" /><text dominant-baseline="middle" font-size="10" text-anchor="middle" x="416.0824742268041" y="193.33333333333334">08 (23)</text><line stroke="black" stroke-width="1" x1="500.5154639175258" x2="500.5154639175258" y1="166.66666666666669" y2="220.00000000000003" /><text dominant-baseline="middle" font-size="10" text-anchor="middle" x="472.37113402061857" y="193.33333333333334">09 (02)</text><line stroke="black" stroke-width="1" x1="556.8041237113403" x2="556.8041237113403" y1="166.66666666666669" y2="220.00000000000003" /><text dominant-baseline="middle" font-size="10" text-anchor="middle" x="528.659793814433" y="193.33333333333334">10 (09)</text><line stroke="black" stroke-width="1" x1="613.0927835051547" x2="613.0927835051547" y1="166.66666666666669" y2="220.00000000000003" /><text dominant-baseline="middle" font-size="10" text-anchor="middle" x="584.9484536082475" y="193.33333333333334">11 (16)</text><line stroke="black" stroke-width="1" x1="669.3814432989691" x2="669.3814432989691" y1="166.66666666666669" y2="220.00000000000003" /><text dominant-baseline="middle" font-size="10" text-anchor="middle" x="641.2371134020618" y="193.33333333333334">12 (23)</text><line stroke="black" stroke-width="1" x1="725.6701030927835" x2="725.6701030927835" y1="166.66666666666669" y2="220.00000000000003" /><text dominant-baseline="middle" font-size="10" text-anchor="middle" x="697.5257731958764" y="193.33333333333334">13 (30)</text><line stroke="black" stroke-width="1" x1="781.9587628865979" x2="781.9587628865979" y1="166.66666666666669" y2="220.00000000000003" /><text dominant-baseline="middle" font-size="10" text-anchor="middle" x="753.8144329896907" y="193.33333333333334">14 (06)</text><rect fill="lightgrey" height="53.333333333333336" stroke="black" stroke-width="1" width="780.0" x="10.0" y="220.00000000000003" /><line stroke="black" stroke-width="1" x1="18.04123711340206" x2="18.04123711340206" y1="220.00000000000003" y2="273.33333333333337" /><line stroke="black" stroke-width="1" x1="26.082474226804123" x2="26.082474226804123" y1="220.00000000000003" y2="273.33333333333337" /><line stroke="black" stroke-width="1" x1="34.123711340206185" x2="34.123711340206185" y1="220.00000000000003" y2="273.33333333333337" /><line stroke="black" stroke-width="1" x1="42.16494845360825" x2="42.16494845360825" y1="220.00000000000003" y2="273.33333333333337" /><line stroke="black" stroke-width="1" x1="50.20618556701031" x2="50.20618556701031" y1="220.00000000000003" y2="273.33333333333337" /><line stroke="black" stroke-width="1" x1="58.24742268041237" x2="58.24742268041237" y1="220.00000000000003" y2="273.33333333333337" /><line stroke="black" stroke-width="1" x1="66.28865979381443" x2="66.28865979381443" y1="220.00000000000003" y2="273.33333333333337" /><line stroke="black" stroke-width="1" x1="74.3298969072165" x2="74.3298969072165" y1="220.00000000000003" y2="273.33333333333337" /><line stroke="black" stroke-width="1" x1="82.37113402061856" x2="82.37113402061856" y1="220.00000000000003" y2="273.33333333333337" /><line stroke="black" stroke-width="1" x1="90.41237113402062" x2="90.41237113402062" y1="220.00000000000003" y2="273.33333333333337" /><line stroke="black" stroke-width="1" x1="98.45360824742268" x2="98.45360824742268" y1="220.00000000000003" y2="273.33333333333337" /><line stroke="black" stroke-width="1" x1="106.49484536082474" x2="106.49484536082474" y1="220.00000000000003" y2="273.33333333333337" /><line stroke="black" stroke-width="1" x1="114.5360824742268" x2="114.5360824742268" y1="220.00000000000003" y2="273.33333333333337" /><line stroke="black" stroke-width="1" x1="122.57731958762886" x2="122.57731958762886" y1="220.00000000000003" y2="273.33333333333337" /><line stroke="black" stroke-width="1" x1="130.6185567010309" x2="130.6185567010309" y1="220.00000000000003" y2="273.33333333333337" /><line stroke="black" stroke-width="1" x1="138.659793814433" x2="138.659793814433" y1="220.00000000000003" y2="273.33333333333337" /><line stroke="black" stroke-width="1" x1="146.70103092783506" x2="146.70103092783506" y1="220.00000000000003" y2="273.33333333333337" /><line stroke="black" stroke-width="1" x1="154.7422680412371" x2="154.7422680412371" y1="220.00000000000003" y2="273.33333333333337" /><line stroke="black" stroke-width="1" x1="162.78350515463916" x2="162.78350515463916" y1="220.00000000000003" y2="273.33333333333337" /><line stroke="black" stroke-width="1" x1="170.82474226804123" x2="170.82474226804123" y1="220.00000000000003" y2="273.33333333333337" /><line stroke="black" stroke-width="1" x1="178.8659793814433" x2="178.8659793814433" y1="220.00000000000003" y2="273.33333333333337" /><line stroke="black" stroke-width="1" x1="186.90721649484536" x2="186.90721649484536" y1="220.00000000000003" y2="273.33333333333337" /><line stroke="black" stroke-width="1" x1="194.9484536082474" x2="194.9484536082474" y1="220.00000000000003" y2="273.33333333333337" /><line stroke="black" stroke-width="1" x1="202.98969072164948" x2="202.98969072164948" y1="220.00000000000003" y2="273.33333333333337" /><line stroke="black" stroke-width="1" x1="211.03092783505156" x2="211.03092783505156" y1="220.00000000000003" y2="273.33333333333337" /><line stroke="black" stroke-width="1" x1="219.0721649484536" x2="219.0721649484536" y1="220.00000000000003" y2="273.33333333333337" /><line stroke="black" stroke-width="1" x1="227.11340206185565" x2="227.11340206185565" y1="220.00000000000003" y2="273.33333333333337" /><line stroke="black" stroke-width="1" x1="235.15463917525773" x2="235.15463917525773" y1="220.00000000000003" y2="273.33333333333337" /><line stroke="black" stroke-width="1" x1="243.1958762886598" x2="243.1958762886598" y1="220.00000000000003" y2="273.33333333333337" /><line stroke="black" stroke-width="1" x1="251.23711340206185" x2="251.23711340206185" y1="220.00000000000003" y2="273.33333333333337" /><line stroke="black" stroke-width="1" x1="259.2783505154639" x2="259.2783505154639" y1="220.00000000000003" y2="273.33333333333337" /><line stroke="black" stroke-width="1" x1="267.319587628866" x2="267.319587628866" y1="220.00000000000003" y2="273.33333333333337" /><line stroke="black" stroke-width="1" x1="275.36082474226805" x2="275.36082474226805" y1="220.00000000000003" y2="273.33333333333337" /><line stroke="black" stroke-width="1" x1="283.4020618556701" x2="283.4020618556701" y1="220.00000000000003" y2="273.33333333333337" /><line stroke="black" stroke-width="1" x1="291.44329896907215" x2="291.44329896907215" y1="220.00000000000003" y2="273.33333333333337" /><line stroke="black" stroke-width="1" x1="299.4845360824742" x2="299.4845360824742" y1="220.00000000000003" y2="273.33333333333337" /><line stroke="black" stroke-width="1" x1="307.5257731958763" x2="307.5257731958763" y1="220.00000000000003" y2="273.33333333333337" /><line stroke="black" stroke-width="1" x1="315.5670103092783" x2="315.5670103092783" y1="220.00000000000003" y2="273.33333333333337" /><line stroke="black" stroke-width="1" x1="323.6082474226804" x2="323.6082474226804" y1="220.00000000000003" y2="273.33333333333337" /><line stroke="black" stroke-width="1" x1="331.64948453608247" x2="331.64948453608247" y1="220.00000000000003" y2="273.33333333333337" /><line stroke="black" stroke-width="1" x1="339.69072164948454" x2="339.69072164948454" y1="220.00000000000003" y2="273.33333333333337" /><line stroke="black" stroke-width="1" x1="347.7319587628866" x2="347.7319587628866" y1="220.00000000000003" y2="273.33333333333337" /><line stroke="black" stroke-width="1" x1="355.77319587628864" x2="355.77319587628864" y1="220.00000000000003" y2="273.33333333333337" /><line stroke="black" stroke-width="1" x1="363.8144329896907" x2="363.8144329896907" y1="220.00000000000003" y2="273.33333333333337" /><line stroke="black" stroke-width="1" x1="371.8556701030928" x2="371.8556701030928" y1="220.00000000000003" y2="273.33333333333337" /><line stroke="black" stroke-width="1" x1="379.8969072164948" x2="379.8969072164948" y1="220.00000000000003" y2="273.33333333333337" /><line stroke="black" stroke-width="1" x1="387.9381443298969" x2="387.9381443298969" y1="220.00000000000003" y2="273.33333333333337" /><line stroke="black" stroke-width="1" x1="395.97938144329896" x2="395.97938144329896" y1="220.00000000000003" y2="273.33333333333337" /><line stroke="black" stroke-width="1" x1="404.02061855670104" x2="404.02061855670104" y1="220.00000000000003" y2="273.33333333333337" /><line stroke="black" stroke-width="1" x1="412.0618556701031" x2="412.0618556701031" y1="220.00000000000003" y2="273.33333333333337" /><line stroke="black" stroke-width="1" x1="420.10309278350513" x2="420.10309278350513" y1="220.00000000000003" y2="273.33333333333337" /><line stroke="black" stroke-width="1" x1="428.1443298969072" x2="428.1443298969072" y1="220.00000000000003" y2="273.33333333333337" /><line stroke="black" stroke-width="1" x1="436.1855670103093" x2="436.1855670103093" y1="220.00000000000003" y2="273.33333333333337" /><line stroke="black" stroke-width="1" x1="444.2268041237113" x2="444.2268041237113" y1="220.00000000000003" y2="273.33333333333337" /><line stroke="black" stroke-width="1" x1="452.2680412371134" x2="452.2680412371134" y1="220.00000000000003" y2="273.33333333333337" /><line stroke="black" stroke-width="1" x1="460.30927835051546" x2="460.30927835051546" y1="220.00000000000003" y2="273.33333333333337" /><line stroke="black" stroke-width="1" x1="468.35051546391753" x2="468.35051546391753" y1="220.00000000000003" y2="273.33333333333337" /><line stroke="black" stroke-width="1" x1="476.3917525773196" x2="476.3917525773196" y1="220.00000000000003" y2="273.33333333333337" /><line stroke="black" stroke-width="1" x1="484.4329896907216" x2="484.4329896907216" y1="220.00000000000003" y2="273.33333333333337" /><line stroke="black" stroke-width="1" x1="492.4742268041237" x2="492.4742268041237" y1="220.00000000000003" y2="273.33333333333337" /><line stroke="black" stroke-width="1" x1="500.5154639175258" x2="500.5154639175258" y1="220.00000000000003" y2="273.33333333333337" /><line stroke="black" stroke-width="1" x1="508.5567010309278" x2="508.5567010309278" y1="220.00000000000003" y2="273.33333333333337" /><line stroke="black" stroke-width="1" x1="516.5979381443299" x2="516.5979381443299" y1="220.00000000000003" y2="273.33333333333337" /><line stroke="black" stroke-width="1" x1="524.639175257732" x2="524.639175257732" y1="220.00000000000003" y2="273.33333333333337" /><line stroke="black" stroke-width="1" x1="532.680412371134" x2="532.680412371134" y1="220.00000000000003" y2="273.33333333333337" /><line stroke="black" stroke-width="1" x1="540.7216494845361" x2="540.7216494845361" y1="220.00000000000003" y2="273.33333333333337" /><line stroke="black" stroke-width="1" x1="548.7628865979382" x2="548.7628865979382" y1="220.00000000000003" y2="273.33333333333337" /><line stroke="black" stroke-width="1" x1="556.8041237113403" x2="556.8041237113403" y1="220.00000000000003" y2="273.33333333333337" /><line stroke="black" stroke-width="1" x1="564.8453608247422" x2="564.8453608247422" y1="220.00000000000003" y2="273.33333333333337" /><line stroke="black" stroke-width="1" x1="572.8865979381443" x2="572.8865979381443" y1="220.00000000000003" y2="273.33333333333337" /><line stroke="black" stroke-width="1" x1="580.9278350515464" x2="580.9278350515464" y1="220.00000000000003" y2="273.33333333333337" /><line stroke="black" stroke-width="1" x1="588.9690721649484" x2="588.9690721649484" y1="220.00000000000003" y2="273.33333333333337" /><line stroke="black" stroke-width="1" x1="597.0103092783505" x2="597.0103092783505" y1="220.00000000000003" y2="273.33333333333337" /><line stroke="black" stroke-width="1" x1="605.0515463917526" x2="605.0515463917526" y1="220.00000000000003" y2="273.33333333333337" /><line stroke="black" stroke-width="1" x1="613.0927835051547" x2="613.0927835051547" y1="220.00000000000003" y2="273.33333333333337" /><line stroke="black" stroke-width="1" x1="621.1340206185566" x2="621.1340206185566" y1="220.00000000000003" y2="273.33333333333337" /><line stroke="black" stroke-width="1" x1="629.1752577319587" x2="629.1752577319587" y1="220.00000000000003" y2="273.33333333333337" /><line stroke="black" stroke-width="1" x1="637.2164948453608" x2="637.2164948453608" y1="220.00000000000003" y2="273.33333333333337" /><line stroke="black" stroke-width="1" x1="645.2577319587629" x2="645.2577319587629" y1="220.00000000000003" y2="273.33333333333337" /><line stroke="black" stroke-width="1" x1="653.2989690721649" x2="653.2989690721649" y1="220.00000000000003" y2="273.33333333333337" /><line stroke="black" stroke-width="1" x1="661.340206185567" x2="661.340206185567" y1="220.00000000000003" y2="273.33333333333337" /><line stroke="black" stroke-width="1" x1="669.3814432989691" x2="669.3814432989691" y1="220.00000000000003" y2="273.33333333333337" /><line stroke="black" stroke-width="1" x1="677.4226804123712" x2="677.4226804123712" y1="220.00000000000003" y2="273.33333333333337" /><line stroke="black" stroke-width="1" x1="685.4639175257732" x2="685.4639175257732" y1="220.00000000000003" y2="273.33333333333337" /><line stroke="black" stroke-width="1" x1="693.5051546391752" x2="693.5051546391752" y1="220.00000000000003" y2="273.33333333333337" /><line stroke="black" stroke-width="1" x1="701.5463917525773" x2="701.5463917525773" y1="220.00000000000003" y2="273.33333333333337" /><line stroke="black" stroke-width="1" x1="709.5876288659794" x2="709.5876288659794" y1="220.00000000000003" y2="273.33333333333337" /><line stroke="black" stroke-width="1" x1="717.6288659793814" x2="717.6288659793814" y1="220.00000000000003" y2="273.33333333333337" /><line stroke="black" stroke-width="1" x1="725.6701030927835" x2="725.6701030927835" y1="220.00000000000003" y2="273.33333333333337" /><line stroke="black" stroke-width="1" x1="733.7113402061856" x2="733.7113402061856" y1="220.00000000000003" y2="273.33333333333337" /><line stroke="black" stroke-width="1" x1="741.7525773195877" x2="741.7525773195877" y1="220.00000000000003" y2="273.33333333333337" /><line stroke="black" stroke-width="1" x1="749.7938144329896" x2="749.7938144329896" y1="220.00000000000003" y2="273.33333333333337" /><line stroke="black" stroke-width="1" x1="757.8350515463917" x2="757.8350515463917" y1="220.00000000000003" y2="273.33333333333337" /><line stroke="black" stroke-width="1" x1="765.8762886597938" x2="765.8762886597938" y1="220.00000000000003" y2="273.33333333333337" /><line stroke="black" stroke-width="1" x1="773.9175257731958" x2="773.9175257731958" y1="220.00000000000003" y2="273.33333333333337" /><line stroke="black" stroke-width="1" x1="781.9587628865979" x2="781.9587628865979" y1="220.00000000000003" y2="273.33333333333337" /><line stroke="black" stroke-width="1" x1="790.0" x2="790.0" y1="220.00000000000003" y2="273.33333333333337" /><rect fill="none" height="266.6666666666667" stroke="purple" stroke-width="1" width="780.0" x="10.0" y="273.33333333333337" /><line stroke="gray" stroke-width="1" x1="10.0" x2="790.0" y1="273.33333333333337" y2="273.33333333333337" /><line stroke="gray" stroke-width="1" x1="10.0" x2="790.0" y1="284.44444444444446" y2="284.44444444444446" /><line stroke="gray" stroke-width="1" x1="10.0" x2="790.0" y1="295.5555555555556" y2="295.5555555555556" /><line stroke="gray" stroke-width="1" x1="10.0" x2="790.0" y1="306.6666666666667" y2="306.6666666666667" /><line stroke="gray" stroke-width="1" x1="10.0" x2="790.0" y1="317.7777777777778" y2="317.7777777777778" /><line stroke="gray" stroke-width="1" x1="10.0" x2="790.0" y1="328.8888888888889" y2="328.8888888888889" /><line stroke="gray" stroke-width="1" x1="10.0" x2="790.0" y1="340.00000000000006" y2="340.00000000000006" /><line stroke="gray" stroke-width="1" x1="10.0" x2="790.0" y1="351.11111111111114" y2="351.11111111111114" /><line stroke="gray" stroke-width="1" x1="10.0" x2="790.0" y1="362.2222222222223" y2="362.2222222222223" /><line stroke="gray" stroke-width="1" x1="10.0" x2="790.0" y1="373.33333333333337" y2="373.33333333333337" /><line stroke="gray" stroke-width="1" x1="10.0" x2="790.0" y1="384.4444444444445" y2="384.4444444444445" /><line stroke="gray" stroke-width="1" x1="10.0" x2="790.0" y1="395.5555555555556" y2="395.5555555555556" /><line stroke="gray" stroke-width="1" x1="10.0" x2="790.0" y1="406.66666666666674" y2="406.66666666666674" /><line stroke="gray" stroke-width="1" x1="10.0" x2="790.0" y1="417.7777777777778" y2="417.7777777777778" /><line stroke="gray" stroke-width="1" x1="10.0" x2="790.0" y1="428.8888888888889" y2="428.8888888888889" /><line stroke="gray" stroke-width="1" x1="10.0" x2="790.0" y1="440.00000000000006" y2="440.00000000000006" /><line stroke="gray" stroke-width="1" x1="10.0" x2="790.0" y1="451.1111111111112" y2="451.1111111111112" /><line stroke="gray" stroke-width="1" x1="10.0" x2="790.0" y1="462.2222222222223" y2="462.2222222222223" /><line stroke="gray" stroke-width="1" x1="10.0" x2="790.0" y1="473.33333333333337" y2="473.33333333333337" /><line stroke="gray" stroke-width="1" x1="10.0" x2="790.0" y1="484.4444444444445" y2="484.4444444444445" /><line stroke="gray" stroke-width="1" x1="10.0" x2="790.0" y1="495.55555555555566" y2="495.55555555555566" /><line stroke="gray" stroke-width="1" x1="10.0" x2="790.0" y1="506.66666666666674" y2="506.66666666666674" /><line stroke="gray" stroke-width="1" x1="10.0" x2="790.0" y1="517.7777777777778" y2="517.7777777777778" /><line stroke="gray" stroke-width="1" x1="10.0" x2="790.0" y1="528.8888888888889" y2="528.8888888888889" /><line stroke="gray" stroke-width="1" x1="10.0" x2="790.0" y1="540.0" y2="540.0" /><line stroke="gray" stroke-width="1" x1="259.2783505154639" x2="259.2783505154639" y1="273.33333333333337" y2="540.0" /><line stroke="gray" stroke-width="1" x1="484.4329896907216" x2="484.4329896907216" y1="273.33333333333337" y2="540.0" /><line stroke="gray" stroke-width="1" x1="733.7113402061856" x2="733.7113402061856" y1="273.33333333333337" y2="540.0" /><line stroke="gray" stroke-width="1" x1="50.20618556701031" x2="50.20618556701031" y1="273.33333333333337" y2="540.0" /><line stroke="gray" stroke-width="1" x1="106.49484536082474" x2="106.49484536082474" y1="273.33333333333337" y2="540.0" /><line stroke="gray" stroke-width="1" x1="162.78350515463916" x2="162.78350515463916" y1="273.33333333333337" y2="540.0" /><line stroke="gray" stroke-width="1" x1="219.0721649484536" x2="219.0721649484536" y1="273.33333333333337" y2="540.0" /><line stroke="gray" stroke-width="1" x1="275.36082474226805" x2="275.36082474226805" y1="273.33333333333337" y2="540.0" /><line stroke="gray" stroke-width="1" x1="331.64948453608247" x2="331.64948453608247" y1="273.33333333333337" y2="540.0" /><line stroke="gray" stroke-width="1" x1="387.9381443298969" x2="387.9381443298969" y1="273.33333333333337" y2="540.0" /><line stroke="gray" stroke-width="1" x1="444.2268041237113" x2="444.2268041237113" y1="273.33333333333337" y2="540.0" /><line stroke="gray" stroke-width="1" x1="500.5154639175258" x2="500.5154639175258" y1="273.33333333333337" y2="540.0" /><line stroke="gray" stroke-width="1" x1="556.8041237113403" x2="556.8041237113403" y1="273.33333333333337" y2="540.0" /><line stroke="gray" stroke-width="1" x1="613.0927835051547" x2="613.0927835051547" y1="273.33333333333337" y2="540.0" /><line stroke="gray" stroke-width="1" x1="669.3814432989691" x2="669.3814432989691" y1="273.33333333333337" y2="540.0" /><line stroke="gray" stroke-width="1" x1="725.6701030927835" x2="725.6701030927835" y1="273.33333333333337" y2="540.0" /><line stroke="gray" stroke-width="1" x1="781.9587628865979" x2="781.9587628865979" y1="273.33333333333337" y2="540.0" /><line stroke="gray" stroke-width="1" x1="18.04123711340206" x2="18.04123711340206" y1="273.33333333333337" y2="540.0" /><line stroke="gray" stroke-width="1" x1="26.082474226804123" x2="26.082474226804123" y1="273.33333333333337" y2="540.0" /><line stroke="gray" stroke-width="1" x1="34.123711340206185" x2="34.123711340206185" y1="273.33333333333337" y2="540.0" /><line stroke="gray" stroke-width="1" x1="42.16494845360825" x2="42.16494845360825" y1="273.33333333333337" y2="540.0" /><line stroke="gray" stroke-width="1" x1="50.20618556701031" x2="50.20618556701031" y1="273.33333333333337" y2="540.0" /><line stroke="gray" stroke-width="1" x1="58.24742268041237" x2="58.24742268041237" y1="273.33333333333337" y2="540.0" /><line stroke="gray" stroke-width="1" x1="66.28865979381443" x2="66.28865979381443" y1="273.33333333333337" y2="540.0" /><line stroke="gray" stroke-width="1" x1="74.3298969072165" x2="74.3298969072165" y1="273.33333333333337" y2="540.0" /><line stroke="gray" stroke-width="1" x1="82.37113402061856" x2="82.37113402061856" y1="273.33333333333337" y2="540.0" /><line stroke="gray" stroke-width="1" x1="90.41237113402062" x2="90.41237113402062" y1="273.33333333333337" y2="540.0" /><line stroke="gray" stroke-width="1" x1="98.45360824742268" x2="98.45360824742268" y1="273.33333333333337" y2="540.0" /><line stroke="gray" stroke-width="1" x1="106.49484536082474" x2="106.49484536082474" y1="273.33333333333337" y2="540.0" /><line stroke="gray" stroke-width="1" x1="114.5360824742268" x2="114.5360824742268" y1="273.33333333333337" y2="540.0" /><line stroke="gray" stroke-width="1" x1="122.57731958762886" x2="122.57731958762886" y1="273.33333333333337" y2="540.0" /><line stroke="gray" stroke-width="1" x1="130.6185567010309" x2="130.6185567010309" y1="273.33333333333337" y2="540.0" /><line stroke="gray" stroke-width="1" x1="138.659793814433" x2="138.659793814433" y1="273.33333333333337" y2="540.0" /><line stroke="gray" stroke-width="1" x1="146.70103092783506" x2="146.70103092783506" y1="273.33333333333337" y2="540.0" /><line stroke="gray" stroke-width="1" x1="154.7422680412371" x2="154.7422680412371" y1="273.33333333333337" y2="540.0" /><line stroke="gray" stroke-width="1" x1="162.78350515463916" x2="162.78350515463916" y1="273.33333333333337" y2="540.0" /><line stroke="gray" stroke-width="1" x1="170.82474226804123" x2="170.82474226804123" y1="273.33333333333337" y2="540.0" /><line stroke="gray" stroke-width="1" x1="178.8659793814433" x2="178.8659793814433" y1="273.33333333333337" y2="540.0" /><line stroke="gray" stroke-width="1" x1="186.90721649484536" x2="186.90721649484536" y1="273.33333333333337" y2="540.0" /><line stroke="gray" stroke-width="1" x1="194.9484536082474" x2="194.9484536082474" y1="273.33333333333337" y2="540.0" /><line stroke="gray" stroke-width="1" x1="202.98969072164948" x2="202.98969072164948" y1="273.33333333333337" y2="540.0" /><line stroke="gray" stroke-width="1" x1="211.03092783505156" x2="211.03092783505156" y1="273.33333333333337" y2="540.0" /><line stroke="gray" stroke-width="1" x1="219.0721649484536" x2="219.0721649484536" y1="273.33333333333337" y2="540.0" /><line stroke="gray" stroke-width="1" x1="227.11340206185565" x2="227.11340206185565" y1="273.33333333333337" y2="540.0" /><line stroke="gray" stroke-width="1" x1="235.15463917525773" x2="235.15463917525773" y1="273.33333333333337" y2="540.0" /><line stroke="gray" stroke-width="1" x1="243.1958762886598" x2="243.1958762886598" y1="273.33333333333337" y2="540.0" /><line stroke="gray" stroke-width="1" x1="251.23711340206185" x2="251.23711340206185" y1="273.33333333333337" y2="540.0" /><line stroke="gray" stroke-width="1" x1="259.2783505154639" x2="259.2783505154639" y1="273.33333333333337" y2="540.0" /><line stroke="gray" stroke-width="1" x1="267.319587628866" x2="267.319587628866" y1="273.33333333333337" y2="540.0" /><line stroke="gray" stroke-width="1" x1="275.36082474226805" x2="275.36082474226805" y1="273.33333333333337" y2="540.0" /><line stroke="gray" stroke-width="1" x1="283.4020618556701" x2="283.4020618556701" y1="273.33333333333337" y2="540.0" /><line stroke="gray" stroke-width="1" x1="291.44329896907215" x2="291.44329896907215" y1="273.33333333333337" y2="540.0" /><line stroke="gray" stroke-width="1" x1="299.4845360824742" x2="299.4845360824742" y1="273.33333333333337" y2="540.0" /><line stroke="gray" stroke-width="1" x1="307.5257731958763" x2="307.5257731958763" y1="273.33333333333337" y2="540.0" /><line stroke="gray" stroke-width="1" x1="315.5670103092783" x2="315.5670103092783" y1="273.33333333333337" y2="540.0" /><line stroke="gray" stroke-width="1" x1="323.6082474226804" x2="323.6082474226804" y1="273.33333333333337" y2="540.0" /><line stroke="gray" stroke-width="1" x1="331.64948453608247" x2="331.64948453608247" y1="273.33333333333337" y2="540.0" /><line stroke="gray" stroke-width="1" x1="339.69072164948454" x2="339.69072164948454" y1="273.33333333333337" y2="540.0" /><line stroke="gray" stroke-width="1" x1="347.7319587628866" x2="347.7319587628866" y1="273.33333333333337" y2="540.0" /><line stroke="gray" stroke-width="1" x1="355.77319587628864" x2="355.77319587628864" y1="273.33333333333337" y2="540.0" /><line stroke="gray" stroke-width="1" x1="363.8144329896907" x2="363.8144329896907" y1="273.33333333333337" y2="540.0" /><line stroke="gray" stroke-width="1" x1="371.8556701030928" x2="371.8556701030928" y1="273.33333333333337" y2="540.0" /><line stroke="gray" stroke-width="1" x1="379.8969072164948" x2="379.8969072164948" y1="273.33333333333337" y2="540.0" /><line stroke="gray" stroke-width="1" x1="387.9381443298969" x2="387.9381443298969" y1="273.33333333333337" y2="540.0" /><line stroke="gray" stroke-width="1" x1="395.97938144329896" x2="395.97938144329896" y1="273.33333333333337" y2="540.0" /><line stroke="gray" stroke-width="1" x1="404.02061855670104" x2="404.02061855670104" y1="273.33333333333337" y2="540.0" /><line stroke="gray" stroke-width="1" x1="412.0618556701031" x2="412.0618556701031" y1="273.33333333333337" y2="540.0" /><line stroke="gray" stroke-width="1" x1="420.10309278350513" x2="420.10309278350513" y1="273.33333333333337" y2="540.0" /><line stroke="gray" stroke-width="1" x1="428.1443298969072" x2="428.1443298969072" y1="273.33333333333337" y2="540.0" /><line stroke="gray" stroke-width="1" x1="436.1855670103093" x2="436.1855670103093" y1="273.33333333333337" y2="540.0" /><line stroke="gray" stroke-width="1" x1="444.2268041237113" x2="444.2268041237113" y1="273.33333333333337" y2="540.0" /><line stroke="gray" stroke-width="1" x1="452.2680412371134" x2="452.2680412371134" y1="273.33333333333337" y2="540.0" /><line stroke="gray" stroke-width="1" x1="460.30927835051546" x2="460.30927835051546" y1="273.33333333333337" y2="540.0" /><line stroke="gray" stroke-width="1" x1="468.35051546391753" x2="468.35051546391753" y1="273.33333333333337" y2="540.0" /><line stroke="gray" stroke-width="1" x1="476.3917525773196" x2="476.3917525773196" y1="273.33333333333337" y2="540.0" /><line stroke="gray" stroke-width="1" x1="484.4329896907216" x2="484.4329896907216" y1="273.33333333333337" y2="540.0" /><line stroke="gray" stroke-width="1" x1="492.4742268041237" x2="492.4742268041237" y1="273.33333333333337" y2="540.0" /><line stroke="gray" stroke-width="1" x1="500.5154639175258" x2="500.5154639175258" y1="273.33333333333337" y2="540.0" /><line stroke="gray" stroke-width="1" x1="508.5567010309278" x2="508.5567010309278" y1="273.33333333333337" y2="540.0" /><line stroke="gray" stroke-width="1" x1="516.5979381443299" x2="516.5979381443299" y1="273.33333333333337" y2="540.0" /><line stroke="gray" stroke-width="1" x1="524.639175257732" x2="524.639175257732" y1="273.33333333333337" y2="540.0" /><line stroke="gray" stroke-width="1" x1="532.680412371134" x2="532.680412371134" y1="273.33333333333337" y2="540.0" /><line stroke="gray" stroke-width="1" x1="540.7216494845361" x2="540.7216494845361" y1="273.33333333333337" y2="540.0" /><line stroke="gray" stroke-width="1" x1="548.7628865979382" x2="548.7628865979382" y1="273.33333333333337" y2="540.0" /><line stroke="gray" stroke-width="1" x1="556.8041237113403" x2="556.8041237113403" y1="273.33333333333337" y2="540.0" /><line stroke="gray" stroke-width="1" x1="564.8453608247422" x2="564.8453608247422" y1="273.33333333333337" y2="540.0" /><line stroke="gray" stroke-width="1" x1="572.8865979381443" x2="572.8865979381443" y1="273.33333333333337" y2="540.0" /><line stroke="gray" stroke-width="1" x1="580.9278350515464" x2="580.9278350515464" y1="273.33333333333337" y2="540.0" /><line stroke="gray" stroke-width="1" x1="588.9690721649484" x2="588.9690721649484" y1="273.33333333333337" y2="540.0" /><line stroke="gray" stroke-width="1" x1="597.0103092783505" x2="597.0103092783505" y1="273.33333333333337" y2="540.0" /><line stroke="gray" stroke-width="1" x1="605.0515463917526" x2="605.0515463917526" y1="273.33333333333337" y2="540.0" /><line stroke="gray" stroke-width="1" x1="613.0927835051547" x2="613.0927835051547" y1="273.33333333333337" y2="540.0" /><line stroke="gray" stroke-width="1" x1="621.1340206185566" x2="621.1340206185566" y1="273.33333333333337" y2="540.0" /><line stroke="gray" stroke-width="1" x1="629.1752577319587" x2="629.1752577319587" y1="273.33333333333337" y2="540.0" /><line stroke="gray" stroke-width="1" x1="637.2164948453608" x2="637.2164948453608" y1="273.33333333333337" y2="540.0" /><line stroke="gray" stroke-width="1" x1="645.2577319587629" x2="645.2577319587629" y1="273.33333333333337" y2="540.0" /><line stroke="gray" stroke-width="1" x1="653.2989690721649" x2="653.2989690721649" y1="273.33333333333337" y2="540.0" /><line stroke="gray" stroke-width="1" x1="661.340206185567" x2="661.340206185567" y1="273.33333333333337" y2="540.0" /><line stroke="gray" stroke-width="1" x1="669.3814432989691" x2="669.3814432989691" y1="273.33333333333337" y2="540.0" /><line stroke="gray" stroke-width="1" x1="677.4226804123712" x2="677.4226804123712" y1="273.33333333333337" y2="540.0" /><line stroke="gray" stroke-width="1" x1="685.4639175257732" x2="685.4639175257732" y1="273.33333333333337" y2="540.0" /><line stroke="gray" stroke-width="1" x1="693.5051546391752" x2="693.5051546391752" y1="273.33333333333337" y2="540.0" /><line stroke="gray" stroke-width="1" x1="701.5463917525773" x2="701.5463917525773" y1="273.33333333333337" y2="540.0" /><line stroke="gray" stroke-width="1" x1="709.5876288659794" x2="709.5876288659794" y1="273.33333333333337" y2="540.0" /><line stroke="gray" stroke-width="1" x1="717.6288659793814" x2="717.6288659793814" y1="273.33333333333337" y2="540.0" /><line stroke="gray" stroke-width="1" x1="725.6701030927835" x2="725.6701030927835" y1="273.33333333333337" y2="540.0" /><line stroke="gray" stroke-width="1" x1="733.7113402061856" x2="733.7113402061856" y1="273.33333333333337" y2="540.0" /><line stroke="gray" stroke-width="1" x1="741.7525773195877" x2="741.7525773195877" y1="273.33333333333337" y2="540.0" /><line stroke="gray" stroke-width="1" x1="749.7938144329896" x2="749.7938144329896" y1="273.33333333333337" y2="540.0" /><line stroke="gray" stroke-width="1" x1="757.8350515463917" x2="757.8350515463917" y1="273.33333333333337" y2="540.0" /><line stroke="gray" stroke-width="1" x1="765.8762886597938" x2="765.8762886597938" y1="273.33333333333337" y2="540.0" /><line stroke="gray" stroke-width="1" x1="773.9175257731958" x2="773.9175257731958" y1="273.33333333333337" y2="540.0" /><line stroke="gray" stroke-width="1" x1="781.9587628865979" x2="781.9587628865979" y1="273.33333333333337" y2="540.0" /><line stroke="gray" stroke-width="1" x1="790.0" x2="790.0" y1="273.33333333333337" y2="540.0" /><rect fill="blue" height="8.888888888888891" width="88.45360824742268" x="82.37113402061856" y="274.44444444444446" /><text fill="white" font-size="10" text-anchor="start" x="82.37113402061856" y="283.8888888888889">task_inside</text><rect fill="blue" height="8.888888888888891" width="305.5670103092784" x="243.1958762886598" y="296.6666666666667" /><text fill="black" font-size="10" text-anchor="end" x="190.15463917525773" y="306.11111111111114">task_left</text><line stroke="black" stroke-width="1" x1="235.15463917525773" x2="243.1958762886598" y1="301.11111111111114" y2="301.11111111111114" /><rect fill="blue" height="8.888888888888891" width="305.5670103092784" x="243.1958762886598" y="318.8888888888889" /><text fill="black" font-size="10" text-anchor="start" x="556.8041237113403" y="328.33333333333337">task_right</text><line stroke="black" stroke-width="1" x1="556.8041237113403" x2="548.7628865979382" y1="323.33333333333337" y2="323.33333333333337" /><rect fill="blue" height="8.888888888888891" width="88.45360824742268" x="82.37113402061856" y="341.11111111111114" /><text fill="black" font-size="10" text-anchor="middle" x="126.5979381443299" y="335.00000000000006">task_above</text><line stroke="black" stroke-width="1" x1="126.5979381443299" x2="126.5979381443299" y1="345.00000000000006" y2="341.11111111111114" /><rect fill="blue" height="8.888888888888891" width="168.8659793814433" x="82.37113402061856" y="363.33333333333337" /><polygon fill="red" points="548.7628865979382,385.5555555555556 553.2073310423826,390.00000000000006 548.7628865979382,394.4444444444445 544.3184421534937,390.00000000000006" stroke="black" stroke-width="1" /><polygon fill="red" points="548.7628865979382,407.7777777777778 553.2073310423826,412.2222222222223 548.7628865979382,416.66666666666674 544.3184421534937,412.2222222222223" stroke="black" stroke-width="1" /><text fill="black" font-size="10" text-anchor="end" x="470.7216494845361" y="417.2222222222223">milestone_left</text><line stroke="black" stroke-width="1" x1="540.7216494845361" x2="548.7628865979382" y1="412.2222222222223" y2="412.2222222222223" /><polygon fill="red" points="548.7628865979382,430.0 553.2073310423826,434.44444444444446 548.7628865979382,438.8888888888889 544.3184421534937,434.44444444444446" stroke="black" stroke-width="1" /><text fill="black" font-size="10" text-anchor="start" x="556.8041237113403" y="439.44444444444446">milestone_right</text><line stroke="black" stroke-width="1" x1="556.8041237113403" x2="548.7628865979382" y1="434.44444444444446" y2="434.44444444444446" /><polygon fill="red" points="90.41237113402062,452.2222222222223 94.85681557846506,456.66666666666674 90.41237113402062,461.1111111111112 85.96792668957617,456.66666666666674" stroke="black" stroke-width="1" /><text fill="black" font-size="10" text-anchor="middle" x="90.41237113402062" y="446.1111111111112">milestone_above</text><line stroke="black" stroke-width="1" x1="90.41237113402062" x2="90.41237113402062" y1="456.1111111111112" y2="452.2222222222223" /><polygon fill="red" points="90.41237113402062,474.44444444444446 94.85681557846506,478.8888888888889 90.41237113402062,483.33333333333337 85.96792668957617,478.8888888888889" stroke="black" stroke-width="1" /><text fill="black" font-size="10" text-anchor="middle" x="90.41237113402062" y="499.44444444444446">milestone_below</text><line stroke="black" stroke-width="1" x1="90.41237113402062" x2="90.41237113402062" y1="509.44444444444446" y2="483.33333333333337" /></svg>