<?xml version="1.0" encoding="utf-8" ?>
<svg baseProfile="full" height="600" version="1.1" width="800" xmlns="http://www.w3.org/2000/svg" xmlns:ev="http://www.w3.org/2001/xml-events" xmlns:xlink="http://www.w3.org/1999/xlink"><defs /><rect fill="white" height="600" stroke="black" stroke-width="2" width="800" x="0" y="0" /><rect fill="lightgray" height="50" stroke="black" stroke-width="1" width="780" x="10" y="10" /><rect fill="lightgray" height="50" stroke="black" stroke-width="1" width="780" x="10" y="540" /><rect fill="none" height="480" stroke="blue" stroke-dasharray="4" stroke-width="1" width="780" x="10" y="60" /><rect fill="none" height="480" stroke="red" stroke-width="1" width="390.0" x="10" y="60" /><rect fill="lightgrey" height="53.333333333333336" stroke="black" stroke-width="1" width="390.0" x="10" y="60" /><text dominant-baseline="middle" font-size="10" text-anchor="middle" x="205.0" y="86.66666666666667">2025</text><rect fill="lightgrey" height="53.333333333333336" stroke="black" stroke-width="1" width="390.0" x="10" y="113.33333333333334" /><line stroke="black" stroke-width="1" x1="96.97841726618705" x2="96.97841726618705" y1="113.33333333333334" y2="166.66666666666669" /><text dominant-baseline="middle" font-size="10" text-anchor="middle" x="53.489208633093526" y="140.0">Jan</text><line stroke="black" stroke-width="1" x1="175.53956834532374" x2="175.53956834532374" y1="113.33333333333334" y2="166.66666666666669" /><text dominant-baseline="middle" font-size="10" text-anchor="middle" x="136.25899280575538" y="140.0">Feb</text><line stroke="black" stroke-width="1" x1="262.51798561151077" x2="262.51798561151077" y1="113.33333333333334" y2="166.66666666666669" /><text dominant-baseline="middle" font-size="10" text-anchor="middle" x="219.02877697841726" y="140.0">Mar</text><line stroke="black" stroke-width="1" x1="346.69064748201436" x2="346.69064748201436" y1="113.33333333333334" y2="166.66666666666669" /><text dominant-baseline="middle" font-size="10" text-anchor="middle" x="304.60431654676256" y="140.0">Apr</text><text dominant-baseline="middle" font-size="10" text-anchor="middle" x="373.3453237410072" y="140.0">May</text><rect fill="lightgrey" height="53.333333333333336" stroke="black" stroke-width="1" width="390.0" x="10" y="166.66666666666669" /><line stroke="black" stroke-width="1" x1="24.028776978417266" x2="24.028776978417266" y1="166.66666666666669" y2="220.00000000000003" /><line stroke="black" stroke-width="1" x1="43.669064748201436" x2="43.669064748201436" y1="166.66666666666669" y2="220.00000000000003" /><line stroke="black" stroke-width="1" x1="63.30935251798561" x2="63.30935251798561" y1="166.66666666666669" y2="220.00000000000003" /><line stroke="black" stroke-width="1" x1="82.94964028776978" x2="82.94964028776978" y1="166.66666666666669" y2="220.00000000000003" /><line stroke="black" stroke-width="1" x1="102.58992805755395" x2="102.58992805755395" y1="166.66666666666669" y2="220.00000000000003" /><line stroke="black" stroke-width="1" x1="122.23021582733813" x2="122.23021582733813" y1="166.66666666666669" y2="220.00000000000003" /><line stroke="black" stroke-width="1" x1="141.8705035971223" x2="141.8705035971223" y1="166.66666666666669" y2="220.00000000000003" /><line stroke="black" stroke-width="1" x1="161.51079136690646" x2="161.51079136690646" y1="166.66666666666669" y2="220.00000000000003" /><line stroke="black" stroke-width="1" x1="181.15107913669064" x2="181.15107913669064" y1="166.66666666666669" y2="220.00000000000003" /><line stroke="black" stroke-width="1" x1="200.79136690647482" x2="200.79136690647482" y1="166.66666666666669" y2="220.00000000000003" /><line stroke="black" stroke-width="1" x1="220.43165467625897" x2="220.43165467625897" y1="166.66666666666669" y2="220.00000000000003" /><line stroke="black" stroke-width="1" x1="240.07194244604315" x2="240.07194244604315" y1="166.66666666666669" y2="220.00000000000003" /><line stroke="black" stroke-width="1" x1="259.71223021582733" x2="259.71223021582733" y1="166.66666666666669" y2="220.00000000000003" /><line stroke="black" stroke-width="1" x1="279.3525179856115" x2="279.3525179856115" y1="166.66666666666669" y2="220.00000000000003" /><line stroke="black" stroke-width="1" x1="298.9928057553957" x2="298.9928057553957" y1="166.66666666666669" y2="220.00000000000003" /><line stroke="black" stroke-width="1" x1="318.63309352517985" x2="318.63309352517985" y1="166.66666666666669" y2="220.00000000000003" /><line stroke="black" stroke-width="1" x1="338.273381294964" x2="338.273381294964" y1="166.66666666666669" y2="220.00000000000003" /><line stroke="black" stroke-width="1" x1="357.9136690647482" x2="357.9136690647482" y1="166.66666666666669" y2="220.00000000000003" /><line stroke="black" stroke-width="1" x1="377.55395683453236" x2="377.55395683453236" y1="166.66666666666669" y2="220.00000000000003" /><line stroke="black" stroke-width="1" x1="397.1942446043165" x2="397.1942446043165" y1="166.66666666666669" y2="220.00000000000003" /><rect fill="lightgrey" height="53.333333333333336" stroke="black" stroke-width="1" width="390.0" x="10" y="220.00000000000003" /><rect fill="none" height="266.6666666666667" stroke="purple" stroke-width="1" width="390.0" x="10" y="273.33333333333337" /><line stroke="gray" stroke-width="1" x1="10" x2="400.0" y1="273.33333333333337" y2="273.33333333333337" /><line stroke="gray" stroke-width="1" x1="10" x2="400.0" y1="540.0" y2="540.0" /><line stroke="gray" stroke-width="1" x1="96.97841726618705" x2="96.97841726618705" y1="273.33333333333337" y2="540.0" /><line stroke="gray" stroke-width="1" x1="175.53956834532374" x2="175.53956834532374" y1="273.33333333333337" y2="540.0" /><line stroke="gray" stroke-width="1" x1="262.51798561151077" x2="262.51798561151077" y1="273.33333333333337" y2="540.0" /><line stroke="gray" stroke-width="1" x1="346.69064748201436" x2="346.69064748201436" y1="273.33333333333337" y2="540.0" /><line stroke="gray" stroke-width="1" x1="24.028776978417266" x2="24.028776978417266" y1="273.33333333333337" y2="540.0" /><line stroke="gray" stroke-width="1" x1="43.669064748201436" x2="43.669064748201436" y1="273.33333333333337" y2="540.0" /><line stroke="gray" stroke-width="1" x1="63.30935251798561" x2="63.30935251798561" y1="273.33333333333337" y2="540.0" /><line stroke="gray" stroke-width="1" x1="82.94964028776978" x2="82.94964028776978" y1="273.33333333333337" y2="540.0" /><line stroke="gray" stroke-width="1" x1="102.58992805755395" x2="102.58992805755395" y1="273.33333333333337" y2="540.0" /><line stroke="gray" stroke-width="1" x1="122.23021582733813" x2="122.23021582733813" y1="273.33333333333337" y2="540.0" /><line stroke="gray" stroke-width="1" x1="141.8705035971223" x2="141.8705035971223" y1="273.33333333333337" y2="540.0" /><line stroke="gray" stroke-width="1" x1="161.51079136690646" x2="161.51079136690646" y1="273.33333333333337" y2="540.0" /><line stroke="gray" stroke-width="1" x1="181.15107913669064" x2="181.15107913669064" y1="273.33333333333337" y2="540.0" /><line stroke="gray" stroke-width="1" x1="200.79136690647482" x2="200.79136690647482" y1="273.33333333333337" y2="540.0" /><line stroke="gray" stroke-width="1" x1="220.43165467625897" x2="220.43165467625897" y1="273.33333333333337" y2="540.0" /><line stroke="gray" stroke-width="1" x1="240.07194244604315" x2="240.07194244604315" y1="273.33333333333337" y2="540.0" /><line stroke="gray" stroke-width="1" x1="259.71223021582733" x2="259.71223021582733" y1="273.33333333333337" y2="540.0" /><line stroke="gray" stroke-width="1" x1="279.3525179856115" x2="279.3525179856115" y1="273.33333333333337" y2="540.0" /><line stroke="gray" stroke-width="1" x1="298.9928057553957" x2="298.9928057553957" y1="273.33333333333337" y2="540.0" /><line stroke="gray" stroke-width="1" x1="318.63309352517985" x2="318.63309352517985" y1="273.33333333333337" y2="540.0" /><line stroke="gray" stroke-width="1" x1="338.273381294964" x2="338.273381294964" y1="273.33333333333337" y2="540.0" /><line stroke="gray" stroke-width="1" x1="357.9136690647482" x2="357.9136690647482" y1="273.33333333333337" y2="540.0" /><line stroke="gray" stroke-width="1" x1="377.55395683453236" x2="377.55395683453236" y1="273.33333333333337" y2="540.0" /><line stroke="gray" stroke-width="1" x1="397.1942446043165" x2="397.1942446043165" y1="273.33333333333337" y2="540.0" /><line stroke="gray" stroke-width="1" x1="12.805755395683454" x2="12.805755395683454" y1="273.33333333333337" y2="540.0" /><line stroke="gray" stroke-width="1" x1="15.611510791366907" x2="15.611510791366907" y1="273.33333333333337" y2="540.0" /><line stroke="gray" stroke-width="1" x1="18.41726618705036" x2="18.41726618705036" y1="273.33333333333337" y2="540.0" /><line stroke="gray" stroke-width="1" x1="21.223021582733814" x2="21.223021582733814" y1="273.33333333333337" y2="540.0" /><line stroke="gray" stroke-width="1" x1="24.028776978417266" x2="24.028776978417266" y1="273.33333333333337" y2="540.0" /><line stroke="gray" stroke-width="1" x1="26.834532374100718" x2="26.834532374100718" y1="273.33333333333337" y2="540.0" /><line stroke="gray" stroke-width="1" x1="29.640287769784173" x2="29.640287769784173" y1="273.33333333333337" y2="540.0" /><line stroke="gray" stroke-width="1" x1="32.44604316546763" x2="32.44604316546763" y1="273.33333333333337" y2="540.0" /><line stroke="gray" stroke-width="1" x1="35.25179856115108" x2="35.25179856115108" y1="273.33333333333337" y2="540.0" /><line stroke="gray" stroke-width="1" x1="38.05755395683453" x2="38.05755395683453" y1="273.33333333333337" y2="540.0" /><line stroke="gray" stroke-width="1" x1="40.86330935251799" x2="40.86330935251799" y1="273.33333333333337" y2="540.0" /><line stroke="gray" stroke-width="1" x1="43.669064748201436" x2="43.669064748201436" y1="273.33333333333337" y2="540.0" /><line stroke="gray" stroke-width="1" x1="46.47482014388489" x2="46.47482014388489" y1="273.33333333333337" y2="540.0" /><line stroke="gray" stroke-width="1" x1="49.280575539568346" x2="49.280575539568346" y1="273.33333333333337" y2="540.0" /><line stroke="gray" stroke-width="1" x1="52.086330935251794" x2="52.086330935251794" y1="273.33333333333337" y2="540.0" /><line stroke="gray" stroke-width="1" x1="54.89208633093525" x2="54.89208633093525" y1="273.33333333333337" y2="540.0" /><line stroke="gray" stroke-width="1" x1="57.697841726618705" x2="57.697841726618705" y1="273.33333333333337" y2="540.0" /><line stroke="gray" stroke-width="1" x1="60.50359712230215" x2="60.50359712230215" y1="273.33333333333337" y2="540.0" /><line stroke="gray" stroke-width="1" x1="63.30935251798561" x2="63.30935251798561" y1="273.33333333333337" y2="540.0" /><line stroke="gray" stroke-width="1" x1="66.11510791366906" x2="66.11510791366906" y1="273.33333333333337" y2="540.0" /><line stroke="gray" stroke-width="1" x1="68.92086330935251" x2="68.92086330935251" y1="273.33333333333337" y2="540.0" /><line stroke="gray" stroke-width="1" x1="71.72661870503597" x2="71.72661870503597" y1="273.33333333333337" y2="540.0" /><line stroke="gray" stroke-width="1" x1="74.53237410071942" x2="74.53237410071942" y1="273.33333333333337" y2="540.0" /><line stroke="gray" stroke-width="1" x1="77.33812949640287" x2="77.33812949640287" y1="273.33333333333337" y2="540.0" /><line stroke="gray" stroke-width="1" x1="80.14388489208633" x2="80.14388489208633" y1="273.33333333333337" y2="540.0" /><line stroke="gray" stroke-width="1" x1="82.94964028776978" x2="82.94964028776978" y1="273.33333333333337" y2="540.0" /><line stroke="gray" stroke-width="1" x1="85.75539568345323" x2="85.75539568345323" y1="273.33333333333337" y2="540.0" /><line stroke="gray" stroke-width="1" x1="88.56115107913669" x2="88.56115107913669" y1="273.33333333333337" y2="540.0" /><line stroke="gray" stroke-width="1" x1="91.36690647482014" x2="91.36690647482014" y1="273.33333333333337" y2="540.0" /><line stroke="gray" stroke-width="1" x1="94.17266187050359" x2="94.17266187050359" y1="273.33333333333337" y2="540.0" /><line stroke="gray" stroke-width="1" x1="96.97841726618705" x2="96.97841726618705" y1="273.33333333333337" y2="540.0" /><line stroke="gray" stroke-width="1" x1="99.7841726618705" x2="99.7841726618705" y1="273.33333333333337" y2="540.0" /><line stroke="gray" stroke-width="1" x1="102.58992805755395" x2="102.58992805755395" y1="273.33333333333337" y2="540.0" /><line stroke="gray" stroke-width="1" x1="105.39568345323741" x2="105.39568345323741" y1="273.33333333333337" y2="540.0" /><line stroke="gray" stroke-width="1" x1="108.20143884892086" x2="108.20143884892086" y1="273.33333333333337" y2="540.0" /><line stroke="gray" stroke-width="1" x1="111.0071942446043" x2="111.0071942446043" y1="273.33333333333337" y2="540.0" /><line stroke="gray" stroke-width="1" x1="113.81294964028777" x2="113.81294964028777" y1="273.33333333333337" y2="540.0" /><line stroke="gray" stroke-width="1" x1="116.61870503597122" x2="116.61870503597122" y1="273.33333333333337" y2="540.0" /><line stroke="gray" stroke-width="1" x1="119.42446043165467" x2="119.42446043165467" y1="273.33333333333337" y2="540.0" /><line stroke="gray" stroke-width="1" x1="122.23021582733813" x2="122.23021582733813" y1="273.33333333333337" y2="540.0" /><line stroke="gray" stroke-width="1" x1="125.03597122302158" x2="125.03597122302158" y1="273.33333333333337" y2="540.0" /><line stroke="gray" stroke-width="1" x1="127.84172661870502" x2="127.84172661870502" y1="273.33333333333337" y2="540.0" /><line stroke="gray" stroke-width="1" x1="130.6474820143885" x2="130.6474820143885" y1="273.33333333333337" y2="540.0" /><line stroke="gray" stroke-width="1" x1="133.45323741007195" x2="133.45323741007195" y1="273.33333333333337" y2="540.0" /><line stroke="gray" stroke-width="1" x1="136.25899280575538" x2="136.25899280575538" y1="273.33333333333337" y2="540.0" /><line stroke="gray" stroke-width="1" x1="139.06474820143885" x2="139.06474820143885" y1="273.33333333333337" y2="540.0" /><line stroke="gray" stroke-width="1" x1="141.8705035971223" x2="141.8705035971223" y1="273.33333333333337" y2="540.0" /><line stroke="gray" stroke-width="1" x1="144.67625899280574" x2="144.67625899280574" y1="273.33333333333337" y2="540.0" /><line stroke="gray" stroke-width="1" x1="147.4820143884892" x2="147.4820143884892" y1="273.33333333333337" y2="540.0" /><line stroke="gray" stroke-width="1" x1="150.28776978417267" x2="150.28776978417267" y1="273.33333333333337" y2="540.0" /><line stroke="gray" stroke-width="1" x1="153.0935251798561" x2="153.0935251798561" y1="273.33333333333337" y2="540.0" /><line stroke="gray" stroke-width="1" x1="155.89928057553956" x2="155.89928057553956" y1="273.33333333333337" y2="540.0" /><line stroke="gray" stroke-width="1" x1="158.70503597122303" x2="158.70503597122303" y1="273.33333333333337" y2="540.0" /><line stroke="gray" stroke-width="1" x1="161.51079136690646" x2="161.51079136690646" y1="273.33333333333337" y2="540.0" /><line stroke="gray" stroke-width="1" x1="164.31654676258992" x2="164.31654676258992" y1="273.33333333333337" y2="540.0" /><line stroke="gray" stroke-width="1" x1="167.12230215827338" x2="167.12230215827338" y1="273.33333333333337" y2="540.0" /><line stroke="gray" stroke-width="1" x1="169.92805755395682" x2="169.92805755395682" y1="273.33333333333337" y2="540.0" /><line stroke="gray" stroke-width="1" x1="172.73381294964028" x2="172.73381294964028" y1="273.33333333333337" y2="540.0" /><line stroke="gray" stroke-width="1" x1="175.53956834532374" x2="175.53956834532374" y1="273.33333333333337" y2="540.0" /><line stroke="gray" stroke-width="1" x1="178.34532374100718" x2="178.34532374100718" y1="273.33333333333337" y2="540.0" /><line stroke="gray" stroke-width="1" x1="181.15107913669064" x2="181.15107913669064" y1="273.33333333333337" y2="540.0" /><line stroke="gray" stroke-width="1" x1="183.9568345323741" x2="183.9568345323741" y1="273.33333333333337" y2="540.0" /><line stroke="gray" stroke-width="1" x1="186.76258992805754" x2="186.76258992805754" y1="273.33333333333337" y2="540.0" /><line stroke="gray" stroke-width="1" x1="189.568345323741" x2="189.568345323741" y1="273.33333333333337" y2="540.0" /><line stroke="gray" stroke-width="1" x1="192.37410071942446" x2="192.37410071942446" y1="273.33333333333337" y2="540.0" /><line stroke="gray" stroke-width="1" x1="195.1798561151079" x2="195.1798561151079" y1="273.33333333333337" y2="540.0" /><line stroke="gray" stroke-width="1" x1="197.98561151079136" x2="197.98561151079136" y1="273.33333333333337" y2="540.0" /><line stroke="gray" stroke-width="1" x1="200.79136690647482" x2="200.79136690647482" y1="273.33333333333337" y2="540.0" /><line stroke="gray" stroke-width="1" x1="203.59712230215825" x2="203.59712230215825" y1="273.33333333333337" y2="540.0" /><line stroke="gray" stroke-width="1" x1="206.40287769784172" x2="206.40287769784172" y1="273.33333333333337" y2="540.0" /><line stroke="gray" stroke-width="1" x1="209.20863309352518" x2="209.20863309352518" y1="273.33333333333337" y2="540.0" /><line stroke="gray" stroke-width="1" x1="212.0143884892086" x2="212.0143884892086" y1="273.33333333333337" y2="540.0" /><line stroke="gray" stroke-width="1" x1="214.82014388489208" x2="214.82014388489208" y1="273.33333333333337" y2="540.0" /><line stroke="gray" stroke-width="1" x1="217.62589928057554" x2="217.62589928057554" y1="273.33333333333337" y2="540.0" /><line stroke="gray" stroke-width="1" x1="220.43165467625897" x2="220.43165467625897" y1="273.33333333333337" y2="540.0" /><line stroke="gray" stroke-width="1" x1="223.23741007194243" x2="223.23741007194243" y1="273.33333333333337" y2="540.0" /><line stroke="gray" stroke-width="1" x1="226.0431654676259" x2="226.0431654676259" y1="273.33333333333337" y2="540.0" /><line stroke="gray" stroke-width="1" x1="228.84892086330933" x2="228.84892086330933" y1="273.33333333333337" y2="540.0" /><line stroke="gray" stroke-width="1" x1="231.6546762589928" x2="231.6546762589928" y1="273.33333333333337" y2="540.0" /><line stroke="gray" stroke-width="1" x1="234.46043165467626" x2="234.46043165467626" y1="273.33333333333337" y2="540.0" /><line stroke="gray" stroke-width="1" x1="237.2661870503597" x2="237.2661870503597" y1="273.33333333333337" y2="540.0" /><line stroke="gray" stroke-width="1" x1="240.07194244604315" x2="240.07194244604315" y1="273.33333333333337" y2="540.0" /><line stroke="gray" stroke-width="1" x1="242.87769784172662" x2="242.87769784172662" y1="273.33333333333337" y2="540.0" /><line stroke="gray" stroke-width="1" x1="245.68345323741005" x2="245.68345323741005" y1="273.33333333333337" y2="540.0" /><line stroke="gray" stroke-width="1" x1="248.4892086330935" x2="248.4892086330935" y1="273.33333333333337" y2="540.0" /><line stroke="gray" stroke-width="1" x1="251.29496402877697" x2="251.29496402877697" y1="273.33333333333337" y2="540.0" /><line stroke="gray" stroke-width="1" x1="254.1007194244604" x2="254.1007194244604" y1="273.33333333333337" y2="540.0" /><line stroke="gray" stroke-width="1" x1="256.9064748201439" x2="256.9064748201439" y1="273.33333333333337" y2="540.0" /><line stroke="gray" stroke-width="1" x1="259.71223021582733" x2="259.71223021582733" y1="273.33333333333337" y2="540.0" /><line stroke="gray" stroke-width="1" x1="262.51798561151077" x2="262.51798561151077" y1="273.33333333333337" y2="540.0" /><line stroke="gray" stroke-width="1" x1="265.32374100719426" x2="265.32374100719426" y1="273.33333333333337" y2="540.0" /><line stroke="gray" stroke-width="1" x1="268.1294964028777" x2="268.1294964028777" y1="273.33333333333337" y2="540.0" /><line stroke="gray" stroke-width="1" x1="270.9352517985611" x2="270.9352517985611" y1="273.33333333333337" y2="540.0" /><line stroke="gray" stroke-width="1" x1="273.7410071942446" x2="273.7410071942446" y1="273.33333333333337" y2="540.0" /><line stroke="gray" stroke-width="1" x1="276.54676258992805" x2="276.54676258992805" y1="273.33333333333337" y2="540.0" /><line stroke="gray" stroke-width="1" x1="279.3525179856115" x2="279.3525179856115" y1="273.33333333333337" y2="540.0" /><line stroke="gray" stroke-width="1" x1="282.158273381295" x2="282.158273381295" y1="273.33333333333337" y2="540.0" /><line stroke="gray" stroke-width="1" x1="284.9640287769784" x2="284.9640287769784" y1="273.33333333333337" y2="540.0" /><line stroke="gray" stroke-width="1" x1="287.76978417266184" x2="287.76978417266184" y1="273.33333333333337" y2="540.0" /><line stroke="gray" stroke-width="1" x1="290.57553956834533" x2="290.57553956834533" y1="273.33333333333337" y2="540.0" /><line stroke="gray" stroke-width="1" x1="293.38129496402877" x2="293.38129496402877" y1="273.33333333333337" y2="540.0" /><line stroke="gray" stroke-width="1" x1="296.1870503597122" x2="296.1870503597122" y1="273.33333333333337" y2="540.0" /><line stroke="gray" stroke-width="1" x1="298.9928057553957" x2="298.9928057553957" y1="273.33333333333337" y2="540.0" /><line stroke="gray" stroke-width="1" x1="301.7985611510791" x2="301.7985611510791" y1="273.33333333333337" y2="540.0" /><line stroke="gray" stroke-width="1" x1="304.60431654676256" x2="304.60431654676256" y1="273.33333333333337" y2="540.0" /><line stroke="gray" stroke-width="1" x1="307.41007194244605" x2="307.41007194244605" y1="273.33333333333337" y2="540.0" /><line stroke="gray" stroke-width="1" x1="310.2158273381295" x2="310.2158273381295" y1="273.33333333333337" y2="540.0" /><line stroke="gray" stroke-width="1" x1="313.0215827338129" x2="313.0215827338129" y1="273.33333333333337" y2="540.0" /><line stroke="gray" stroke-width="1" x1="315.8273381294964" x2="315.8273381294964" y1="273.33333333333337" y2="540.0" /><line stroke="gray" stroke-width="1" x1="318.63309352517985" x2="318.63309352517985" y1="273.33333333333337" y2="540.0" /><line stroke="gray" stroke-width="1" x1="321.4388489208633" x2="321.4388489208633" y1="273.33333333333337" y2="540.0" /><line stroke="gray" stroke-width="1" x1="324.24460431654677" x2="324.24460431654677" y1="273.33333333333337" y2="540.0" /><line stroke="gray" stroke-width="1" x1="327.0503597122302" x2="327.0503597122302" y1="273.33333333333337" y2="540.0" /><line stroke="gray" stroke-width="1" x1="329.85611510791364" x2="329.85611510791364" y1="273.33333333333337" y2="540.0" /><line stroke="gray" stroke-width="1" x1="332.66187050359713" x2="332.66187050359713" y1="273.33333333333337" y2="540.0" /><line stroke="gray" stroke-width="1" x1="335.46762589928056" x2="335.46762589928056" y1="273.33333333333337" y2="540.0" /><line stroke="gray" stroke-width="1" x1="338.273381294964" x2="338.273381294964" y1="273.33333333333337" y2="540.0" /><line stroke="gray" stroke-width="1" x1="341.0791366906475" x2="341.0791366906475" y1="273.33333333333337" y2="540.0" /><line stroke="gray" stroke-width="1" x1="343.8848920863309" x2="343.8848920863309" y1="273.33333333333337" y2="540.0" /><line stroke="gray" stroke-width="1" x1="346.69064748201436" x2="346.69064748201436" y1="273.33333333333337" y2="540.0" /><line stroke="gray" stroke-width="1" x1="349.49640287769785" x2="349.49640287769785" y1="273.33333333333337" y2="540.0" /><line stroke="gray" stroke-width="1" x1="352.3021582733813" x2="352.3021582733813" y1="273.33333333333337" y2="540.0" /><line stroke="gray" stroke-width="1" x1="355.1079136690647" x2="355.1079136690647" y1="273.33333333333337" y2="540.0" /><line stroke="gray" stroke-width="1" x1="357.9136690647482" x2="357.9136690647482" y1="273.33333333333337" y2="540.0" /><line stroke="gray" stroke-width="1" x1="360.71942446043164" x2="360.71942446043164" y1="273.33333333333337" y2="540.0" /><line stroke="gray" stroke-width="1" x1="363.5251798561151" x2="363.5251798561151" y1="273.33333333333337" y2="540.0" /><line stroke="gray" stroke-width="1" x1="366.33093525179856" x2="366.33093525179856" y1="273.33333333333337" y2="540.0" /><line stroke="gray" stroke-width="1" x1="369.136690647482" x2="369.136690647482" y1="273.33333333333337" y2="540.0" /><line stroke="gray" stroke-width="1" x1="371.94244604316543" x2="371.94244604316543" y1="273.33333333333337" y2="540.0" /><line stroke="gray" stroke-width="1" x1="374.7482014388489" x2="374.7482014388489" y1="273.33333333333337" y2="540.0" /><line stroke="gray" stroke-width="1" x1="377.55395683453236" x2="377.55395683453236" y1="273.33333333333337" y2="540.0" /><line stroke="gray" stroke-width="1" x1="380.3597122302158" x2="380.3597122302158" y1="273.33333333333337" y2="540.0" /><line stroke="gray" stroke-width="1" x1="383.1654676258993" x2="383.1654676258993" y1="273.33333333333337" y2="540.0" /><line stroke="gray" stroke-width="1" x1="385.9712230215827" x2="385.9712230215827" y1="273.33333333333337" y2="540.0" /><line stroke="gray" stroke-width="1" x1="388.77697841726615" x2="388.77697841726615" y1="273.33333333333337" y2="540.0" /><line stroke="gray" stroke-width="1" x1="391.58273381294964" x2="391.58273381294964" y1="273.33333333333337" y2="540.0" /><line stroke="gray" stroke-width="1" x1="394.3884892086331" x2="394.3884892086331" y1="273.33333333333337" y2="540.0" /><line stroke="gray" stroke-width="1" x1="397.1942446043165" x2="397.1942446043165" y1="273.33333333333337" y2="540.0" /><line stroke="gray" stroke-width="1" x1="400.0" x2="400.0" y1="273.33333333333337" y2="540.0" /><rect fill="none" height="480" stroke="red" stroke-width="1" width="195.0" x="400.0" y="60" /><rect fill="lightgrey" height="53.333333333333336" stroke="black" stroke-width="1" width="195.0" x="400.0" y="60" /><text dominant-baseline="middle" font-size="10" text-anchor="middle" x="497.5" y="86.66666666666667">2025</text><rect fill="lightgrey" height="53.333333333333336" stroke="black" stroke-width="1" width="195.0" x="400.0" y="113.33333333333334" /><line stroke="black" stroke-width="1" x1="410.3125" x2="410.3125" y1="113.33333333333334" y2="166.66666666666669" /><line stroke="black" stroke-width="1" x1="438.4375" x2="438.4375" y1="113.33333333333334" y2="166.66666666666669" /><text dominant-baseline="middle" font-size="10" text-anchor="middle" x="424.375" y="140.0">J</text><line stroke="black" stroke-width="1" x1="467.5" x2="467.5" y1="113.33333333333334" y2="166.66666666666669" /><text dominant-baseline="middle" font-size="10" text-anchor="middle" x="452.96875" y="140.0">J</text><line stroke="black" stroke-width="1" x1="496.5625" x2="496.5625" y1="113.33333333333334" y2="166.66666666666669" /><text dominant-baseline="middle" font-size="10" text-anchor="middle" x="482.03125" y="140.0">A</text><line stroke="black" stroke-width="1" x1="524.6875" x2="524.6875" y1="113.33333333333334" y2="166.66666666666669" /><text dominant-baseline="middle" font-size="10" text-anchor="middle" x="510.625" y="140.0">S</text><line stroke="black" stroke-width="1" x1="553.75" x2="553.75" y1="113.33333333333334" y2="166.66666666666669" /><text dominant-baseline="middle" font-size="10" text-anchor="middle" x="539.21875" y="140.0">O</text><line stroke="black" stroke-width="1" x1="581.875" x2="581.875" y1="113.33333333333334" y2="166.66666666666669" /><text dominant-baseline="middle" font-size="10" text-anchor="middle" x="567.8125" y="140.0">N</text><rect fill="lightgrey" height="53.333333333333336" stroke="black" stroke-width="1" width="195.0" x="400.0" y="166.66666666666669" /><line stroke="black" stroke-width="1" x1="411.25" x2="411.25" y1="166.66666666666669" y2="220.00000000000003" /><line stroke="black" stroke-width="1" x1="417.8125" x2="417.8125" y1="166.66666666666669" y2="220.00000000000003" /><line stroke="black" stroke-width="1" x1="424.375" x2="424.375" y1="166.66666666666669" y2="220.00000000000003" /><line stroke="black" stroke-width="1" x1="430.9375" x2="430.9375" y1="166.66666666666669" y2="220.00000000000003" /><line stroke="black" stroke-width="1" x1="437.5" x2="437.5" y1="166.66666666666669" y2="220.00000000000003" /><line stroke="black" stroke-width="1" x1="444.0625" x2="444.0625" y1="166.66666666666669" y2="220.00000000000003" /><line stroke="black" stroke-width="1" x1="450.625" x2="450.625" y1="166.66666666666669" y2="220.00000000000003" /><line stroke="black" stroke-width="1" x1="457.1875" x2="457.1875" y1="166.66666666666669" y2="220.00000000000003" /><line stroke="black" stroke-width="1" x1="463.75" x2="463.75" y1="166.66666666666669" y2="220.00000000000003" /><line stroke="black" stroke-width="1" x1="470.3125" x2="470.3125" y1="166.66666666666669" y2="220.00000000000003" /><line stroke="black" stroke-width="1" x1="476.875" x2="476.875" y1="166.66666666666669" y2="220.00000000000003" /><line stroke="black" stroke-width="1" x1="483.4375" x2="483.4375" y1="166.66666666666669" y2="220.00000000000003" /><line stroke="black" stroke-width="1" x1="490.0" x2="490.0" y1="166.66666666666669" y2="220.00000000000003" /><line stroke="black" stroke-width="1" x1="496.5625" x2="496.5625" y1="166.66666666666669" y2="220.00000000000003" /><line stroke="black" stroke-width="1" x1="503.125" x2="503.125" y1="166.66666666666669" y2="220.00000000000003" /><line stroke="black" stroke-width="1" x1="509.6875" x2="509.6875" y1="166.66666666666669" y2="220.00000000000003" /><line stroke="black" stroke-width="1" x1="516.25" x2="516.25" y1="166.66666666666669" y2="220.00000000000003" /><line stroke="black" stroke-width="1" x1="522.8125" x2="522.8125" y1="166.66666666666669" y2="220.00000000000003" /><line stroke="black" stroke-width="1" x1="529.375" x2="529.375" y1="166.66666666666669" y2="220.00000000000003" /><line stroke="black" stroke-width="1" x1="535.9375" x2="535.9375" y1="166.66666666666669" y2="220.00000000000003" /><line stroke="black" stroke-width="1" x1="542.5" x2="542.5" y1="166.66666666666669" y2="220.00000000000003" /><line stroke="black" stroke-width="1" x1="549.0625" x2="549.0625" y1="166.66666666666669" y2="220.00000000000003" /><line stroke="black" stroke-width="1" x1="555.625" x2="555.625" y1="166.66666666666669" y2="220.00000000000003" /><line stroke="black" stroke-width="1" x1="562.1875" x2="562.1875" y1="166.66666666666669" y2="220.00000000000003" /><line stroke="black" stroke-width="1" x1="568.75" x2="568.75" y1="166.66666666666669" y2="220.00000000000003" /><line stroke="black" stroke-width="1" x1="575.3125" x2="575.3125" y1="166.66666666666669" y2="220.00000000000003" /><line stroke="black" stroke-width="1" x1="581.875" x2="581.875" y1="166.66666666666669" y2="220.00000000000003" /><line stroke="black" stroke-width="1" x1="588.4375" x2="588.4375" y1="166.66666666666669" y2="220.00000000000003" /><line stroke="black" stroke-width="1" x1="595.0" x2="595.0" y1="166.66666666666669" y2="220.00000000000003" /><rect fill="lightgrey" height="53.333333333333336" stroke="black" stroke-width="1" width="195.0" x="400.0" y="220.00000000000003" /><rect fill="none" height="266.6666666666667" stroke="purple" stroke-width="1" width="195.0" x="400.0" y="273.33333333333337" /><line stroke="gray" stroke-width="1" x1="400.0" x2="595.0" y1="273.33333333333337" y2="273.33333333333337" /><line stroke="gray" stroke-width="1" x1="400.0" x2="595.0" y1="540.0" y2="540.0" /><line stroke="gray" stroke-width="1" x1="410.3125" x2="410.3125" y1="273.33333333333337" y2="540.0" /><line stroke="gray" stroke-width="1" x1="438.4375" x2="438.4375" y1="273.33333333333337" y2="540.0" /><line stroke="gray" stroke-width="1" x1="467.5" x2="467.5" y1="273.33333333333337" y2="540.0" /><line stroke="gray" stroke-width="1" x1="496.5625" x2="496.5625" y1="273.33333333333337" y2="540.0" /><line stroke="gray" stroke-width="1" x1="524.6875" x2="524.6875" y1="273.33333333333337" y2="540.0" /><line stroke="gray" stroke-width="1" x1="553.75" x2="553.75" y1="273.33333333333337" y2="540.0" /><line stroke="gray" stroke-width="1" x1="581.875" x2="581.875" y1="273.33333333333337" y2="540.0" /><line stroke="gray" stroke-width="1" x1="404.6875" x2="404.6875" y1="273.33333333333337" y2="540.0" /><line stroke="gray" stroke-width="1" x1="411.25" x2="411.25" y1="273.33333333333337" y2="540.0" /><line stroke="gray" stroke-width="1" x1="417.8125" x2="417.8125" y1="273.33333333333337" y2="540.0" /><line stroke="gray" stroke-width="1" x1="424.375" x2="424.375" y1="273.33333333333337" y2="540.0" /><line stroke="gray" stroke-width="1" x1="430.9375" x2="430.9375" y1="273.33333333333337" y2="540.0" /><line stroke="gray" stroke-width="1" x1="437.5" x2="437.5" y1="273.33333333333337" y2="540.0" /><line stroke="gray" stroke-width="1" x1="444.0625" x2="444.0625" y1="273.33333333333337" y2="540.0" /><line stroke="gray" stroke-width="1" x1="450.625" x2="450.625" y1="273.33333333333337" y2="540.0" /><line stroke="gray" stroke-width="1" x1="457.1875" x2="457.1875" y1="273.33333333333337" y2="540.0" /><line stroke="gray" stroke-width="1" x1="463.75" x2="463.75" y1="273.33333333333337" y2="540.0" /><line stroke="gray" stroke-width="1" x1="470.3125" x2="470.3125" y1="273.33333333333337" y2="540.0" /><line stroke="gray" stroke-width="1" x1="476.875" x2="476.875" y1="273.33333333333337" y2="540.0" /><line stroke="gray" stroke-width="1" x1="483.4375" x2="483.4375" y1="273.33333333333337" y2="540.0" /><line stroke="gray" stroke-width="1" x1="490.0" x2="490.0" y1="273.33333333333337" y2="540.0" /><line stroke="gray" stroke-width="1" x1="496.5625" x2="496.5625" y1="273.33333333333337" y2="540.0" /><line stroke="gray" stroke-width="1" x1="503.125" x2="503.125" y1="273.33333333333337" y2="540.0" /><line stroke="gray" stroke-width="1" x1="509.6875" x2="509.6875" y1="273.33333333333337" y2="540.0" /><line stroke="gray" stroke-width="1" x1="516.25" x2="516.25" y1="273.33333333333337" y2="540.0" /><line stroke="gray" stroke-width="1" x1="522.8125" x2="522.8125" y1="273.33333333333337" y2="540.0" /><line stroke="gray" stroke-width="1" x1="529.375" x2="529.375" y1="273.33333333333337" y2="540.0" /><line stroke="gray" stroke-width="1" x1="535.9375" x2="535.9375" y1="273.33333333333337" y2="540.0" /><line stroke="gray" stroke-width="1" x1="542.5" x2="542.5" y1="273.33333333333337" y2="540.0" /><line stroke="gray" stroke-width="1" x1="549.0625" x2="549.0625" y1="273.33333333333337" y2="540.0" /><line stroke="gray" stroke-width="1" x1="555.625" x2="555.625" y1="273.33333333333337" y2="540.0" /><line stroke="gray" stroke-width="1" x1="562.1875" x2="562.1875" y1="273.33333333333337" y2="540.0" /><line stroke="gray" stroke-width="1" x1="568.75" x2="568.75" y1="273.33333333333337" y2="540.0" /><line stroke="gray" stroke-width="1" x1="575.3125" x2="575.3125" y1="273.33333333333337" y2="540.0" /><line stroke="gray" stroke-width="1" x1="581.875" x2="581.875" y1="273.33333333333337" y2="540.0" /><line stroke="gray" stroke-width="1" x1="588.4375" x2="588.4375" y1="273.33333333333337" y2="540.0" /><line stroke="gray" stroke-width="1" x1="595.0" x2="595.0" y1="273.33333333333337" y2="540.0" /><line stroke="gray" stroke-width="1" x1="400.9375" x2="400.9375" y1="273.33333333333337" y2="540.0" /><line stroke="gray" stroke-width="1" x1="401.875" x2="401.875" y1="273.33333333333337" y2="540.0" /><line stroke="gray" stroke-width="1" x1="402.8125" x2="402.8125" y1="273.33333333333337" y2="540.0" /><line stroke="gray" stroke-width="1" x1="403.75" x2="403.75" y1="273.33333333333337" y2="540.0" /><line stroke="gray" stroke-width="1" x1="404.6875" x2="404.6875" y1="273.33333333333337" y2="540.0" /><line stroke="gray" stroke-width="1" x1="405.625" x2="405.625" y1="273.33333333333337" y2="540.0" /><line stroke="gray" stroke-width="1" x1="406.5625" x2="406.5625" y1="273.33333333333337" y2="540.0" /><line stroke="gray" stroke-width="1" x1="407.5" x2="407.5" y1="273.33333333333337" y2="540.0" /><line stroke="gray" stroke-width="1" x1="408.4375" x2="408.4375" y1="273.33333333333337" y2="540.0" /><line stroke="gray" stroke-width="1" x1="409.375" x2="409.375" y1="273.33333333333337" y2="540.0" /><line stroke="gray" stroke-width="1" x1="410.3125" x2="410.3125" y1="273.33333333333337" y2="540.0" /><line stroke="gray" stroke-width="1" x1="411.25" x2="411.25" y1="273.33333333333337" y2="540.0" /><line stroke="gray" stroke-width="1" x1="412.1875" x2="412.1875" y1="273.33333333333337" y2="540.0" /><line stroke="gray" stroke-width="1" x1="413.125" x2="413.125" y1="273.33333333333337" y2="540.0" /><line stroke="gray" stroke-width="1" x1="414.0625" x2="414.0625" y1="273.33333333333337" y2="540.0" /><line stroke="gray" stroke-width="1" x1="415.0" x2="415.0" y1="273.33333333333337" y2="540.0" /><line stroke="gray" stroke-width="1" x1="415.9375" x2="415.9375" y1="273.33333333333337" y2="540.0" /><line stroke="gray" stroke-width="1" x1="416.875" x2="416.875" y1="273.33333333333337" y2="540.0" /><line stroke="gray" stroke-width="1" x1="417.8125" x2="417.8125" y1="273.33333333333337" y2="540.0" /><line stroke="gray" stroke-width="1" x1="418.75" x2="418.75" y1="273.33333333333337" y2="540.0" /><line stroke="gray" stroke-width="1" x1="419.6875" x2="419.6875" y1="273.33333333333337" y2="540.0" /><line stroke="gray" stroke-width="1" x1="420.625" x2="420.625" y1="273.33333333333337" y2="540.0" /><line stroke="gray" stroke-width="1" x1="421.5625" x2="421.5625" y1="273.33333333333337" y2="540.0" /><line stroke="gray" stroke-width="1" x1="422.5" x2="422.5" y1="273.33333333333337" y2="540.0" /><line stroke="gray" stroke-width="1" x1="423.4375" x2="423.4375" y1="273.33333333333337" y2="540.0" /><line stroke="gray" stroke-width="1" x1="424.375" x2="424.375" y1="273.33333333333337" y2="540.0" /><line stroke="gray" stroke-width="1" x1="425.3125" x2="425.3125" y1="273.33333333333337" y2="540.0" /><line stroke="gray" stroke-width="1" x1="426.25" x2="426.25" y1="273.33333333333337" y2="540.0" /><line stroke="gray" stroke-width="1" x1="427.1875" x2="427.1875" y1="273.33333333333337" y2="540.0" /><line stroke="gray" stroke-width="1" x1="428.125" x2="428.125" y1="273.33333333333337" y2="540.0" /><line stroke="gray" stroke-width="1" x1="429.0625" x2="429.0625" y1="273.33333333333337" y2="540.0" /><line stroke="gray" stroke-width="1" x1="430.0" x2="430.0" y1="273.33333333333337" y2="540.0" /><line stroke="gray" stroke-width="1" x1="430.9375" x2="430.9375" y1="273.33333333333337" y2="540.0" /><line stroke="gray" stroke-width="1" x1="431.875" x2="431.875" y1="273.33333333333337" y2="540.0" /><line stroke="gray" stroke-width="1" x1="432.8125" x2="432.8125" y1="273.33333333333337" y2="540.0" /><line stroke="gray" stroke-width="1" x1="433.75" x2="433.75" y1="273.33333333333337" y2="540.0" /><line stroke="gray" stroke-width="1" x1="434.6875" x2="434.6875" y1="273.33333333333337" y2="540.0" /><line stroke="gray" stroke-width="1" x1="435.625" x2="435.625" y1="273.33333333333337" y2="540.0" /><line stroke="gray" stroke-width="1" x1="436.5625" x2="436.5625" y1="273.33333333333337" y2="540.0" /><line stroke="gray" stroke-width="1" x1="437.5" x2="437.5" y1="273.33333333333337" y2="540.0" /><line stroke="gray" stroke-width="1" x1="438.4375" x2="438.4375" y1="273.33333333333337" y2="540.0" /><line stroke="gray" stroke-width="1" x1="439.375" x2="439.375" y1="273.33333333333337" y2="540.0" /><line stroke="gray" stroke-width="1" x1="440.3125" x2="440.3125" y1="273.33333333333337" y2="540.0" /><line stroke="gray" stroke-width="1" x1="441.25" x2="441.25" y1="273.33333333333337" y2="540.0" /><line stroke="gray" stroke-width="1" x1="442.1875" x2="442.1875" y1="273.33333333333337" y2="540.0" /><line stroke="gray" stroke-width="1" x1="443.125" x2="443.125" y1="273.33333333333337" y2="540.0" /><line stroke="gray" stroke-width="1" x1="444.0625" x2="444.0625" y1="273.33333333333337" y2="540.0" /><line stroke="gray" stroke-width="1" x1="445.0" x2="445.0" y1="273.33333333333337" y2="540.0" /><line stroke="gray" stroke-width="1" x1="445.9375" x2="445.9375" y1="273.33333333333337" y2="540.0" /><line stroke="gray" stroke-width="1" x1="446.875" x2="446.875" y1="273.33333333333337" y2="540.0" /><line stroke="gray" stroke-width="1" x1="447.8125" x2="447.8125" y1="273.33333333333337" y2="540.0" /><line stroke="gray" stroke-width="1" x1="448.75" x2="448.75" y1="273.33333333333337" y2="540.0" /><line stroke="gray" stroke-width="1" x1="449.6875" x2="449.6875" y1="273.33333333333337" y2="540.0" /><line stroke="gray" stroke-width="1" x1="450.625" x2="450.625" y1="273.33333333333337" y2="540.0" /><line stroke="gray" stroke-width="1" x1="451.5625" x2="451.5625" y1="273.33333333333337" y2="540.0" /><line stroke="gray" stroke-width="1" x1="452.5" x2="452.5" y1="273.33333333333337" y2="540.0" /><line stroke="gray" stroke-width="1" x1="453.4375" x2="453.4375" y1="273.33333333333337" y2="540.0" /><line stroke="gray" stroke-width="1" x1="454.375" x2="454.375" y1="273.33333333333337" y2="540.0" /><line stroke="gray" stroke-width="1" x1="455.3125" x2="455.3125" y1="273.33333333333337" y2="540.0" /><line stroke="gray" stroke-width="1" x1="456.25" x2="456.25" y1="273.33333333333337" y2="540.0" /><line stroke="gray" stroke-width="1" x1="457.1875" x2="457.1875" y1="273.33333333333337" y2="540.0" /><line stroke="gray" stroke-width="1" x1="458.125" x2="458.125" y1="273.33333333333337" y2="540.0" /><line stroke="gray" stroke-width="1" x1="459.0625" x2="459.0625" y1="273.33333333333337" y2="540.0" /><line stroke="gray" stroke-width="1" x1="460.0" x2="460.0" y1="273.33333333333337" y2="540.0" /><line stroke="gray" stroke-width="1" x1="460.9375" x2="460.9375" y1="273.33333333333337" y2="540.0" /><line stroke="gray" stroke-width="1" x1="461.875" x2="461.875" y1="273.33333333333337" y2="540.0" /><line stroke="gray" stroke-width="1" x1="462.8125" x2="462.8125" y1="273.33333333333337" y2="540.0" /><line stroke="gray" stroke-width="1" x1="463.75" x2="463.75" y1="273.33333333333337" y2="540.0" /><line stroke="gray" stroke-width="1" x1="464.6875" x2="464.6875" y1="273.33333333333337" y2="540.0" /><line stroke="gray" stroke-width="1" x1="465.625" x2="465.625" y1="273.33333333333337" y2="540.0" /><line stroke="gray" stroke-width="1" x1="466.5625" x2="466.5625" y1="273.33333333333337" y2="540.0" /><line stroke="gray" stroke-width="1" x1="467.5" x2="467.5" y1="273.33333333333337" y2="540.0" /><line stroke="gray" stroke-width="1" x1="468.4375" x2="468.4375" y1="273.33333333333337" y2="540.0" /><line stroke="gray" stroke-width="1" x1="469.375" x2="469.375" y1="273.33333333333337" y2="540.0" /><line stroke="gray" stroke-width="1" x1="470.3125" x2="470.3125" y1="273.33333333333337" y2="540.0" /><line stroke="gray" stroke-width="1" x1="471.25" x2="471.25" y1="273.33333333333337" y2="540.0" /><line stroke="gray" stroke-width="1" x1="472.1875" x2="472.1875" y1="273.33333333333337" y2="540.0" /><line stroke="gray" stroke-width="1" x1="473.125" x2="473.125" y1="273.33333333333337" y2="540.0" /><line stroke="gray" stroke-width="1" x1="474.0625" x2="474.0625" y1="273.33333333333337" y2="540.0" /><line stroke="gray" stroke-width="1" x1="475.0" x2="475.0" y1="273.33333333333337" y2="540.0" /><line stroke="gray" stroke-width="1" x1="475.9375" x2="475.9375" y1="273.33333333333337" y2="540.0" /><line stroke="gray" stroke-width="1" x1="476.875" x2="476.875" y1="273.33333333333337" y2="540.0" /><line stroke="gray" stroke-width="1" x1="477.8125" x2="477.8125" y1="273.33333333333337" y2="540.0" /><line stroke="gray" stroke-width="1" x1="478.75" x2="478.75" y1="273.33333333333337" y2="540.0" /><line stroke="gray" stroke-width="1" x1="479.6875" x2="479.6875" y1="273.33333333333337" y2="540.0" /><line stroke="gray" stroke-width="1" x1="480.625" x2="480.625" y1="273.33333333333337" y2="540.0" /><line stroke="gray" stroke-width="1" x1="481.5625" x2="481.5625" y1="273.33333333333337" y2="540.0" /><line stroke="gray" stroke-width="1" x1="482.5" x2="482.5" y1="273.33333333333337" y2="540.0" /><line stroke="gray" stroke-width="1" x1="483.4375" x2="483.4375" y1="273.33333333333337" y2="540.0" /><line stroke="gray" stroke-width="1" x1="484.375" x2="484.375" y1="273.33333333333337" y2="540.0" /><line stroke="gray" stroke-width="1" x1="485.3125" x2="485.3125" y1="273.33333333333337" y2="540.0" /><line stroke="gray" stroke-width="1" x1="486.25" x2="486.25" y1="273.33333333333337" y2="540.0" /><line stroke="gray" stroke-width="1" x1="487.1875" x2="487.1875" y1="273.33333333333337" y2="540.0" /><line stroke="gray" stroke-width="1" x1="488.125" x2="488.125" y1="273.33333333333337" y2="540.0" /><line stroke="gray" stroke-width="1" x1="489.0625" x2="489.0625" y1="273.33333333333337" y2="540.0" /><line stroke="gray" stroke-width="1" x1="490.0" x2="490.0" y1="273.33333333333337" y2="540.0" /><line stroke="gray" stroke-width="1" x1="490.9375" x2="490.9375" y1="273.33333333333337" y2="540.0" /><line stroke="gray" stroke-width="1" x1="491.875" x2="491.875" y1="273.33333333333337" y2="540.0" /><line stroke="gray" stroke-width="1" x1="492.8125" x2="492.8125" y1="273.33333333333337" y2="540.0" /><line stroke="gray" stroke-width="1" x1="493.75" x2="493.75" y1="273.33333333333337" y2="540.0" /><line stroke="gray" stroke-width="1" x1="494.6875" x2="494.6875" y1="273.33333333333337" y2="540.0" /><line stroke="gray" stroke-width="1" x1="495.625" x2="495.625" y1="273.33333333333337" y2="540.0" /><line stroke="gray" stroke-width="1" x1="496.5625" x2="496.5625" y1="273.33333333333337" y2="540.0" /><line stroke="gray" stroke-width="1" x1="497.5" x2="497.5" y1="273.33333333333337" y2="540.0" /><line stroke="gray" stroke-width="1" x1="498.4375" x2="498.4375" y1="273.33333333333337" y2="540.0" /><line stroke="gray" stroke-width="1" x1="499.375" x2="499.375" y1="273.33333333333337" y2="540.0" /><line stroke="gray" stroke-width="1" x1="500.3125" x2="500.3125" y1="273.33333333333337" y2="540.0" /><line stroke="gray" stroke-width="1" x1="501.25" x2="501.25" y1="273.33333333333337" y2="540.0" /><line stroke="gray" stroke-width="1" x1="502.1875" x2="502.1875" y1="273.33333333333337" y2="540.0" /><line stroke="gray" stroke-width="1" x1="503.125" x2="503.125" y1="273.33333333333337" y2="540.0" /><line stroke="gray" stroke-width="1" x1="504.0625" x2="504.0625" y1="273.33333333333337" y2="540.0" /><line stroke="gray" stroke-width="1" x1="505.0" x2="505.0" y1="273.33333333333337" y2="540.0" /><line stroke="gray" stroke-width="1" x1="505.9375" x2="505.9375" y1="273.33333333333337" y2="540.0" /><line stroke="gray" stroke-width="1" x1="506.875" x2="506.875" y1="273.33333333333337" y2="540.0" /><line stroke="gray" stroke-width="1" x1="507.8125" x2="507.8125" y1="273.33333333333337" y2="540.0" /><line stroke="gray" stroke-width="1" x1="508.75" x2="508.75" y1="273.33333333333337" y2="540.0" /><line stroke="gray" stroke-width="1" x1="509.6875" x2="509.6875" y1="273.33333333333337" y2="540.0" /><line stroke="gray" stroke-width="1" x1="510.625" x2="510.625" y1="273.33333333333337" y2="540.0" /><line stroke="gray" stroke-width="1" x1="511.5625" x2="511.5625" y1="273.33333333333337" y2="540.0" /><line stroke="gray" stroke-width="1" x1="512.5" x2="512.5" y1="273.33333333333337" y2="540.0" /><line stroke="gray" stroke-width="1" x1="513.4375" x2="513.4375" y1="273.33333333333337" y2="540.0" /><line stroke="gray" stroke-width="1" x1="514.375" x2="514.375" y1="273.33333333333337" y2="540.0" /><line stroke="gray" stroke-width="1" x1="515.3125" x2="515.3125" y1="273.33333333333337" y2="540.0" /><line stroke="gray" stroke-width="1" x1="516.25" x2="516.25" y1="273.33333333333337" y2="540.0" /><line stroke="gray" stroke-width="1" x1="517.1875" x2="517.1875" y1="273.33333333333337" y2="540.0" /><line stroke="gray" stroke-width="1" x1="518.125" x2="518.125" y1="273.33333333333337" y2="540.0" /><line stroke="gray" stroke-width="1" x1="519.0625" x2="519.0625" y1="273.33333333333337" y2="540.0" /><line stroke="gray" stroke-width="1" x1="520.0" x2="520.0" y1="273.33333333333337" y2="540.0" /><line stroke="gray" stroke-width="1" x1="520.9375" x2="520.9375" y1="273.33333333333337" y2="540.0" /><line stroke="gray" stroke-width="1" x1="521.875" x2="521.875" y1="273.33333333333337" y2="540.0" /><line stroke="gray" stroke-width="1" x1="522.8125" x2="522.8125" y1="273.33333333333337" y2="540.0" /><line stroke="gray" stroke-width="1" x1="523.75" x2="523.75" y1="273.33333333333337" y2="540.0" /><line stroke="gray" stroke-width="1" x1="524.6875" x2="524.6875" y1="273.33333333333337" y2="540.0" /><line stroke="gray" stroke-width="1" x1="525.625" x2="525.625" y1="273.33333333333337" y2="540.0" /><line stroke="gray" stroke-width="1" x1="526.5625" x2="526.5625" y1="273.33333333333337" y2="540.0" /><line stroke="gray" stroke-width="1" x1="527.5" x2="527.5" y1="273.33333333333337" y2="540.0" /><line stroke="gray" stroke-width="1" x1="528.4375" x2="528.4375" y1="273.33333333333337" y2="540.0" /><line stroke="gray" stroke-width="1" x1="529.375" x2="529.375" y1="273.33333333333337" y2="540.0" /><line stroke="gray" stroke-width="1" x1="530.3125" x2="530.3125" y1="273.33333333333337" y2="540.0" /><line stroke="gray" stroke-width="1" x1="531.25" x2="531.25" y1="273.33333333333337" y2="540.0" /><line stroke="gray" stroke-width="1" x1="532.1875" x2="532.1875" y1="273.33333333333337" y2="540.0" /><line stroke="gray" stroke-width="1" x1="533.125" x2="533.125" y1="273.33333333333337" y2="540.0" /><line stroke="gray" stroke-width="1" x1="534.0625" x2="534.0625" y1="273.33333333333337" y2="540.0" /><line stroke="gray" stroke-width="1" x1="535.0" x2="535.0" y1="273.33333333333337" y2="540.0" /><line stroke="gray" stroke-width="1" x1="535.9375" x2="535.9375" y1="273.33333333333337" y2="540.0" /><line stroke="gray" stroke-width="1" x1="536.875" x2="536.875" y1="273.33333333333337" y2="540.0" /><line stroke="gray" stroke-width="1" x1="537.8125" x2="537.8125" y1="273.33333333333337" y2="540.0" /><line stroke="gray" stroke-width="1" x1="538.75" x2="538.75" y1="273.33333333333337" y2="540.0" /><line stroke="gray" stroke-width="1" x1="539.6875" x2="539.6875" y1="273.33333333333337" y2="540.0" /><line stroke="gray" stroke-width="1" x1="540.625" x2="540.625" y1="273.33333333333337" y2="540.0" /><line stroke="gray" stroke-width="1" x1="541.5625" x2="541.5625" y1="273.33333333333337" y2="540.0" /><line stroke="gray" stroke-width="1" x1="542.5" x2="542.5" y1="273.33333333333337" y2="540.0" /><line stroke="gray" stroke-width="1" x1="543.4375" x2="543.4375" y1="273.33333333333337" y2="540.0" /><line stroke="gray" stroke-width="1" x1="544.375" x2="544.375" y1="273.33333333333337" y2="540.0" /><line stroke="gray" stroke-width="1" x1="545.3125" x2="545.3125" y1="273.33333333333337" y2="540.0" /><line stroke="gray" stroke-width="1" x1="546.25" x2="546.25" y1="273.33333333333337" y2="540.0" /><line stroke="gray" stroke-width="1" x1="547.1875" x2="547.1875" y1="273.33333333333337" y2="540.0" /><line stroke="gray" stroke-width="1" x1="548.125" x2="548.125" y1="273.33333333333337" y2="540.0" /><line stroke="gray" stroke-width="1" x1="549.0625" x2="549.0625" y1="273.33333333333337" y2="540.0" /><line stroke="gray" stroke-width="1" x1="550.0" x2="550.0" y1="273.33333333333337" y2="540.0" /><line stroke="gray" stroke-width="1" x1="550.9375" x2="550.9375" y1="273.33333333333337" y2="540.0" /><line stroke="gray" stroke-width="1" x1="551.875" x2="551.875" y1="273.33333333333337" y2="540.0" /><line stroke="gray" stroke-width="1" x1="552.8125" x2="552.8125" y1="273.33333333333337" y2="540.0" /><line stroke="gray" stroke-width="1" x1="553.75" x2="553.75" y1="273.33333333333337" y2="540.0" /><line stroke="gray" stroke-width="1" x1="554.6875" x2="554.6875" y1="273.33333333333337" y2="540.0" /><line stroke="gray" stroke-width="1" x1="555.625" x2="555.625" y1="273.33333333333337" y2="540.0" /><line stroke="gray" stroke-width="1" x1="556.5625" x2="556.5625" y1="273.33333333333337" y2="540.0" /><line stroke="gray" stroke-width="1" x1="557.5" x2="557.5" y1="273.33333333333337" y2="540.0" /><line stroke="gray" stroke-width="1" x1="558.4375" x2="558.4375" y1="273.33333333333337" y2="540.0" /><line stroke="gray" stroke-width="1" x1="559.375" x2="559.375" y1="273.33333333333337" y2="540.0" /><line stroke="gray" stroke-width="1" x1="560.3125" x2="560.3125" y1="273.33333333333337" y2="540.0" /><line stroke="gray" stroke-width="1" x1="561.25" x2="561.25" y1="273.33333333333337" y2="540.0" /><line stroke="gray" stroke-width="1" x1="562.1875" x2="562.1875" y1="273.33333333333337" y2="540.0" /><line stroke="gray" stroke-width="1" x1="563.125" x2="563.125" y1="273.33333333333337" y2="540.0" /><line stroke="gray" stroke-width="1" x1="564.0625" x2="564.0625" y1="273.33333333333337" y2="540.0" /><line stroke="gray" stroke-width="1" x1="565.0" x2="565.0" y1="273.33333333333337" y2="540.0" /><line stroke="gray" stroke-width="1" x1="565.9375" x2="565.9375" y1="273.33333333333337" y2="540.0" /><line stroke="gray" stroke-width="1" x1="566.875" x2="566.875" y1="273.33333333333337" y2="540.0" /><line stroke="gray" stroke-width="1" x1="567.8125" x2="567.8125" y1="273.33333333333337" y2="540.0" /><line stroke="gray" stroke-width="1" x1="568.75" x2="568.75" y1="273.33333333333337" y2="540.0" /><line stroke="gray" stroke-width="1" x1="569.6875" x2="569.6875" y1="273.33333333333337" y2="540.0" /><line stroke="gray" stroke-width="1" x1="570.625" x2="570.625" y1="273.33333333333337" y2="540.0" /><line stroke="gray" stroke-width="1" x1="571.5625" x2="571.5625" y1="273.33333333333337" y2="540.0" /><line stroke="gray" stroke-width="1" x1="572.5" x2="572.5" y1="273.33333333333337" y2="540.0" /><line stroke="gray" stroke-width="1" x1="573.4375" x2="573.4375" y1="273.33333333333337" y2="540.0" /><line stroke="gray" stroke-width="1" x1="574.375" x2="574.375" y1="273.33333333333337" y2="540.0" /><line stroke="gray" stroke-width="1" x1="575.3125" x2="575.3125" y1="273.33333333333337" y2="540.0" /><line stroke="gray" stroke-width="1" x1="576.25" x2="576.25" y1="273.33333333333337" y2="540.0" /><line stroke="gray" stroke-width="1" x1="577.1875" x2="577.1875" y1="273.33333333333337" y2="540.0" /><line stroke="gray" stroke-width="1" x1="578.125" x2="578.125" y1="273.33333333333337" y2="540.0" /><line stroke="gray" stroke-width="1" x1="579.0625" x2="579.0625" y1="273.33333333333337" y2="540.0" /><line stroke="gray" stroke-width="1" x1="580.0" x2="580.0" y1="273.33333333333337" y2="540.0" /><line stroke="gray" stroke-width="1" x1="580.9375" x2="580.9375" y1="273.33333333333337" y2="540.0" /><line stroke="gray" stroke-width="1" x1="581.875" x2="581.875" y1="273.33333333333337" y2="540.0" /><line stroke="gray" stroke-width="1" x1="582.8125" x2="582.8125" y1="273.33333333333337" y2="540.0" /><line stroke="gray" stroke-width="1" x1="583.75" x2="583.75" y1="273.33333333333337" y2="540.0" /><line stroke="gray" stroke-width="1" x1="584.6875" x2="584.6875" y1="273.33333333333337" y2="540.0" /><line stroke="gray" stroke-width="1" x1="585.625" x2="585.625" y1="273.33333333333337" y2="540.0" /><line stroke="gray" stroke-width="1" x1="586.5625" x2="586.5625" y1="273.33333333333337" y2="540.0" /><line stroke="gray" stroke-width="1" x1="587.5" x2="587.5" y1="273.33333333333337" y2="540.0" /><line stroke="gray" stroke-width="1" x1="588.4375" x2="588.4375" y1="273.33333333333337" y2="540.0" /><line stroke="gray" stroke-width="1" x1="589.375" x2="589.375" y1="273.33333333333337" y2="540.0" /><line stroke="gray" stroke-width="1" x1="590.3125" x2="590.3125" y1="273.33333333333337" y2="540.0" /><line stroke="gray" stroke-width="1" x1="591.25" x2="591.25" y1="273.33333333333337" y2="540.0" /><line stroke="gray" stroke-width="1" x1="592.1875" x2="592.1875" y1="273.33333333333337" y2="540.0" /><line stroke="gray" stroke-width="1" x1="593.125" x2="593.125" y1="273.33333333333337" y2="540.0" /><line stroke="gray" stroke-width="1" x1="594.0625" x2="594.0625" y1="273.33333333333337" y2="540.0" /><line stroke="gray" stroke-width="1" x1="595.0" x2="595.0" y1="273.33333333333337" y2="540.0" /><rect fill="none" height="480" stroke="red" stroke-width="1" width="195.0" x="595.0" y="60" /><rect fill="lightgrey" height="53.333333333333336" stroke="black" stroke-width="1" width="195.0" x="595.0" y="60" /><line stroke="black" stroke-width="1" x1="615.8" x2="615.8" y1="60" y2="113.33333333333334" /><text dominant-baseline="middle" font-size="10" text-anchor="middle" x="605.4" y="86.66666666666667">25</text><text dominant-baseline="middle" font-size="10" text-anchor="middle" x="702.9" y="86.66666666666667">2026</text><rect fill="lightgrey" height="53.333333333333336" stroke="black" stroke-width="1" width="195.0" x="595.0" y="113.33333333333334" /><line stroke="black" stroke-width="1" x1="615.8" x2="615.8" y1="113.33333333333334" y2="166.66666666666669" /><text dominant-baseline="middle" font-size="10" text-anchor="middle" x="605.4" y="140.0">D</text><line stroke="black" stroke-width="1" x1="656.1" x2="656.1" y1="113.33333333333334" y2="166.66666666666669" /><text dominant-baseline="middle" font-size="10" text-anchor="middle" x="635.95" y="140.0">J</text><line stroke="black" stroke-width="1" x1="692.5" x2="692.5" y1="113.33333333333334" y2="166.66666666666669" /><text dominant-baseline="middle" font-size="10" text-anchor="middle" x="674.3" y="140.0">F</text><line stroke="black" stroke-width="1" x1="732.8" x2="732.8" y1="113.33333333333334" y2="166.66666666666669" /><text dominant-baseline="middle" font-size="10" text-anchor="middle" x="712.65" y="140.0">M</text><line stroke="black" stroke-width="1" x1="771.8" x2="771.8" y1="113.33333333333334" y2="166.66666666666669" /><text dominant-baseline="middle" font-size="10" text-anchor="middle" x="752.3" y="140.0">A</text><rect fill="lightgrey" height="53.333333333333336" stroke="black" stroke-width="1" width="195.0" x="595.0" y="166.66666666666669" /><line stroke="black" stroke-width="1" x1="602.8" x2="602.8" y1="166.66666666666669" y2="220.00000000000003" /><line stroke="black" stroke-width="1" x1="611.9" x2="611.9" y1="166.66666666666669" y2="220.00000000000003" /><line stroke="black" stroke-width="1" x1="621.0" x2="621.0" y1="166.66666666666669" y2="220.00000000000003" /><line stroke="black" stroke-width="1" x1="630.1" x2="630.1" y1="166.66666666666669" y2="220.00000000000003" /><line stroke="black" stroke-width="1" x1="639.2" x2="639.2" y1="166.66666666666669" y2="220.00000000000003" /><line stroke="black" stroke-width="1" x1="648.3" x2="648.3" y1="166.66666666666669" y2="220.00000000000003" /><line stroke="black" stroke-width="1" x1="657.4" x2="657.4" y1="166.66666666666669" y2="220.00000000000003" /><line stroke="black" stroke-width="1" x1="666.5" x2="666.5" y1="166.66666666666669" y2="220.00000000000003" /><line stroke="black" stroke-width="1" x1="675.6" x2="675.6" y1="166.66666666666669" y2="220.00000000000003" /><line stroke="black" stroke-width="1" x1="684.7" x2="684.7" y1="166.66666666666669" y2="220.00000000000003" /><line stroke="black" stroke-width="1" x1="693.8" x2="693.8" y1="166.66666666666669" y2="220.00000000000003" /><line stroke="black" stroke-width="1" x1="702.9" x2="702.9" y1="166.66666666666669" y2="220.00000000000003" /><line stroke="black" stroke-width="1" x1="712.0" x2="712.0" y1="166.66666666666669" y2="220.00000000000003" /><line stroke="black" stroke-width="1" x1="721.1" x2="721.1" y1="166.66666666666669" y2="220.00000000000003" /><line stroke="black" stroke-width="1" x1="730.2" x2="730.2" y1="166.66666666666669" y2="220.00000000000003" /><line stroke="black" stroke-width="1" x1="739.3" x2="739.3" y1="166.66666666666669" y2="220.00000000000003" /><line stroke="black" stroke-width="1" x1="748.4" x2="748.4" y1="166.66666666666669" y2="220.00000000000003" /><line stroke="black" stroke-width="1" x1="757.5" x2="757.5" y1="166.66666666666669" y2="220.00000000000003" /><line stroke="black" stroke-width="1" x1="766.6" x2="766.6" y1="166.66666666666669" y2="220.00000000000003" /><line stroke="black" stroke-width="1" x1="775.7" x2="775.7" y1="166.66666666666669" y2="220.00000000000003" /><line stroke="black" stroke-width="1" x1="784.8" x2="784.8" y1="166.66666666666669" y2="220.00000000000003" /><rect fill="lightgrey" height="53.333333333333336" stroke="black" stroke-width="1" width="195.0" x="595.0" y="220.00000000000003" /><rect fill="none" height="266.6666666666667" stroke="purple" stroke-width="1" width="195.0" x="595.0" y="273.33333333333337" /><line stroke="gray" stroke-width="1" x1="595.0" x2="790.0" y1="273.33333333333337" y2="273.33333333333337" /><line stroke="gray" stroke-width="1" x1="595.0" x2="790.0" y1="540.0" y2="540.0" /><line stroke="gray" stroke-width="1" x1="615.8" x2="615.8" y1="273.33333333333337" y2="540.0" /><line stroke="gray" stroke-width="1" x1="615.8" x2="615.8" y1="273.33333333333337" y2="540.0" /><line stroke="gray" stroke-width="1" x1="656.1" x2="656.1" y1="273.33333333333337" y2="540.0" /><line stroke="gray" stroke-width="1" x1="692.5" x2="692.5" y1="273.33333333333337" y2="540.0" /><line stroke="gray" stroke-width="1" x1="732.8" x2="732.8" y1="273.33333333333337" y2="540.0" /><line stroke="gray" stroke-width="1" x1="771.8" x2="771.8" y1="273.33333333333337" y2="540.0" /><line stroke="gray" stroke-width="1" x1="602.8" x2="602.8" y1="273.33333333333337" y2="540.0" /><line stroke="gray" stroke-width="1" x1="611.9" x2="611.9" y1="273.33333333333337" y2="540.0" /><line stroke="gray" stroke-width="1" x1="621.0" x2="621.0" y1="273.33333333333337" y2="540.0" /><line stroke="gray" stroke-width="1" x1="630.1" x2="630.1" y1="273.33333333333337" y2="540.0" /><line stroke="gray" stroke-width="1" x1="639.2" x2="639.2" y1="273.33333333333337" y2="540.0" /><line stroke="gray" stroke-width="1" x1="648.3" x2="648.3" y1="273.33333333333337" y2="540.0" /><line stroke="gray" stroke-width="1" x1="657.4" x2="657.4" y1="273.33333333333337" y2="540.0" /><line stroke="gray" stroke-width="1" x1="666.5" x2="666.5" y1="273.33333333333337" y2="540.0" /><line stroke="gray" stroke-width="1" x1="675.6" x2="675.6" y1="273.33333333333337" y2="540.0" /><line stroke="gray" stroke-width="1" x1="684.7" x2="684.7" y1="273.33333333333337" y2="540.0" /><line stroke="gray" stroke-width="1" x1="693.8" x2="693.8" y1="273.33333333333337" y2="540.0" /><line stroke="gray" stroke-width="1" x1="702.9" x2="702.9" y1="273.33333333333337" y2="540.0" /><line stroke="gray" stroke-width="1" x1="712.0" x2="712.0" y1="273.33333333333337" y2="540.0" /><line stroke="gray" stroke-width="1" x1="721.1" x2="721.1" y1="273.33333333333337" y2="540.0" /><line stroke="gray" stroke-width="1" x1="730.2" x2="730.2" y1="273.33333333333337" y2="540.0" /><line stroke="gray" stroke-width="1" x1="739.3" x2="739.3" y1="273.33333333333337" y2="540.0" /><line stroke="gray" stroke-width="1" x1="748.4" x2="748.4" y1="273.33333333333337" y2="540.0" /><line stroke="gray" stroke-width="1" x1="757.5" x2="757.5" y1="273.33333333333337" y2="540.0" /><line stroke="gray" stroke-width="1" x1="766.6" x2="766.6" y1="273.33333333333337" y2="540.0" /><line stroke="gray" stroke-width="1" x1="775.7" x2="775.7" y1="273.33333333333337" y2="540.0" /><line stroke="gray" stroke-width="1" x1="784.8" x2="784.8" y1="273.33333333333337" y2="540.0" /><line stroke="gray" stroke-width="1" x1="596.3" x2="596.3" y1="273.33333333333337" y2="540.0" /><line stroke="gray" stroke-width="1" x1="597.6" x2="597.6" y1="273.33333333333337" y2="540.0" /><line stroke="gray" stroke-width="1" x1="598.9" x2="598.9" y1="273.33333333333337" y2="540.0" /><line stroke="gray" stroke-width="1" x1="600.2" x2="600.2" y1="273.33333333333337" y2="540.0" /><line stroke="gray" stroke-width="1" x1="601.5" x2="601.5" y1="273.33333333333337" y2="540.0" /><line stroke="gray" stroke-width="1" x1="602.8" x2="602.8" y1="273.33333333333337" y2="540.0" /><line stroke="gray" stroke-width="1" x1="604.1" x2="604.1" y1="273.33333333333337" y2="540.0" /><line stroke="gray" stroke-width="1" x1="605.4" x2="605.4" y1="273.33333333333337" y2="540.0" /><line stroke="gray" stroke-width="1" x1="606.7" x2="606.7" y1="273.33333333333337" y2="540.0" /><line stroke="gray" stroke-width="1" x1="608.0" x2="608.0" y1="273.33333333333337" y2="540.0" /><line stroke="gray" stroke-width="1" x1="609.3" x2="609.3" y1="273.33333333333337" y2="540.0" /><line stroke="gray" stroke-width="1" x1="610.6" x2="610.6" y1="273.33333333333337" y2="540.0" /><line stroke="gray" stroke-width="1" x1="611.9" x2="611.9" y1="273.33333333333337" y2="540.0" /><line stroke="gray" stroke-width="1" x1="613.2" x2="613.2" y1="273.33333333333337" y2="540.0" /><line stroke="gray" stroke-width="1" x1="614.5" x2="614.5" y1="273.33333333333337" y2="540.0" /><line stroke="gray" stroke-width="1" x1="615.8" x2="615.8" y1="273.33333333333337" y2="540.0" /><line stroke="gray" stroke-width="1" x1="617.1" x2="617.1" y1="273.33333333333337" y2="540.0" /><line stroke="gray" stroke-width="1" x1="618.4" x2="618.4" y1="273.33333333333337" y2="540.0" /><line stroke="gray" stroke-width="1" x1="619.7" x2="619.7" y1="273.33333333333337" y2="540.0" /><line stroke="gray" stroke-width="1" x1="621.0" x2="621.0" y1="273.33333333333337" y2="540.0" /><line stroke="gray" stroke-width="1" x1="622.3" x2="622.3" y1="273.33333333333337" y2="540.0" /><line stroke="gray" stroke-width="1" x1="623.6" x2="623.6" y1="273.33333333333337" y2="540.0" /><line stroke="gray" stroke-width="1" x1="624.9" x2="624.9" y1="273.33333333333337" y2="540.0" /><line stroke="gray" stroke-width="1" x1="626.2" x2="626.2" y1="273.33333333333337" y2="540.0" /><line stroke="gray" stroke-width="1" x1="627.5" x2="627.5" y1="273.33333333333337" y2="540.0" /><line stroke="gray" stroke-width="1" x1="628.8" x2="628.8" y1="273.33333333333337" y2="540.0" /><line stroke="gray" stroke-width="1" x1="630.1" x2="630.1" y1="273.33333333333337" y2="540.0" /><line stroke="gray" stroke-width="1" x1="631.4" x2="631.4" y1="273.33333333333337" y2="540.0" /><line stroke="gray" stroke-width="1" x1="632.7" x2="632.7" y1="273.33333333333337" y2="540.0" /><line stroke="gray" stroke-width="1" x1="634.0" x2="634.0" y1="273.33333333333337" y2="540.0" /><line stroke="gray" stroke-width="1" x1="635.3" x2="635.3" y1="273.33333333333337" y2="540.0" /><line stroke="gray" stroke-width="1" x1="636.6" x2="636.6" y1="273.33333333333337" y2="540.0" /><line stroke="gray" stroke-width="1" x1="637.9" x2="637.9" y1="273.33333333333337" y2="540.0" /><line stroke="gray" stroke-width="1" x1="639.2" x2="639.2" y1="273.33333333333337" y2="540.0" /><line stroke="gray" stroke-width="1" x1="640.5" x2="640.5" y1="273.33333333333337" y2="540.0" /><line stroke="gray" stroke-width="1" x1="641.8" x2="641.8" y1="273.33333333333337" y2="540.0" /><line stroke="gray" stroke-width="1" x1="643.1" x2="643.1" y1="273.33333333333337" y2="540.0" /><line stroke="gray" stroke-width="1" x1="644.4" x2="644.4" y1="273.33333333333337" y2="540.0" /><line stroke="gray" stroke-width="1" x1="645.7" x2="645.7" y1="273.33333333333337" y2="540.0" /><line stroke="gray" stroke-width="1" x1="647.0" x2="647.0" y1="273.33333333333337" y2="540.0" /><line stroke="gray" stroke-width="1" x1="648.3" x2="648.3" y1="273.33333333333337" y2="540.0" /><line stroke="gray" stroke-width="1" x1="649.6" x2="649.6" y1="273.33333333333337" y2="540.0" /><line stroke="gray" stroke-width="1" x1="650.9" x2="650.9" y1="273.33333333333337" y2="540.0" /><line stroke="gray" stroke-width="1" x1="652.2" x2="652.2" y1="273.33333333333337" y2="540.0" /><line stroke="gray" stroke-width="1" x1="653.5" x2="653.5" y1="273.33333333333337" y2="540.0" /><line stroke="gray" stroke-width="1" x1="654.8" x2="654.8" y1="273.33333333333337" y2="540.0" /><line stroke="gray" stroke-width="1" x1="656.1" x2="656.1" y1="273.33333333333337" y2="540.0" /><line stroke="gray" stroke-width="1" x1="657.4" x2="657.4" y1="273.33333333333337" y2="540.0" /><line stroke="gray" stroke-width="1" x1="658.7" x2="658.7" y1="273.33333333333337" y2="540.0" /><line stroke="gray" stroke-width="1" x1="660.0" x2="660.0" y1="273.33333333333337" y2="540.0" /><line stroke="gray" stroke-width="1" x1="661.3" x2="661.3" y1="273.33333333333337" y2="540.0" /><line stroke="gray" stroke-width="1" x1="662.6" x2="662.6" y1="273.33333333333337" y2="540.0" /><line stroke="gray" stroke-width="1" x1="663.9" x2="663.9" y1="273.33333333333337" y2="540.0" /><line stroke="gray" stroke-width="1" x1="665.2" x2="665.2" y1="273.33333333333337" y2="540.0" /><line stroke="gray" stroke-width="1" x1="666.5" x2="666.5" y1="273.33333333333337" y2="540.0" /><line stroke="gray" stroke-width="1" x1="667.8" x2="667.8" y1="273.33333333333337" y2="540.0" /><line stroke="gray" stroke-width="1" x1="669.1" x2="669.1" y1="273.33333333333337" y2="540.0" /><line stroke="gray" stroke-width="1" x1="670.4" x2="670.4" y1="273.33333333333337" y2="540.0" /><line stroke="gray" stroke-width="1" x1="671.7" x2="671.7" y1="273.33333333333337" y2="540.0" /><line stroke="gray" stroke-width="1" x1="673.0" x2="673.0" y1="273.33333333333337" y2="540.0" /><line stroke="gray" stroke-width="1" x1="674.3" x2="674.3" y1="273.33333333333337" y2="540.0" /><line stroke="gray" stroke-width="1" x1="675.6" x2="675.6" y1="273.33333333333337" y2="540.0" /><line stroke="gray" stroke-width="1" x1="676.9" x2="676.9" y1="273.33333333333337" y2="540.0" /><line stroke="gray" stroke-width="1" x1="678.2" x2="678.2" y1="273.33333333333337" y2="540.0" /><line stroke="gray" stroke-width="1" x1="679.5" x2="679.5" y1="273.33333333333337" y2="540.0" /><line stroke="gray" stroke-width="1" x1="680.8" x2="680.8" y1="273.33333333333337" y2="540.0" /><line stroke="gray" stroke-width="1" x1="682.1" x2="682.1" y1="273.33333333333337" y2="540.0" /><line stroke="gray" stroke-width="1" x1="683.4" x2="683.4" y1="273.33333333333337" y2="540.0" /><line stroke="gray" stroke-width="1" x1="684.7" x2="684.7" y1="273.33333333333337" y2="540.0" /><line stroke="gray" stroke-width="1" x1="686.0" x2="686.0" y1="273.33333333333337" y2="540.0" /><line stroke="gray" stroke-width="1" x1="687.3" x2="687.3" y1="273.33333333333337" y2="540.0" /><line stroke="gray" stroke-width="1" x1="688.6" x2="688.6" y1="273.33333333333337" y2="540.0" /><line stroke="gray" stroke-width="1" x1="689.9" x2="689.9" y1="273.33333333333337" y2="540.0" /><line stroke="gray" stroke-width="1" x1="691.2" x2="691.2" y1="273.33333333333337" y2="540.0" /><line stroke="gray" stroke-width="1" x1="692.5" x2="692.5" y1="273.33333333333337" y2="540.0" /><line stroke="gray" stroke-width="1" x1="693.8" x2="693.8" y1="273.33333333333337" y2="540.0" /><line stroke="gray" stroke-width="1" x1="695.1" x2="695.1" y1="273.33333333333337" y2="540.0" /><line stroke="gray" stroke-width="1" x1="696.4" x2="696.4" y1="273.33333333333337" y2="540.0" /><line stroke="gray" stroke-width="1" x1="697.7" x2="697.7" y1="273.33333333333337" y2="540.0" /><line stroke="gray" stroke-width="1" x1="699.0" x2="699.0" y1="273.33333333333337" y2="540.0" /><line stroke="gray" stroke-width="1" x1="700.3" x2="700.3" y1="273.33333333333337" y2="540.0" /><line stroke="gray" stroke-width="1" x1="701.6" x2="701.6" y1="273.33333333333337" y2="540.0" /><line stroke="gray" stroke-width="1" x1="702.9" x2="702.9" y1="273.33333333333337" y2="540.0" /><line stroke="gray" stroke-width="1" x1="704.2" x2="704.2" y1="273.33333333333337" y2="540.0" /><line stroke="gray" stroke-width="1" x1="705.5" x2="705.5" y1="273.33333333333337" y2="540.0" /><line stroke="gray" stroke-width="1" x1="706.8" x2="706.8" y1="273.33333333333337" y2="540.0" /><line stroke="gray" stroke-width="1" x1="708.1" x2="708.1" y1="273.33333333333337" y2="540.0" /><line stroke="gray" stroke-width="1" x1="709.4" x2="709.4" y1="273.33333333333337" y2="540.0" /><line stroke="gray" stroke-width="1" x1="710.7" x2="710.7" y1="273.33333333333337" y2="540.0" /><line stroke="gray" stroke-width="1" x1="712.0" x2="712.0" y1="273.33333333333337" y2="540.0" /><line stroke="gray" stroke-width="1" x1="713.3" x2="713.3" y1="273.33333333333337" y2="540.0" /><line stroke="gray" stroke-width="1" x1="714.6" x2="714.6" y1="273.33333333333337" y2="540.0" /><line stroke="gray" stroke-width="1" x1="715.9" x2="715.9" y1="273.33333333333337" y2="540.0" /><line stroke="gray" stroke-width="1" x1="717.2" x2="717.2" y1="273.33333333333337" y2="540.0" /><line stroke="gray" stroke-width="1" x1="718.5" x2="718.5" y1="273.33333333333337" y2="540.0" /><line stroke="gray" stroke-width="1" x1="719.8" x2="719.8" y1="273.33333333333337" y2="540.0" /><line stroke="gray" stroke-width="1" x1="721.1" x2="721.1" y1="273.33333333333337" y2="540.0" /><line stroke="gray" stroke-width="1" x1="722.4" x2="722.4" y1="273.33333333333337" y2="540.0" /><line stroke="gray" stroke-width="1" x1="723.7" x2="723.7" y1="273.33333333333337" y2="540.0" /><line stroke="gray" stroke-width="1" x1="725.0" x2="725.0" y1="273.33333333333337" y2="540.0" /><line stroke="gray" stroke-width="1" x1="726.3" x2="726.3" y1="273.33333333333337" y2="540.0" /><line stroke="gray" stroke-width="1" x1="727.6" x2="727.6" y1="273.33333333333337" y2="540.0" /><line stroke="gray" stroke-width="1" x1="728.9" x2="728.9" y1="273.33333333333337" y2="540.0" /><line stroke="gray" stroke-width="1" x1="730.2" x2="730.2" y1="273.33333333333337" y2="540.0" /><line stroke="gray" stroke-width="1" x1="731.5" x2="731.5" y1="273.33333333333337" y2="540.0" /><line stroke="gray" stroke-width="1" x1="732.8" x2="732.8" y1="273.33333333333337" y2="540.0" /><line stroke="gray" stroke-width="1" x1="734.1" x2="734.1" y1="273.33333333333337" y2="540.0" /><line stroke="gray" stroke-width="1" x1="735.4" x2="735.4" y1="273.33333333333337" y2="540.0" /><line stroke="gray" stroke-width="1" x1="736.7" x2="736.7" y1="273.33333333333337" y2="540.0" /><line stroke="gray" stroke-width="1" x1="738.0" x2="738.0" y1="273.33333333333337" y2="540.0" /><line stroke="gray" stroke-width="1" x1="739.3" x2="739.3" y1="273.33333333333337" y2="540.0" /><line stroke="gray" stroke-width="1" x1="740.6" x2="740.6" y1="273.33333333333337" y2="540.0" /><line stroke="gray" stroke-width="1" x1="741.9" x2="741.9" y1="273.33333333333337" y2="540.0" /><line stroke="gray" stroke-width="1" x1="743.2" x2="743.2" y1="273.33333333333337" y2="540.0" /><line stroke="gray" stroke-width="1" x1="744.5" x2="744.5" y1="273.33333333333337" y2="540.0" /><line stroke="gray" stroke-width="1" x1="745.8" x2="745.8" y1="273.33333333333337" y2="540.0" /><line stroke="gray" stroke-width="1" x1="747.1" x2="747.1" y1="273.33333333333337" y2="540.0" /><line stroke="gray" stroke-width="1" x1="748.4" x2="748.4" y1="273.33333333333337" y2="540.0" /><line stroke="gray" stroke-width="1" x1="749.7" x2="749.7" y1="273.33333333333337" y2="540.0" /><line stroke="gray" stroke-width="1" x1="751.0" x2="751.0" y1="273.33333333333337" y2="540.0" /><line stroke="gray" stroke-width="1" x1="752.3" x2="752.3" y1="273.33333333333337" y2="540.0" /><line stroke="gray" stroke-width="1" x1="753.6" x2="753.6" y1="273.33333333333337" y2="540.0" /><line stroke="gray" stroke-width="1" x1="754.9" x2="754.9" y1="273.33333333333337" y2="540.0" /><line stroke="gray" stroke-width="1" x1="756.2" x2="756.2" y1="273.33333333333337" y2="540.0" /><line stroke="gray" stroke-width="1" x1="757.5" x2="757.5" y1="273.33333333333337" y2="540.0" /><line stroke="gray" stroke-width="1" x1="758.8" x2="758.8" y1="273.33333333333337" y2="540.0" /><line stroke="gray" stroke-width="1" x1="760.1" x2="760.1" y1="273.33333333333337" y2="540.0" /><line stroke="gray" stroke-width="1" x1="761.4" x2="761.4" y1="273.33333333333337" y2="540.0" /><line stroke="gray" stroke-width="1" x1="762.7" x2="762.7" y1="273.33333333333337" y2="540.0" /><line stroke="gray" stroke-width="1" x1="764.0" x2="764.0" y1="273.33333333333337" y2="540.0" /><line stroke="gray" stroke-width="1" x1="765.3" x2="765.3" y1="273.33333333333337" y2="540.0" /><line stroke="gray" stroke-width="1" x1="766.6" x2="766.6" y1="273.33333333333337" y2="540.0" /><line stroke="gray" stroke-width="1" x1="767.9" x2="767.9" y1="273.33333333333337" y2="540.0" /><line stroke="gray" stroke-width="1" x1="769.2" x2="769.2" y1="273.33333333333337" y2="540.0" /><line stroke="gray" stroke-width="1" x1="770.5" x2="770.5" y1="273.33333333333337" y2="540.0" /><line stroke="gray" stroke-width="1" x1="771.8" x2="771.8" y1="273.33333333333337" y2="540.0" /><line stroke="gray" stroke-width="1" x1="773.1" x2="773.1" y1="273.33333333333337" y2="540.0" /><line stroke="gray" stroke-width="1" x1="774.4" x2="774.4" y1="273.33333333333337" y2="540.0" /><line stroke="gray" stroke-width="1" x1="775.7" x2="775.7" y1="273.33333333333337" y2="540.0" /><line stroke="gray" stroke-width="1" x1="777.0" x2="777.0" y1="273.33333333333337" y2="540.0" /><line stroke="gray" stroke-width="1" x1="778.3" x2="778.3" y1="273.33333333333337" y2="540.0" /><line stroke="gray" stroke-width="1" x1="779.6" x2="779.6" y1="273.33333333333337" y2="540.0" /><line stroke="gray" stroke-width="1" x1="780.9" x2="780.9" y1="273.33333333333337" y2="540.0" /><line stroke="gray" stroke-width="1" x1="782.2" x2="782.2" y1="273.33333333333337" y2="540.0" /><line stroke="gray" stroke-width="1" x1="783.5" x2="783.5" y1="273.33333333333337" y2="540.0" /><line stroke="gray" stroke-width="1" x1="784.8" x2="784.8" y1="273.33333333333337" y2="540.0" /><line stroke="gray" stroke-width="1" x1="786.1" x2="786.1" y1="273.33333333333337" y2="540.0" /><line stroke="gray" stroke-width="1" x1="787.4" x2="787.4" y1="273.33333333333337" y2="540.0" /><line stroke="gray" stroke-width="1" x1="788.7" x2="788.7" y1="273.33333333333337" y2="540.0" /><line stroke="gray" stroke-width="1" x1="790.0" x2="790.0" y1="273.33333333333337" y2="540.0" /></svg>