<?xml version="1.0" encoding="utf-8" ?>
<svg baseProfile="full" height="600.0" version="1.1" width="800.0" xmlns="http://www.w3.org/2000/svg" xmlns:ev="http://www.w3.org/2001/xml-events" xmlns:xlink="http://www.w3.org/1999/xlink"><defs /><rect fill="white" height="600.0" stroke="black" stroke-width="2" width="800.0" x="0" y="0" /><rect fill="lightgray" height="50.0" stroke="black" stroke-width="1" width="780.0" x="10.0" y="10.0" /><rect fill="lightgray" height="50.0" stroke="black" stroke-width="1" width="780.0" x="10.0" y="540.0" /><rect fill="none" height="480.0" stroke="blue" stroke-dasharray="4" stroke-width="1" width="780.0" x="10.0" y="60.0" /><rect fill="none" height="480.0" stroke="red" stroke-width="1" width="780.0" x="10.0" y="60.0" /><rect fill="lightgrey" height="53.333333333333336" stroke="black" stroke-width="1" width="780.0" x="10.0" y="60.0" /><text dominant-baseline="middle" font-size="10" text-anchor="middle" x="400.0" y="86.66666666666667">2025</text><rect fill="lightgrey" height="53.333333333333336" stroke="black" stroke-width="1" width="780.0" x="10.0" y="113.33333333333334" /><line stroke="black" stroke-width="1" x1="225.89285714285714" x2="225.89285714285714" y1="113.33333333333334" y2="166.66666666666669" /><text dominant-baseline="middle" font-size="10" text-anchor="middle" x="117.94642857142857" y="140.0">Jan</text><line stroke="black" stroke-width="1" x1="420.89285714285717" x2="420.89285714285717" y1="113.33333333333334" y2="166.66666666666669" /><text dominant-baseline="middle" font-size="10" text-anchor="middle" x="323.39285714285717" y="140.0">Feb</text><line stroke="black" stroke-width="1" x1="636.7857142857143" x2="636.7857142857143" y1="113.33333333333334" y2="166.66666666666669" /><text dominant-baseline="middle" font-size="10" text-anchor="middle" x="528.8392857142858" y="140.0">Mar</text><text dominant-baseline="middle" font-size="10" text-anchor="middle" x="713.3928571428571" y="140.0">Apr</text><rect fill="lightgrey" height="53.333333333333336" stroke="black" stroke-width="1" width="780.0" x="10.0" y="166.66666666666669" /><line stroke="black" stroke-width="1" x1="44.82142857142857" x2="44.82142857142857" y1="166.66666666666669" y2="220.00000000000003" /><text dominant-baseline="middle" font-size="10" text-anchor="middle" x="27.410714285714285" y="193.33333333333334">01</text><line stroke="black" stroke-width="1" x1="93.57142857142857" x2="93.57142857142857" y1="166.66666666666669" y2="220.00000000000003" /><text dominant-baseline="middle" font-size="10" text-anchor="middle" x="69.19642857142857" y="193.33333333333334">02</text><line stroke="black" stroke-width="1" x1="142.32142857142858" x2="142.32142857142858" y1="166.66666666666669" y2="220.00000000000003" /><text dominant-baseline="middle" font-size="10" text-anchor="middle" x="117.94642857142858" y="193.33333333333334">03</text><line stroke="black" stroke-width="1" x1="191.07142857142858" x2="191.07142857142858" y1="166.66666666666669" y2="220.00000000000003" /><text dominant-baseline="middle" font-size="10" text-anchor="middle" x="166.69642857142858" y="193.33333333333334">04</text><line stroke="black" stroke-width="1" x1="239.82142857142858" x2="239.82142857142858" y1="166.66666666666669" y2="220.00000000000003" /><text dominant-baseline="middle" font-size="10" text-anchor="middle" x="215.44642857142858" y="193.33333333333334">05</text><line stroke="black" stroke-width="1" x1="288.57142857142856" x2="288.57142857142856" y1="166.66666666666669" y2="220.00000000000003" /><text dominant-baseline="middle" font-size="10" text-anchor="middle" x="264.19642857142856" y="193.33333333333334">06</text><line stroke="black" stroke-width="1" x1="337.32142857142856" x2="337.32142857142856" y1="166.66666666666669" y2="220.00000000000003" /><text dominant-baseline="middle" font-size="10" text-anchor="middle" x="312.94642857142856" y="193.33333333333334">07</text><line stroke="black" stroke-width="1" x1="386.07142857142856" x2="386.07142857142856" y1="166.66666666666669" y2="220.00000000000003" /><text dominant-baseline="middle" font-size="10" text-anchor="middle" x="361.69642857142856" y="193.33333333333334">08</text><line stroke="black" stroke-width="1" x1="434.82142857142856" x2="434.82142857142856" y1="166.66666666666669" y2="220.00000000000003" /><text dominant-baseline="middle" font-size="10" text-anchor="middle" x="410.44642857142856" y="193.33333333333334">09</text><line stroke="black" stroke-width="1" x1="483.57142857142856" x2="483.57142857142856" y1="166.66666666666669" y2="220.00000000000003" /><text dominant-baseline="middle" font-size="10" text-anchor="middle" x="459.19642857142856" y="193.33333333333334">10</text><line stroke="black" stroke-width="1" x1="532.3214285714286" x2="532.3214285714286" y1="166.66666666666669" y2="220.00000000000003" /><text dominant-baseline="middle" font-size="10" text-anchor="middle" x="507.94642857142856" y="193.33333333333334">11</text><line stroke="black" stroke-width="1" x1="581.0714285714286" x2="581.0714285714286" y1="166.66666666666669" y2="220.00000000000003" /><text dominant-baseline="middle" font-size="10" text-anchor="middle" x="556.6964285714286" y="193.33333333333334">12</text><line stroke="black" stroke-width="1" x1="629.8214285714286" x2="629.8214285714286" y1="166.66666666666669" y2="220.00000000000003" /><text dominant-baseline="middle" font-size="10" text-anchor="middle" x="605.4464285714286" y="193.33333333333334">13</text><line stroke="black" stroke-width="1" x1="678.5714285714286" x2="678.5714285714286" y1="166.66666666666669" y2="220.00000000000003" /><text dominant-baseline="middle" font-size="10" text-anchor="middle" x="654.1964285714286" y="193.33333333333334">14</text><line stroke="black" stroke-width="1" x1="727.3214285714286" x2="727.3214285714286" y1="166.66666666666669" y2="220.00000000000003" /><text dominant-baseline="middle" font-size="10" text-anchor="middle" x="702.9464285714286" y="193.33333333333334">15</text><line stroke="black" stroke-width="1" x1="776.0714285714286" x2="776.0714285714286" y1="166.66666666666669" y2="220.00000000000003" /><text dominant-baseline="middle" font-size="10" text-anchor="middle" x="751.6964285714286" y="193.33333333333334">16</text><rect fill="lightgrey" height="53.333333333333336" stroke="black" stroke-width="1" width="780.0" x="10.0" y="220.00000000000003" /><line stroke="black" stroke-width="1" x1="16.964285714285715" x2="16.964285714285715" y1="220.00000000000003" y2="273.33333333333337" /><line stroke="black" stroke-width="1" x1="23.92857142857143" x2="23.92857142857143" y1="220.00000000000003" y2="273.33333333333337" /><line stroke="black" stroke-width="1" x1="30.892857142857142" x2="30.892857142857142" y1="220.00000000000003" y2="273.33333333333337" /><line stroke="black" stroke-width="1" x1="37.85714285714286" x2="37.85714285714286" y1="220.00000000000003" y2="273.33333333333337" /><line stroke="black" stroke-width="1" x1="44.82142857142857" x2="44.82142857142857" y1="220.00000000000003" y2="273.33333333333337" /><line stroke="black" stroke-width="1" x1="51.785714285714285" x2="51.785714285714285" y1="220.00000000000003" y2="273.33333333333337" /><line stroke="black" stroke-width="1" x1="58.75" x2="58.75" y1="220.00000000000003" y2="273.33333333333337" /><line stroke="black" stroke-width="1" x1="65.71428571428572" x2="65.71428571428572" y1="220.00000000000003" y2="273.33333333333337" /><line stroke="black" stroke-width="1" x1="72.67857142857143" x2="72.67857142857143" y1="220.00000000000003" y2="273.33333333333337" /><line stroke="black" stroke-width="1" x1="79.64285714285714" x2="79.64285714285714" y1="220.00000000000003" y2="273.33333333333337" /><line stroke="black" stroke-width="1" x1="86.60714285714286" x2="86.60714285714286" y1="220.00000000000003" y2="273.33333333333337" /><line stroke="black" stroke-width="1" x1="93.57142857142857" x2="93.57142857142857" y1="220.00000000000003" y2="273.33333333333337" /><line stroke="black" stroke-width="1" x1="100.53571428571429" x2="100.53571428571429" y1="220.00000000000003" y2="273.33333333333337" /><line stroke="black" stroke-width="1" x1="107.5" x2="107.5" y1="220.00000000000003" y2="273.33333333333337" /><line stroke="black" stroke-width="1" x1="114.46428571428572" x2="114.46428571428572" y1="220.00000000000003" y2="273.33333333333337" /><line stroke="black" stroke-width="1" x1="121.42857142857143" x2="121.42857142857143" y1="220.00000000000003" y2="273.33333333333337" /><line stroke="black" stroke-width="1" x1="128.39285714285714" x2="128.39285714285714" y1="220.00000000000003" y2="273.33333333333337" /><line stroke="black" stroke-width="1" x1="135.35714285714286" x2="135.35714285714286" y1="220.00000000000003" y2="273.33333333333337" /><line stroke="black" stroke-width="1" x1="142.32142857142858" x2="142.32142857142858" y1="220.00000000000003" y2="273.33333333333337" /><line stroke="black" stroke-width="1" x1="149.28571428571428" x2="149.28571428571428" y1="220.00000000000003" y2="273.33333333333337" /><line stroke="black" stroke-width="1" x1="156.25" x2="156.25" y1="220.00000000000003" y2="273.33333333333337" /><line stroke="black" stroke-width="1" x1="163.21428571428572" x2="163.21428571428572" y1="220.00000000000003" y2="273.33333333333337" /><line stroke="black" stroke-width="1" x1="170.17857142857144" x2="170.17857142857144" y1="220.00000000000003" y2="273.33333333333337" /><line stroke="black" stroke-width="1" x1="177.14285714285714" x2="177.14285714285714" y1="220.00000000000003" y2="273.33333333333337" /><line stroke="black" stroke-width="1" x1="184.10714285714286" x2="184.10714285714286" y1="220.00000000000003" y2="273.33333333333337" /><line stroke="black" stroke-width="1" x1="191.07142857142858" x2="191.07142857142858" y1="220.00000000000003" y2="273.33333333333337" /><line stroke="black" stroke-width="1" x1="198.03571428571428" x2="198.03571428571428" y1="220.00000000000003" y2="273.33333333333337" /><line stroke="black" stroke-width="1" x1="205.0" x2="205.0" y1="220.00000000000003" y2="273.33333333333337" /><line stroke="black" stroke-width="1" x1="211.96428571428572" x2="211.96428571428572" y1="220.00000000000003" y2="273.33333333333337" /><line stroke="black" stroke-width="1" x1="218.92857142857144" x2="218.92857142857144" y1="220.00000000000003" y2="273.33333333333337" /><line stroke="black" stroke-width="1" x1="225.89285714285714" x2="225.89285714285714" y1="220.00000000000003" y2="273.33333333333337" /><line stroke="black" stroke-width="1" x1="232.85714285714286" x2="232.85714285714286" y1="220.00000000000003" y2="273.33333333333337" /><line stroke="black" stroke-width="1" x1="239.82142857142858" x2="239.82142857142858" y1="220.00000000000003" y2="273.33333333333337" /><line stroke="black" stroke-width="1" x1="246.78571428571428" x2="246.78571428571428" y1="220.00000000000003" y2="273.33333333333337" /><line stroke="black" stroke-width="1" x1="253.75" x2="253.75" y1="220.00000000000003" y2="273.33333333333337" /><line stroke="black" stroke-width="1" x1="260.7142857142857" x2="260.7142857142857" y1="220.00000000000003" y2="273.33333333333337" /><line stroke="black" stroke-width="1" x1="267.67857142857144" x2="267.67857142857144" y1="220.00000000000003" y2="273.33333333333337" /><line stroke="black" stroke-width="1" x1="274.64285714285717" x2="274.64285714285717" y1="220.00000000000003" y2="273.33333333333337" /><line stroke="black" stroke-width="1" x1="281.6071428571429" x2="281.6071428571429" y1="220.00000000000003" y2="273.33333333333337" /><line stroke="black" stroke-width="1" x1="288.57142857142856" x2="288.57142857142856" y1="220.00000000000003" y2="273.33333333333337" /><line stroke="black" stroke-width="1" x1="295.5357142857143" x2="295.5357142857143" y1="220.00000000000003" y2="273.33333333333337" /><line stroke="black" stroke-width="1" x1="302.5" x2="302.5" y1="220.00000000000003" y2="273.33333333333337" /><line stroke="black" stroke-width="1" x1="309.4642857142857" x2="309.4642857142857" y1="220.00000000000003" y2="273.33333333333337" /><line stroke="black" stroke-width="1" x1="316.42857142857144" x2="316.42857142857144" y1="220.00000000000003" y2="273.33333333333337" /><line stroke="black" stroke-width="1" x1="323.39285714285717" x2="323.39285714285717" y1="220.00000000000003" y2="273.33333333333337" /><line stroke="black" stroke-width="1" x1="330.3571428571429" x2="330.3571428571429" y1="220.00000000000003" y2="273.33333333333337" /><line stroke="black" stroke-width="1" x1="337.32142857142856" x2="337.32142857142856" y1="220.00000000000003" y2="273.33333333333337" /><line stroke="black" stroke-width="1" x1="344.2857142857143" x2="344.2857142857143" y1="220.00000000000003" y2="273.33333333333337" /><line stroke="black" stroke-width="1" x1="351.25" x2="351.25" y1="220.00000000000003" y2="273.33333333333337" /><line stroke="black" stroke-width="1" x1="358.2142857142857" x2="358.2142857142857" y1="220.00000000000003" y2="273.33333333333337" /><line stroke="black" stroke-width="1" x1="365.17857142857144" x2="365.17857142857144" y1="220.00000000000003" y2="273.33333333333337" /><line stroke="black" stroke-width="1" x1="372.14285714285717" x2="372.14285714285717" y1="220.00000000000003" y2="273.33333333333337" /><line stroke="black" stroke-width="1" x1="379.1071428571429" x2="379.1071428571429" y1="220.00000000000003" y2="273.33333333333337" /><line stroke="black" stroke-width="1" x1="386.07142857142856" x2="386.07142857142856" y1="220.00000000000003" y2="273.33333333333337" /><line stroke="black" stroke-width="1" x1="393.0357142857143" x2="393.0357142857143" y1="220.00000000000003" y2="273.33333333333337" /><line stroke="black" stroke-width="1" x1="400.0" x2="400.0" y1="220.00000000000003" y2="273.33333333333337" /><line stroke="black" stroke-width="1" x1="406.9642857142857" x2="406.9642857142857" y1="220.00000000000003" y2="273.33333333333337" /><line stroke="black" stroke-width="1" x1="413.92857142857144" x2="413.92857142857144" y1="220.00000000000003" y2="273.33333333333337" /><line stroke="black" stroke-width="1" x1="420.89285714285717" x2="420.89285714285717" y1="220.00000000000003" y2="273.33333333333337" /><line stroke="black" stroke-width="1" x1="427.8571428571429" x2="427.8571428571429" y1="220.00000000000003" y2="273.33333333333337" /><line stroke="black" stroke-width="1" x1="434.82142857142856" x2="434.82142857142856" y1="220.00000000000003" y2="273.33333333333337" /><line stroke="black" stroke-width="1" x1="441.7857142857143" x2="441.7857142857143" y1="220.00000000000003" y2="273.33333333333337" /><line stroke="black" stroke-width="1" x1="448.75" x2="448.75" y1="220.00000000000003" y2="273.33333333333337" /><line stroke="black" stroke-width="1" x1="455.7142857142857" x2="455.7142857142857" y1="220.00000000000003" y2="273.33333333333337" /><line stroke="black" stroke-width="1" x1="462.67857142857144" x2="462.67857142857144" y1="220.00000000000003" y2="273.33333333333337" /><line stroke="black" stroke-width="1" x1="469.64285714285717" x2="469.64285714285717" y1="220.00000000000003" y2="273.33333333333337" /><line stroke="black" stroke-width="1" x1="476.6071428571429" x2="476.6071428571429" y1="220.00000000000003" y2="273.33333333333337" /><line stroke="black" stroke-width="1" x1="483.57142857142856" x2="483.57142857142856" y1="220.00000000000003" y2="273.33333333333337" /><line stroke="black" stroke-width="1" x1="490.5357142857143" x2="490.5357142857143" y1="220.00000000000003" y2="273.33333333333337" /><line stroke="black" stroke-width="1" x1="497.5" x2="497.5" y1="220.00000000000003" y2="273.33333333333337" /><line stroke="black" stroke-width="1" x1="504.4642857142857" x2="504.4642857142857" y1="220.00000000000003" y2="273.33333333333337" /><line stroke="black" stroke-width="1" x1="511.42857142857144" x2="511.42857142857144" y1="220.00000000000003" y2="273.33333333333337" /><line stroke="black" stroke-width="1" x1="518.3928571428571" x2="518.3928571428571" y1="220.00000000000003" y2="273.33333333333337" /><line stroke="black" stroke-width="1" x1="525.3571428571429" x2="525.3571428571429" y1="220.00000000000003" y2="273.33333333333337" /><line stroke="black" stroke-width="1" x1="532.3214285714286" x2="532.3214285714286" y1="220.00000000000003" y2="273.33333333333337" /><line stroke="black" stroke-width="1" x1="539.2857142857143" x2="539.2857142857143" y1="220.00000000000003" y2="273.33333333333337" /><line stroke="black" stroke-width="1" x1="546.25" x2="546.25" y1="220.00000000000003" y2="273.33333333333337" /><line stroke="black" stroke-width="1" x1="553.2142857142858" x2="553.2142857142858" y1="220.00000000000003" y2="273.33333333333337" /><line stroke="black" stroke-width="1" x1="560.1785714285714" x2="560.1785714285714" y1="220.00000000000003" y2="273.33333333333337" /><line stroke="black" stroke-width="1" x1="567.1428571428571" x2="567.1428571428571" y1="220.00000000000003" y2="273.33333333333337" /><line stroke="black" stroke-width="1" x1="574.1071428571429" x2="574.1071428571429" y1="220.00000000000003" y2="273.33333333333337" /><line stroke="black" stroke-width="1" x1="581.0714285714286" x2="581.0714285714286" y1="220.00000000000003" y2="273.33333333333337" /><line stroke="black" stroke-width="1" x1="588.0357142857143" x2="588.0357142857143" y1="220.00000000000003" y2="273.33333333333337" /><line stroke="black" stroke-width="1" x1="595.0" x2="595.0" y1="220.00000000000003" y2="273.33333333333337" /><line stroke="black" stroke-width="1" x1="601.9642857142858" x2="601.9642857142858" y1="220.00000000000003" y2="273.33333333333337" /><line stroke="black" stroke-width="1" x1="608.9285714285714" x2="608.9285714285714" y1="220.00000000000003" y2="273.33333333333337" /><line stroke="black" stroke-width="1" x1="615.8928571428571" x2="615.8928571428571" y1="220.00000000000003" y2="273.33333333333337" /><line stroke="black" stroke-width="1" x1="622.8571428571429" x2="622.8571428571429" y1="220.00000000000003" y2="273.33333333333337" /><line stroke="black" stroke-width="1" x1="629.8214285714286" x2="629.8214285714286" y1="220.00000000000003" y2="273.33333333333337" /><line stroke="black" stroke-width="1" x1="636.7857142857143" x2="636.7857142857143" y1="220.00000000000003" y2="273.33333333333337" /><line stroke="black" stroke-width="1" x1="643.75" x2="643.75" y1="220.00000000000003" y2="273.33333333333337" /><line stroke="black" stroke-width="1" x1="650.7142857142858" x2="650.7142857142858" y1="220.00000000000003" y2="273.33333333333337" /><line stroke="black" stroke-width="1" x1="657.6785714285714" x2="657.6785714285714" y1="220.00000000000003" y2="273.33333333333337" /><line stroke="black" stroke-width="1" x1="664.6428571428571" x2="664.6428571428571" y1="220.00000000000003" y2="273.33333333333337" /><line stroke="black" stroke-width="1" x1="671.6071428571429" x2="671.6071428571429" y1="220.00000000000003" y2="273.33333333333337" /><line stroke="black" stroke-width="1" x1="678.5714285714286" x2="678.5714285714286" y1="220.00000000000003" y2="273.33333333333337" /><line stroke="black" stroke-width="1" x1="685.5357142857143" x2="685.5357142857143" y1="220.00000000000003" y2="273.33333333333337" /><line stroke="black" stroke-width="1" x1="692.5" x2="692.5" y1="220.00000000000003" y2="273.33333333333337" /><line stroke="black" stroke-width="1" x1="699.4642857142858" x2="699.4642857142858" y1="220.00000000000003" y2="273.33333333333337" /><line stroke="black" stroke-width="1" x1="706.4285714285714" x2="706.4285714285714" y1="220.00000000000003" y2="273.33333333333337" /><line stroke="black" stroke-width="1" x1="713.3928571428571" x2="713.3928571428571" y1="220.00000000000003" y2="273.33333333333337" /><line stroke="black" stroke-width="1" x1="720.3571428571429" x2="720.3571428571429" y1="220.00000000000003" y2="273.33333333333337" /><line stroke="black" stroke-width="1" x1="727.3214285714286" x2="727.3214285714286" y1="220.00000000000003" y2="273.33333333333337" /><line stroke="black" stroke-width="1" x1="734.2857142857143" x2="734.2857142857143" y1="220.00000000000003" y2="273.33333333333337" /><line stroke="black" stroke-width="1" x1="741.25" x2="741.25" y1="220.00000000000003" y2="273.33333333333337" /><line stroke="black" stroke-width="1" x1="748.2142857142858" x2="748.2142857142858" y1="220.00000000000003" y2="273.33333333333337" /><line stroke="black" stroke-width="1" x1="755.1785714285714" x2="755.1785714285714" y1="220.00000000000003" y2="273.33333333333337" /><line stroke="black" stroke-width="1" x1="762.1428571428571" x2="762.1428571428571" y1="220.00000000000003" y2="273.33333333333337" /><line stroke="black" stroke-width="1" x1="769.1071428571429" x2="769.1071428571429" y1="220.00000000000003" y2="273.33333333333337" /><line stroke="black" stroke-width="1" x1="776.0714285714286" x2="776.0714285714286" y1="220.00000000000003" y2="273.33333333333337" /><line stroke="black" stroke-width="1" x1="783.0357142857143" x2="783.0357142857143" y1="220.00000000000003" y2="273.33333333333337" /><line stroke="black" stroke-width="1" x1="790.0" x2="790.0" y1="220.00000000000003" y2="273.33333333333337" /><rect fill="none" height="266.6666666666667" stroke="purple" stroke-width="1" width="780.0" x="10.0" y="273.33333333333337" /><line stroke="gray" stroke-width="1" x1="10.0" x2="790.0" y1="273.33333333333337" y2="273.33333333333337" /><line stroke="gray" stroke-width="1" x1="10.0" x2="790.0" y1="540.0" y2="540.0" /><line stroke="gray" stroke-width="1" x1="225.89285714285714" x2="225.89285714285714" y1="273.33333333333337" y2="540.0" /><line stroke="gray" stroke-width="1" x1="420.89285714285717" x2="420.89285714285717" y1="273.33333333333337" y2="540.0" /><line stroke="gray" stroke-width="1" x1="636.7857142857143" x2="636.7857142857143" y1="273.33333333333337" y2="540.0" /><line stroke="gray" stroke-width="1" x1="44.82142857142857" x2="44.82142857142857" y1="273.33333333333337" y2="540.0" /><line stroke="gray" stroke-width="1" x1="93.57142857142857" x2="93.57142857142857" y1="273.33333333333337" y2="540.0" /><line stroke="gray" stroke-width="1" x1="142.32142857142858" x2="142.32142857142858" y1="273.33333333333337" y2="540.0" /><line stroke="gray" stroke-width="1" x1="191.07142857142858" x2="191.07142857142858" y1="273.33333333333337" y2="540.0" /><line stroke="gray" stroke-width="1" x1="239.82142857142858" x2="239.82142857142858" y1="273.33333333333337" y2="540.0" /><line stroke="gray" stroke-width="1" x1="288.57142857142856" x2="288.57142857142856" y1="273.33333333333337" y2="540.0" /><line stroke="gray" stroke-width="1" x1="337.32142857142856" x2="337.32142857142856" y1="273.33333333333337" y2="540.0" /><line stroke="gray" stroke-width="1" x1="386.07142857142856" x2="386.07142857142856" y1="273.33333333333337" y2="540.0" /><line stroke="gray" stroke-width="1" x1="434.82142857142856" x2="434.82142857142856" y1="273.33333333333337" y2="540.0" /><line stroke="gray" stroke-width="1" x1="483.57142857142856" x2="483.57142857142856" y1="273.33333333333337" y2="540.0" /><line stroke="gray" stroke-width="1" x1="532.3214285714286" x2="532.3214285714286" y1="273.33333333333337" y2="540.0" /><line stroke="gray" stroke-width="1" x1="581.0714285714286" x2="581.0714285714286" y1="273.33333333333337" y2="540.0" /><line stroke="gray" stroke-width="1" x1="629.8214285714286" x2="629.8214285714286" y1="273.33333333333337" y2="540.0" /><line stroke="gray" stroke-width="1" x1="678.5714285714286" x2="678.5714285714286" y1="273.33333333333337" y2="540.0" /><line stroke="gray" stroke-width="1" x1="727.3214285714286" x2="727.3214285714286" y1="273.33333333333337" y2="540.0" /><line stroke="gray" stroke-width="1" x1="776.0714285714286" x2="776.0714285714286" y1="273.33333333333337" y2="540.0" /><line stroke="gray" stroke-width="1" x1="16.964285714285715" x2="16.964285714285715" y1="273.33333333333337" y2="540.0" /><line stroke="gray" stroke-width="1" x1="23.92857142857143" x2="23.92857142857143" y1="273.33333333333337" y2="540.0" /><line stroke="gray" stroke-width="1" x1="30.892857142857142" x2="30.892857142857142" y1="273.33333333333337" y2="540.0" /><line stroke="gray" stroke-width="1" x1="37.85714285714286" x2="37.85714285714286" y1="273.33333333333337" y2="540.0" /><line stroke="gray" stroke-width="1" x1="44.82142857142857" x2="44.82142857142857" y1="273.33333333333337" y2="540.0" /><line stroke="gray" stroke-width="1" x1="51.785714285714285" x2="51.785714285714285" y1="273.33333333333337" y2="540.0" /><line stroke="gray" stroke-width="1" x1="58.75" x2="58.75" y1="273.33333333333337" y2="540.0" /><line stroke="gray" stroke-width="1" x1="65.71428571428572" x2="65.71428571428572" y1="273.33333333333337" y2="540.0" /><line stroke="gray" stroke-width="1" x1="72.67857142857143" x2="72.67857142857143" y1="273.33333333333337" y2="540.0" /><line stroke="gray" stroke-width="1" x1="79.64285714285714" x2="79.64285714285714" y1="273.33333333333337" y2="540.0" /><line stroke="gray" stroke-width="1" x1="86.60714285714286" x2="86.60714285714286" y1="273.33333333333337" y2="540.0" /><line stroke="gray" stroke-width="1" x1="93.57142857142857" x2="93.57142857142857" y1="273.33333333333337" y2="540.0" /><line stroke="gray" stroke-width="1" x1="100.53571428571429" x2="100.53571428571429" y1="273.33333333333337" y2="540.0" /><line stroke="gray" stroke-width="1" x1="107.5" x2="107.5" y1="273.33333333333337" y2="540.0" /><line stroke="gray" stroke-width="1" x1="114.46428571428572" x2="114.46428571428572" y1="273.33333333333337" y2="540.0" /><line stroke="gray" stroke-width="1" x1="121.42857142857143" x2="121.42857142857143" y1="273.33333333333337" y2="540.0" /><line stroke="gray" stroke-width="1" x1="128.39285714285714" x2="128.39285714285714" y1="273.33333333333337" y2="540.0" /><line stroke="gray" stroke-width="1" x1="135.35714285714286" x2="135.35714285714286" y1="273.33333333333337" y2="540.0" /><line stroke="gray" stroke-width="1" x1="142.32142857142858" x2="142.32142857142858" y1="273.33333333333337" y2="540.0" /><line stroke="gray" stroke-width="1" x1="149.28571428571428" x2="149.28571428571428" y1="273.33333333333337" y2="540.0" /><line stroke="gray" stroke-width="1" x1="156.25" x2="156.25" y1="273.33333333333337" y2="540.0" /><line stroke="gray" stroke-width="1" x1="163.21428571428572" x2="163.21428571428572" y1="273.33333333333337" y2="540.0" /><line stroke="gray" stroke-width="1" x1="170.17857142857144" x2="170.17857142857144" y1="273.33333333333337" y2="540.0" /><line stroke="gray" stroke-width="1" x1="177.14285714285714" x2="177.14285714285714" y1="273.33333333333337" y2="540.0" /><line stroke="gray" stroke-width="1" x1="184.10714285714286" x2="184.10714285714286" y1="273.33333333333337" y2="540.0" /><line stroke="gray" stroke-width="1" x1="191.07142857142858" x2="191.07142857142858" y1="273.33333333333337" y2="540.0" /><line stroke="gray" stroke-width="1" x1="198.03571428571428" x2="198.03571428571428" y1="273.33333333333337" y2="540.0" /><line stroke="gray" stroke-width="1" x1="205.0" x2="205.0" y1="273.33333333333337" y2="540.0" /><line stroke="gray" stroke-width="1" x1="211.96428571428572" x2="211.96428571428572" y1="273.33333333333337" y2="540.0" /><line stroke="gray" stroke-width="1" x1="218.92857142857144" x2="218.92857142857144" y1="273.33333333333337" y2="540.0" /><line stroke="gray" stroke-width="1" x1="225.89285714285714" x2="225.89285714285714" y1="273.33333333333337" y2="540.0" /><line stroke="gray" stroke-width="1" x1="232.85714285714286" x2="232.85714285714286" y1="273.33333333333337" y2="540.0" /><line stroke="gray" stroke-width="1" x1="239.82142857142858" x2="239.82142857142858" y1="273.33333333333337" y2="540.0" /><line stroke="gray" stroke-width="1" x1="246.78571428571428" x2="246.78571428571428" y1="273.33333333333337" y2="540.0" /><line stroke="gray" stroke-width="1" x1="253.75" x2="253.75" y1="273.33333333333337" y2="540.0" /><line stroke="gray" stroke-width="1" x1="260.7142857142857" x2="260.7142857142857" y1="273.33333333333337" y2="540.0" /><line stroke="gray" stroke-width="1" x1="267.67857142857144" x2="267.67857142857144" y1="273.33333333333337" y2="540.0" /><line stroke="gray" stroke-width="1" x1="274.64285714285717" x2="274.64285714285717" y1="273.33333333333337" y2="540.0" /><line stroke="gray" stroke-width="1" x1="281.6071428571429" x2="281.6071428571429" y1="273.33333333333337" y2="540.0" /><line stroke="gray" stroke-width="1" x1="288.57142857142856" x2="288.57142857142856" y1="273.33333333333337" y2="540.0" /><line stroke="gray" stroke-width="1" x1="295.5357142857143" x2="295.5357142857143" y1="273.33333333333337" y2="540.0" /><line stroke="gray" stroke-width="1" x1="302.5" x2="302.5" y1="273.33333333333337" y2="540.0" /><line stroke="gray" stroke-width="1" x1="309.4642857142857" x2="309.4642857142857" y1="273.33333333333337" y2="540.0" /><line stroke="gray" stroke-width="1" x1="316.42857142857144" x2="316.42857142857144" y1="273.33333333333337" y2="540.0" /><line stroke="gray" stroke-width="1" x1="323.39285714285717" x2="323.39285714285717" y1="273.33333333333337" y2="540.0" /><line stroke="gray" stroke-width="1" x1="330.3571428571429" x2="330.3571428571429" y1="273.33333333333337" y2="540.0" /><line stroke="gray" stroke-width="1" x1="337.32142857142856" x2="337.32142857142856" y1="273.33333333333337" y2="540.0" /><line stroke="gray" stroke-width="1" x1="344.2857142857143" x2="344.2857142857143" y1="273.33333333333337" y2="540.0" /><line stroke="gray" stroke-width="1" x1="351.25" x2="351.25" y1="273.33333333333337" y2="540.0" /><line stroke="gray" stroke-width="1" x1="358.2142857142857" x2="358.2142857142857" y1="273.33333333333337" y2="540.0" /><line stroke="gray" stroke-width="1" x1="365.17857142857144" x2="365.17857142857144" y1="273.33333333333337" y2="540.0" /><line stroke="gray" stroke-width="1" x1="372.14285714285717" x2="372.14285714285717" y1="273.33333333333337" y2="540.0" /><line stroke="gray" stroke-width="1" x1="379.1071428571429" x2="379.1071428571429" y1="273.33333333333337" y2="540.0" /><line stroke="gray" stroke-width="1" x1="386.07142857142856" x2="386.07142857142856" y1="273.33333333333337" y2="540.0" /><line stroke="gray" stroke-width="1" x1="393.0357142857143" x2="393.0357142857143" y1="273.33333333333337" y2="540.0" /><line stroke="gray" stroke-width="1" x1="400.0" x2="400.0" y1="273.33333333333337" y2="540.0" /><line stroke="gray" stroke-width="1" x1="406.9642857142857" x2="406.9642857142857" y1="273.33333333333337" y2="540.0" /><line stroke="gray" stroke-width="1" x1="413.92857142857144" x2="413.92857142857144" y1="273.33333333333337" y2="540.0" /><line stroke="gray" stroke-width="1" x1="420.89285714285717" x2="420.89285714285717" y1="273.33333333333337" y2="540.0" /><line stroke="gray" stroke-width="1" x1="427.8571428571429" x2="427.8571428571429" y1="273.33333333333337" y2="540.0" /><line stroke="gray" stroke-width="1" x1="434.82142857142856" x2="434.82142857142856" y1="273.33333333333337" y2="540.0" /><line stroke="gray" stroke-width="1" x1="441.7857142857143" x2="441.7857142857143" y1="273.33333333333337" y2="540.0" /><line stroke="gray" stroke-width="1" x1="448.75" x2="448.75" y1="273.33333333333337" y2="540.0" /><line stroke="gray" stroke-width="1" x1="455.7142857142857" x2="455.7142857142857" y1="273.33333333333337" y2="540.0" /><line stroke="gray" stroke-width="1" x1="462.67857142857144" x2="462.67857142857144" y1="273.33333333333337" y2="540.0" /><line stroke="gray" stroke-width="1" x1="469.64285714285717" x2="469.64285714285717" y1="273.33333333333337" y2="540.0" /><line stroke="gray" stroke-width="1" x1="476.6071428571429" x2="476.6071428571429" y1="273.33333333333337" y2="540.0" /><line stroke="gray" stroke-width="1" x1="483.57142857142856" x2="483.57142857142856" y1="273.33333333333337" y2="540.0" /><line stroke="gray" stroke-width="1" x1="490.5357142857143" x2="490.5357142857143" y1="273.33333333333337" y2="540.0" /><line stroke="gray" stroke-width="1" x1="497.5" x2="497.5" y1="273.33333333333337" y2="540.0" /><line stroke="gray" stroke-width="1" x1="504.4642857142857" x2="504.4642857142857" y1="273.33333333333337" y2="540.0" /><line stroke="gray" stroke-width="1" x1="511.42857142857144" x2="511.42857142857144" y1="273.33333333333337" y2="540.0" /><line stroke="gray" stroke-width="1" x1="518.3928571428571" x2="518.3928571428571" y1="273.33333333333337" y2="540.0" /><line stroke="gray" stroke-width="1" x1="525.3571428571429" x2="525.3571428571429" y1="273.33333333333337" y2="540.0" /><line stroke="gray" stroke-width="1" x1="532.3214285714286" x2="532.3214285714286" y1="273.33333333333337" y2="540.0" /><line stroke="gray" stroke-width="1" x1="539.2857142857143" x2="539.2857142857143" y1="273.33333333333337" y2="540.0" /><line stroke="gray" stroke-width="1" x1="546.25" x2="546.25" y1="273.33333333333337" y2="540.0" /><line stroke="gray" stroke-width="1" x1="553.2142857142858" x2="553.2142857142858" y1="273.33333333333337" y2="540.0" /><line stroke="gray" stroke-width="1" x1="560.1785714285714" x2="560.1785714285714" y1="273.33333333333337" y2="540.0" /><line stroke="gray" stroke-width="1" x1="567.1428571428571" x2="567.1428571428571" y1="273.33333333333337" y2="540.0" /><line stroke="gray" stroke-width="1" x1="574.1071428571429" x2="574.1071428571429" y1="273.33333333333337" y2="540.0" /><line stroke="gray" stroke-width="1" x1="581.0714285714286" x2="581.0714285714286" y1="273.33333333333337" y2="540.0" /><line stroke="gray" stroke-width="1" x1="588.0357142857143" x2="588.0357142857143" y1="273.33333333333337" y2="540.0" /><line stroke="gray" stroke-width="1" x1="595.0" x2="595.0" y1="273.33333333333337" y2="540.0" /><line stroke="gray" stroke-width="1" x1="601.9642857142858" x2="601.9642857142858" y1="273.33333333333337" y2="540.0" /><line stroke="gray" stroke-width="1" x1="608.9285714285714" x2="608.9285714285714" y1="273.33333333333337" y2="540.0" /><line stroke="gray" stroke-width="1" x1="615.8928571428571" x2="615.8928571428571" y1="273.33333333333337" y2="540.0" /><line stroke="gray" stroke-width="1" x1="622.8571428571429" x2="622.8571428571429" y1="273.33333333333337" y2="540.0" /><line stroke="gray" stroke-width="1" x1="629.8214285714286" x2="629.8214285714286" y1="273.33333333333337" y2="540.0" /><line stroke="gray" stroke-width="1" x1="636.7857142857143" x2="636.7857142857143" y1="273.33333333333337" y2="540.0" /><line stroke="gray" stroke-width="1" x1="643.75" x2="643.75" y1="273.33333333333337" y2="540.0" /><line stroke="gray" stroke-width="1" x1="650.7142857142858" x2="650.7142857142858" y1="273.33333333333337" y2="540.0" /><line stroke="gray" stroke-width="1" x1="657.6785714285714" x2="657.6785714285714" y1="273.33333333333337" y2="540.0" /><line stroke="gray" stroke-width="1" x1="664.6428571428571" x2="664.6428571428571" y1="273.33333333333337" y2="540.0" /><line stroke="gray" stroke-width="1" x1="671.6071428571429" x2="671.6071428571429" y1="273.33333333333337" y2="540.0" /><line stroke="gray" stroke-width="1" x1="678.5714285714286" x2="678.5714285714286" y1="273.33333333333337" y2="540.0" /><line stroke="gray" stroke-width="1" x1="685.5357142857143" x2="685.5357142857143" y1="273.33333333333337" y2="540.0" /><line stroke="gray" stroke-width="1" x1="692.5" x2="692.5" y1="273.33333333333337" y2="540.0" /><line stroke="gray" stroke-width="1" x1="699.4642857142858" x2="699.4642857142858" y1="273.33333333333337" y2="540.0" /><line stroke="gray" stroke-width="1" x1="706.4285714285714" x2="706.4285714285714" y1="273.33333333333337" y2="540.0" /><line stroke="gray" stroke-width="1" x1="713.3928571428571" x2="713.3928571428571" y1="273.33333333333337" y2="540.0" /><line stroke="gray" stroke-width="1" x1="720.3571428571429" x2="720.3571428571429" y1="273.33333333333337" y2="540.0" /><line stroke="gray" stroke-width="1" x1="727.3214285714286" x2="727.3214285714286" y1="273.33333333333337" y2="540.0" /><line stroke="gray" stroke-width="1" x1="734.2857142857143" x2="734.2857142857143" y1="273.33333333333337" y2="540.0" /><line stroke="gray" stroke-width="1" x1="741.25" x2="741.25" y1="273.33333333333337" y2="540.0" /><line stroke="gray" stroke-width="1" x1="748.2142857142858" x2="748.2142857142858" y1="273.33333333333337" y2="540.0" /><line stroke="gray" stroke-width="1" x1="755.1785714285714" x2="755.1785714285714" y1="273.33333333333337" y2="540.0" /><line stroke="gray" stroke-width="1" x1="762.1428571428571" x2="762.1428571428571" y1="273.33333333333337" y2="540.0" /><line stroke="gray" stroke-width="1" x1="769.1071428571429" x2="769.1071428571429" y1="273.33333333333337" y2="540.0" /><line stroke="gray" stroke-width="1" x1="776.0714285714286" x2="776.0714285714286" y1="273.33333333333337" y2="540.0" /><line stroke="gray" stroke-width="1" x1="783.0357142857143" x2="783.0357142857143" y1="273.33333333333337" y2="540.0" /><line stroke="gray" stroke-width="1" x1="790.0" x2="790.0" y1="273.33333333333337" y2="540.0" /></svg>