<?xml version="1.0" encoding="utf-8" ?>
<svg baseProfile="full" height="600.0" version="1.1" width="800.0" xmlns="http://www.w3.org/2000/svg" xmlns:ev="http://www.w3.org/2001/xml-events" xmlns:xlink="http://www.w3.org/1999/xlink"><defs /><rect fill="white" height="600.0" stroke="black" stroke-width="2" width="800.0" x="0" y="0" /><rect fill="lightgray" height="50.0" stroke="black" stroke-width="1" width="780.0" x="10.0" y="10.0" /><rect fill="lightgray" height="50.0" stroke="black" stroke-width="1" width="780.0" x="10.0" y="540.0" /><rect fill="none" height="480.0" stroke="blue" stroke-dasharray="4" stroke-width="1" width="780.0" x="10.0" y="60.0" /><rect fill="none" height="480.0" stroke="red" stroke-width="1" width="780.0" x="10.0" y="60.0" /><rect fill="lightgrey" height="53.333333333333336" stroke="black" stroke-width="1" width="780.0" x="10.0" y="60.0" /><text dominant-baseline="middle" font-size="10" text-anchor="middle" x="400.0" y="86.66666666666667">2025</text><rect fill="lightgrey" height="53.333333333333336" stroke="black" stroke-width="1" width="780.0" x="10.0" y="113.33333333333334" /><line stroke="black" stroke-width="1" x1="332.40000000000003" x2="332.40000000000003" y1="113.33333333333334" y2="166.66666666666669" /><text dominant-baseline="middle" font-size="10" text-anchor="middle" x="171.20000000000002" y="140.0">Mar</text><line stroke="black" stroke-width="1" x1="644.4" x2="644.4" y1="113.33333333333334" y2="166.66666666666669" /><text dominant-baseline="middle" font-size="10" text-anchor="middle" x="488.4" y="140.0">Apr</text><text dominant-baseline="middle" font-size="10" text-anchor="middle" x="717.2" y="140.0">May</text><rect fill="lightgrey" height="53.333333333333336" stroke="black" stroke-width="1" width="780.0" x="10.0" y="166.66666666666669" /><line stroke="black" stroke-width="1" x1="30.8" x2="30.8" y1="166.66666666666669" y2="220.00000000000003" /><text dominant-baseline="middle" font-size="10" text-anchor="middle" x="20.4" y="193.33333333333334">09</text><line stroke="black" stroke-width="1" x1="103.60000000000001" x2="103.60000000000001" y1="166.66666666666669" y2="220.00000000000003" /><text dominant-baseline="middle" font-size="10" text-anchor="middle" x="67.2" y="193.33333333333334">10 (09)</text><line stroke="black" stroke-width="1" x1="176.4" x2="176.4" y1="166.66666666666669" y2="220.00000000000003" /><text dominant-baseline="middle" font-size="10" text-anchor="middle" x="140.0" y="193.33333333333334">11 (16)</text><line stroke="black" stroke-width="1" x1="249.20000000000002" x2="249.20000000000002" y1="166.66666666666669" y2="220.00000000000003" /><text dominant-baseline="middle" font-size="10" text-anchor="middle" x="212.8" y="193.33333333333334">12 (23)</text><line stroke="black" stroke-width="1" x1="322.0" x2="322.0" y1="166.66666666666669" y2="220.00000000000003" /><text dominant-baseline="middle" font-size="10" text-anchor="middle" x="285.6" y="193.33333333333334">13 (30)</text><line stroke="black" stroke-width="1" x1="394.8" x2="394.8" y1="166.66666666666669" y2="220.00000000000003" /><text dominant-baseline="middle" font-size="10" text-anchor="middle" x="358.4" y="193.33333333333334">14 (06)</text><line stroke="black" stroke-width="1" x1="467.6" x2="467.6" y1="166.66666666666669" y2="220.00000000000003" /><text dominant-baseline="middle" font-size="10" text-anchor="middle" x="431.20000000000005" y="193.33333333333334">15 (13)</text><line stroke="black" stroke-width="1" x1="540.4" x2="540.4" y1="166.66666666666669" y2="220.00000000000003" /><text dominant-baseline="middle" font-size="10" text-anchor="middle" x="504.0" y="193.33333333333334">16 (20)</text><line stroke="black" stroke-width="1" x1="613.2" x2="613.2" y1="166.66666666666669" y2="220.00000000000003" /><text dominant-baseline="middle" font-size="10" text-anchor="middle" x="576.8" y="193.33333333333334">17 (27)</text><line stroke="black" stroke-width="1" x1="686.0" x2="686.0" y1="166.66666666666669" y2="220.00000000000003" /><text dominant-baseline="middle" font-size="10" text-anchor="middle" x="649.6" y="193.33333333333334">18 (04)</text><line stroke="black" stroke-width="1" x1="758.8000000000001" x2="758.8000000000001" y1="166.66666666666669" y2="220.00000000000003" /><text dominant-baseline="middle" font-size="10" text-anchor="middle" x="722.4000000000001" y="193.33333333333334">19 (11)</text><text dominant-baseline="middle" font-size="10" text-anchor="middle" x="774.4000000000001" y="193.33333333333334">20</text><rect fill="lightgrey" height="53.333333333333336" stroke="black" stroke-width="1" width="780.0" x="10.0" y="220.00000000000003" /><line stroke="black" stroke-width="1" x1="20.4" x2="20.4" y1="220.00000000000003" y2="273.33333333333337" /><line stroke="black" stroke-width="1" x1="30.8" x2="30.8" y1="220.00000000000003" y2="273.33333333333337" /><line stroke="black" stroke-width="1" x1="41.2" x2="41.2" y1="220.00000000000003" y2="273.33333333333337" /><line stroke="black" stroke-width="1" x1="51.6" x2="51.6" y1="220.00000000000003" y2="273.33333333333337" /><line stroke="black" stroke-width="1" x1="62.0" x2="62.0" y1="220.00000000000003" y2="273.33333333333337" /><line stroke="black" stroke-width="1" x1="72.4" x2="72.4" y1="220.00000000000003" y2="273.33333333333337" /><line stroke="black" stroke-width="1" x1="82.8" x2="82.8" y1="220.00000000000003" y2="273.33333333333337" /><line stroke="black" stroke-width="1" x1="93.2" x2="93.2" y1="220.00000000000003" y2="273.33333333333337" /><line stroke="black" stroke-width="1" x1="103.60000000000001" x2="103.60000000000001" y1="220.00000000000003" y2="273.33333333333337" /><line stroke="black" stroke-width="1" x1="114.0" x2="114.0" y1="220.00000000000003" y2="273.33333333333337" /><line stroke="black" stroke-width="1" x1="124.4" x2="124.4" y1="220.00000000000003" y2="273.33333333333337" /><line stroke="black" stroke-width="1" x1="134.8" x2="134.8" y1="220.00000000000003" y2="273.33333333333337" /><line stroke="black" stroke-width="1" x1="145.20000000000002" x2="145.20000000000002" y1="220.00000000000003" y2="273.33333333333337" /><line stroke="black" stroke-width="1" x1="155.6" x2="155.6" y1="220.00000000000003" y2="273.33333333333337" /><line stroke="black" stroke-width="1" x1="166.0" x2="166.0" y1="220.00000000000003" y2="273.33333333333337" /><line stroke="black" stroke-width="1" x1="176.4" x2="176.4" y1="220.00000000000003" y2="273.33333333333337" /><line stroke="black" stroke-width="1" x1="186.8" x2="186.8" y1="220.00000000000003" y2="273.33333333333337" /><line stroke="black" stroke-width="1" x1="197.20000000000002" x2="197.20000000000002" y1="220.00000000000003" y2="273.33333333333337" /><line stroke="black" stroke-width="1" x1="207.6" x2="207.6" y1="220.00000000000003" y2="273.33333333333337" /><line stroke="black" stroke-width="1" x1="218.0" x2="218.0" y1="220.00000000000003" y2="273.33333333333337" /><line stroke="black" stroke-width="1" x1="228.4" x2="228.4" y1="220.00000000000003" y2="273.33333333333337" /><line stroke="black" stroke-width="1" x1="238.8" x2="238.8" y1="220.00000000000003" y2="273.33333333333337" /><line stroke="black" stroke-width="1" x1="249.20000000000002" x2="249.20000000000002" y1="220.00000000000003" y2="273.33333333333337" /><line stroke="black" stroke-width="1" x1="259.6" x2="259.6" y1="220.00000000000003" y2="273.33333333333337" /><line stroke="black" stroke-width="1" x1="270.0" x2="270.0" y1="220.00000000000003" y2="273.33333333333337" /><line stroke="black" stroke-width="1" x1="280.40000000000003" x2="280.40000000000003" y1="220.00000000000003" y2="273.33333333333337" /><line stroke="black" stroke-width="1" x1="290.8" x2="290.8" y1="220.00000000000003" y2="273.33333333333337" /><line stroke="black" stroke-width="1" x1="301.2" x2="301.2" y1="220.00000000000003" y2="273.33333333333337" /><line stroke="black" stroke-width="1" x1="311.6" x2="311.6" y1="220.00000000000003" y2="273.33333333333337" /><line stroke="black" stroke-width="1" x1="322.0" x2="322.0" y1="220.00000000000003" y2="273.33333333333337" /><line stroke="black" stroke-width="1" x1="332.40000000000003" x2="332.40000000000003" y1="220.00000000000003" y2="273.33333333333337" /><line stroke="black" stroke-width="1" x1="342.8" x2="342.8" y1="220.00000000000003" y2="273.33333333333337" /><line stroke="black" stroke-width="1" x1="353.2" x2="353.2" y1="220.00000000000003" y2="273.33333333333337" /><line stroke="black" stroke-width="1" x1="363.6" x2="363.6" y1="220.00000000000003" y2="273.33333333333337" /><line stroke="black" stroke-width="1" x1="374.0" x2="374.0" y1="220.00000000000003" y2="273.33333333333337" /><line stroke="black" stroke-width="1" x1="384.40000000000003" x2="384.40000000000003" y1="220.00000000000003" y2="273.33333333333337" /><line stroke="black" stroke-width="1" x1="394.8" x2="394.8" y1="220.00000000000003" y2="273.33333333333337" /><line stroke="black" stroke-width="1" x1="405.2" x2="405.2" y1="220.00000000000003" y2="273.33333333333337" /><line stroke="black" stroke-width="1" x1="415.6" x2="415.6" y1="220.00000000000003" y2="273.33333333333337" /><line stroke="black" stroke-width="1" x1="426.0" x2="426.0" y1="220.00000000000003" y2="273.33333333333337" /><line stroke="black" stroke-width="1" x1="436.40000000000003" x2="436.40000000000003" y1="220.00000000000003" y2="273.33333333333337" /><line stroke="black" stroke-width="1" x1="446.8" x2="446.8" y1="220.00000000000003" y2="273.33333333333337" /><line stroke="black" stroke-width="1" x1="457.2" x2="457.2" y1="220.00000000000003" y2="273.33333333333337" /><line stroke="black" stroke-width="1" x1="467.6" x2="467.6" y1="220.00000000000003" y2="273.33333333333337" /><line stroke="black" stroke-width="1" x1="478.0" x2="478.0" y1="220.00000000000003" y2="273.33333333333337" /><line stroke="black" stroke-width="1" x1="488.40000000000003" x2="488.40000000000003" y1="220.00000000000003" y2="273.33333333333337" /><line stroke="black" stroke-width="1" x1="498.8" x2="498.8" y1="220.00000000000003" y2="273.33333333333337" /><line stroke="black" stroke-width="1" x1="509.20000000000005" x2="509.20000000000005" y1="220.00000000000003" y2="273.33333333333337" /><line stroke="black" stroke-width="1" x1="519.6" x2="519.6" y1="220.00000000000003" y2="273.33333333333337" /><line stroke="black" stroke-width="1" x1="530.0" x2="530.0" y1="220.00000000000003" y2="273.33333333333337" /><line stroke="black" stroke-width="1" x1="540.4" x2="540.4" y1="220.00000000000003" y2="273.33333333333337" /><line stroke="black" stroke-width="1" x1="550.8000000000001" x2="550.8000000000001" y1="220.00000000000003" y2="273.33333333333337" /><line stroke="black" stroke-width="1" x1="561.2" x2="561.2" y1="220.00000000000003" y2="273.33333333333337" /><line stroke="black" stroke-width="1" x1="571.6" x2="571.6" y1="220.00000000000003" y2="273.33333333333337" /><line stroke="black" stroke-width="1" x1="582.0" x2="582.0" y1="220.00000000000003" y2="273.33333333333337" /><line stroke="black" stroke-width="1" x1="592.4" x2="592.4" y1="220.00000000000003" y2="273.33333333333337" /><line stroke="black" stroke-width="1" x1="602.8000000000001" x2="602.8000000000001" y1="220.00000000000003" y2="273.33333333333337" /><line stroke="black" stroke-width="1" x1="613.2" x2="613.2" y1="220.00000000000003" y2="273.33333333333337" /><line stroke="black" stroke-width="1" x1="623.6" x2="623.6" y1="220.00000000000003" y2="273.33333333333337" /><line stroke="black" stroke-width="1" x1="634.0" x2="634.0" y1="220.00000000000003" y2="273.33333333333337" /><line stroke="black" stroke-width="1" x1="644.4" x2="644.4" y1="220.00000000000003" y2="273.33333333333337" /><line stroke="black" stroke-width="1" x1="654.8000000000001" x2="654.8000000000001" y1="220.00000000000003" y2="273.33333333333337" /><line stroke="black" stroke-width="1" x1="665.2" x2="665.2" y1="220.00000000000003" y2="273.33333333333337" /><line stroke="black" stroke-width="1" x1="675.6" x2="675.6" y1="220.00000000000003" y2="273.33333333333337" /><line stroke="black" stroke-width="1" x1="686.0" x2="686.0" y1="220.00000000000003" y2="273.33333333333337" /><line stroke="black" stroke-width="1" x1="696.4" x2="696.4" y1="220.00000000000003" y2="273.33333333333337" /><line stroke="black" stroke-width="1" x1="706.8000000000001" x2="706.8000000000001" y1="220.00000000000003" y2="273.33333333333337" /><line stroke="black" stroke-width="1" x1="717.2" x2="717.2" y1="220.00000000000003" y2="273.33333333333337" /><line stroke="black" stroke-width="1" x1="727.6" x2="727.6" y1="220.00000000000003" y2="273.33333333333337" /><line stroke="black" stroke-width="1" x1="738.0" x2="738.0" y1="220.00000000000003" y2="273.33333333333337" /><line stroke="black" stroke-width="1" x1="748.4" x2="748.4" y1="220.00000000000003" y2="273.33333333333337" /><line stroke="black" stroke-width="1" x1="758.8000000000001" x2="758.8000000000001" y1="220.00000000000003" y2="273.33333333333337" /><line stroke="black" stroke-width="1" x1="769.2" x2="769.2" y1="220.00000000000003" y2="273.33333333333337" /><line stroke="black" stroke-width="1" x1="779.6" x2="779.6" y1="220.00000000000003" y2="273.33333333333337" /><line stroke="black" stroke-width="1" x1="790.0" x2="790.0" y1="220.00000000000003" y2="273.33333333333337" /><rect fill="none" height="266.6666666666667" stroke="purple" stroke-width="1" width="780.0" x="10.0" y="273.33333333333337" /><line stroke="gray" stroke-width="1" x1="10.0" x2="790.0" y1="273.33333333333337" y2="273.33333333333337" /><line stroke="gray" stroke-width="1" x1="10.0" x2="790.0" y1="300.00000000000006" y2="300.00000000000006" /><line stroke="gray" stroke-width="1" x1="10.0" x2="790.0" y1="326.6666666666667" y2="326.6666666666667" /><line stroke="gray" stroke-width="1" x1="10.0" x2="790.0" y1="353.33333333333337" y2="353.33333333333337" /><line stroke="gray" stroke-width="1" x1="10.0" x2="790.0" y1="380.00000000000006" y2="380.00000000000006" /><line stroke="gray" stroke-width="1" x1="10.0" x2="790.0" y1="406.66666666666674" y2="406.66666666666674" /><line stroke="gray" stroke-width="1" x1="10.0" x2="790.0" y1="433.33333333333337" y2="433.33333333333337" /><line stroke="gray" stroke-width="1" x1="10.0" x2="790.0" y1="460.00000000000006" y2="460.00000000000006" /><line stroke="gray" stroke-width="1" x1="10.0" x2="790.0" y1="486.66666666666674" y2="486.66666666666674" /><line stroke="gray" stroke-width="1" x1="10.0" x2="790.0" y1="513.3333333333334" y2="513.3333333333334" /><line stroke="gray" stroke-width="1" x1="10.0" x2="790.0" y1="540.0" y2="540.0" /><line stroke="gray" stroke-width="1" x1="332.40000000000003" x2="332.40000000000003" y1="273.33333333333337" y2="540.0" /><line stroke="gray" stroke-width="1" x1="644.4" x2="644.4" y1="273.33333333333337" y2="540.0" /><line stroke="gray" stroke-width="1" x1="30.8" x2="30.8" y1="273.33333333333337" y2="540.0" /><line stroke="gray" stroke-width="1" x1="103.60000000000001" x2="103.60000000000001" y1="273.33333333333337" y2="540.0" /><line stroke="gray" stroke-width="1" x1="176.4" x2="176.4" y1="273.33333333333337" y2="540.0" /><line stroke="gray" stroke-width="1" x1="249.20000000000002" x2="249.20000000000002" y1="273.33333333333337" y2="540.0" /><line stroke="gray" stroke-width="1" x1="322.0" x2="322.0" y1="273.33333333333337" y2="540.0" /><line stroke="gray" stroke-width="1" x1="394.8" x2="394.8" y1="273.33333333333337" y2="540.0" /><line stroke="gray" stroke-width="1" x1="467.6" x2="467.6" y1="273.33333333333337" y2="540.0" /><line stroke="gray" stroke-width="1" x1="540.4" x2="540.4" y1="273.33333333333337" y2="540.0" /><line stroke="gray" stroke-width="1" x1="613.2" x2="613.2" y1="273.33333333333337" y2="540.0" /><line stroke="gray" stroke-width="1" x1="686.0" x2="686.0" y1="273.33333333333337" y2="540.0" /><line stroke="gray" stroke-width="1" x1="758.8000000000001" x2="758.8000000000001" y1="273.33333333333337" y2="540.0" /><line stroke="gray" stroke-width="1" x1="20.4" x2="20.4" y1="273.33333333333337" y2="540.0" /><line stroke="gray" stroke-width="1" x1="30.8" x2="30.8" y1="273.33333333333337" y2="540.0" /><line stroke="gray" stroke-width="1" x1="41.2" x2="41.2" y1="273.33333333333337" y2="540.0" /><line stroke="gray" stroke-width="1" x1="51.6" x2="51.6" y1="273.33333333333337" y2="540.0" /><line stroke="gray" stroke-width="1" x1="62.0" x2="62.0" y1="273.33333333333337" y2="540.0" /><line stroke="gray" stroke-width="1" x1="72.4" x2="72.4" y1="273.33333333333337" y2="540.0" /><line stroke="gray" stroke-width="1" x1="82.8" x2="82.8" y1="273.33333333333337" y2="540.0" /><line stroke="gray" stroke-width="1" x1="93.2" x2="93.2" y1="273.33333333333337" y2="540.0" /><line stroke="gray" stroke-width="1" x1="103.60000000000001" x2="103.60000000000001" y1="273.33333333333337" y2="540.0" /><line stroke="gray" stroke-width="1" x1="114.0" x2="114.0" y1="273.33333333333337" y2="540.0" /><line stroke="gray" stroke-width="1" x1="124.4" x2="124.4" y1="273.33333333333337" y2="540.0" /><line stroke="gray" stroke-width="1" x1="134.8" x2="134.8" y1="273.33333333333337" y2="540.0" /><line stroke="gray" stroke-width="1" x1="145.20000000000002" x2="145.20000000000002" y1="273.33333333333337" y2="540.0" /><line stroke="gray" stroke-width="1" x1="155.6" x2="155.6" y1="273.33333333333337" y2="540.0" /><line stroke="gray" stroke-width="1" x1="166.0" x2="166.0" y1="273.33333333333337" y2="540.0" /><line stroke="gray" stroke-width="1" x1="176.4" x2="176.4" y1="273.33333333333337" y2="540.0" /><line stroke="gray" stroke-width="1" x1="186.8" x2="186.8" y1="273.33333333333337" y2="540.0" /><line stroke="gray" stroke-width="1" x1="197.20000000000002" x2="197.20000000000002" y1="273.33333333333337" y2="540.0" /><line stroke="gray" stroke-width="1" x1="207.6" x2="207.6" y1="273.33333333333337" y2="540.0" /><line stroke="gray" stroke-width="1" x1="218.0" x2="218.0" y1="273.33333333333337" y2="540.0" /><line stroke="gray" stroke-width="1" x1="228.4" x2="228.4" y1="273.33333333333337" y2="540.0" /><line stroke="gray" stroke-width="1" x1="238.8" x2="238.8" y1="273.33333333333337" y2="540.0" /><line stroke="gray" stroke-width="1" x1="249.20000000000002" x2="249.20000000000002" y1="273.33333333333337" y2="540.0" /><line stroke="gray" stroke-width="1" x1="259.6" x2="259.6" y1="273.33333333333337" y2="540.0" /><line stroke="gray" stroke-width="1" x1="270.0" x2="270.0" y1="273.33333333333337" y2="540.0" /><line stroke="gray" stroke-width="1" x1="280.40000000000003" x2="280.40000000000003" y1="273.33333333333337" y2="540.0" /><line stroke="gray" stroke-width="1" x1="290.8" x2="290.8" y1="273.33333333333337" y2="540.0" /><line stroke="gray" stroke-width="1" x1="301.2" x2="301.2" y1="273.33333333333337" y2="540.0" /><line stroke="gray" stroke-width="1" x1="311.6" x2="311.6" y1="273.33333333333337" y2="540.0" /><line stroke="gray" stroke-width="1" x1="322.0" x2="322.0" y1="273.33333333333337" y2="540.0" /><line stroke="gray" stroke-width="1" x1="332.40000000000003" x2="332.40000000000003" y1="273.33333333333337" y2="540.0" /><line stroke="gray" stroke-width="1" x1="342.8" x2="342.8" y1="273.33333333333337" y2="540.0" /><line stroke="gray" stroke-width="1" x1="353.2" x2="353.2" y1="273.33333333333337" y2="540.0" /><line stroke="gray" stroke-width="1" x1="363.6" x2="363.6" y1="273.33333333333337" y2="540.0" /><line stroke="gray" stroke-width="1" x1="374.0" x2="374.0" y1="273.33333333333337" y2="540.0" /><line stroke="gray" stroke-width="1" x1="384.40000000000003" x2="384.40000000000003" y1="273.33333333333337" y2="540.0" /><line stroke="gray" stroke-width="1" x1="394.8" x2="394.8" y1="273.33333333333337" y2="540.0" /><line stroke="gray" stroke-width="1" x1="405.2" x2="405.2" y1="273.33333333333337" y2="540.0" /><line stroke="gray" stroke-width="1" x1="415.6" x2="415.6" y1="273.33333333333337" y2="540.0" /><line stroke="gray" stroke-width="1" x1="426.0" x2="426.0" y1="273.33333333333337" y2="540.0" /><line stroke="gray" stroke-width="1" x1="436.40000000000003" x2="436.40000000000003" y1="273.33333333333337" y2="540.0" /><line stroke="gray" stroke-width="1" x1="446.8" x2="446.8" y1="273.33333333333337" y2="540.0" /><line stroke="gray" stroke-width="1" x1="457.2" x2="457.2" y1="273.33333333333337" y2="540.0" /><line stroke="gray" stroke-width="1" x1="467.6" x2="467.6" y1="273.33333333333337" y2="540.0" /><line stroke="gray" stroke-width="1" x1="478.0" x2="478.0" y1="273.33333333333337" y2="540.0" /><line stroke="gray" stroke-width="1" x1="488.40000000000003" x2="488.40000000000003" y1="273.33333333333337" y2="540.0" /><line stroke="gray" stroke-width="1" x1="498.8" x2="498.8" y1="273.33333333333337" y2="540.0" /><line stroke="gray" stroke-width="1" x1="509.20000000000005" x2="509.20000000000005" y1="273.33333333333337" y2="540.0" /><line stroke="gray" stroke-width="1" x1="519.6" x2="519.6" y1="273.33333333333337" y2="540.0" /><line stroke="gray" stroke-width="1" x1="530.0" x2="530.0" y1="273.33333333333337" y2="540.0" /><line stroke="gray" stroke-width="1" x1="540.4" x2="540.4" y1="273.33333333333337" y2="540.0" /><line stroke="gray" stroke-width="1" x1="550.8000000000001" x2="550.8000000000001" y1="273.33333333333337" y2="540.0" /><line stroke="gray" stroke-width="1" x1="561.2" x2="561.2" y1="273.33333333333337" y2="540.0" /><line stroke="gray" stroke-width="1" x1="571.6" x2="571.6" y1="273.33333333333337" y2="540.0" /><line stroke="gray" stroke-width="1" x1="582.0" x2="582.0" y1="273.33333333333337" y2="540.0" /><line stroke="gray" stroke-width="1" x1="592.4" x2="592.4" y1="273.33333333333337" y2="540.0" /><line stroke="gray" stroke-width="1" x1="602.8000000000001" x2="602.8000000000001" y1="273.33333333333337" y2="540.0" /><line stroke="gray" stroke-width="1" x1="613.2" x2="613.2" y1="273.33333333333337" y2="540.0" /><line stroke="gray" stroke-width="1" x1="623.6" x2="623.6" y1="273.33333333333337" y2="540.0" /><line stroke="gray" stroke-width="1" x1="634.0" x2="634.0" y1="273.33333333333337" y2="540.0" /><line stroke="gray" stroke-width="1" x1="644.4" x2="644.4" y1="273.33333333333337" y2="540.0" /><line stroke="gray" stroke-width="1" x1="654.8000000000001" x2="654.8000000000001" y1="273.33333333333337" y2="540.0" /><line stroke="gray" stroke-width="1" x1="665.2" x2="665.2" y1="273.33333333333337" y2="540.0" /><line stroke="gray" stroke-width="1" x1="675.6" x2="675.6" y1="273.33333333333337" y2="540.0" /><line stroke="gray" stroke-width="1" x1="686.0" x2="686.0" y1="273.33333333333337" y2="540.0" /><line stroke="gray" stroke-width="1" x1="696.4" x2="696.4" y1="273.33333333333337" y2="540.0" /><line stroke="gray" stroke-width="1" x1="706.8000000000001" x2="706.8000000000001" y1="273.33333333333337" y2="540.0" /><line stroke="gray" stroke-width="1" x1="717.2" x2="717.2" y1="273.33333333333337" y2="540.0" /><line stroke="gray" stroke-width="1" x1="727.6" x2="727.6" y1="273.33333333333337" y2="540.0" /><line stroke="gray" stroke-width="1" x1="738.0" x2="738.0" y1="273.33333333333337" y2="540.0" /><line stroke="gray" stroke-width="1" x1="748.4" x2="748.4" y1="273.33333333333337" y2="540.0" /><line stroke="gray" stroke-width="1" x1="758.8000000000001" x2="758.8000000000001" y1="273.33333333333337" y2="540.0" /><line stroke="gray" stroke-width="1" x1="769.2" x2="769.2" y1="273.33333333333337" y2="540.0" /><line stroke="gray" stroke-width="1" x1="779.6" x2="779.6" y1="273.33333333333337" y2="540.0" /><line stroke="gray" stroke-width="1" x1="790.0" x2="790.0" y1="273.33333333333337" y2="540.0" /><rect fill="blue" height="21.333333333333336" width="312.00000000000006" x="342.8" y="273.33333333333337" /><text fill="white" font-size="10" x="347.8" y="281.86666666666673">Task 1</text><rect fill="blue" height="21.333333333333336" width="135.2" x="342.8" y="300.00000000000006" /><text fill="white" font-size="10" x="347.8" y="308.5333333333334">Task 2</text><rect fill="blue" height="21.333333333333336" width="1" x="654.8000000000001" y="273.33333333333337" /><text fill="white" font-size="10" x="659.8000000000001" y="281.86666666666673">Task 3</text><rect fill="blue" height="21.333333333333336" width="1" x="342.8" y="326.6666666666667" /><text fill="white" font-size="10" x="347.8" y="335.20000000000005">Task 4</text></svg>