<?xml version="1.0" encoding="utf-8" ?>
<svg baseProfile="full" height="600.0" version="1.1" width="800.0" xmlns="http://www.w3.org/2000/svg" xmlns:ev="http://www.w3.org/2001/xml-events" xmlns:xlink="http://www.w3.org/1999/xlink"><defs /><rect fill="white" height="600.0" stroke="black" stroke-width="2" width="800.0" x="0" y="0" /><rect fill="lightgray" height="50.0" stroke="black" stroke-width="1" width="780.0" x="10.0" y="10.0" /><rect fill="lightgray" height="50.0" stroke="black" stroke-width="1" width="780.0" x="10.0" y="540.0" /><rect fill="none" height="480.0" stroke="blue" stroke-dasharray="4" stroke-width="1" width="780.0" x="10.0" y="60.0" /><rect fill="none" height="480.0" stroke="red" stroke-width="1" width="780.0" x="10.0" y="60.0" /><rect fill="lightgrey" height="53.333333333333336" stroke="black" stroke-width="1" width="780.0" x="10.0" y="60.0" /><text dominant-baseline="middle" font-size="10" text-anchor="middle" x="400.0" y="86.66666666666667">2025</text><rect fill="lightgrey" height="53.333333333333336" stroke="black" stroke-width="1" width="780.0" x="10.0" y="113.33333333333334" /><line stroke="black" stroke-width="1" x1="143.17073170731706" x2="143.17073170731706" y1="113.33333333333334" y2="166.66666666666669" /><text dominant-baseline="middle" font-size="10" text-anchor="middle" x="76.58536585365853" y="140.0">Mar</text><line stroke="black" stroke-width="1" x1="713.9024390243902" x2="713.9024390243902" y1="113.33333333333334" y2="166.66666666666669" /><text dominant-baseline="middle" font-size="10" text-anchor="middle" x="428.5365853658536" y="140.0">Apr</text><text dominant-baseline="middle" font-size="10" text-anchor="middle" x="751.9512195121952" y="140.0">May</text><rect fill="lightgrey" height="53.333333333333336" stroke="black" stroke-width="1" width="780.0" x="10.0" y="166.66666666666669" /><line stroke="black" stroke-width="1" x1="124.14634146341463" x2="124.14634146341463" y1="166.66666666666669" y2="220.00000000000003" /><text dominant-baseline="middle" font-size="10" text-anchor="middle" x="67.07317073170731" y="193.33333333333334">13 (30)</text><line stroke="black" stroke-width="1" x1="257.3170731707317" x2="257.3170731707317" y1="166.66666666666669" y2="220.00000000000003" /><text dominant-baseline="middle" font-size="10" text-anchor="middle" x="190.73170731707316" y="193.33333333333334">14 (06)</text><line stroke="black" stroke-width="1" x1="390.4878048780488" x2="390.4878048780488" y1="166.66666666666669" y2="220.00000000000003" /><text dominant-baseline="middle" font-size="10" text-anchor="middle" x="323.9024390243902" y="193.33333333333334">15 (13)</text><line stroke="black" stroke-width="1" x1="523.6585365853658" x2="523.6585365853658" y1="166.66666666666669" y2="220.00000000000003" /><text dominant-baseline="middle" font-size="10" text-anchor="middle" x="457.0731707317073" y="193.33333333333334">16 (20)</text><line stroke="black" stroke-width="1" x1="656.8292682926829" x2="656.8292682926829" y1="166.66666666666669" y2="220.00000000000003" /><text dominant-baseline="middle" font-size="10" text-anchor="middle" x="590.2439024390244" y="193.33333333333334">17 (27)</text><line stroke="black" stroke-width="1" x1="790.0" x2="790.0" y1="166.66666666666669" y2="220.00000000000003" /><text dominant-baseline="middle" font-size="10" text-anchor="middle" x="723.4146341463414" y="193.33333333333334">18 (04)</text><rect fill="lightgrey" height="53.333333333333336" stroke="black" stroke-width="1" width="780.0" x="10.0" y="220.00000000000003" /><line stroke="black" stroke-width="1" x1="29.024390243902438" x2="29.024390243902438" y1="220.00000000000003" y2="273.33333333333337" /><line stroke="black" stroke-width="1" x1="48.048780487804876" x2="48.048780487804876" y1="220.00000000000003" y2="273.33333333333337" /><line stroke="black" stroke-width="1" x1="67.07317073170731" x2="67.07317073170731" y1="220.00000000000003" y2="273.33333333333337" /><line stroke="black" stroke-width="1" x1="86.09756097560975" x2="86.09756097560975" y1="220.00000000000003" y2="273.33333333333337" /><line stroke="black" stroke-width="1" x1="105.1219512195122" x2="105.1219512195122" y1="220.00000000000003" y2="273.33333333333337" /><line stroke="black" stroke-width="1" x1="124.14634146341463" x2="124.14634146341463" y1="220.00000000000003" y2="273.33333333333337" /><line stroke="black" stroke-width="1" x1="143.17073170731706" x2="143.17073170731706" y1="220.00000000000003" y2="273.33333333333337" /><line stroke="black" stroke-width="1" x1="162.1951219512195" x2="162.1951219512195" y1="220.00000000000003" y2="273.33333333333337" /><line stroke="black" stroke-width="1" x1="181.21951219512195" x2="181.21951219512195" y1="220.00000000000003" y2="273.33333333333337" /><line stroke="black" stroke-width="1" x1="200.2439024390244" x2="200.2439024390244" y1="220.00000000000003" y2="273.33333333333337" /><line stroke="black" stroke-width="1" x1="219.2682926829268" x2="219.2682926829268" y1="220.00000000000003" y2="273.33333333333337" /><line stroke="black" stroke-width="1" x1="238.29268292682926" x2="238.29268292682926" y1="220.00000000000003" y2="273.33333333333337" /><line stroke="black" stroke-width="1" x1="257.3170731707317" x2="257.3170731707317" y1="220.00000000000003" y2="273.33333333333337" /><line stroke="black" stroke-width="1" x1="276.3414634146341" x2="276.3414634146341" y1="220.00000000000003" y2="273.33333333333337" /><line stroke="black" stroke-width="1" x1="295.3658536585366" x2="295.3658536585366" y1="220.00000000000003" y2="273.33333333333337" /><line stroke="black" stroke-width="1" x1="314.390243902439" x2="314.390243902439" y1="220.00000000000003" y2="273.33333333333337" /><line stroke="black" stroke-width="1" x1="333.4146341463414" x2="333.4146341463414" y1="220.00000000000003" y2="273.33333333333337" /><line stroke="black" stroke-width="1" x1="352.4390243902439" x2="352.4390243902439" y1="220.00000000000003" y2="273.33333333333337" /><line stroke="black" stroke-width="1" x1="371.4634146341463" x2="371.4634146341463" y1="220.00000000000003" y2="273.33333333333337" /><line stroke="black" stroke-width="1" x1="390.4878048780488" x2="390.4878048780488" y1="220.00000000000003" y2="273.33333333333337" /><line stroke="black" stroke-width="1" x1="409.5121951219512" x2="409.5121951219512" y1="220.00000000000003" y2="273.33333333333337" /><line stroke="black" stroke-width="1" x1="428.5365853658536" x2="428.5365853658536" y1="220.00000000000003" y2="273.33333333333337" /><line stroke="black" stroke-width="1" x1="447.5609756097561" x2="447.5609756097561" y1="220.00000000000003" y2="273.33333333333337" /><line stroke="black" stroke-width="1" x1="466.5853658536585" x2="466.5853658536585" y1="220.00000000000003" y2="273.33333333333337" /><line stroke="black" stroke-width="1" x1="485.60975609756093" x2="485.60975609756093" y1="220.00000000000003" y2="273.33333333333337" /><line stroke="black" stroke-width="1" x1="504.6341463414634" x2="504.6341463414634" y1="220.00000000000003" y2="273.33333333333337" /><line stroke="black" stroke-width="1" x1="523.6585365853658" x2="523.6585365853658" y1="220.00000000000003" y2="273.33333333333337" /><line stroke="black" stroke-width="1" x1="542.6829268292682" x2="542.6829268292682" y1="220.00000000000003" y2="273.33333333333337" /><line stroke="black" stroke-width="1" x1="561.7073170731707" x2="561.7073170731707" y1="220.00000000000003" y2="273.33333333333337" /><line stroke="black" stroke-width="1" x1="580.7317073170732" x2="580.7317073170732" y1="220.00000000000003" y2="273.33333333333337" /><line stroke="black" stroke-width="1" x1="599.7560975609756" x2="599.7560975609756" y1="220.00000000000003" y2="273.33333333333337" /><line stroke="black" stroke-width="1" x1="618.780487804878" x2="618.780487804878" y1="220.00000000000003" y2="273.33333333333337" /><line stroke="black" stroke-width="1" x1="637.8048780487804" x2="637.8048780487804" y1="220.00000000000003" y2="273.33333333333337" /><line stroke="black" stroke-width="1" x1="656.8292682926829" x2="656.8292682926829" y1="220.00000000000003" y2="273.33333333333337" /><line stroke="black" stroke-width="1" x1="675.8536585365854" x2="675.8536585365854" y1="220.00000000000003" y2="273.33333333333337" /><line stroke="black" stroke-width="1" x1="694.8780487804878" x2="694.8780487804878" y1="220.00000000000003" y2="273.33333333333337" /><line stroke="black" stroke-width="1" x1="713.9024390243902" x2="713.9024390243902" y1="220.00000000000003" y2="273.33333333333337" /><line stroke="black" stroke-width="1" x1="732.9268292682926" x2="732.9268292682926" y1="220.00000000000003" y2="273.33333333333337" /><line stroke="black" stroke-width="1" x1="751.951219512195" x2="751.951219512195" y1="220.00000000000003" y2="273.33333333333337" /><line stroke="black" stroke-width="1" x1="770.9756097560976" x2="770.9756097560976" y1="220.00000000000003" y2="273.33333333333337" /><line stroke="black" stroke-width="1" x1="790.0" x2="790.0" y1="220.00000000000003" y2="273.33333333333337" /><rect fill="none" height="266.6666666666667" stroke="purple" stroke-width="1" width="780.0" x="10.0" y="273.33333333333337" /><line stroke="gray" stroke-width="1" x1="10.0" x2="790.0" y1="273.33333333333337" y2="273.33333333333337" /><line stroke="gray" stroke-width="1" x1="10.0" x2="790.0" y1="326.6666666666667" y2="326.6666666666667" /><line stroke="gray" stroke-width="1" x1="10.0" x2="790.0" y1="380.00000000000006" y2="380.00000000000006" /><line stroke="gray" stroke-width="1" x1="10.0" x2="790.0" y1="433.33333333333337" y2="433.33333333333337" /><line stroke="gray" stroke-width="1" x1="10.0" x2="790.0" y1="486.66666666666674" y2="486.66666666666674" /><line stroke="gray" stroke-width="1" x1="10.0" x2="790.0" y1="540.0" y2="540.0" /><line stroke="gray" stroke-width="1" x1="143.17073170731706" x2="143.17073170731706" y1="273.33333333333337" y2="540.0" /><line stroke="gray" stroke-width="1" x1="713.9024390243902" x2="713.9024390243902" y1="273.33333333333337" y2="540.0" /><line stroke="gray" stroke-width="1" x1="124.14634146341463" x2="124.14634146341463" y1="273.33333333333337" y2="540.0" /><line stroke="gray" stroke-width="1" x1="257.3170731707317" x2="257.3170731707317" y1="273.33333333333337" y2="540.0" /><line stroke="gray" stroke-width="1" x1="390.4878048780488" x2="390.4878048780488" y1="273.33333333333337" y2="540.0" /><line stroke="gray" stroke-width="1" x1="523.6585365853658" x2="523.6585365853658" y1="273.33333333333337" y2="540.0" /><line stroke="gray" stroke-width="1" x1="656.8292682926829" x2="656.8292682926829" y1="273.33333333333337" y2="540.0" /><line stroke="gray" stroke-width="1" x1="790.0" x2="790.0" y1="273.33333333333337" y2="540.0" /><line stroke="gray" stroke-width="1" x1="29.024390243902438" x2="29.024390243902438" y1="273.33333333333337" y2="540.0" /><line stroke="gray" stroke-width="1" x1="48.048780487804876" x2="48.048780487804876" y1="273.33333333333337" y2="540.0" /><line stroke="gray" stroke-width="1" x1="67.07317073170731" x2="67.07317073170731" y1="273.33333333333337" y2="540.0" /><line stroke="gray" stroke-width="1" x1="86.09756097560975" x2="86.09756097560975" y1="273.33333333333337" y2="540.0" /><line stroke="gray" stroke-width="1" x1="105.1219512195122" x2="105.1219512195122" y1="273.33333333333337" y2="540.0" /><line stroke="gray" stroke-width="1" x1="124.14634146341463" x2="124.14634146341463" y1="273.33333333333337" y2="540.0" /><line stroke="gray" stroke-width="1" x1="143.17073170731706" x2="143.17073170731706" y1="273.33333333333337" y2="540.0" /><line stroke="gray" stroke-width="1" x1="162.1951219512195" x2="162.1951219512195" y1="273.33333333333337" y2="540.0" /><line stroke="gray" stroke-width="1" x1="181.21951219512195" x2="181.21951219512195" y1="273.33333333333337" y2="540.0" /><line stroke="gray" stroke-width="1" x1="200.2439024390244" x2="200.2439024390244" y1="273.33333333333337" y2="540.0" /><line stroke="gray" stroke-width="1" x1="219.2682926829268" x2="219.2682926829268" y1="273.33333333333337" y2="540.0" /><line stroke="gray" stroke-width="1" x1="238.29268292682926" x2="238.29268292682926" y1="273.33333333333337" y2="540.0" /><line stroke="gray" stroke-width="1" x1="257.3170731707317" x2="257.3170731707317" y1="273.33333333333337" y2="540.0" /><line stroke="gray" stroke-width="1" x1="276.3414634146341" x2="276.3414634146341" y1="273.33333333333337" y2="540.0" /><line stroke="gray" stroke-width="1" x1="295.3658536585366" x2="295.3658536585366" y1="273.33333333333337" y2="540.0" /><line stroke="gray" stroke-width="1" x1="314.390243902439" x2="314.390243902439" y1="273.33333333333337" y2="540.0" /><line stroke="gray" stroke-width="1" x1="333.4146341463414" x2="333.4146341463414" y1="273.33333333333337" y2="540.0" /><line stroke="gray" stroke-width="1" x1="352.4390243902439" x2="352.4390243902439" y1="273.33333333333337" y2="540.0" /><line stroke="gray" stroke-width="1" x1="371.4634146341463" x2="371.4634146341463" y1="273.33333333333337" y2="540.0" /><line stroke="gray" stroke-width="1" x1="390.4878048780488" x2="390.4878048780488" y1="273.33333333333337" y2="540.0" /><line stroke="gray" stroke-width="1" x1="409.5121951219512" x2="409.5121951219512" y1="273.33333333333337" y2="540.0" /><line stroke="gray" stroke-width="1" x1="428.5365853658536" x2="428.5365853658536" y1="273.33333333333337" y2="540.0" /><line stroke="gray" stroke-width="1" x1="447.5609756097561" x2="447.5609756097561" y1="273.33333333333337" y2="540.0" /><line stroke="gray" stroke-width="1" x1="466.5853658536585" x2="466.5853658536585" y1="273.33333333333337" y2="540.0" /><line stroke="gray" stroke-width="1" x1="485.60975609756093" x2="485.60975609756093" y1="273.33333333333337" y2="540.0" /><line stroke="gray" stroke-width="1" x1="504.6341463414634" x2="504.6341463414634" y1="273.33333333333337" y2="540.0" /><line stroke="gray" stroke-width="1" x1="523.6585365853658" x2="523.6585365853658" y1="273.33333333333337" y2="540.0" /><line stroke="gray" stroke-width="1" x1="542.6829268292682" x2="542.6829268292682" y1="273.33333333333337" y2="540.0" /><line stroke="gray" stroke-width="1" x1="561.7073170731707" x2="561.7073170731707" y1="273.33333333333337" y2="540.0" /><line stroke="gray" stroke-width="1" x1="580.7317073170732" x2="580.7317073170732" y1="273.33333333333337" y2="540.0" /><line stroke="gray" stroke-width="1" x1="599.7560975609756" x2="599.7560975609756" y1="273.33333333333337" y2="540.0" /><line stroke="gray" stroke-width="1" x1="618.780487804878" x2="618.780487804878" y1="273.33333333333337" y2="540.0" /><line stroke="gray" stroke-width="1" x1="637.8048780487804" x2="637.8048780487804" y1="273.33333333333337" y2="540.0" /><line stroke="gray" stroke-width="1" x1="656.8292682926829" x2="656.8292682926829" y1="273.33333333333337" y2="540.0" /><line stroke="gray" stroke-width="1" x1="675.8536585365854" x2="675.8536585365854" y1="273.33333333333337" y2="540.0" /><line stroke="gray" stroke-width="1" x1="694.8780487804878" x2="694.8780487804878" y1="273.33333333333337" y2="540.0" /><line stroke="gray" stroke-width="1" x1="713.9024390243902" x2="713.9024390243902" y1="273.33333333333337" y2="540.0" /><line stroke="gray" stroke-width="1" x1="732.9268292682926" x2="732.9268292682926" y1="273.33333333333337" y2="540.0" /><line stroke="gray" stroke-width="1" x1="751.951219512195" x2="751.951219512195" y1="273.33333333333337" y2="540.0" /><line stroke="gray" stroke-width="1" x1="770.9756097560976" x2="770.9756097560976" y1="273.33333333333337" y2="540.0" /><line stroke="gray" stroke-width="1" x1="790.0" x2="790.0" y1="273.33333333333337" y2="540.0" /><rect fill="blue" height="42.66666666666667" width="570.7317073170732" x="143.17073170731706" y="278.6666666666667" /><text fill="white" font-size="10" x="148.17073170731706" y="300.0">Task 1</text><polygon fill="red" points="713.9024390243902,278.66666666666674 735.2357723577236,300.00000000000006 713.9024390243902,321.33333333333337 692.5691056910568,300.00000000000006" stroke="black" stroke-width="1" /><text fill="black" font-size="10" x="740.2357723577236" y="300.00000000000006">Task 2</text><polygon fill="red" points="143.17073170731706,278.66666666666674 164.5040650406504,300.00000000000006 143.17073170731706,321.33333333333337 121.83739837398372,300.00000000000006" stroke="black" stroke-width="1" /><text fill="black" font-size="10" x="169.5040650406504" y="300.00000000000006">Task 3</text></svg>