<?xml version="1.0" encoding="utf-8" ?>
<svg baseProfile="full" height="600.0" version="1.1" width="800.0" xmlns="http://www.w3.org/2000/svg" xmlns:ev="http://www.w3.org/2001/xml-events" xmlns:xlink="http://www.w3.org/1999/xlink"><defs /><rect fill="white" height="600.0" stroke="black" stroke-width="2" width="800.0" x="0" y="0" /><rect fill="lightgray" height="50.0" stroke="black" stroke-width="1" width="780.0" x="10.0" y="10.0" /><text font-size="14" text-anchor="middle" x="400.0" y="35.0">year</text><rect fill="lightgray" height="50.0" stroke="black" stroke-width="1" width="780.0" x="10.0" y="540.0" /><text font-size="14" text-anchor="middle" x="400.0" y="565.0">footer</text><rect fill="none" height="480.0" stroke="blue" stroke-dasharray="4" stroke-width="1" width="780.0" x="10.0" y="60.0" /><rect fill="none" height="480.0" stroke="red" stroke-width="1" width="546.0" x="10.0" y="60.0" /><rect fill="lightgrey" height="53.333333333333336" stroke="black" stroke-width="1" width="546.0" x="10.0" y="60.0" /><text dominant-baseline="middle" font-size="10" text-anchor="middle" x="283.0" y="86.66666666666667">2025</text><rect fill="lightgrey" height="53.333333333333336" stroke="black" stroke-width="1" width="546.0" x="10.0" y="113.33333333333334" /><line stroke="black" stroke-width="1" x1="89.83962264150944" x2="89.83962264150944" y1="113.33333333333334" y2="166.66666666666669" /><text dominant-baseline="middle" font-size="10" text-anchor="middle" x="49.91981132075472" y="140.0">Jan</text><line stroke="black" stroke-width="1" x1="161.95283018867926" x2="161.95283018867926" y1="113.33333333333334" y2="166.66666666666669" /><text dominant-baseline="middle" font-size="10" text-anchor="middle" x="125.89622641509435" y="140.0">Feb</text><line stroke="black" stroke-width="1" x1="241.79245283018867" x2="241.79245283018867" y1="113.33333333333334" y2="166.66666666666669" /><text dominant-baseline="middle" font-size="10" text-anchor="middle" x="201.87264150943395" y="140.0">Mar</text><line stroke="black" stroke-width="1" x1="319.0566037735849" x2="319.0566037735849" y1="113.33333333333334" y2="166.66666666666669" /><text dominant-baseline="middle" font-size="10" text-anchor="middle" x="280.42452830188677" y="140.0">Apr</text><line stroke="black" stroke-width="1" x1="398.89622641509436" x2="398.89622641509436" y1="113.33333333333334" y2="166.66666666666669" /><text dominant-baseline="middle" font-size="10" text-anchor="middle" x="358.97641509433964" y="140.0">May</text><line stroke="black" stroke-width="1" x1="476.16037735849056" x2="476.16037735849056" y1="113.33333333333334" y2="166.66666666666669" /><text dominant-baseline="middle" font-size="10" text-anchor="middle" x="437.52830188679246" y="140.0">Jun</text><line stroke="black" stroke-width="1" x1="556.0" x2="556.0" y1="113.33333333333334" y2="166.66666666666669" /><text dominant-baseline="middle" font-size="10" text-anchor="middle" x="516.0801886792453" y="140.0">Jul</text><rect fill="lightgrey" height="53.333333333333336" stroke="black" stroke-width="1" width="546.0" x="10.0" y="166.66666666666669" /><line stroke="black" stroke-width="1" x1="22.87735849056604" x2="22.87735849056604" y1="166.66666666666669" y2="220.00000000000003" /><line stroke="black" stroke-width="1" x1="40.90566037735849" x2="40.90566037735849" y1="166.66666666666669" y2="220.00000000000003" /><line stroke="black" stroke-width="1" x1="58.93396226415094" x2="58.93396226415094" y1="166.66666666666669" y2="220.00000000000003" /><line stroke="black" stroke-width="1" x1="76.9622641509434" x2="76.9622641509434" y1="166.66666666666669" y2="220.00000000000003" /><line stroke="black" stroke-width="1" x1="94.99056603773585" x2="94.99056603773585" y1="166.66666666666669" y2="220.00000000000003" /><line stroke="black" stroke-width="1" x1="113.01886792452831" x2="113.01886792452831" y1="166.66666666666669" y2="220.00000000000003" /><line stroke="black" stroke-width="1" x1="131.04716981132077" x2="131.04716981132077" y1="166.66666666666669" y2="220.00000000000003" /><line stroke="black" stroke-width="1" x1="149.0754716981132" x2="149.0754716981132" y1="166.66666666666669" y2="220.00000000000003" /><line stroke="black" stroke-width="1" x1="167.10377358490567" x2="167.10377358490567" y1="166.66666666666669" y2="220.00000000000003" /><line stroke="black" stroke-width="1" x1="185.1320754716981" x2="185.1320754716981" y1="166.66666666666669" y2="220.00000000000003" /><line stroke="black" stroke-width="1" x1="203.16037735849056" x2="203.16037735849056" y1="166.66666666666669" y2="220.00000000000003" /><line stroke="black" stroke-width="1" x1="221.18867924528303" x2="221.18867924528303" y1="166.66666666666669" y2="220.00000000000003" /><line stroke="black" stroke-width="1" x1="239.21698113207546" x2="239.21698113207546" y1="166.66666666666669" y2="220.00000000000003" /><line stroke="black" stroke-width="1" x1="257.2452830188679" x2="257.2452830188679" y1="166.66666666666669" y2="220.00000000000003" /><line stroke="black" stroke-width="1" x1="275.27358490566036" x2="275.27358490566036" y1="166.66666666666669" y2="220.00000000000003" /><line stroke="black" stroke-width="1" x1="293.3018867924528" x2="293.3018867924528" y1="166.66666666666669" y2="220.00000000000003" /><line stroke="black" stroke-width="1" x1="311.3301886792453" x2="311.3301886792453" y1="166.66666666666669" y2="220.00000000000003" /><line stroke="black" stroke-width="1" x1="329.35849056603774" x2="329.35849056603774" y1="166.66666666666669" y2="220.00000000000003" /><line stroke="black" stroke-width="1" x1="347.3867924528302" x2="347.3867924528302" y1="166.66666666666669" y2="220.00000000000003" /><line stroke="black" stroke-width="1" x1="365.4150943396226" x2="365.4150943396226" y1="166.66666666666669" y2="220.00000000000003" /><line stroke="black" stroke-width="1" x1="383.4433962264151" x2="383.4433962264151" y1="166.66666666666669" y2="220.00000000000003" /><line stroke="black" stroke-width="1" x1="401.47169811320754" x2="401.47169811320754" y1="166.66666666666669" y2="220.00000000000003" /><line stroke="black" stroke-width="1" x1="419.5" x2="419.5" y1="166.66666666666669" y2="220.00000000000003" /><line stroke="black" stroke-width="1" x1="437.52830188679246" x2="437.52830188679246" y1="166.66666666666669" y2="220.00000000000003" /><line stroke="black" stroke-width="1" x1="455.5566037735849" x2="455.5566037735849" y1="166.66666666666669" y2="220.00000000000003" /><line stroke="black" stroke-width="1" x1="473.58490566037733" x2="473.58490566037733" y1="166.66666666666669" y2="220.00000000000003" /><line stroke="black" stroke-width="1" x1="491.6132075471698" x2="491.6132075471698" y1="166.66666666666669" y2="220.00000000000003" /><line stroke="black" stroke-width="1" x1="509.64150943396226" x2="509.64150943396226" y1="166.66666666666669" y2="220.00000000000003" /><line stroke="black" stroke-width="1" x1="527.6698113207547" x2="527.6698113207547" y1="166.66666666666669" y2="220.00000000000003" /><line stroke="black" stroke-width="1" x1="545.6981132075472" x2="545.6981132075472" y1="166.66666666666669" y2="220.00000000000003" /><rect fill="lightgrey" height="53.333333333333336" stroke="black" stroke-width="1" width="546.0" x="10.0" y="220.00000000000003" /><rect fill="none" height="266.6666666666667" stroke="purple" stroke-width="1" width="546.0" x="10.0" y="273.33333333333337" /><line stroke="gray" stroke-width="1" x1="10.0" x2="556.0" y1="273.33333333333337" y2="273.33333333333337" /><line stroke="gray" stroke-width="1" x1="10.0" x2="556.0" y1="300.00000000000006" y2="300.00000000000006" /><line stroke="gray" stroke-width="1" x1="10.0" x2="556.0" y1="326.6666666666667" y2="326.6666666666667" /><line stroke="gray" stroke-width="1" x1="10.0" x2="556.0" y1="353.33333333333337" y2="353.33333333333337" /><line stroke="gray" stroke-width="1" x1="10.0" x2="556.0" y1="380.00000000000006" y2="380.00000000000006" /><line stroke="gray" stroke-width="1" x1="10.0" x2="556.0" y1="406.66666666666674" y2="406.66666666666674" /><line stroke="gray" stroke-width="1" x1="10.0" x2="556.0" y1="433.33333333333337" y2="433.33333333333337" /><line stroke="gray" stroke-width="1" x1="10.0" x2="556.0" y1="460.00000000000006" y2="460.00000000000006" /><line stroke="gray" stroke-width="1" x1="10.0" x2="556.0" y1="486.66666666666674" y2="486.66666666666674" /><line stroke="gray" stroke-width="1" x1="10.0" x2="556.0" y1="513.3333333333334" y2="513.3333333333334" /><line stroke="gray" stroke-width="1" x1="10.0" x2="556.0" y1="540.0" y2="540.0" /><line stroke="gray" stroke-width="1" x1="89.83962264150944" x2="89.83962264150944" y1="273.33333333333337" y2="540.0" /><line stroke="gray" stroke-width="1" x1="161.95283018867926" x2="161.95283018867926" y1="273.33333333333337" y2="540.0" /><line stroke="gray" stroke-width="1" x1="241.79245283018867" x2="241.79245283018867" y1="273.33333333333337" y2="540.0" /><line stroke="gray" stroke-width="1" x1="319.0566037735849" x2="319.0566037735849" y1="273.33333333333337" y2="540.0" /><line stroke="gray" stroke-width="1" x1="398.89622641509436" x2="398.89622641509436" y1="273.33333333333337" y2="540.0" /><line stroke="gray" stroke-width="1" x1="476.16037735849056" x2="476.16037735849056" y1="273.33333333333337" y2="540.0" /><line stroke="gray" stroke-width="1" x1="556.0" x2="556.0" y1="273.33333333333337" y2="540.0" /><line stroke="gray" stroke-width="1" x1="22.87735849056604" x2="22.87735849056604" y1="273.33333333333337" y2="540.0" /><line stroke="gray" stroke-width="1" x1="40.90566037735849" x2="40.90566037735849" y1="273.33333333333337" y2="540.0" /><line stroke="gray" stroke-width="1" x1="58.93396226415094" x2="58.93396226415094" y1="273.33333333333337" y2="540.0" /><line stroke="gray" stroke-width="1" x1="76.9622641509434" x2="76.9622641509434" y1="273.33333333333337" y2="540.0" /><line stroke="gray" stroke-width="1" x1="94.99056603773585" x2="94.99056603773585" y1="273.33333333333337" y2="540.0" /><line stroke="gray" stroke-width="1" x1="113.01886792452831" x2="113.01886792452831" y1="273.33333333333337" y2="540.0" /><line stroke="gray" stroke-width="1" x1="131.04716981132077" x2="131.04716981132077" y1="273.33333333333337" y2="540.0" /><line stroke="gray" stroke-width="1" x1="149.0754716981132" x2="149.0754716981132" y1="273.33333333333337" y2="540.0" /><line stroke="gray" stroke-width="1" x1="167.10377358490567" x2="167.10377358490567" y1="273.33333333333337" y2="540.0" /><line stroke="gray" stroke-width="1" x1="185.1320754716981" x2="185.1320754716981" y1="273.33333333333337" y2="540.0" /><line stroke="gray" stroke-width="1" x1="203.16037735849056" x2="203.16037735849056" y1="273.33333333333337" y2="540.0" /><line stroke="gray" stroke-width="1" x1="221.18867924528303" x2="221.18867924528303" y1="273.33333333333337" y2="540.0" /><line stroke="gray" stroke-width="1" x1="239.21698113207546" x2="239.21698113207546" y1="273.33333333333337" y2="540.0" /><line stroke="gray" stroke-width="1" x1="257.2452830188679" x2="257.2452830188679" y1="273.33333333333337" y2="540.0" /><line stroke="gray" stroke-width="1" x1="275.27358490566036" x2="275.27358490566036" y1="273.33333333333337" y2="540.0" /><line stroke="gray" stroke-width="1" x1="293.3018867924528" x2="293.3018867924528" y1="273.33333333333337" y2="540.0" /><line stroke="gray" stroke-width="1" x1="311.3301886792453" x2="311.3301886792453" y1="273.33333333333337" y2="540.0" /><line stroke="gray" stroke-width="1" x1="329.35849056603774" x2="329.35849056603774" y1="273.33333333333337" y2="540.0" /><line stroke="gray" stroke-width="1" x1="347.3867924528302" x2="347.3867924528302" y1="273.33333333333337" y2="540.0" /><line stroke="gray" stroke-width="1" x1="365.4150943396226" x2="365.4150943396226" y1="273.33333333333337" y2="540.0" /><line stroke="gray" stroke-width="1" x1="383.4433962264151" x2="383.4433962264151" y1="273.33333333333337" y2="540.0" /><line stroke="gray" stroke-width="1" x1="401.47169811320754" x2="401.47169811320754" y1="273.33333333333337" y2="540.0" /><line stroke="gray" stroke-width="1" x1="419.5" x2="419.5" y1="273.33333333333337" y2="540.0" /><line stroke="gray" stroke-width="1" x1="437.52830188679246" x2="437.52830188679246" y1="273.33333333333337" y2="540.0" /><line stroke="gray" stroke-width="1" x1="455.5566037735849" x2="455.5566037735849" y1="273.33333333333337" y2="540.0" /><line stroke="gray" stroke-width="1" x1="473.58490566037733" x2="473.58490566037733" y1="273.33333333333337" y2="540.0" /><line stroke="gray" stroke-width="1" x1="491.6132075471698" x2="491.6132075471698" y1="273.33333333333337" y2="540.0" /><line stroke="gray" stroke-width="1" x1="509.64150943396226" x2="509.64150943396226" y1="273.33333333333337" y2="540.0" /><line stroke="gray" stroke-width="1" x1="527.6698113207547" x2="527.6698113207547" y1="273.33333333333337" y2="540.0" /><line stroke="gray" stroke-width="1" x1="545.6981132075472" x2="545.6981132075472" y1="273.33333333333337" y2="540.0" /><line stroke="gray" stroke-width="1" x1="12.575471698113208" x2="12.575471698113208" y1="273.33333333333337" y2="540.0" /><line stroke="gray" stroke-width="1" x1="15.150943396226415" x2="15.150943396226415" y1="273.33333333333337" y2="540.0" /><line stroke="gray" stroke-width="1" x1="17.72641509433962" x2="17.72641509433962" y1="273.33333333333337" y2="540.0" /><line stroke="gray" stroke-width="1" x1="20.30188679245283" x2="20.30188679245283" y1="273.33333333333337" y2="540.0" /><line stroke="gray" stroke-width="1" x1="22.87735849056604" x2="22.87735849056604" y1="273.33333333333337" y2="540.0" /><line stroke="gray" stroke-width="1" x1="25.452830188679243" x2="25.452830188679243" y1="273.33333333333337" y2="540.0" /><line stroke="gray" stroke-width="1" x1="28.028301886792452" x2="28.028301886792452" y1="273.33333333333337" y2="540.0" /><line stroke="gray" stroke-width="1" x1="30.60377358490566" x2="30.60377358490566" y1="273.33333333333337" y2="540.0" /><line stroke="gray" stroke-width="1" x1="33.17924528301887" x2="33.17924528301887" y1="273.33333333333337" y2="540.0" /><line stroke="gray" stroke-width="1" x1="35.75471698113208" x2="35.75471698113208" y1="273.33333333333337" y2="540.0" /><line stroke="gray" stroke-width="1" x1="38.33018867924528" x2="38.33018867924528" y1="273.33333333333337" y2="540.0" /><line stroke="gray" stroke-width="1" x1="40.90566037735849" x2="40.90566037735849" y1="273.33333333333337" y2="540.0" /><line stroke="gray" stroke-width="1" x1="43.4811320754717" x2="43.4811320754717" y1="273.33333333333337" y2="540.0" /><line stroke="gray" stroke-width="1" x1="46.056603773584904" x2="46.056603773584904" y1="273.33333333333337" y2="540.0" /><line stroke="gray" stroke-width="1" x1="48.632075471698116" x2="48.632075471698116" y1="273.33333333333337" y2="540.0" /><line stroke="gray" stroke-width="1" x1="51.20754716981132" x2="51.20754716981132" y1="273.33333333333337" y2="540.0" /><line stroke="gray" stroke-width="1" x1="53.783018867924525" x2="53.783018867924525" y1="273.33333333333337" y2="540.0" /><line stroke="gray" stroke-width="1" x1="56.35849056603774" x2="56.35849056603774" y1="273.33333333333337" y2="540.0" /><line stroke="gray" stroke-width="1" x1="58.93396226415094" x2="58.93396226415094" y1="273.33333333333337" y2="540.0" /><line stroke="gray" stroke-width="1" x1="61.509433962264154" x2="61.509433962264154" y1="273.33333333333337" y2="540.0" /><line stroke="gray" stroke-width="1" x1="64.08490566037736" x2="64.08490566037736" y1="273.33333333333337" y2="540.0" /><line stroke="gray" stroke-width="1" x1="66.66037735849056" x2="66.66037735849056" y1="273.33333333333337" y2="540.0" /><line stroke="gray" stroke-width="1" x1="69.23584905660377" x2="69.23584905660377" y1="273.33333333333337" y2="540.0" /><line stroke="gray" stroke-width="1" x1="71.81132075471697" x2="71.81132075471697" y1="273.33333333333337" y2="540.0" /><line stroke="gray" stroke-width="1" x1="74.38679245283019" x2="74.38679245283019" y1="273.33333333333337" y2="540.0" /><line stroke="gray" stroke-width="1" x1="76.9622641509434" x2="76.9622641509434" y1="273.33333333333337" y2="540.0" /><line stroke="gray" stroke-width="1" x1="79.5377358490566" x2="79.5377358490566" y1="273.33333333333337" y2="540.0" /><line stroke="gray" stroke-width="1" x1="82.11320754716981" x2="82.11320754716981" y1="273.33333333333337" y2="540.0" /><line stroke="gray" stroke-width="1" x1="84.68867924528301" x2="84.68867924528301" y1="273.33333333333337" y2="540.0" /><line stroke="gray" stroke-width="1" x1="87.26415094339623" x2="87.26415094339623" y1="273.33333333333337" y2="540.0" /><line stroke="gray" stroke-width="1" x1="89.83962264150944" x2="89.83962264150944" y1="273.33333333333337" y2="540.0" /><line stroke="gray" stroke-width="1" x1="92.41509433962264" x2="92.41509433962264" y1="273.33333333333337" y2="540.0" /><line stroke="gray" stroke-width="1" x1="94.99056603773585" x2="94.99056603773585" y1="273.33333333333337" y2="540.0" /><line stroke="gray" stroke-width="1" x1="97.56603773584905" x2="97.56603773584905" y1="273.33333333333337" y2="540.0" /><line stroke="gray" stroke-width="1" x1="100.14150943396227" x2="100.14150943396227" y1="273.33333333333337" y2="540.0" /><line stroke="gray" stroke-width="1" x1="102.71698113207547" x2="102.71698113207547" y1="273.33333333333337" y2="540.0" /><line stroke="gray" stroke-width="1" x1="105.29245283018868" x2="105.29245283018868" y1="273.33333333333337" y2="540.0" /><line stroke="gray" stroke-width="1" x1="107.86792452830188" x2="107.86792452830188" y1="273.33333333333337" y2="540.0" /><line stroke="gray" stroke-width="1" x1="110.44339622641509" x2="110.44339622641509" y1="273.33333333333337" y2="540.0" /><line stroke="gray" stroke-width="1" x1="113.01886792452831" x2="113.01886792452831" y1="273.33333333333337" y2="540.0" /><line stroke="gray" stroke-width="1" x1="115.59433962264151" x2="115.59433962264151" y1="273.33333333333337" y2="540.0" /><line stroke="gray" stroke-width="1" x1="118.16981132075472" x2="118.16981132075472" y1="273.33333333333337" y2="540.0" /><line stroke="gray" stroke-width="1" x1="120.74528301886792" x2="120.74528301886792" y1="273.33333333333337" y2="540.0" /><line stroke="gray" stroke-width="1" x1="123.32075471698113" x2="123.32075471698113" y1="273.33333333333337" y2="540.0" /><line stroke="gray" stroke-width="1" x1="125.89622641509433" x2="125.89622641509433" y1="273.33333333333337" y2="540.0" /><line stroke="gray" stroke-width="1" x1="128.47169811320754" x2="128.47169811320754" y1="273.33333333333337" y2="540.0" /><line stroke="gray" stroke-width="1" x1="131.04716981132077" x2="131.04716981132077" y1="273.33333333333337" y2="540.0" /><line stroke="gray" stroke-width="1" x1="133.62264150943395" x2="133.62264150943395" y1="273.33333333333337" y2="540.0" /><line stroke="gray" stroke-width="1" x1="136.19811320754718" x2="136.19811320754718" y1="273.33333333333337" y2="540.0" /><line stroke="gray" stroke-width="1" x1="138.77358490566039" x2="138.77358490566039" y1="273.33333333333337" y2="540.0" /><line stroke="gray" stroke-width="1" x1="141.3490566037736" x2="141.3490566037736" y1="273.33333333333337" y2="540.0" /><line stroke="gray" stroke-width="1" x1="143.9245283018868" x2="143.9245283018868" y1="273.33333333333337" y2="540.0" /><line stroke="gray" stroke-width="1" x1="146.5" x2="146.5" y1="273.33333333333337" y2="540.0" /><line stroke="gray" stroke-width="1" x1="149.0754716981132" x2="149.0754716981132" y1="273.33333333333337" y2="540.0" /><line stroke="gray" stroke-width="1" x1="151.6509433962264" x2="151.6509433962264" y1="273.33333333333337" y2="540.0" /><line stroke="gray" stroke-width="1" x1="154.22641509433961" x2="154.22641509433961" y1="273.33333333333337" y2="540.0" /><line stroke="gray" stroke-width="1" x1="156.80188679245282" x2="156.80188679245282" y1="273.33333333333337" y2="540.0" /><line stroke="gray" stroke-width="1" x1="159.37735849056602" x2="159.37735849056602" y1="273.33333333333337" y2="540.0" /><line stroke="gray" stroke-width="1" x1="161.95283018867926" x2="161.95283018867926" y1="273.33333333333337" y2="540.0" /><line stroke="gray" stroke-width="1" x1="164.52830188679246" x2="164.52830188679246" y1="273.33333333333337" y2="540.0" /><line stroke="gray" stroke-width="1" x1="167.10377358490567" x2="167.10377358490567" y1="273.33333333333337" y2="540.0" /><line stroke="gray" stroke-width="1" x1="169.67924528301887" x2="169.67924528301887" y1="273.33333333333337" y2="540.0" /><line stroke="gray" stroke-width="1" x1="172.25471698113208" x2="172.25471698113208" y1="273.33333333333337" y2="540.0" /><line stroke="gray" stroke-width="1" x1="174.83018867924528" x2="174.83018867924528" y1="273.33333333333337" y2="540.0" /><line stroke="gray" stroke-width="1" x1="177.4056603773585" x2="177.4056603773585" y1="273.33333333333337" y2="540.0" /><line stroke="gray" stroke-width="1" x1="179.9811320754717" x2="179.9811320754717" y1="273.33333333333337" y2="540.0" /><line stroke="gray" stroke-width="1" x1="182.5566037735849" x2="182.5566037735849" y1="273.33333333333337" y2="540.0" /><line stroke="gray" stroke-width="1" x1="185.1320754716981" x2="185.1320754716981" y1="273.33333333333337" y2="540.0" /><line stroke="gray" stroke-width="1" x1="187.7075471698113" x2="187.7075471698113" y1="273.33333333333337" y2="540.0" /><line stroke="gray" stroke-width="1" x1="190.28301886792454" x2="190.28301886792454" y1="273.33333333333337" y2="540.0" /><line stroke="gray" stroke-width="1" x1="192.85849056603774" x2="192.85849056603774" y1="273.33333333333337" y2="540.0" /><line stroke="gray" stroke-width="1" x1="195.43396226415095" x2="195.43396226415095" y1="273.33333333333337" y2="540.0" /><line stroke="gray" stroke-width="1" x1="198.00943396226415" x2="198.00943396226415" y1="273.33333333333337" y2="540.0" /><line stroke="gray" stroke-width="1" x1="200.58490566037736" x2="200.58490566037736" y1="273.33333333333337" y2="540.0" /><line stroke="gray" stroke-width="1" x1="203.16037735849056" x2="203.16037735849056" y1="273.33333333333337" y2="540.0" /><line stroke="gray" stroke-width="1" x1="205.73584905660377" x2="205.73584905660377" y1="273.33333333333337" y2="540.0" /><line stroke="gray" stroke-width="1" x1="208.31132075471697" x2="208.31132075471697" y1="273.33333333333337" y2="540.0" /><line stroke="gray" stroke-width="1" x1="210.88679245283018" x2="210.88679245283018" y1="273.33333333333337" y2="540.0" /><line stroke="gray" stroke-width="1" x1="213.46226415094338" x2="213.46226415094338" y1="273.33333333333337" y2="540.0" /><line stroke="gray" stroke-width="1" x1="216.03773584905662" x2="216.03773584905662" y1="273.33333333333337" y2="540.0" /><line stroke="gray" stroke-width="1" x1="218.61320754716982" x2="218.61320754716982" y1="273.33333333333337" y2="540.0" /><line stroke="gray" stroke-width="1" x1="221.18867924528303" x2="221.18867924528303" y1="273.33333333333337" y2="540.0" /><line stroke="gray" stroke-width="1" x1="223.76415094339623" x2="223.76415094339623" y1="273.33333333333337" y2="540.0" /><line stroke="gray" stroke-width="1" x1="226.33962264150944" x2="226.33962264150944" y1="273.33333333333337" y2="540.0" /><line stroke="gray" stroke-width="1" x1="228.91509433962264" x2="228.91509433962264" y1="273.33333333333337" y2="540.0" /><line stroke="gray" stroke-width="1" x1="231.49056603773585" x2="231.49056603773585" y1="273.33333333333337" y2="540.0" /><line stroke="gray" stroke-width="1" x1="234.06603773584905" x2="234.06603773584905" y1="273.33333333333337" y2="540.0" /><line stroke="gray" stroke-width="1" x1="236.64150943396226" x2="236.64150943396226" y1="273.33333333333337" y2="540.0" /><line stroke="gray" stroke-width="1" x1="239.21698113207546" x2="239.21698113207546" y1="273.33333333333337" y2="540.0" /><line stroke="gray" stroke-width="1" x1="241.79245283018867" x2="241.79245283018867" y1="273.33333333333337" y2="540.0" /><line stroke="gray" stroke-width="1" x1="244.3679245283019" x2="244.3679245283019" y1="273.33333333333337" y2="540.0" /><line stroke="gray" stroke-width="1" x1="246.9433962264151" x2="246.9433962264151" y1="273.33333333333337" y2="540.0" /><line stroke="gray" stroke-width="1" x1="249.5188679245283" x2="249.5188679245283" y1="273.33333333333337" y2="540.0" /><line stroke="gray" stroke-width="1" x1="252.0943396226415" x2="252.0943396226415" y1="273.33333333333337" y2="540.0" /><line stroke="gray" stroke-width="1" x1="254.66981132075472" x2="254.66981132075472" y1="273.33333333333337" y2="540.0" /><line stroke="gray" stroke-width="1" x1="257.2452830188679" x2="257.2452830188679" y1="273.33333333333337" y2="540.0" /><line stroke="gray" stroke-width="1" x1="259.8207547169811" x2="259.8207547169811" y1="273.33333333333337" y2="540.0" /><line stroke="gray" stroke-width="1" x1="262.39622641509436" x2="262.39622641509436" y1="273.33333333333337" y2="540.0" /><line stroke="gray" stroke-width="1" x1="264.97169811320754" x2="264.97169811320754" y1="273.33333333333337" y2="540.0" /><line stroke="gray" stroke-width="1" x1="267.54716981132077" x2="267.54716981132077" y1="273.33333333333337" y2="540.0" /><line stroke="gray" stroke-width="1" x1="270.12264150943395" x2="270.12264150943395" y1="273.33333333333337" y2="540.0" /><line stroke="gray" stroke-width="1" x1="272.6981132075472" x2="272.6981132075472" y1="273.33333333333337" y2="540.0" /><line stroke="gray" stroke-width="1" x1="275.27358490566036" x2="275.27358490566036" y1="273.33333333333337" y2="540.0" /><line stroke="gray" stroke-width="1" x1="277.8490566037736" x2="277.8490566037736" y1="273.33333333333337" y2="540.0" /><line stroke="gray" stroke-width="1" x1="280.42452830188677" x2="280.42452830188677" y1="273.33333333333337" y2="540.0" /><line stroke="gray" stroke-width="1" x1="283.0" x2="283.0" y1="273.33333333333337" y2="540.0" /><line stroke="gray" stroke-width="1" x1="285.57547169811323" x2="285.57547169811323" y1="273.33333333333337" y2="540.0" /><line stroke="gray" stroke-width="1" x1="288.1509433962264" x2="288.1509433962264" y1="273.33333333333337" y2="540.0" /><line stroke="gray" stroke-width="1" x1="290.72641509433964" x2="290.72641509433964" y1="273.33333333333337" y2="540.0" /><line stroke="gray" stroke-width="1" x1="293.3018867924528" x2="293.3018867924528" y1="273.33333333333337" y2="540.0" /><line stroke="gray" stroke-width="1" x1="295.87735849056605" x2="295.87735849056605" y1="273.33333333333337" y2="540.0" /><line stroke="gray" stroke-width="1" x1="298.45283018867923" x2="298.45283018867923" y1="273.33333333333337" y2="540.0" /><line stroke="gray" stroke-width="1" x1="301.02830188679246" x2="301.02830188679246" y1="273.33333333333337" y2="540.0" /><line stroke="gray" stroke-width="1" x1="303.60377358490564" x2="303.60377358490564" y1="273.33333333333337" y2="540.0" /><line stroke="gray" stroke-width="1" x1="306.1792452830189" x2="306.1792452830189" y1="273.33333333333337" y2="540.0" /><line stroke="gray" stroke-width="1" x1="308.75471698113205" x2="308.75471698113205" y1="273.33333333333337" y2="540.0" /><line stroke="gray" stroke-width="1" x1="311.3301886792453" x2="311.3301886792453" y1="273.33333333333337" y2="540.0" /><line stroke="gray" stroke-width="1" x1="313.9056603773585" x2="313.9056603773585" y1="273.33333333333337" y2="540.0" /><line stroke="gray" stroke-width="1" x1="316.4811320754717" x2="316.4811320754717" y1="273.33333333333337" y2="540.0" /><line stroke="gray" stroke-width="1" x1="319.0566037735849" x2="319.0566037735849" y1="273.33333333333337" y2="540.0" /><line stroke="gray" stroke-width="1" x1="321.6320754716981" x2="321.6320754716981" y1="273.33333333333337" y2="540.0" /><line stroke="gray" stroke-width="1" x1="324.20754716981133" x2="324.20754716981133" y1="273.33333333333337" y2="540.0" /><line stroke="gray" stroke-width="1" x1="326.7830188679245" x2="326.7830188679245" y1="273.33333333333337" y2="540.0" /><line stroke="gray" stroke-width="1" x1="329.35849056603774" x2="329.35849056603774" y1="273.33333333333337" y2="540.0" /><line stroke="gray" stroke-width="1" x1="331.9339622641509" x2="331.9339622641509" y1="273.33333333333337" y2="540.0" /><line stroke="gray" stroke-width="1" x1="334.50943396226415" x2="334.50943396226415" y1="273.33333333333337" y2="540.0" /><line stroke="gray" stroke-width="1" x1="337.08490566037733" x2="337.08490566037733" y1="273.33333333333337" y2="540.0" /><line stroke="gray" stroke-width="1" x1="339.66037735849056" x2="339.66037735849056" y1="273.33333333333337" y2="540.0" /><line stroke="gray" stroke-width="1" x1="342.2358490566038" x2="342.2358490566038" y1="273.33333333333337" y2="540.0" /><line stroke="gray" stroke-width="1" x1="344.811320754717" x2="344.811320754717" y1="273.33333333333337" y2="540.0" /><line stroke="gray" stroke-width="1" x1="347.3867924528302" x2="347.3867924528302" y1="273.33333333333337" y2="540.0" /><line stroke="gray" stroke-width="1" x1="349.9622641509434" x2="349.9622641509434" y1="273.33333333333337" y2="540.0" /><line stroke="gray" stroke-width="1" x1="352.5377358490566" x2="352.5377358490566" y1="273.33333333333337" y2="540.0" /><line stroke="gray" stroke-width="1" x1="355.1132075471698" x2="355.1132075471698" y1="273.33333333333337" y2="540.0" /><line stroke="gray" stroke-width="1" x1="357.688679245283" x2="357.688679245283" y1="273.33333333333337" y2="540.0" /><line stroke="gray" stroke-width="1" x1="360.2641509433962" x2="360.2641509433962" y1="273.33333333333337" y2="540.0" /><line stroke="gray" stroke-width="1" x1="362.83962264150944" x2="362.83962264150944" y1="273.33333333333337" y2="540.0" /><line stroke="gray" stroke-width="1" x1="365.4150943396226" x2="365.4150943396226" y1="273.33333333333337" y2="540.0" /><line stroke="gray" stroke-width="1" x1="367.99056603773585" x2="367.99056603773585" y1="273.33333333333337" y2="540.0" /><line stroke="gray" stroke-width="1" x1="370.5660377358491" x2="370.5660377358491" y1="273.33333333333337" y2="540.0" /><line stroke="gray" stroke-width="1" x1="373.14150943396226" x2="373.14150943396226" y1="273.33333333333337" y2="540.0" /><line stroke="gray" stroke-width="1" x1="375.7169811320755" x2="375.7169811320755" y1="273.33333333333337" y2="540.0" /><line stroke="gray" stroke-width="1" x1="378.29245283018867" x2="378.29245283018867" y1="273.33333333333337" y2="540.0" /><line stroke="gray" stroke-width="1" x1="380.8679245283019" x2="380.8679245283019" y1="273.33333333333337" y2="540.0" /><line stroke="gray" stroke-width="1" x1="383.4433962264151" x2="383.4433962264151" y1="273.33333333333337" y2="540.0" /><line stroke="gray" stroke-width="1" x1="386.0188679245283" x2="386.0188679245283" y1="273.33333333333337" y2="540.0" /><line stroke="gray" stroke-width="1" x1="388.5943396226415" x2="388.5943396226415" y1="273.33333333333337" y2="540.0" /><line stroke="gray" stroke-width="1" x1="391.1698113207547" x2="391.1698113207547" y1="273.33333333333337" y2="540.0" /><line stroke="gray" stroke-width="1" x1="393.7452830188679" x2="393.7452830188679" y1="273.33333333333337" y2="540.0" /><line stroke="gray" stroke-width="1" x1="396.3207547169811" x2="396.3207547169811" y1="273.33333333333337" y2="540.0" /><line stroke="gray" stroke-width="1" x1="398.89622641509436" x2="398.89622641509436" y1="273.33333333333337" y2="540.0" /><line stroke="gray" stroke-width="1" x1="401.47169811320754" x2="401.47169811320754" y1="273.33333333333337" y2="540.0" /><line stroke="gray" stroke-width="1" x1="404.04716981132077" x2="404.04716981132077" y1="273.33333333333337" y2="540.0" /><line stroke="gray" stroke-width="1" x1="406.62264150943395" x2="406.62264150943395" y1="273.33333333333337" y2="540.0" /><line stroke="gray" stroke-width="1" x1="409.1981132075472" x2="409.1981132075472" y1="273.33333333333337" y2="540.0" /><line stroke="gray" stroke-width="1" x1="411.77358490566036" x2="411.77358490566036" y1="273.33333333333337" y2="540.0" /><line stroke="gray" stroke-width="1" x1="414.3490566037736" x2="414.3490566037736" y1="273.33333333333337" y2="540.0" /><line stroke="gray" stroke-width="1" x1="416.92452830188677" x2="416.92452830188677" y1="273.33333333333337" y2="540.0" /><line stroke="gray" stroke-width="1" x1="419.5" x2="419.5" y1="273.33333333333337" y2="540.0" /><line stroke="gray" stroke-width="1" x1="422.07547169811323" x2="422.07547169811323" y1="273.33333333333337" y2="540.0" /><line stroke="gray" stroke-width="1" x1="424.6509433962264" x2="424.6509433962264" y1="273.33333333333337" y2="540.0" /><line stroke="gray" stroke-width="1" x1="427.22641509433964" x2="427.22641509433964" y1="273.33333333333337" y2="540.0" /><line stroke="gray" stroke-width="1" x1="429.8018867924528" x2="429.8018867924528" y1="273.33333333333337" y2="540.0" /><line stroke="gray" stroke-width="1" x1="432.37735849056605" x2="432.37735849056605" y1="273.33333333333337" y2="540.0" /><line stroke="gray" stroke-width="1" x1="434.95283018867923" x2="434.95283018867923" y1="273.33333333333337" y2="540.0" /><line stroke="gray" stroke-width="1" x1="437.52830188679246" x2="437.52830188679246" y1="273.33333333333337" y2="540.0" /><line stroke="gray" stroke-width="1" x1="440.10377358490564" x2="440.10377358490564" y1="273.33333333333337" y2="540.0" /><line stroke="gray" stroke-width="1" x1="442.6792452830189" x2="442.6792452830189" y1="273.33333333333337" y2="540.0" /><line stroke="gray" stroke-width="1" x1="445.25471698113205" x2="445.25471698113205" y1="273.33333333333337" y2="540.0" /><line stroke="gray" stroke-width="1" x1="447.8301886792453" x2="447.8301886792453" y1="273.33333333333337" y2="540.0" /><line stroke="gray" stroke-width="1" x1="450.4056603773585" x2="450.4056603773585" y1="273.33333333333337" y2="540.0" /><line stroke="gray" stroke-width="1" x1="452.9811320754717" x2="452.9811320754717" y1="273.33333333333337" y2="540.0" /><line stroke="gray" stroke-width="1" x1="455.5566037735849" x2="455.5566037735849" y1="273.33333333333337" y2="540.0" /><line stroke="gray" stroke-width="1" x1="458.1320754716981" x2="458.1320754716981" y1="273.33333333333337" y2="540.0" /><line stroke="gray" stroke-width="1" x1="460.70754716981133" x2="460.70754716981133" y1="273.33333333333337" y2="540.0" /><line stroke="gray" stroke-width="1" x1="463.2830188679245" x2="463.2830188679245" y1="273.33333333333337" y2="540.0" /><line stroke="gray" stroke-width="1" x1="465.85849056603774" x2="465.85849056603774" y1="273.33333333333337" y2="540.0" /><line stroke="gray" stroke-width="1" x1="468.4339622641509" x2="468.4339622641509" y1="273.33333333333337" y2="540.0" /><line stroke="gray" stroke-width="1" x1="471.00943396226415" x2="471.00943396226415" y1="273.33333333333337" y2="540.0" /><line stroke="gray" stroke-width="1" x1="473.58490566037733" x2="473.58490566037733" y1="273.33333333333337" y2="540.0" /><line stroke="gray" stroke-width="1" x1="476.16037735849056" x2="476.16037735849056" y1="273.33333333333337" y2="540.0" /><line stroke="gray" stroke-width="1" x1="478.7358490566038" x2="478.7358490566038" y1="273.33333333333337" y2="540.0" /><line stroke="gray" stroke-width="1" x1="481.311320754717" x2="481.311320754717" y1="273.33333333333337" y2="540.0" /><line stroke="gray" stroke-width="1" x1="483.8867924528302" x2="483.8867924528302" y1="273.33333333333337" y2="540.0" /><line stroke="gray" stroke-width="1" x1="486.4622641509434" x2="486.4622641509434" y1="273.33333333333337" y2="540.0" /><line stroke="gray" stroke-width="1" x1="489.0377358490566" x2="489.0377358490566" y1="273.33333333333337" y2="540.0" /><line stroke="gray" stroke-width="1" x1="491.6132075471698" x2="491.6132075471698" y1="273.33333333333337" y2="540.0" /><line stroke="gray" stroke-width="1" x1="494.188679245283" x2="494.188679245283" y1="273.33333333333337" y2="540.0" /><line stroke="gray" stroke-width="1" x1="496.7641509433962" x2="496.7641509433962" y1="273.33333333333337" y2="540.0" /><line stroke="gray" stroke-width="1" x1="499.33962264150944" x2="499.33962264150944" y1="273.33333333333337" y2="540.0" /><line stroke="gray" stroke-width="1" x1="501.9150943396226" x2="501.9150943396226" y1="273.33333333333337" y2="540.0" /><line stroke="gray" stroke-width="1" x1="504.49056603773585" x2="504.49056603773585" y1="273.33333333333337" y2="540.0" /><line stroke="gray" stroke-width="1" x1="507.0660377358491" x2="507.0660377358491" y1="273.33333333333337" y2="540.0" /><line stroke="gray" stroke-width="1" x1="509.64150943396226" x2="509.64150943396226" y1="273.33333333333337" y2="540.0" /><line stroke="gray" stroke-width="1" x1="512.2169811320755" x2="512.2169811320755" y1="273.33333333333337" y2="540.0" /><line stroke="gray" stroke-width="1" x1="514.7924528301887" x2="514.7924528301887" y1="273.33333333333337" y2="540.0" /><line stroke="gray" stroke-width="1" x1="517.367924528302" x2="517.367924528302" y1="273.33333333333337" y2="540.0" /><line stroke="gray" stroke-width="1" x1="519.9433962264151" x2="519.9433962264151" y1="273.33333333333337" y2="540.0" /><line stroke="gray" stroke-width="1" x1="522.5188679245283" x2="522.5188679245283" y1="273.33333333333337" y2="540.0" /><line stroke="gray" stroke-width="1" x1="525.0943396226415" x2="525.0943396226415" y1="273.33333333333337" y2="540.0" /><line stroke="gray" stroke-width="1" x1="527.6698113207547" x2="527.6698113207547" y1="273.33333333333337" y2="540.0" /><line stroke="gray" stroke-width="1" x1="530.2452830188679" x2="530.2452830188679" y1="273.33333333333337" y2="540.0" /><line stroke="gray" stroke-width="1" x1="532.8207547169811" x2="532.8207547169811" y1="273.33333333333337" y2="540.0" /><line stroke="gray" stroke-width="1" x1="535.3962264150944" x2="535.3962264150944" y1="273.33333333333337" y2="540.0" /><line stroke="gray" stroke-width="1" x1="537.9716981132076" x2="537.9716981132076" y1="273.33333333333337" y2="540.0" /><line stroke="gray" stroke-width="1" x1="540.5471698113207" x2="540.5471698113207" y1="273.33333333333337" y2="540.0" /><line stroke="gray" stroke-width="1" x1="543.122641509434" x2="543.122641509434" y1="273.33333333333337" y2="540.0" /><line stroke="gray" stroke-width="1" x1="545.6981132075472" x2="545.6981132075472" y1="273.33333333333337" y2="540.0" /><line stroke="gray" stroke-width="1" x1="548.2735849056604" x2="548.2735849056604" y1="273.33333333333337" y2="540.0" /><line stroke="gray" stroke-width="1" x1="550.8490566037735" x2="550.8490566037735" y1="273.33333333333337" y2="540.0" /><line stroke="gray" stroke-width="1" x1="553.4245283018868" x2="553.4245283018868" y1="273.33333333333337" y2="540.0" /><line stroke="gray" stroke-width="1" x1="556.0" x2="556.0" y1="273.33333333333337" y2="540.0" /><rect fill="none" height="480.0" stroke="red" stroke-width="1" width="234.0" x="556.0" y="60.0" /><rect fill="lightgrey" height="53.333333333333336" stroke="black" stroke-width="1" width="234.0" x="556.0" y="60.0" /><line stroke="black" stroke-width="1" x1="702.9752066115702" x2="702.9752066115702" y1="60.0" y2="113.33333333333334" /><text dominant-baseline="middle" font-size="10" text-anchor="middle" x="629.4876033057851" y="86.66666666666667">2025</text><text dominant-baseline="middle" font-size="10" text-anchor="middle" x="746.4876033057851" y="86.66666666666667">2026</text><rect fill="lightgrey" height="53.333333333333336" stroke="black" stroke-width="1" width="234.0" x="556.0" y="113.33333333333334" /><line stroke="black" stroke-width="1" x1="585.00826446281" x2="585.00826446281" y1="113.33333333333334" y2="166.66666666666669" /><text dominant-baseline="middle" font-size="10" text-anchor="middle" x="570.504132231405" y="140.0">A</text><line stroke="black" stroke-width="1" x1="614.0165289256198" x2="614.0165289256198" y1="113.33333333333334" y2="166.66666666666669" /><text dominant-baseline="middle" font-size="10" text-anchor="middle" x="599.5123966942149" y="140.0">S</text><line stroke="black" stroke-width="1" x1="643.99173553719" x2="643.99173553719" y1="113.33333333333334" y2="166.66666666666669" /><text dominant-baseline="middle" font-size="10" text-anchor="middle" x="629.0041322314049" y="140.0">O</text><line stroke="black" stroke-width="1" x1="673.0" x2="673.0" y1="113.33333333333334" y2="166.66666666666669" /><text dominant-baseline="middle" font-size="10" text-anchor="middle" x="658.495867768595" y="140.0">N</text><line stroke="black" stroke-width="1" x1="702.9752066115702" x2="702.9752066115702" y1="113.33333333333334" y2="166.66666666666669" /><text dominant-baseline="middle" font-size="10" text-anchor="middle" x="687.9876033057851" y="140.0">D</text><line stroke="black" stroke-width="1" x1="732.9504132231405" x2="732.9504132231405" y1="113.33333333333334" y2="166.66666666666669" /><text dominant-baseline="middle" font-size="10" text-anchor="middle" x="717.9628099173553" y="140.0">J</text><line stroke="black" stroke-width="1" x1="760.0247933884298" x2="760.0247933884298" y1="113.33333333333334" y2="166.66666666666669" /><text dominant-baseline="middle" font-size="10" text-anchor="middle" x="746.4876033057851" y="140.0">F</text><line stroke="black" stroke-width="1" x1="790.0" x2="790.0" y1="113.33333333333334" y2="166.66666666666669" /><text dominant-baseline="middle" font-size="10" text-anchor="middle" x="775.0123966942149" y="140.0">M</text><rect fill="lightgrey" height="53.333333333333336" stroke="black" stroke-width="1" width="234.0" x="556.0" y="166.66666666666669" /><line stroke="black" stroke-width="1" x1="564.702479338843" x2="564.702479338843" y1="166.66666666666669" y2="220.00000000000003" /><line stroke="black" stroke-width="1" x1="571.4710743801653" x2="571.4710743801653" y1="166.66666666666669" y2="220.00000000000003" /><line stroke="black" stroke-width="1" x1="578.2396694214876" x2="578.2396694214876" y1="166.66666666666669" y2="220.00000000000003" /><line stroke="black" stroke-width="1" x1="585.00826446281" x2="585.00826446281" y1="166.66666666666669" y2="220.00000000000003" /><line stroke="black" stroke-width="1" x1="591.7768595041323" x2="591.7768595041323" y1="166.66666666666669" y2="220.00000000000003" /><line stroke="black" stroke-width="1" x1="598.5454545454545" x2="598.5454545454545" y1="166.66666666666669" y2="220.00000000000003" /><line stroke="black" stroke-width="1" x1="605.3140495867768" x2="605.3140495867768" y1="166.66666666666669" y2="220.00000000000003" /><line stroke="black" stroke-width="1" x1="612.0826446280992" x2="612.0826446280992" y1="166.66666666666669" y2="220.00000000000003" /><line stroke="black" stroke-width="1" x1="618.8512396694215" x2="618.8512396694215" y1="166.66666666666669" y2="220.00000000000003" /><line stroke="black" stroke-width="1" x1="625.6198347107438" x2="625.6198347107438" y1="166.66666666666669" y2="220.00000000000003" /><line stroke="black" stroke-width="1" x1="632.3884297520661" x2="632.3884297520661" y1="166.66666666666669" y2="220.00000000000003" /><line stroke="black" stroke-width="1" x1="639.1570247933885" x2="639.1570247933885" y1="166.66666666666669" y2="220.00000000000003" /><line stroke="black" stroke-width="1" x1="645.9256198347107" x2="645.9256198347107" y1="166.66666666666669" y2="220.00000000000003" /><line stroke="black" stroke-width="1" x1="652.694214876033" x2="652.694214876033" y1="166.66666666666669" y2="220.00000000000003" /><line stroke="black" stroke-width="1" x1="659.4628099173553" x2="659.4628099173553" y1="166.66666666666669" y2="220.00000000000003" /><line stroke="black" stroke-width="1" x1="666.2314049586777" x2="666.2314049586777" y1="166.66666666666669" y2="220.00000000000003" /><line stroke="black" stroke-width="1" x1="673.0" x2="673.0" y1="166.66666666666669" y2="220.00000000000003" /><line stroke="black" stroke-width="1" x1="679.7685950413223" x2="679.7685950413223" y1="166.66666666666669" y2="220.00000000000003" /><line stroke="black" stroke-width="1" x1="686.5371900826447" x2="686.5371900826447" y1="166.66666666666669" y2="220.00000000000003" /><line stroke="black" stroke-width="1" x1="693.305785123967" x2="693.305785123967" y1="166.66666666666669" y2="220.00000000000003" /><line stroke="black" stroke-width="1" x1="700.0743801652893" x2="700.0743801652893" y1="166.66666666666669" y2="220.00000000000003" /><line stroke="black" stroke-width="1" x1="706.8429752066115" x2="706.8429752066115" y1="166.66666666666669" y2="220.00000000000003" /><line stroke="black" stroke-width="1" x1="713.6115702479339" x2="713.6115702479339" y1="166.66666666666669" y2="220.00000000000003" /><line stroke="black" stroke-width="1" x1="720.3801652892562" x2="720.3801652892562" y1="166.66666666666669" y2="220.00000000000003" /><line stroke="black" stroke-width="1" x1="727.1487603305785" x2="727.1487603305785" y1="166.66666666666669" y2="220.00000000000003" /><line stroke="black" stroke-width="1" x1="733.9173553719008" x2="733.9173553719008" y1="166.66666666666669" y2="220.00000000000003" /><line stroke="black" stroke-width="1" x1="740.6859504132232" x2="740.6859504132232" y1="166.66666666666669" y2="220.00000000000003" /><line stroke="black" stroke-width="1" x1="747.4545454545455" x2="747.4545454545455" y1="166.66666666666669" y2="220.00000000000003" /><line stroke="black" stroke-width="1" x1="754.2231404958677" x2="754.2231404958677" y1="166.66666666666669" y2="220.00000000000003" /><line stroke="black" stroke-width="1" x1="760.9917355371902" x2="760.9917355371902" y1="166.66666666666669" y2="220.00000000000003" /><line stroke="black" stroke-width="1" x1="767.7603305785124" x2="767.7603305785124" y1="166.66666666666669" y2="220.00000000000003" /><line stroke="black" stroke-width="1" x1="774.5289256198347" x2="774.5289256198347" y1="166.66666666666669" y2="220.00000000000003" /><line stroke="black" stroke-width="1" x1="781.297520661157" x2="781.297520661157" y1="166.66666666666669" y2="220.00000000000003" /><line stroke="black" stroke-width="1" x1="788.0661157024794" x2="788.0661157024794" y1="166.66666666666669" y2="220.00000000000003" /><rect fill="lightgrey" height="53.333333333333336" stroke="black" stroke-width="1" width="234.0" x="556.0" y="220.00000000000003" /><rect fill="none" height="266.6666666666667" stroke="purple" stroke-width="1" width="234.0" x="556.0" y="273.33333333333337" /><line stroke="gray" stroke-width="1" x1="556.0" x2="790.0" y1="273.33333333333337" y2="273.33333333333337" /><line stroke="gray" stroke-width="1" x1="556.0" x2="790.0" y1="300.00000000000006" y2="300.00000000000006" /><line stroke="gray" stroke-width="1" x1="556.0" x2="790.0" y1="326.6666666666667" y2="326.6666666666667" /><line stroke="gray" stroke-width="1" x1="556.0" x2="790.0" y1="353.33333333333337" y2="353.33333333333337" /><line stroke="gray" stroke-width="1" x1="556.0" x2="790.0" y1="380.00000000000006" y2="380.00000000000006" /><line stroke="gray" stroke-width="1" x1="556.0" x2="790.0" y1="406.66666666666674" y2="406.66666666666674" /><line stroke="gray" stroke-width="1" x1="556.0" x2="790.0" y1="433.33333333333337" y2="433.33333333333337" /><line stroke="gray" stroke-width="1" x1="556.0" x2="790.0" y1="460.00000000000006" y2="460.00000000000006" /><line stroke="gray" stroke-width="1" x1="556.0" x2="790.0" y1="486.66666666666674" y2="486.66666666666674" /><line stroke="gray" stroke-width="1" x1="556.0" x2="790.0" y1="513.3333333333334" y2="513.3333333333334" /><line stroke="gray" stroke-width="1" x1="556.0" x2="790.0" y1="540.0" y2="540.0" /><line stroke="gray" stroke-width="1" x1="702.9752066115702" x2="702.9752066115702" y1="273.33333333333337" y2="540.0" /><line stroke="gray" stroke-width="1" x1="585.00826446281" x2="585.00826446281" y1="273.33333333333337" y2="540.0" /><line stroke="gray" stroke-width="1" x1="614.0165289256198" x2="614.0165289256198" y1="273.33333333333337" y2="540.0" /><line stroke="gray" stroke-width="1" x1="643.99173553719" x2="643.99173553719" y1="273.33333333333337" y2="540.0" /><line stroke="gray" stroke-width="1" x1="673.0" x2="673.0" y1="273.33333333333337" y2="540.0" /><line stroke="gray" stroke-width="1" x1="702.9752066115702" x2="702.9752066115702" y1="273.33333333333337" y2="540.0" /><line stroke="gray" stroke-width="1" x1="732.9504132231405" x2="732.9504132231405" y1="273.33333333333337" y2="540.0" /><line stroke="gray" stroke-width="1" x1="760.0247933884298" x2="760.0247933884298" y1="273.33333333333337" y2="540.0" /><line stroke="gray" stroke-width="1" x1="790.0" x2="790.0" y1="273.33333333333337" y2="540.0" /><line stroke="gray" stroke-width="1" x1="557.9338842975206" x2="557.9338842975206" y1="273.33333333333337" y2="540.0" /><line stroke="gray" stroke-width="1" x1="564.702479338843" x2="564.702479338843" y1="273.33333333333337" y2="540.0" /><line stroke="gray" stroke-width="1" x1="571.4710743801653" x2="571.4710743801653" y1="273.33333333333337" y2="540.0" /><line stroke="gray" stroke-width="1" x1="578.2396694214876" x2="578.2396694214876" y1="273.33333333333337" y2="540.0" /><line stroke="gray" stroke-width="1" x1="585.00826446281" x2="585.00826446281" y1="273.33333333333337" y2="540.0" /><line stroke="gray" stroke-width="1" x1="591.7768595041323" x2="591.7768595041323" y1="273.33333333333337" y2="540.0" /><line stroke="gray" stroke-width="1" x1="598.5454545454545" x2="598.5454545454545" y1="273.33333333333337" y2="540.0" /><line stroke="gray" stroke-width="1" x1="605.3140495867768" x2="605.3140495867768" y1="273.33333333333337" y2="540.0" /><line stroke="gray" stroke-width="1" x1="612.0826446280992" x2="612.0826446280992" y1="273.33333333333337" y2="540.0" /><line stroke="gray" stroke-width="1" x1="618.8512396694215" x2="618.8512396694215" y1="273.33333333333337" y2="540.0" /><line stroke="gray" stroke-width="1" x1="625.6198347107438" x2="625.6198347107438" y1="273.33333333333337" y2="540.0" /><line stroke="gray" stroke-width="1" x1="632.3884297520661" x2="632.3884297520661" y1="273.33333333333337" y2="540.0" /><line stroke="gray" stroke-width="1" x1="639.1570247933885" x2="639.1570247933885" y1="273.33333333333337" y2="540.0" /><line stroke="gray" stroke-width="1" x1="645.9256198347107" x2="645.9256198347107" y1="273.33333333333337" y2="540.0" /><line stroke="gray" stroke-width="1" x1="652.694214876033" x2="652.694214876033" y1="273.33333333333337" y2="540.0" /><line stroke="gray" stroke-width="1" x1="659.4628099173553" x2="659.4628099173553" y1="273.33333333333337" y2="540.0" /><line stroke="gray" stroke-width="1" x1="666.2314049586777" x2="666.2314049586777" y1="273.33333333333337" y2="540.0" /><line stroke="gray" stroke-width="1" x1="673.0" x2="673.0" y1="273.33333333333337" y2="540.0" /><line stroke="gray" stroke-width="1" x1="679.7685950413223" x2="679.7685950413223" y1="273.33333333333337" y2="540.0" /><line stroke="gray" stroke-width="1" x1="686.5371900826447" x2="686.5371900826447" y1="273.33333333333337" y2="540.0" /><line stroke="gray" stroke-width="1" x1="693.305785123967" x2="693.305785123967" y1="273.33333333333337" y2="540.0" /><line stroke="gray" stroke-width="1" x1="700.0743801652893" x2="700.0743801652893" y1="273.33333333333337" y2="540.0" /><line stroke="gray" stroke-width="1" x1="706.8429752066115" x2="706.8429752066115" y1="273.33333333333337" y2="540.0" /><line stroke="gray" stroke-width="1" x1="713.6115702479339" x2="713.6115702479339" y1="273.33333333333337" y2="540.0" /><line stroke="gray" stroke-width="1" x1="720.3801652892562" x2="720.3801652892562" y1="273.33333333333337" y2="540.0" /><line stroke="gray" stroke-width="1" x1="727.1487603305785" x2="727.1487603305785" y1="273.33333333333337" y2="540.0" /><line stroke="gray" stroke-width="1" x1="733.9173553719008" x2="733.9173553719008" y1="273.33333333333337" y2="540.0" /><line stroke="gray" stroke-width="1" x1="740.6859504132232" x2="740.6859504132232" y1="273.33333333333337" y2="540.0" /><line stroke="gray" stroke-width="1" x1="747.4545454545455" x2="747.4545454545455" y1="273.33333333333337" y2="540.0" /><line stroke="gray" stroke-width="1" x1="754.2231404958677" x2="754.2231404958677" y1="273.33333333333337" y2="540.0" /><line stroke="gray" stroke-width="1" x1="760.9917355371902" x2="760.9917355371902" y1="273.33333333333337" y2="540.0" /><line stroke="gray" stroke-width="1" x1="767.7603305785124" x2="767.7603305785124" y1="273.33333333333337" y2="540.0" /><line stroke="gray" stroke-width="1" x1="774.5289256198347" x2="774.5289256198347" y1="273.33333333333337" y2="540.0" /><line stroke="gray" stroke-width="1" x1="781.297520661157" x2="781.297520661157" y1="273.33333333333337" y2="540.0" /><line stroke="gray" stroke-width="1" x1="788.0661157024794" x2="788.0661157024794" y1="273.33333333333337" y2="540.0" /><line stroke="gray" stroke-width="1" x1="556.9669421487604" x2="556.9669421487604" y1="273.33333333333337" y2="540.0" /><line stroke="gray" stroke-width="1" x1="557.9338842975206" x2="557.9338842975206" y1="273.33333333333337" y2="540.0" /><line stroke="gray" stroke-width="1" x1="558.900826446281" x2="558.900826446281" y1="273.33333333333337" y2="540.0" /><line stroke="gray" stroke-width="1" x1="559.8677685950413" x2="559.8677685950413" y1="273.33333333333337" y2="540.0" /><line stroke="gray" stroke-width="1" x1="560.8347107438017" x2="560.8347107438017" y1="273.33333333333337" y2="540.0" /><line stroke="gray" stroke-width="1" x1="561.801652892562" x2="561.801652892562" y1="273.33333333333337" y2="540.0" /><line stroke="gray" stroke-width="1" x1="562.7685950413223" x2="562.7685950413223" y1="273.33333333333337" y2="540.0" /><line stroke="gray" stroke-width="1" x1="563.7355371900826" x2="563.7355371900826" y1="273.33333333333337" y2="540.0" /><line stroke="gray" stroke-width="1" x1="564.702479338843" x2="564.702479338843" y1="273.33333333333337" y2="540.0" /><line stroke="gray" stroke-width="1" x1="565.6694214876034" x2="565.6694214876034" y1="273.33333333333337" y2="540.0" /><line stroke="gray" stroke-width="1" x1="566.6363636363636" x2="566.6363636363636" y1="273.33333333333337" y2="540.0" /><line stroke="gray" stroke-width="1" x1="567.603305785124" x2="567.603305785124" y1="273.33333333333337" y2="540.0" /><line stroke="gray" stroke-width="1" x1="568.5702479338843" x2="568.5702479338843" y1="273.33333333333337" y2="540.0" /><line stroke="gray" stroke-width="1" x1="569.5371900826447" x2="569.5371900826447" y1="273.33333333333337" y2="540.0" /><line stroke="gray" stroke-width="1" x1="570.5041322314049" x2="570.5041322314049" y1="273.33333333333337" y2="540.0" /><line stroke="gray" stroke-width="1" x1="571.4710743801653" x2="571.4710743801653" y1="273.33333333333337" y2="540.0" /><line stroke="gray" stroke-width="1" x1="572.4380165289256" x2="572.4380165289256" y1="273.33333333333337" y2="540.0" /><line stroke="gray" stroke-width="1" x1="573.404958677686" x2="573.404958677686" y1="273.33333333333337" y2="540.0" /><line stroke="gray" stroke-width="1" x1="574.3719008264463" x2="574.3719008264463" y1="273.33333333333337" y2="540.0" /><line stroke="gray" stroke-width="1" x1="575.3388429752066" x2="575.3388429752066" y1="273.33333333333337" y2="540.0" /><line stroke="gray" stroke-width="1" x1="576.305785123967" x2="576.305785123967" y1="273.33333333333337" y2="540.0" /><line stroke="gray" stroke-width="1" x1="577.2727272727273" x2="577.2727272727273" y1="273.33333333333337" y2="540.0" /><line stroke="gray" stroke-width="1" x1="578.2396694214876" x2="578.2396694214876" y1="273.33333333333337" y2="540.0" /><line stroke="gray" stroke-width="1" x1="579.2066115702479" x2="579.2066115702479" y1="273.33333333333337" y2="540.0" /><line stroke="gray" stroke-width="1" x1="580.1735537190083" x2="580.1735537190083" y1="273.33333333333337" y2="540.0" /><line stroke="gray" stroke-width="1" x1="581.1404958677685" x2="581.1404958677685" y1="273.33333333333337" y2="540.0" /><line stroke="gray" stroke-width="1" x1="582.1074380165289" x2="582.1074380165289" y1="273.33333333333337" y2="540.0" /><line stroke="gray" stroke-width="1" x1="583.0743801652893" x2="583.0743801652893" y1="273.33333333333337" y2="540.0" /><line stroke="gray" stroke-width="1" x1="584.0413223140496" x2="584.0413223140496" y1="273.33333333333337" y2="540.0" /><line stroke="gray" stroke-width="1" x1="585.00826446281" x2="585.00826446281" y1="273.33333333333337" y2="540.0" /><line stroke="gray" stroke-width="1" x1="585.9752066115702" x2="585.9752066115702" y1="273.33333333333337" y2="540.0" /><line stroke="gray" stroke-width="1" x1="586.9421487603306" x2="586.9421487603306" y1="273.33333333333337" y2="540.0" /><line stroke="gray" stroke-width="1" x1="587.9090909090909" x2="587.9090909090909" y1="273.33333333333337" y2="540.0" /><line stroke="gray" stroke-width="1" x1="588.8760330578513" x2="588.8760330578513" y1="273.33333333333337" y2="540.0" /><line stroke="gray" stroke-width="1" x1="589.8429752066115" x2="589.8429752066115" y1="273.33333333333337" y2="540.0" /><line stroke="gray" stroke-width="1" x1="590.8099173553719" x2="590.8099173553719" y1="273.33333333333337" y2="540.0" /><line stroke="gray" stroke-width="1" x1="591.7768595041323" x2="591.7768595041323" y1="273.33333333333337" y2="540.0" /><line stroke="gray" stroke-width="1" x1="592.7438016528926" x2="592.7438016528926" y1="273.33333333333337" y2="540.0" /><line stroke="gray" stroke-width="1" x1="593.7107438016529" x2="593.7107438016529" y1="273.33333333333337" y2="540.0" /><line stroke="gray" stroke-width="1" x1="594.6776859504132" x2="594.6776859504132" y1="273.33333333333337" y2="540.0" /><line stroke="gray" stroke-width="1" x1="595.6446280991736" x2="595.6446280991736" y1="273.33333333333337" y2="540.0" /><line stroke="gray" stroke-width="1" x1="596.6115702479339" x2="596.6115702479339" y1="273.33333333333337" y2="540.0" /><line stroke="gray" stroke-width="1" x1="597.5785123966942" x2="597.5785123966942" y1="273.33333333333337" y2="540.0" /><line stroke="gray" stroke-width="1" x1="598.5454545454545" x2="598.5454545454545" y1="273.33333333333337" y2="540.0" /><line stroke="gray" stroke-width="1" x1="599.5123966942149" x2="599.5123966942149" y1="273.33333333333337" y2="540.0" /><line stroke="gray" stroke-width="1" x1="600.4793388429753" x2="600.4793388429753" y1="273.33333333333337" y2="540.0" /><line stroke="gray" stroke-width="1" x1="601.4462809917355" x2="601.4462809917355" y1="273.33333333333337" y2="540.0" /><line stroke="gray" stroke-width="1" x1="602.4132231404959" x2="602.4132231404959" y1="273.33333333333337" y2="540.0" /><line stroke="gray" stroke-width="1" x1="603.3801652892562" x2="603.3801652892562" y1="273.33333333333337" y2="540.0" /><line stroke="gray" stroke-width="1" x1="604.3471074380166" x2="604.3471074380166" y1="273.33333333333337" y2="540.0" /><line stroke="gray" stroke-width="1" x1="605.3140495867768" x2="605.3140495867768" y1="273.33333333333337" y2="540.0" /><line stroke="gray" stroke-width="1" x1="606.2809917355372" x2="606.2809917355372" y1="273.33333333333337" y2="540.0" /><line stroke="gray" stroke-width="1" x1="607.2479338842975" x2="607.2479338842975" y1="273.33333333333337" y2="540.0" /><line stroke="gray" stroke-width="1" x1="608.2148760330579" x2="608.2148760330579" y1="273.33333333333337" y2="540.0" /><line stroke="gray" stroke-width="1" x1="609.1818181818181" x2="609.1818181818181" y1="273.33333333333337" y2="540.0" /><line stroke="gray" stroke-width="1" x1="610.1487603305785" x2="610.1487603305785" y1="273.33333333333337" y2="540.0" /><line stroke="gray" stroke-width="1" x1="611.1157024793389" x2="611.1157024793389" y1="273.33333333333337" y2="540.0" /><line stroke="gray" stroke-width="1" x1="612.0826446280992" x2="612.0826446280992" y1="273.33333333333337" y2="540.0" /><line stroke="gray" stroke-width="1" x1="613.0495867768595" x2="613.0495867768595" y1="273.33333333333337" y2="540.0" /><line stroke="gray" stroke-width="1" x1="614.0165289256198" x2="614.0165289256198" y1="273.33333333333337" y2="540.0" /><line stroke="gray" stroke-width="1" x1="614.9834710743802" x2="614.9834710743802" y1="273.33333333333337" y2="540.0" /><line stroke="gray" stroke-width="1" x1="615.9504132231405" x2="615.9504132231405" y1="273.33333333333337" y2="540.0" /><line stroke="gray" stroke-width="1" x1="616.9173553719008" x2="616.9173553719008" y1="273.33333333333337" y2="540.0" /><line stroke="gray" stroke-width="1" x1="617.8842975206611" x2="617.8842975206611" y1="273.33333333333337" y2="540.0" /><line stroke="gray" stroke-width="1" x1="618.8512396694215" x2="618.8512396694215" y1="273.33333333333337" y2="540.0" /><line stroke="gray" stroke-width="1" x1="619.8181818181819" x2="619.8181818181819" y1="273.33333333333337" y2="540.0" /><line stroke="gray" stroke-width="1" x1="620.7851239669421" x2="620.7851239669421" y1="273.33333333333337" y2="540.0" /><line stroke="gray" stroke-width="1" x1="621.7520661157025" x2="621.7520661157025" y1="273.33333333333337" y2="540.0" /><line stroke="gray" stroke-width="1" x1="622.7190082644628" x2="622.7190082644628" y1="273.33333333333337" y2="540.0" /><line stroke="gray" stroke-width="1" x1="623.6859504132232" x2="623.6859504132232" y1="273.33333333333337" y2="540.0" /><line stroke="gray" stroke-width="1" x1="624.6528925619834" x2="624.6528925619834" y1="273.33333333333337" y2="540.0" /><line stroke="gray" stroke-width="1" x1="625.6198347107438" x2="625.6198347107438" y1="273.33333333333337" y2="540.0" /><line stroke="gray" stroke-width="1" x1="626.5867768595041" x2="626.5867768595041" y1="273.33333333333337" y2="540.0" /><line stroke="gray" stroke-width="1" x1="627.5537190082645" x2="627.5537190082645" y1="273.33333333333337" y2="540.0" /><line stroke="gray" stroke-width="1" x1="628.5206611570247" x2="628.5206611570247" y1="273.33333333333337" y2="540.0" /><line stroke="gray" stroke-width="1" x1="629.4876033057851" x2="629.4876033057851" y1="273.33333333333337" y2="540.0" /><line stroke="gray" stroke-width="1" x1="630.4545454545455" x2="630.4545454545455" y1="273.33333333333337" y2="540.0" /><line stroke="gray" stroke-width="1" x1="631.4214876033058" x2="631.4214876033058" y1="273.33333333333337" y2="540.0" /><line stroke="gray" stroke-width="1" x1="632.3884297520661" x2="632.3884297520661" y1="273.33333333333337" y2="540.0" /><line stroke="gray" stroke-width="1" x1="633.3553719008264" x2="633.3553719008264" y1="273.33333333333337" y2="540.0" /><line stroke="gray" stroke-width="1" x1="634.3223140495868" x2="634.3223140495868" y1="273.33333333333337" y2="540.0" /><line stroke="gray" stroke-width="1" x1="635.2892561983471" x2="635.2892561983471" y1="273.33333333333337" y2="540.0" /><line stroke="gray" stroke-width="1" x1="636.2561983471074" x2="636.2561983471074" y1="273.33333333333337" y2="540.0" /><line stroke="gray" stroke-width="1" x1="637.2231404958677" x2="637.2231404958677" y1="273.33333333333337" y2="540.0" /><line stroke="gray" stroke-width="1" x1="638.1900826446281" x2="638.1900826446281" y1="273.33333333333337" y2="540.0" /><line stroke="gray" stroke-width="1" x1="639.1570247933885" x2="639.1570247933885" y1="273.33333333333337" y2="540.0" /><line stroke="gray" stroke-width="1" x1="640.1239669421487" x2="640.1239669421487" y1="273.33333333333337" y2="540.0" /><line stroke="gray" stroke-width="1" x1="641.0909090909091" x2="641.0909090909091" y1="273.33333333333337" y2="540.0" /><line stroke="gray" stroke-width="1" x1="642.0578512396694" x2="642.0578512396694" y1="273.33333333333337" y2="540.0" /><line stroke="gray" stroke-width="1" x1="643.0247933884298" x2="643.0247933884298" y1="273.33333333333337" y2="540.0" /><line stroke="gray" stroke-width="1" x1="643.99173553719" x2="643.99173553719" y1="273.33333333333337" y2="540.0" /><line stroke="gray" stroke-width="1" x1="644.9586776859504" x2="644.9586776859504" y1="273.33333333333337" y2="540.0" /><line stroke="gray" stroke-width="1" x1="645.9256198347107" x2="645.9256198347107" y1="273.33333333333337" y2="540.0" /><line stroke="gray" stroke-width="1" x1="646.8925619834711" x2="646.8925619834711" y1="273.33333333333337" y2="540.0" /><line stroke="gray" stroke-width="1" x1="647.8595041322315" x2="647.8595041322315" y1="273.33333333333337" y2="540.0" /><line stroke="gray" stroke-width="1" x1="648.8264462809917" x2="648.8264462809917" y1="273.33333333333337" y2="540.0" /><line stroke="gray" stroke-width="1" x1="649.7933884297521" x2="649.7933884297521" y1="273.33333333333337" y2="540.0" /><line stroke="gray" stroke-width="1" x1="650.7603305785124" x2="650.7603305785124" y1="273.33333333333337" y2="540.0" /><line stroke="gray" stroke-width="1" x1="651.7272727272727" x2="651.7272727272727" y1="273.33333333333337" y2="540.0" /><line stroke="gray" stroke-width="1" x1="652.694214876033" x2="652.694214876033" y1="273.33333333333337" y2="540.0" /><line stroke="gray" stroke-width="1" x1="653.6611570247934" x2="653.6611570247934" y1="273.33333333333337" y2="540.0" /><line stroke="gray" stroke-width="1" x1="654.6280991735537" x2="654.6280991735537" y1="273.33333333333337" y2="540.0" /><line stroke="gray" stroke-width="1" x1="655.595041322314" x2="655.595041322314" y1="273.33333333333337" y2="540.0" /><line stroke="gray" stroke-width="1" x1="656.5619834710744" x2="656.5619834710744" y1="273.33333333333337" y2="540.0" /><line stroke="gray" stroke-width="1" x1="657.5289256198347" x2="657.5289256198347" y1="273.33333333333337" y2="540.0" /><line stroke="gray" stroke-width="1" x1="658.4958677685951" x2="658.4958677685951" y1="273.33333333333337" y2="540.0" /><line stroke="gray" stroke-width="1" x1="659.4628099173553" x2="659.4628099173553" y1="273.33333333333337" y2="540.0" /><line stroke="gray" stroke-width="1" x1="660.4297520661157" x2="660.4297520661157" y1="273.33333333333337" y2="540.0" /><line stroke="gray" stroke-width="1" x1="661.396694214876" x2="661.396694214876" y1="273.33333333333337" y2="540.0" /><line stroke="gray" stroke-width="1" x1="662.3636363636364" x2="662.3636363636364" y1="273.33333333333337" y2="540.0" /><line stroke="gray" stroke-width="1" x1="663.3305785123966" x2="663.3305785123966" y1="273.33333333333337" y2="540.0" /><line stroke="gray" stroke-width="1" x1="664.297520661157" x2="664.297520661157" y1="273.33333333333337" y2="540.0" /><line stroke="gray" stroke-width="1" x1="665.2644628099174" x2="665.2644628099174" y1="273.33333333333337" y2="540.0" /><line stroke="gray" stroke-width="1" x1="666.2314049586777" x2="666.2314049586777" y1="273.33333333333337" y2="540.0" /><line stroke="gray" stroke-width="1" x1="667.198347107438" x2="667.198347107438" y1="273.33333333333337" y2="540.0" /><line stroke="gray" stroke-width="1" x1="668.1652892561983" x2="668.1652892561983" y1="273.33333333333337" y2="540.0" /><line stroke="gray" stroke-width="1" x1="669.1322314049587" x2="669.1322314049587" y1="273.33333333333337" y2="540.0" /><line stroke="gray" stroke-width="1" x1="670.099173553719" x2="670.099173553719" y1="273.33333333333337" y2="540.0" /><line stroke="gray" stroke-width="1" x1="671.0661157024794" x2="671.0661157024794" y1="273.33333333333337" y2="540.0" /><line stroke="gray" stroke-width="1" x1="672.0330578512396" x2="672.0330578512396" y1="273.33333333333337" y2="540.0" /><line stroke="gray" stroke-width="1" x1="673.0" x2="673.0" y1="273.33333333333337" y2="540.0" /><line stroke="gray" stroke-width="1" x1="673.9669421487604" x2="673.9669421487604" y1="273.33333333333337" y2="540.0" /><line stroke="gray" stroke-width="1" x1="674.9338842975206" x2="674.9338842975206" y1="273.33333333333337" y2="540.0" /><line stroke="gray" stroke-width="1" x1="675.900826446281" x2="675.900826446281" y1="273.33333333333337" y2="540.0" /><line stroke="gray" stroke-width="1" x1="676.8677685950413" x2="676.8677685950413" y1="273.33333333333337" y2="540.0" /><line stroke="gray" stroke-width="1" x1="677.8347107438017" x2="677.8347107438017" y1="273.33333333333337" y2="540.0" /><line stroke="gray" stroke-width="1" x1="678.801652892562" x2="678.801652892562" y1="273.33333333333337" y2="540.0" /><line stroke="gray" stroke-width="1" x1="679.7685950413223" x2="679.7685950413223" y1="273.33333333333337" y2="540.0" /><line stroke="gray" stroke-width="1" x1="680.7355371900826" x2="680.7355371900826" y1="273.33333333333337" y2="540.0" /><line stroke="gray" stroke-width="1" x1="681.702479338843" x2="681.702479338843" y1="273.33333333333337" y2="540.0" /><line stroke="gray" stroke-width="1" x1="682.6694214876034" x2="682.6694214876034" y1="273.33333333333337" y2="540.0" /><line stroke="gray" stroke-width="1" x1="683.6363636363636" x2="683.6363636363636" y1="273.33333333333337" y2="540.0" /><line stroke="gray" stroke-width="1" x1="684.603305785124" x2="684.603305785124" y1="273.33333333333337" y2="540.0" /><line stroke="gray" stroke-width="1" x1="685.5702479338843" x2="685.5702479338843" y1="273.33333333333337" y2="540.0" /><line stroke="gray" stroke-width="1" x1="686.5371900826447" x2="686.5371900826447" y1="273.33333333333337" y2="540.0" /><line stroke="gray" stroke-width="1" x1="687.5041322314049" x2="687.5041322314049" y1="273.33333333333337" y2="540.0" /><line stroke="gray" stroke-width="1" x1="688.4710743801653" x2="688.4710743801653" y1="273.33333333333337" y2="540.0" /><line stroke="gray" stroke-width="1" x1="689.4380165289256" x2="689.4380165289256" y1="273.33333333333337" y2="540.0" /><line stroke="gray" stroke-width="1" x1="690.404958677686" x2="690.404958677686" y1="273.33333333333337" y2="540.0" /><line stroke="gray" stroke-width="1" x1="691.3719008264463" x2="691.3719008264463" y1="273.33333333333337" y2="540.0" /><line stroke="gray" stroke-width="1" x1="692.3388429752066" x2="692.3388429752066" y1="273.33333333333337" y2="540.0" /><line stroke="gray" stroke-width="1" x1="693.305785123967" x2="693.305785123967" y1="273.33333333333337" y2="540.0" /><line stroke="gray" stroke-width="1" x1="694.2727272727273" x2="694.2727272727273" y1="273.33333333333337" y2="540.0" /><line stroke="gray" stroke-width="1" x1="695.2396694214876" x2="695.2396694214876" y1="273.33333333333337" y2="540.0" /><line stroke="gray" stroke-width="1" x1="696.2066115702479" x2="696.2066115702479" y1="273.33333333333337" y2="540.0" /><line stroke="gray" stroke-width="1" x1="697.1735537190083" x2="697.1735537190083" y1="273.33333333333337" y2="540.0" /><line stroke="gray" stroke-width="1" x1="698.1404958677685" x2="698.1404958677685" y1="273.33333333333337" y2="540.0" /><line stroke="gray" stroke-width="1" x1="699.1074380165289" x2="699.1074380165289" y1="273.33333333333337" y2="540.0" /><line stroke="gray" stroke-width="1" x1="700.0743801652893" x2="700.0743801652893" y1="273.33333333333337" y2="540.0" /><line stroke="gray" stroke-width="1" x1="701.0413223140496" x2="701.0413223140496" y1="273.33333333333337" y2="540.0" /><line stroke="gray" stroke-width="1" x1="702.0082644628098" x2="702.0082644628098" y1="273.33333333333337" y2="540.0" /><line stroke="gray" stroke-width="1" x1="702.9752066115702" x2="702.9752066115702" y1="273.33333333333337" y2="540.0" /><line stroke="gray" stroke-width="1" x1="703.9421487603306" x2="703.9421487603306" y1="273.33333333333337" y2="540.0" /><line stroke="gray" stroke-width="1" x1="704.9090909090909" x2="704.9090909090909" y1="273.33333333333337" y2="540.0" /><line stroke="gray" stroke-width="1" x1="705.8760330578513" x2="705.8760330578513" y1="273.33333333333337" y2="540.0" /><line stroke="gray" stroke-width="1" x1="706.8429752066115" x2="706.8429752066115" y1="273.33333333333337" y2="540.0" /><line stroke="gray" stroke-width="1" x1="707.8099173553719" x2="707.8099173553719" y1="273.33333333333337" y2="540.0" /><line stroke="gray" stroke-width="1" x1="708.7768595041323" x2="708.7768595041323" y1="273.33333333333337" y2="540.0" /><line stroke="gray" stroke-width="1" x1="709.7438016528926" x2="709.7438016528926" y1="273.33333333333337" y2="540.0" /><line stroke="gray" stroke-width="1" x1="710.7107438016528" x2="710.7107438016528" y1="273.33333333333337" y2="540.0" /><line stroke="gray" stroke-width="1" x1="711.6776859504132" x2="711.6776859504132" y1="273.33333333333337" y2="540.0" /><line stroke="gray" stroke-width="1" x1="712.6446280991736" x2="712.6446280991736" y1="273.33333333333337" y2="540.0" /><line stroke="gray" stroke-width="1" x1="713.6115702479339" x2="713.6115702479339" y1="273.33333333333337" y2="540.0" /><line stroke="gray" stroke-width="1" x1="714.5785123966942" x2="714.5785123966942" y1="273.33333333333337" y2="540.0" /><line stroke="gray" stroke-width="1" x1="715.5454545454545" x2="715.5454545454545" y1="273.33333333333337" y2="540.0" /><line stroke="gray" stroke-width="1" x1="716.5123966942149" x2="716.5123966942149" y1="273.33333333333337" y2="540.0" /><line stroke="gray" stroke-width="1" x1="717.4793388429753" x2="717.4793388429753" y1="273.33333333333337" y2="540.0" /><line stroke="gray" stroke-width="1" x1="718.4462809917355" x2="718.4462809917355" y1="273.33333333333337" y2="540.0" /><line stroke="gray" stroke-width="1" x1="719.4132231404958" x2="719.4132231404958" y1="273.33333333333337" y2="540.0" /><line stroke="gray" stroke-width="1" x1="720.3801652892562" x2="720.3801652892562" y1="273.33333333333337" y2="540.0" /><line stroke="gray" stroke-width="1" x1="721.3471074380166" x2="721.3471074380166" y1="273.33333333333337" y2="540.0" /><line stroke="gray" stroke-width="1" x1="722.3140495867768" x2="722.3140495867768" y1="273.33333333333337" y2="540.0" /><line stroke="gray" stroke-width="1" x1="723.2809917355372" x2="723.2809917355372" y1="273.33333333333337" y2="540.0" /><line stroke="gray" stroke-width="1" x1="724.2479338842975" x2="724.2479338842975" y1="273.33333333333337" y2="540.0" /><line stroke="gray" stroke-width="1" x1="725.2148760330579" x2="725.2148760330579" y1="273.33333333333337" y2="540.0" /><line stroke="gray" stroke-width="1" x1="726.1818181818182" x2="726.1818181818182" y1="273.33333333333337" y2="540.0" /><line stroke="gray" stroke-width="1" x1="727.1487603305785" x2="727.1487603305785" y1="273.33333333333337" y2="540.0" /><line stroke="gray" stroke-width="1" x1="728.1157024793388" x2="728.1157024793388" y1="273.33333333333337" y2="540.0" /><line stroke="gray" stroke-width="1" x1="729.0826446280992" x2="729.0826446280992" y1="273.33333333333337" y2="540.0" /><line stroke="gray" stroke-width="1" x1="730.0495867768595" x2="730.0495867768595" y1="273.33333333333337" y2="540.0" /><line stroke="gray" stroke-width="1" x1="731.0165289256198" x2="731.0165289256198" y1="273.33333333333337" y2="540.0" /><line stroke="gray" stroke-width="1" x1="731.9834710743802" x2="731.9834710743802" y1="273.33333333333337" y2="540.0" /><line stroke="gray" stroke-width="1" x1="732.9504132231405" x2="732.9504132231405" y1="273.33333333333337" y2="540.0" /><line stroke="gray" stroke-width="1" x1="733.9173553719008" x2="733.9173553719008" y1="273.33333333333337" y2="540.0" /><line stroke="gray" stroke-width="1" x1="734.8842975206612" x2="734.8842975206612" y1="273.33333333333337" y2="540.0" /><line stroke="gray" stroke-width="1" x1="735.8512396694215" x2="735.8512396694215" y1="273.33333333333337" y2="540.0" /><line stroke="gray" stroke-width="1" x1="736.8181818181818" x2="736.8181818181818" y1="273.33333333333337" y2="540.0" /><line stroke="gray" stroke-width="1" x1="737.7851239669421" x2="737.7851239669421" y1="273.33333333333337" y2="540.0" /><line stroke="gray" stroke-width="1" x1="738.7520661157025" x2="738.7520661157025" y1="273.33333333333337" y2="540.0" /><line stroke="gray" stroke-width="1" x1="739.7190082644628" x2="739.7190082644628" y1="273.33333333333337" y2="540.0" /><line stroke="gray" stroke-width="1" x1="740.6859504132232" x2="740.6859504132232" y1="273.33333333333337" y2="540.0" /><line stroke="gray" stroke-width="1" x1="741.6528925619834" x2="741.6528925619834" y1="273.33333333333337" y2="540.0" /><line stroke="gray" stroke-width="1" x1="742.6198347107438" x2="742.6198347107438" y1="273.33333333333337" y2="540.0" /><line stroke="gray" stroke-width="1" x1="743.5867768595042" x2="743.5867768595042" y1="273.33333333333337" y2="540.0" /><line stroke="gray" stroke-width="1" x1="744.5537190082645" x2="744.5537190082645" y1="273.33333333333337" y2="540.0" /><line stroke="gray" stroke-width="1" x1="745.5206611570247" x2="745.5206611570247" y1="273.33333333333337" y2="540.0" /><line stroke="gray" stroke-width="1" x1="746.4876033057851" x2="746.4876033057851" y1="273.33333333333337" y2="540.0" /><line stroke="gray" stroke-width="1" x1="747.4545454545455" x2="747.4545454545455" y1="273.33333333333337" y2="540.0" /><line stroke="gray" stroke-width="1" x1="748.4214876033058" x2="748.4214876033058" y1="273.33333333333337" y2="540.0" /><line stroke="gray" stroke-width="1" x1="749.3884297520661" x2="749.3884297520661" y1="273.33333333333337" y2="540.0" /><line stroke="gray" stroke-width="1" x1="750.3553719008264" x2="750.3553719008264" y1="273.33333333333337" y2="540.0" /><line stroke="gray" stroke-width="1" x1="751.3223140495868" x2="751.3223140495868" y1="273.33333333333337" y2="540.0" /><line stroke="gray" stroke-width="1" x1="752.2892561983472" x2="752.2892561983472" y1="273.33333333333337" y2="540.0" /><line stroke="gray" stroke-width="1" x1="753.2561983471074" x2="753.2561983471074" y1="273.33333333333337" y2="540.0" /><line stroke="gray" stroke-width="1" x1="754.2231404958677" x2="754.2231404958677" y1="273.33333333333337" y2="540.0" /><line stroke="gray" stroke-width="1" x1="755.1900826446281" x2="755.1900826446281" y1="273.33333333333337" y2="540.0" /><line stroke="gray" stroke-width="1" x1="756.1570247933885" x2="756.1570247933885" y1="273.33333333333337" y2="540.0" /><line stroke="gray" stroke-width="1" x1="757.1239669421487" x2="757.1239669421487" y1="273.33333333333337" y2="540.0" /><line stroke="gray" stroke-width="1" x1="758.0909090909091" x2="758.0909090909091" y1="273.33333333333337" y2="540.0" /><line stroke="gray" stroke-width="1" x1="759.0578512396694" x2="759.0578512396694" y1="273.33333333333337" y2="540.0" /><line stroke="gray" stroke-width="1" x1="760.0247933884298" x2="760.0247933884298" y1="273.33333333333337" y2="540.0" /><line stroke="gray" stroke-width="1" x1="760.9917355371902" x2="760.9917355371902" y1="273.33333333333337" y2="540.0" /><line stroke="gray" stroke-width="1" x1="761.9586776859504" x2="761.9586776859504" y1="273.33333333333337" y2="540.0" /><line stroke="gray" stroke-width="1" x1="762.9256198347107" x2="762.9256198347107" y1="273.33333333333337" y2="540.0" /><line stroke="gray" stroke-width="1" x1="763.8925619834711" x2="763.8925619834711" y1="273.33333333333337" y2="540.0" /><line stroke="gray" stroke-width="1" x1="764.8595041322315" x2="764.8595041322315" y1="273.33333333333337" y2="540.0" /><line stroke="gray" stroke-width="1" x1="765.8264462809917" x2="765.8264462809917" y1="273.33333333333337" y2="540.0" /><line stroke="gray" stroke-width="1" x1="766.7933884297521" x2="766.7933884297521" y1="273.33333333333337" y2="540.0" /><line stroke="gray" stroke-width="1" x1="767.7603305785124" x2="767.7603305785124" y1="273.33333333333337" y2="540.0" /><line stroke="gray" stroke-width="1" x1="768.7272727272727" x2="768.7272727272727" y1="273.33333333333337" y2="540.0" /><line stroke="gray" stroke-width="1" x1="769.694214876033" x2="769.694214876033" y1="273.33333333333337" y2="540.0" /><line stroke="gray" stroke-width="1" x1="770.6611570247934" x2="770.6611570247934" y1="273.33333333333337" y2="540.0" /><line stroke="gray" stroke-width="1" x1="771.6280991735537" x2="771.6280991735537" y1="273.33333333333337" y2="540.0" /><line stroke="gray" stroke-width="1" x1="772.595041322314" x2="772.595041322314" y1="273.33333333333337" y2="540.0" /><line stroke="gray" stroke-width="1" x1="773.5619834710744" x2="773.5619834710744" y1="273.33333333333337" y2="540.0" /><line stroke="gray" stroke-width="1" x1="774.5289256198347" x2="774.5289256198347" y1="273.33333333333337" y2="540.0" /><line stroke="gray" stroke-width="1" x1="775.4958677685951" x2="775.4958677685951" y1="273.33333333333337" y2="540.0" /><line stroke="gray" stroke-width="1" x1="776.4628099173553" x2="776.4628099173553" y1="273.33333333333337" y2="540.0" /><line stroke="gray" stroke-width="1" x1="777.4297520661157" x2="777.4297520661157" y1="273.33333333333337" y2="540.0" /><line stroke="gray" stroke-width="1" x1="778.396694214876" x2="778.396694214876" y1="273.33333333333337" y2="540.0" /><line stroke="gray" stroke-width="1" x1="779.3636363636364" x2="779.3636363636364" y1="273.33333333333337" y2="540.0" /><line stroke="gray" stroke-width="1" x1="780.3305785123966" x2="780.3305785123966" y1="273.33333333333337" y2="540.0" /><line stroke="gray" stroke-width="1" x1="781.297520661157" x2="781.297520661157" y1="273.33333333333337" y2="540.0" /><line stroke="gray" stroke-width="1" x1="782.2644628099174" x2="782.2644628099174" y1="273.33333333333337" y2="540.0" /><line stroke="gray" stroke-width="1" x1="783.2314049586777" x2="783.2314049586777" y1="273.33333333333337" y2="540.0" /><line stroke="gray" stroke-width="1" x1="784.198347107438" x2="784.198347107438" y1="273.33333333333337" y2="540.0" /><line stroke="gray" stroke-width="1" x1="785.1652892561983" x2="785.1652892561983" y1="273.33333333333337" y2="540.0" /><line stroke="gray" stroke-width="1" x1="786.1322314049587" x2="786.1322314049587" y1="273.33333333333337" y2="540.0" /><line stroke="gray" stroke-width="1" x1="787.099173553719" x2="787.099173553719" y1="273.33333333333337" y2="540.0" /><line stroke="gray" stroke-width="1" x1="788.0661157024794" x2="788.0661157024794" y1="273.33333333333337" y2="540.0" /><line stroke="gray" stroke-width="1" x1="789.0330578512396" x2="789.0330578512396" y1="273.33333333333337" y2="540.0" /><line stroke="gray" stroke-width="1" x1="790.0" x2="790.0" y1="273.33333333333337" y2="540.0" /></svg>