<?xml version="1.0" encoding="utf-8" ?>
<svg baseProfile="full" height="600.0" version="1.1" width="800.0" xmlns="http://www.w3.org/2000/svg" xmlns:ev="http://www.w3.org/2001/xml-events" xmlns:xlink="http://www.w3.org/1999/xlink"><defs /><rect fill="white" height="600.0" stroke="black" stroke-width="2" width="800.0" x="0" y="0" /><rect fill="lightgray" height="50.0" stroke="black" stroke-width="1" width="780.0" x="10.0" y="10.0" /><text font-size="14" text-anchor="middle" x="400.0" y="35.0">test</text><rect fill="lightgray" height="50.0" stroke="black" stroke-width="1" width="780.0" x="10.0" y="540.0" /><rect fill="none" height="480.0" stroke="blue" stroke-dasharray="4" stroke-width="1" width="780.0" x="10.0" y="60.0" /><rect fill="none" height="480.0" stroke="red" stroke-width="1" width="546.0" x="10.0" y="60.0" /><rect fill="lightgrey" height="53.333333333333336" stroke="black" stroke-width="1" width="546.0" x="10.0" y="60.0" /><text dominant-baseline="middle" font-size="10" text-anchor="middle" x="283.0" y="86.66666666666667">2025</text><rect fill="lightgrey" height="53.333333333333336" stroke="black" stroke-width="1" width="546.0" x="10.0" y="113.33333333333334" /><line stroke="black" stroke-width="1" x1="122.09271523178808" x2="122.09271523178808" y1="113.33333333333334" y2="166.66666666666669" /><text dominant-baseline="middle" font-size="10" text-anchor="middle" x="66.04635761589404" y="140.0">Jan</text><line stroke="black" stroke-width="1" x1="223.33774834437085" x2="223.33774834437085" y1="113.33333333333334" y2="166.66666666666669" /><text dominant-baseline="middle" font-size="10" text-anchor="middle" x="172.71523178807945" y="140.0">Feb</text><line stroke="black" stroke-width="1" x1="335.4304635761589" x2="335.4304635761589" y1="113.33333333333334" y2="166.66666666666669" /><text dominant-baseline="middle" font-size="10" text-anchor="middle" x="279.3841059602649" y="140.0">Mar</text><line stroke="black" stroke-width="1" x1="443.9072847682119" x2="443.9072847682119" y1="113.33333333333334" y2="166.66666666666669" /><text dominant-baseline="middle" font-size="10" text-anchor="middle" x="389.6688741721854" y="140.0">Apr</text><line stroke="black" stroke-width="1" x1="556.0" x2="556.0" y1="113.33333333333334" y2="166.66666666666669" /><text dominant-baseline="middle" font-size="10" text-anchor="middle" x="499.95364238410593" y="140.0">May</text><rect fill="lightgrey" height="53.333333333333336" stroke="black" stroke-width="1" width="546.0" x="10.0" y="166.66666666666669" /><line stroke="black" stroke-width="1" x1="28.079470198675494" x2="28.079470198675494" y1="166.66666666666669" y2="220.00000000000003" /><line stroke="black" stroke-width="1" x1="53.39072847682119" x2="53.39072847682119" y1="166.66666666666669" y2="220.00000000000003" /><text dominant-baseline="middle" font-size="10" text-anchor="middle" x="40.73509933774834" y="193.33333333333334">02</text><line stroke="black" stroke-width="1" x1="78.70198675496688" x2="78.70198675496688" y1="166.66666666666669" y2="220.00000000000003" /><text dominant-baseline="middle" font-size="10" text-anchor="middle" x="66.04635761589404" y="193.33333333333334">03</text><line stroke="black" stroke-width="1" x1="104.01324503311258" x2="104.01324503311258" y1="166.66666666666669" y2="220.00000000000003" /><text dominant-baseline="middle" font-size="10" text-anchor="middle" x="91.35761589403972" y="193.33333333333334">04</text><line stroke="black" stroke-width="1" x1="129.32450331125827" x2="129.32450331125827" y1="166.66666666666669" y2="220.00000000000003" /><text dominant-baseline="middle" font-size="10" text-anchor="middle" x="116.66887417218543" y="193.33333333333334">05</text><line stroke="black" stroke-width="1" x1="154.63576158940396" x2="154.63576158940396" y1="166.66666666666669" y2="220.00000000000003" /><text dominant-baseline="middle" font-size="10" text-anchor="middle" x="141.9801324503311" y="193.33333333333334">06</text><line stroke="black" stroke-width="1" x1="179.94701986754967" x2="179.94701986754967" y1="166.66666666666669" y2="220.00000000000003" /><text dominant-baseline="middle" font-size="10" text-anchor="middle" x="167.2913907284768" y="193.33333333333334">07</text><line stroke="black" stroke-width="1" x1="205.25827814569536" x2="205.25827814569536" y1="166.66666666666669" y2="220.00000000000003" /><text dominant-baseline="middle" font-size="10" text-anchor="middle" x="192.60264900662253" y="193.33333333333334">08</text><line stroke="black" stroke-width="1" x1="230.56953642384104" x2="230.56953642384104" y1="166.66666666666669" y2="220.00000000000003" /><text dominant-baseline="middle" font-size="10" text-anchor="middle" x="217.9139072847682" y="193.33333333333334">09</text><line stroke="black" stroke-width="1" x1="255.88079470198673" x2="255.88079470198673" y1="166.66666666666669" y2="220.00000000000003" /><text dominant-baseline="middle" font-size="10" text-anchor="middle" x="243.2251655629139" y="193.33333333333334">10</text><line stroke="black" stroke-width="1" x1="281.1920529801324" x2="281.1920529801324" y1="166.66666666666669" y2="220.00000000000003" /><text dominant-baseline="middle" font-size="10" text-anchor="middle" x="268.53642384105956" y="193.33333333333334">11</text><line stroke="black" stroke-width="1" x1="306.50331125827813" x2="306.50331125827813" y1="166.66666666666669" y2="220.00000000000003" /><text dominant-baseline="middle" font-size="10" text-anchor="middle" x="293.8476821192053" y="193.33333333333334">12</text><line stroke="black" stroke-width="1" x1="331.81456953642385" x2="331.81456953642385" y1="166.66666666666669" y2="220.00000000000003" /><text dominant-baseline="middle" font-size="10" text-anchor="middle" x="319.158940397351" y="193.33333333333334">13</text><line stroke="black" stroke-width="1" x1="357.1258278145695" x2="357.1258278145695" y1="166.66666666666669" y2="220.00000000000003" /><text dominant-baseline="middle" font-size="10" text-anchor="middle" x="344.4701986754967" y="193.33333333333334">14</text><line stroke="black" stroke-width="1" x1="382.4370860927152" x2="382.4370860927152" y1="166.66666666666669" y2="220.00000000000003" /><text dominant-baseline="middle" font-size="10" text-anchor="middle" x="369.78145695364236" y="193.33333333333334">15</text><line stroke="black" stroke-width="1" x1="407.74834437086093" x2="407.74834437086093" y1="166.66666666666669" y2="220.00000000000003" /><text dominant-baseline="middle" font-size="10" text-anchor="middle" x="395.0927152317881" y="193.33333333333334">16</text><line stroke="black" stroke-width="1" x1="433.0596026490066" x2="433.0596026490066" y1="166.66666666666669" y2="220.00000000000003" /><text dominant-baseline="middle" font-size="10" text-anchor="middle" x="420.40397350993373" y="193.33333333333334">17</text><line stroke="black" stroke-width="1" x1="458.3708609271523" x2="458.3708609271523" y1="166.66666666666669" y2="220.00000000000003" /><text dominant-baseline="middle" font-size="10" text-anchor="middle" x="445.71523178807945" y="193.33333333333334">18</text><line stroke="black" stroke-width="1" x1="483.68211920529797" x2="483.68211920529797" y1="166.66666666666669" y2="220.00000000000003" /><text dominant-baseline="middle" font-size="10" text-anchor="middle" x="471.02649006622516" y="193.33333333333334">19</text><line stroke="black" stroke-width="1" x1="508.9933774834437" x2="508.9933774834437" y1="166.66666666666669" y2="220.00000000000003" /><text dominant-baseline="middle" font-size="10" text-anchor="middle" x="496.3377483443708" y="193.33333333333334">20</text><line stroke="black" stroke-width="1" x1="534.3046357615893" x2="534.3046357615893" y1="166.66666666666669" y2="220.00000000000003" /><text dominant-baseline="middle" font-size="10" text-anchor="middle" x="521.6490066225165" y="193.33333333333334">21</text><text dominant-baseline="middle" font-size="10" text-anchor="middle" x="545.1523178807947" y="193.33333333333334">22</text><rect fill="lightgrey" height="53.333333333333336" stroke="black" stroke-width="1" width="546.0" x="10.0" y="220.00000000000003" /><rect fill="none" height="266.6666666666667" stroke="purple" stroke-width="1" width="546.0" x="10.0" y="273.33333333333337" /><line stroke="gray" stroke-width="1" x1="10.0" x2="556.0" y1="273.33333333333337" y2="273.33333333333337" /><line stroke="gray" stroke-width="1" x1="10.0" x2="556.0" y1="300.00000000000006" y2="300.00000000000006" /><line stroke="gray" stroke-width="1" x1="10.0" x2="556.0" y1="326.6666666666667" y2="326.6666666666667" /><line stroke="gray" stroke-width="1" x1="10.0" x2="556.0" y1="353.33333333333337" y2="353.33333333333337" /><line stroke="gray" stroke-width="1" x1="10.0" x2="556.0" y1="380.00000000000006" y2="380.00000000000006" /><line stroke="gray" stroke-width="1" x1="10.0" x2="556.0" y1="406.66666666666674" y2="406.66666666666674" /><line stroke="gray" stroke-width="1" x1="10.0" x2="556.0" y1="433.33333333333337" y2="433.33333333333337" /><line stroke="gray" stroke-width="1" x1="10.0" x2="556.0" y1="460.00000000000006" y2="460.00000000000006" /><line stroke="gray" stroke-width="1" x1="10.0" x2="556.0" y1="486.66666666666674" y2="486.66666666666674" /><line stroke="gray" stroke-width="1" x1="10.0" x2="556.0" y1="513.3333333333334" y2="513.3333333333334" /><line stroke="gray" stroke-width="1" x1="10.0" x2="556.0" y1="540.0" y2="540.0" /><line stroke="gray" stroke-width="1" x1="122.09271523178808" x2="122.09271523178808" y1="273.33333333333337" y2="540.0" /><line stroke="gray" stroke-width="1" x1="223.33774834437085" x2="223.33774834437085" y1="273.33333333333337" y2="540.0" /><line stroke="gray" stroke-width="1" x1="335.4304635761589" x2="335.4304635761589" y1="273.33333333333337" y2="540.0" /><line stroke="gray" stroke-width="1" x1="443.9072847682119" x2="443.9072847682119" y1="273.33333333333337" y2="540.0" /><line stroke="gray" stroke-width="1" x1="556.0" x2="556.0" y1="273.33333333333337" y2="540.0" /><line stroke="gray" stroke-width="1" x1="28.079470198675494" x2="28.079470198675494" y1="273.33333333333337" y2="540.0" /><line stroke="gray" stroke-width="1" x1="53.39072847682119" x2="53.39072847682119" y1="273.33333333333337" y2="540.0" /><line stroke="gray" stroke-width="1" x1="78.70198675496688" x2="78.70198675496688" y1="273.33333333333337" y2="540.0" /><line stroke="gray" stroke-width="1" x1="104.01324503311258" x2="104.01324503311258" y1="273.33333333333337" y2="540.0" /><line stroke="gray" stroke-width="1" x1="129.32450331125827" x2="129.32450331125827" y1="273.33333333333337" y2="540.0" /><line stroke="gray" stroke-width="1" x1="154.63576158940396" x2="154.63576158940396" y1="273.33333333333337" y2="540.0" /><line stroke="gray" stroke-width="1" x1="179.94701986754967" x2="179.94701986754967" y1="273.33333333333337" y2="540.0" /><line stroke="gray" stroke-width="1" x1="205.25827814569536" x2="205.25827814569536" y1="273.33333333333337" y2="540.0" /><line stroke="gray" stroke-width="1" x1="230.56953642384104" x2="230.56953642384104" y1="273.33333333333337" y2="540.0" /><line stroke="gray" stroke-width="1" x1="255.88079470198673" x2="255.88079470198673" y1="273.33333333333337" y2="540.0" /><line stroke="gray" stroke-width="1" x1="281.1920529801324" x2="281.1920529801324" y1="273.33333333333337" y2="540.0" /><line stroke="gray" stroke-width="1" x1="306.50331125827813" x2="306.50331125827813" y1="273.33333333333337" y2="540.0" /><line stroke="gray" stroke-width="1" x1="331.81456953642385" x2="331.81456953642385" y1="273.33333333333337" y2="540.0" /><line stroke="gray" stroke-width="1" x1="357.1258278145695" x2="357.1258278145695" y1="273.33333333333337" y2="540.0" /><line stroke="gray" stroke-width="1" x1="382.4370860927152" x2="382.4370860927152" y1="273.33333333333337" y2="540.0" /><line stroke="gray" stroke-width="1" x1="407.74834437086093" x2="407.74834437086093" y1="273.33333333333337" y2="540.0" /><line stroke="gray" stroke-width="1" x1="433.0596026490066" x2="433.0596026490066" y1="273.33333333333337" y2="540.0" /><line stroke="gray" stroke-width="1" x1="458.3708609271523" x2="458.3708609271523" y1="273.33333333333337" y2="540.0" /><line stroke="gray" stroke-width="1" x1="483.68211920529797" x2="483.68211920529797" y1="273.33333333333337" y2="540.0" /><line stroke="gray" stroke-width="1" x1="508.9933774834437" x2="508.9933774834437" y1="273.33333333333337" y2="540.0" /><line stroke="gray" stroke-width="1" x1="534.3046357615893" x2="534.3046357615893" y1="273.33333333333337" y2="540.0" /><line stroke="gray" stroke-width="1" x1="13.6158940397351" x2="13.6158940397351" y1="273.33333333333337" y2="540.0" /><line stroke="gray" stroke-width="1" x1="17.2317880794702" x2="17.2317880794702" y1="273.33333333333337" y2="540.0" /><line stroke="gray" stroke-width="1" x1="20.847682119205295" x2="20.847682119205295" y1="273.33333333333337" y2="540.0" /><line stroke="gray" stroke-width="1" x1="24.4635761589404" x2="24.4635761589404" y1="273.33333333333337" y2="540.0" /><line stroke="gray" stroke-width="1" x1="28.079470198675494" x2="28.079470198675494" y1="273.33333333333337" y2="540.0" /><line stroke="gray" stroke-width="1" x1="31.695364238410594" x2="31.695364238410594" y1="273.33333333333337" y2="540.0" /><line stroke="gray" stroke-width="1" x1="35.311258278145694" x2="35.311258278145694" y1="273.33333333333337" y2="540.0" /><line stroke="gray" stroke-width="1" x1="38.9271523178808" x2="38.9271523178808" y1="273.33333333333337" y2="540.0" /><line stroke="gray" stroke-width="1" x1="42.54304635761589" x2="42.54304635761589" y1="273.33333333333337" y2="540.0" /><line stroke="gray" stroke-width="1" x1="46.15894039735099" x2="46.15894039735099" y1="273.33333333333337" y2="540.0" /><line stroke="gray" stroke-width="1" x1="49.77483443708609" x2="49.77483443708609" y1="273.33333333333337" y2="540.0" /><line stroke="gray" stroke-width="1" x1="53.39072847682119" x2="53.39072847682119" y1="273.33333333333337" y2="540.0" /><line stroke="gray" stroke-width="1" x1="57.00662251655629" x2="57.00662251655629" y1="273.33333333333337" y2="540.0" /><line stroke="gray" stroke-width="1" x1="60.62251655629139" x2="60.62251655629139" y1="273.33333333333337" y2="540.0" /><line stroke="gray" stroke-width="1" x1="64.23841059602648" x2="64.23841059602648" y1="273.33333333333337" y2="540.0" /><line stroke="gray" stroke-width="1" x1="67.8543046357616" x2="67.8543046357616" y1="273.33333333333337" y2="540.0" /><line stroke="gray" stroke-width="1" x1="71.47019867549668" x2="71.47019867549668" y1="273.33333333333337" y2="540.0" /><line stroke="gray" stroke-width="1" x1="75.08609271523179" x2="75.08609271523179" y1="273.33333333333337" y2="540.0" /><line stroke="gray" stroke-width="1" x1="78.70198675496688" x2="78.70198675496688" y1="273.33333333333337" y2="540.0" /><line stroke="gray" stroke-width="1" x1="82.31788079470198" x2="82.31788079470198" y1="273.33333333333337" y2="540.0" /><line stroke="gray" stroke-width="1" x1="85.93377483443709" x2="85.93377483443709" y1="273.33333333333337" y2="540.0" /><line stroke="gray" stroke-width="1" x1="89.54966887417218" x2="89.54966887417218" y1="273.33333333333337" y2="540.0" /><line stroke="gray" stroke-width="1" x1="93.16556291390728" x2="93.16556291390728" y1="273.33333333333337" y2="540.0" /><line stroke="gray" stroke-width="1" x1="96.78145695364238" x2="96.78145695364238" y1="273.33333333333337" y2="540.0" /><line stroke="gray" stroke-width="1" x1="100.39735099337747" x2="100.39735099337747" y1="273.33333333333337" y2="540.0" /><line stroke="gray" stroke-width="1" x1="104.01324503311258" x2="104.01324503311258" y1="273.33333333333337" y2="540.0" /><line stroke="gray" stroke-width="1" x1="107.62913907284768" x2="107.62913907284768" y1="273.33333333333337" y2="540.0" /><line stroke="gray" stroke-width="1" x1="111.24503311258277" x2="111.24503311258277" y1="273.33333333333337" y2="540.0" /><line stroke="gray" stroke-width="1" x1="114.86092715231787" x2="114.86092715231787" y1="273.33333333333337" y2="540.0" /><line stroke="gray" stroke-width="1" x1="118.47682119205298" x2="118.47682119205298" y1="273.33333333333337" y2="540.0" /><line stroke="gray" stroke-width="1" x1="122.09271523178808" x2="122.09271523178808" y1="273.33333333333337" y2="540.0" /><line stroke="gray" stroke-width="1" x1="125.70860927152317" x2="125.70860927152317" y1="273.33333333333337" y2="540.0" /><line stroke="gray" stroke-width="1" x1="129.32450331125827" x2="129.32450331125827" y1="273.33333333333337" y2="540.0" /><line stroke="gray" stroke-width="1" x1="132.94039735099335" x2="132.94039735099335" y1="273.33333333333337" y2="540.0" /><line stroke="gray" stroke-width="1" x1="136.55629139072846" x2="136.55629139072846" y1="273.33333333333337" y2="540.0" /><line stroke="gray" stroke-width="1" x1="140.17218543046357" x2="140.17218543046357" y1="273.33333333333337" y2="540.0" /><line stroke="gray" stroke-width="1" x1="143.78807947019868" x2="143.78807947019868" y1="273.33333333333337" y2="540.0" /><line stroke="gray" stroke-width="1" x1="147.40397350993376" x2="147.40397350993376" y1="273.33333333333337" y2="540.0" /><line stroke="gray" stroke-width="1" x1="151.01986754966887" x2="151.01986754966887" y1="273.33333333333337" y2="540.0" /><line stroke="gray" stroke-width="1" x1="154.63576158940396" x2="154.63576158940396" y1="273.33333333333337" y2="540.0" /><line stroke="gray" stroke-width="1" x1="158.25165562913907" x2="158.25165562913907" y1="273.33333333333337" y2="540.0" /><line stroke="gray" stroke-width="1" x1="161.86754966887418" x2="161.86754966887418" y1="273.33333333333337" y2="540.0" /><line stroke="gray" stroke-width="1" x1="165.48344370860926" x2="165.48344370860926" y1="273.33333333333337" y2="540.0" /><line stroke="gray" stroke-width="1" x1="169.09933774834437" x2="169.09933774834437" y1="273.33333333333337" y2="540.0" /><line stroke="gray" stroke-width="1" x1="172.71523178807945" x2="172.71523178807945" y1="273.33333333333337" y2="540.0" /><line stroke="gray" stroke-width="1" x1="176.33112582781456" x2="176.33112582781456" y1="273.33333333333337" y2="540.0" /><line stroke="gray" stroke-width="1" x1="179.94701986754967" x2="179.94701986754967" y1="273.33333333333337" y2="540.0" /><line stroke="gray" stroke-width="1" x1="183.56291390728475" x2="183.56291390728475" y1="273.33333333333337" y2="540.0" /><line stroke="gray" stroke-width="1" x1="187.17880794701986" x2="187.17880794701986" y1="273.33333333333337" y2="540.0" /><line stroke="gray" stroke-width="1" x1="190.79470198675494" x2="190.79470198675494" y1="273.33333333333337" y2="540.0" /><line stroke="gray" stroke-width="1" x1="194.41059602649005" x2="194.41059602649005" y1="273.33333333333337" y2="540.0" /><line stroke="gray" stroke-width="1" x1="198.02649006622516" x2="198.02649006622516" y1="273.33333333333337" y2="540.0" /><line stroke="gray" stroke-width="1" x1="201.64238410596025" x2="201.64238410596025" y1="273.33333333333337" y2="540.0" /><line stroke="gray" stroke-width="1" x1="205.25827814569536" x2="205.25827814569536" y1="273.33333333333337" y2="540.0" /><line stroke="gray" stroke-width="1" x1="208.87417218543047" x2="208.87417218543047" y1="273.33333333333337" y2="540.0" /><line stroke="gray" stroke-width="1" x1="212.49006622516555" x2="212.49006622516555" y1="273.33333333333337" y2="540.0" /><line stroke="gray" stroke-width="1" x1="216.10596026490066" x2="216.10596026490066" y1="273.33333333333337" y2="540.0" /><line stroke="gray" stroke-width="1" x1="219.72185430463574" x2="219.72185430463574" y1="273.33333333333337" y2="540.0" /><line stroke="gray" stroke-width="1" x1="223.33774834437085" x2="223.33774834437085" y1="273.33333333333337" y2="540.0" /><line stroke="gray" stroke-width="1" x1="226.95364238410596" x2="226.95364238410596" y1="273.33333333333337" y2="540.0" /><line stroke="gray" stroke-width="1" x1="230.56953642384104" x2="230.56953642384104" y1="273.33333333333337" y2="540.0" /><line stroke="gray" stroke-width="1" x1="234.18543046357615" x2="234.18543046357615" y1="273.33333333333337" y2="540.0" /><line stroke="gray" stroke-width="1" x1="237.80132450331124" x2="237.80132450331124" y1="273.33333333333337" y2="540.0" /><line stroke="gray" stroke-width="1" x1="241.41721854304635" x2="241.41721854304635" y1="273.33333333333337" y2="540.0" /><line stroke="gray" stroke-width="1" x1="245.03311258278146" x2="245.03311258278146" y1="273.33333333333337" y2="540.0" /><line stroke="gray" stroke-width="1" x1="248.64900662251654" x2="248.64900662251654" y1="273.33333333333337" y2="540.0" /><line stroke="gray" stroke-width="1" x1="252.26490066225165" x2="252.26490066225165" y1="273.33333333333337" y2="540.0" /><line stroke="gray" stroke-width="1" x1="255.88079470198673" x2="255.88079470198673" y1="273.33333333333337" y2="540.0" /><line stroke="gray" stroke-width="1" x1="259.49668874172187" x2="259.49668874172187" y1="273.33333333333337" y2="540.0" /><line stroke="gray" stroke-width="1" x1="263.1125827814569" x2="263.1125827814569" y1="273.33333333333337" y2="540.0" /><line stroke="gray" stroke-width="1" x1="266.72847682119203" x2="266.72847682119203" y1="273.33333333333337" y2="540.0" /><line stroke="gray" stroke-width="1" x1="270.34437086092714" x2="270.34437086092714" y1="273.33333333333337" y2="540.0" /><line stroke="gray" stroke-width="1" x1="273.96026490066225" x2="273.96026490066225" y1="273.33333333333337" y2="540.0" /><line stroke="gray" stroke-width="1" x1="277.57615894039736" x2="277.57615894039736" y1="273.33333333333337" y2="540.0" /><line stroke="gray" stroke-width="1" x1="281.1920529801324" x2="281.1920529801324" y1="273.33333333333337" y2="540.0" /><line stroke="gray" stroke-width="1" x1="284.8079470198675" x2="284.8079470198675" y1="273.33333333333337" y2="540.0" /><line stroke="gray" stroke-width="1" x1="288.42384105960264" x2="288.42384105960264" y1="273.33333333333337" y2="540.0" /><line stroke="gray" stroke-width="1" x1="292.03973509933775" x2="292.03973509933775" y1="273.33333333333337" y2="540.0" /><line stroke="gray" stroke-width="1" x1="295.65562913907286" x2="295.65562913907286" y1="273.33333333333337" y2="540.0" /><line stroke="gray" stroke-width="1" x1="299.2715231788079" x2="299.2715231788079" y1="273.33333333333337" y2="540.0" /><line stroke="gray" stroke-width="1" x1="302.887417218543" x2="302.887417218543" y1="273.33333333333337" y2="540.0" /><line stroke="gray" stroke-width="1" x1="306.50331125827813" x2="306.50331125827813" y1="273.33333333333337" y2="540.0" /><line stroke="gray" stroke-width="1" x1="310.11920529801324" x2="310.11920529801324" y1="273.33333333333337" y2="540.0" /><line stroke="gray" stroke-width="1" x1="313.73509933774835" x2="313.73509933774835" y1="273.33333333333337" y2="540.0" /><line stroke="gray" stroke-width="1" x1="317.3509933774834" x2="317.3509933774834" y1="273.33333333333337" y2="540.0" /><line stroke="gray" stroke-width="1" x1="320.9668874172185" x2="320.9668874172185" y1="273.33333333333337" y2="540.0" /><line stroke="gray" stroke-width="1" x1="324.5827814569536" x2="324.5827814569536" y1="273.33333333333337" y2="540.0" /><line stroke="gray" stroke-width="1" x1="328.19867549668874" x2="328.19867549668874" y1="273.33333333333337" y2="540.0" /><line stroke="gray" stroke-width="1" x1="331.81456953642385" x2="331.81456953642385" y1="273.33333333333337" y2="540.0" /><line stroke="gray" stroke-width="1" x1="335.4304635761589" x2="335.4304635761589" y1="273.33333333333337" y2="540.0" /><line stroke="gray" stroke-width="1" x1="339.046357615894" x2="339.046357615894" y1="273.33333333333337" y2="540.0" /><line stroke="gray" stroke-width="1" x1="342.6622516556291" x2="342.6622516556291" y1="273.33333333333337" y2="540.0" /><line stroke="gray" stroke-width="1" x1="346.27814569536423" x2="346.27814569536423" y1="273.33333333333337" y2="540.0" /><line stroke="gray" stroke-width="1" x1="349.89403973509934" x2="349.89403973509934" y1="273.33333333333337" y2="540.0" /><line stroke="gray" stroke-width="1" x1="353.5099337748344" x2="353.5099337748344" y1="273.33333333333337" y2="540.0" /><line stroke="gray" stroke-width="1" x1="357.1258278145695" x2="357.1258278145695" y1="273.33333333333337" y2="540.0" /><line stroke="gray" stroke-width="1" x1="360.7417218543046" x2="360.7417218543046" y1="273.33333333333337" y2="540.0" /><line stroke="gray" stroke-width="1" x1="364.3576158940397" x2="364.3576158940397" y1="273.33333333333337" y2="540.0" /><line stroke="gray" stroke-width="1" x1="367.97350993377484" x2="367.97350993377484" y1="273.33333333333337" y2="540.0" /><line stroke="gray" stroke-width="1" x1="371.5894039735099" x2="371.5894039735099" y1="273.33333333333337" y2="540.0" /><line stroke="gray" stroke-width="1" x1="375.205298013245" x2="375.205298013245" y1="273.33333333333337" y2="540.0" /><line stroke="gray" stroke-width="1" x1="378.8211920529801" x2="378.8211920529801" y1="273.33333333333337" y2="540.0" /><line stroke="gray" stroke-width="1" x1="382.4370860927152" x2="382.4370860927152" y1="273.33333333333337" y2="540.0" /><line stroke="gray" stroke-width="1" x1="386.05298013245033" x2="386.05298013245033" y1="273.33333333333337" y2="540.0" /><line stroke="gray" stroke-width="1" x1="389.6688741721854" x2="389.6688741721854" y1="273.33333333333337" y2="540.0" /><line stroke="gray" stroke-width="1" x1="393.2847682119205" x2="393.2847682119205" y1="273.33333333333337" y2="540.0" /><line stroke="gray" stroke-width="1" x1="396.9006622516556" x2="396.9006622516556" y1="273.33333333333337" y2="540.0" /><line stroke="gray" stroke-width="1" x1="400.5165562913907" x2="400.5165562913907" y1="273.33333333333337" y2="540.0" /><line stroke="gray" stroke-width="1" x1="404.1324503311258" x2="404.1324503311258" y1="273.33333333333337" y2="540.0" /><line stroke="gray" stroke-width="1" x1="407.74834437086093" x2="407.74834437086093" y1="273.33333333333337" y2="540.0" /><line stroke="gray" stroke-width="1" x1="411.364238410596" x2="411.364238410596" y1="273.33333333333337" y2="540.0" /><line stroke="gray" stroke-width="1" x1="414.9801324503311" x2="414.9801324503311" y1="273.33333333333337" y2="540.0" /><line stroke="gray" stroke-width="1" x1="418.5960264900662" x2="418.5960264900662" y1="273.33333333333337" y2="540.0" /><line stroke="gray" stroke-width="1" x1="422.2119205298013" x2="422.2119205298013" y1="273.33333333333337" y2="540.0" /><line stroke="gray" stroke-width="1" x1="425.82781456953643" x2="425.82781456953643" y1="273.33333333333337" y2="540.0" /><line stroke="gray" stroke-width="1" x1="429.4437086092715" x2="429.4437086092715" y1="273.33333333333337" y2="540.0" /><line stroke="gray" stroke-width="1" x1="433.0596026490066" x2="433.0596026490066" y1="273.33333333333337" y2="540.0" /><line stroke="gray" stroke-width="1" x1="436.6754966887417" x2="436.6754966887417" y1="273.33333333333337" y2="540.0" /><line stroke="gray" stroke-width="1" x1="440.2913907284768" x2="440.2913907284768" y1="273.33333333333337" y2="540.0" /><line stroke="gray" stroke-width="1" x1="443.9072847682119" x2="443.9072847682119" y1="273.33333333333337" y2="540.0" /><line stroke="gray" stroke-width="1" x1="447.523178807947" x2="447.523178807947" y1="273.33333333333337" y2="540.0" /><line stroke="gray" stroke-width="1" x1="451.1390728476821" x2="451.1390728476821" y1="273.33333333333337" y2="540.0" /><line stroke="gray" stroke-width="1" x1="454.7549668874172" x2="454.7549668874172" y1="273.33333333333337" y2="540.0" /><line stroke="gray" stroke-width="1" x1="458.3708609271523" x2="458.3708609271523" y1="273.33333333333337" y2="540.0" /><line stroke="gray" stroke-width="1" x1="461.9867549668874" x2="461.9867549668874" y1="273.33333333333337" y2="540.0" /><line stroke="gray" stroke-width="1" x1="465.60264900662247" x2="465.60264900662247" y1="273.33333333333337" y2="540.0" /><line stroke="gray" stroke-width="1" x1="469.2185430463576" x2="469.2185430463576" y1="273.33333333333337" y2="540.0" /><line stroke="gray" stroke-width="1" x1="472.8344370860927" x2="472.8344370860927" y1="273.33333333333337" y2="540.0" /><line stroke="gray" stroke-width="1" x1="476.4503311258278" x2="476.4503311258278" y1="273.33333333333337" y2="540.0" /><line stroke="gray" stroke-width="1" x1="480.0662251655629" x2="480.0662251655629" y1="273.33333333333337" y2="540.0" /><line stroke="gray" stroke-width="1" x1="483.68211920529797" x2="483.68211920529797" y1="273.33333333333337" y2="540.0" /><line stroke="gray" stroke-width="1" x1="487.2980132450331" x2="487.2980132450331" y1="273.33333333333337" y2="540.0" /><line stroke="gray" stroke-width="1" x1="490.9139072847682" x2="490.9139072847682" y1="273.33333333333337" y2="540.0" /><line stroke="gray" stroke-width="1" x1="494.5298013245033" x2="494.5298013245033" y1="273.33333333333337" y2="540.0" /><line stroke="gray" stroke-width="1" x1="498.1456953642384" x2="498.1456953642384" y1="273.33333333333337" y2="540.0" /><line stroke="gray" stroke-width="1" x1="501.76158940397346" x2="501.76158940397346" y1="273.33333333333337" y2="540.0" /><line stroke="gray" stroke-width="1" x1="505.37748344370857" x2="505.37748344370857" y1="273.33333333333337" y2="540.0" /><line stroke="gray" stroke-width="1" x1="508.9933774834437" x2="508.9933774834437" y1="273.33333333333337" y2="540.0" /><line stroke="gray" stroke-width="1" x1="512.6092715231788" x2="512.6092715231788" y1="273.33333333333337" y2="540.0" /><line stroke="gray" stroke-width="1" x1="516.2251655629138" x2="516.2251655629138" y1="273.33333333333337" y2="540.0" /><line stroke="gray" stroke-width="1" x1="519.841059602649" x2="519.841059602649" y1="273.33333333333337" y2="540.0" /><line stroke="gray" stroke-width="1" x1="523.4569536423841" x2="523.4569536423841" y1="273.33333333333337" y2="540.0" /><line stroke="gray" stroke-width="1" x1="527.0728476821192" x2="527.0728476821192" y1="273.33333333333337" y2="540.0" /><line stroke="gray" stroke-width="1" x1="530.6887417218543" x2="530.6887417218543" y1="273.33333333333337" y2="540.0" /><line stroke="gray" stroke-width="1" x1="534.3046357615893" x2="534.3046357615893" y1="273.33333333333337" y2="540.0" /><line stroke="gray" stroke-width="1" x1="537.9205298013245" x2="537.9205298013245" y1="273.33333333333337" y2="540.0" /><line stroke="gray" stroke-width="1" x1="541.5364238410596" x2="541.5364238410596" y1="273.33333333333337" y2="540.0" /><line stroke="gray" stroke-width="1" x1="545.1523178807947" x2="545.1523178807947" y1="273.33333333333337" y2="540.0" /><line stroke="gray" stroke-width="1" x1="548.7682119205298" x2="548.7682119205298" y1="273.33333333333337" y2="540.0" /><line stroke="gray" stroke-width="1" x1="552.3841059602648" x2="552.3841059602648" y1="273.33333333333337" y2="540.0" /><line stroke="gray" stroke-width="1" x1="556.0" x2="556.0" y1="273.33333333333337" y2="540.0" /><rect fill="blue" height="21.333333333333336" width="495.3774834437086" x="60.62251655629139" y="300.00000000000006" /><text fill="white" font-size="10" x="65.62251655629139" y="310.66666666666674">Task 1</text><rect fill="none" height="480.0" stroke="red" stroke-width="1" width="234.0" x="556.0" y="60.0" /><rect fill="lightgrey" height="53.333333333333336" stroke="black" stroke-width="1" width="234.0" x="556.0" y="60.0" /><line stroke="black" stroke-width="1" x1="790.0" x2="790.0" y1="60.0" y2="113.33333333333334" /><text dominant-baseline="middle" font-size="10" text-anchor="middle" x="673.0" y="86.66666666666667">2025</text><rect fill="lightgrey" height="53.333333333333336" stroke="black" stroke-width="1" width="234.0" x="556.0" y="113.33333333333334" /><line stroke="black" stroke-width="1" x1="587.8591549295775" x2="587.8591549295775" y1="113.33333333333334" y2="166.66666666666669" /><text dominant-baseline="middle" font-size="10" text-anchor="middle" x="571.9295774647887" y="140.0">J</text><line stroke="black" stroke-width="1" x1="621.9154929577464" x2="621.9154929577464" y1="113.33333333333334" y2="166.66666666666669" /><text dominant-baseline="middle" font-size="10" text-anchor="middle" x="604.887323943662" y="140.0">J</text><line stroke="black" stroke-width="1" x1="655.9718309859155" x2="655.9718309859155" y1="113.33333333333334" y2="166.66666666666669" /><text dominant-baseline="middle" font-size="10" text-anchor="middle" x="638.943661971831" y="140.0">A</text><line stroke="black" stroke-width="1" x1="688.9295774647887" x2="688.9295774647887" y1="113.33333333333334" y2="166.66666666666669" /><text dominant-baseline="middle" font-size="10" text-anchor="middle" x="672.4507042253522" y="140.0">S</text><line stroke="black" stroke-width="1" x1="722.9859154929577" x2="722.9859154929577" y1="113.33333333333334" y2="166.66666666666669" /><text dominant-baseline="middle" font-size="10" text-anchor="middle" x="705.9577464788732" y="140.0">O</text><line stroke="black" stroke-width="1" x1="755.943661971831" x2="755.943661971831" y1="113.33333333333334" y2="166.66666666666669" /><text dominant-baseline="middle" font-size="10" text-anchor="middle" x="739.4647887323944" y="140.0">N</text><line stroke="black" stroke-width="1" x1="790.0" x2="790.0" y1="113.33333333333334" y2="166.66666666666669" /><text dominant-baseline="middle" font-size="10" text-anchor="middle" x="772.9718309859155" y="140.0">D</text><rect fill="lightgrey" height="53.333333333333336" stroke="black" stroke-width="1" width="234.0" x="556.0" y="166.66666666666669" /><line stroke="black" stroke-width="1" x1="563.6901408450705" x2="563.6901408450705" y1="166.66666666666669" y2="220.00000000000003" /><line stroke="black" stroke-width="1" x1="571.3802816901408" x2="571.3802816901408" y1="166.66666666666669" y2="220.00000000000003" /><line stroke="black" stroke-width="1" x1="579.0704225352113" x2="579.0704225352113" y1="166.66666666666669" y2="220.00000000000003" /><line stroke="black" stroke-width="1" x1="586.7605633802817" x2="586.7605633802817" y1="166.66666666666669" y2="220.00000000000003" /><line stroke="black" stroke-width="1" x1="594.4507042253521" x2="594.4507042253521" y1="166.66666666666669" y2="220.00000000000003" /><line stroke="black" stroke-width="1" x1="602.1408450704225" x2="602.1408450704225" y1="166.66666666666669" y2="220.00000000000003" /><line stroke="black" stroke-width="1" x1="609.830985915493" x2="609.830985915493" y1="166.66666666666669" y2="220.00000000000003" /><line stroke="black" stroke-width="1" x1="617.5211267605633" x2="617.5211267605633" y1="166.66666666666669" y2="220.00000000000003" /><line stroke="black" stroke-width="1" x1="625.2112676056338" x2="625.2112676056338" y1="166.66666666666669" y2="220.00000000000003" /><line stroke="black" stroke-width="1" x1="632.9014084507043" x2="632.9014084507043" y1="166.66666666666669" y2="220.00000000000003" /><line stroke="black" stroke-width="1" x1="640.5915492957747" x2="640.5915492957747" y1="166.66666666666669" y2="220.00000000000003" /><line stroke="black" stroke-width="1" x1="648.2816901408451" x2="648.2816901408451" y1="166.66666666666669" y2="220.00000000000003" /><line stroke="black" stroke-width="1" x1="655.9718309859155" x2="655.9718309859155" y1="166.66666666666669" y2="220.00000000000003" /><line stroke="black" stroke-width="1" x1="663.661971830986" x2="663.661971830986" y1="166.66666666666669" y2="220.00000000000003" /><line stroke="black" stroke-width="1" x1="671.3521126760563" x2="671.3521126760563" y1="166.66666666666669" y2="220.00000000000003" /><line stroke="black" stroke-width="1" x1="679.0422535211268" x2="679.0422535211268" y1="166.66666666666669" y2="220.00000000000003" /><line stroke="black" stroke-width="1" x1="686.7323943661972" x2="686.7323943661972" y1="166.66666666666669" y2="220.00000000000003" /><line stroke="black" stroke-width="1" x1="694.4225352112676" x2="694.4225352112676" y1="166.66666666666669" y2="220.00000000000003" /><line stroke="black" stroke-width="1" x1="702.112676056338" x2="702.112676056338" y1="166.66666666666669" y2="220.00000000000003" /><line stroke="black" stroke-width="1" x1="709.8028169014085" x2="709.8028169014085" y1="166.66666666666669" y2="220.00000000000003" /><line stroke="black" stroke-width="1" x1="717.4929577464789" x2="717.4929577464789" y1="166.66666666666669" y2="220.00000000000003" /><line stroke="black" stroke-width="1" x1="725.1830985915493" x2="725.1830985915493" y1="166.66666666666669" y2="220.00000000000003" /><line stroke="black" stroke-width="1" x1="732.8732394366198" x2="732.8732394366198" y1="166.66666666666669" y2="220.00000000000003" /><line stroke="black" stroke-width="1" x1="740.5633802816901" x2="740.5633802816901" y1="166.66666666666669" y2="220.00000000000003" /><line stroke="black" stroke-width="1" x1="748.2535211267606" x2="748.2535211267606" y1="166.66666666666669" y2="220.00000000000003" /><line stroke="black" stroke-width="1" x1="755.943661971831" x2="755.943661971831" y1="166.66666666666669" y2="220.00000000000003" /><line stroke="black" stroke-width="1" x1="763.6338028169014" x2="763.6338028169014" y1="166.66666666666669" y2="220.00000000000003" /><line stroke="black" stroke-width="1" x1="771.3239436619718" x2="771.3239436619718" y1="166.66666666666669" y2="220.00000000000003" /><line stroke="black" stroke-width="1" x1="779.0140845070423" x2="779.0140845070423" y1="166.66666666666669" y2="220.00000000000003" /><line stroke="black" stroke-width="1" x1="786.7042253521126" x2="786.7042253521126" y1="166.66666666666669" y2="220.00000000000003" /><rect fill="lightgrey" height="53.333333333333336" stroke="black" stroke-width="1" width="234.0" x="556.0" y="220.00000000000003" /><rect fill="none" height="266.6666666666667" stroke="purple" stroke-width="1" width="234.0" x="556.0" y="273.33333333333337" /><line stroke="gray" stroke-width="1" x1="556.0" x2="790.0" y1="273.33333333333337" y2="273.33333333333337" /><line stroke="gray" stroke-width="1" x1="556.0" x2="790.0" y1="300.00000000000006" y2="300.00000000000006" /><line stroke="gray" stroke-width="1" x1="556.0" x2="790.0" y1="326.6666666666667" y2="326.6666666666667" /><line stroke="gray" stroke-width="1" x1="556.0" x2="790.0" y1="353.33333333333337" y2="353.33333333333337" /><line stroke="gray" stroke-width="1" x1="556.0" x2="790.0" y1="380.00000000000006" y2="380.00000000000006" /><line stroke="gray" stroke-width="1" x1="556.0" x2="790.0" y1="406.66666666666674" y2="406.66666666666674" /><line stroke="gray" stroke-width="1" x1="556.0" x2="790.0" y1="433.33333333333337" y2="433.33333333333337" /><line stroke="gray" stroke-width="1" x1="556.0" x2="790.0" y1="460.00000000000006" y2="460.00000000000006" /><line stroke="gray" stroke-width="1" x1="556.0" x2="790.0" y1="486.66666666666674" y2="486.66666666666674" /><line stroke="gray" stroke-width="1" x1="556.0" x2="790.0" y1="513.3333333333334" y2="513.3333333333334" /><line stroke="gray" stroke-width="1" x1="556.0" x2="790.0" y1="540.0" y2="540.0" /><line stroke="gray" stroke-width="1" x1="790.0" x2="790.0" y1="273.33333333333337" y2="540.0" /><line stroke="gray" stroke-width="1" x1="587.8591549295775" x2="587.8591549295775" y1="273.33333333333337" y2="540.0" /><line stroke="gray" stroke-width="1" x1="621.9154929577464" x2="621.9154929577464" y1="273.33333333333337" y2="540.0" /><line stroke="gray" stroke-width="1" x1="655.9718309859155" x2="655.9718309859155" y1="273.33333333333337" y2="540.0" /><line stroke="gray" stroke-width="1" x1="688.9295774647887" x2="688.9295774647887" y1="273.33333333333337" y2="540.0" /><line stroke="gray" stroke-width="1" x1="722.9859154929577" x2="722.9859154929577" y1="273.33333333333337" y2="540.0" /><line stroke="gray" stroke-width="1" x1="755.943661971831" x2="755.943661971831" y1="273.33333333333337" y2="540.0" /><line stroke="gray" stroke-width="1" x1="790.0" x2="790.0" y1="273.33333333333337" y2="540.0" /><line stroke="gray" stroke-width="1" x1="563.6901408450705" x2="563.6901408450705" y1="273.33333333333337" y2="540.0" /><line stroke="gray" stroke-width="1" x1="571.3802816901408" x2="571.3802816901408" y1="273.33333333333337" y2="540.0" /><line stroke="gray" stroke-width="1" x1="579.0704225352113" x2="579.0704225352113" y1="273.33333333333337" y2="540.0" /><line stroke="gray" stroke-width="1" x1="586.7605633802817" x2="586.7605633802817" y1="273.33333333333337" y2="540.0" /><line stroke="gray" stroke-width="1" x1="594.4507042253521" x2="594.4507042253521" y1="273.33333333333337" y2="540.0" /><line stroke="gray" stroke-width="1" x1="602.1408450704225" x2="602.1408450704225" y1="273.33333333333337" y2="540.0" /><line stroke="gray" stroke-width="1" x1="609.830985915493" x2="609.830985915493" y1="273.33333333333337" y2="540.0" /><line stroke="gray" stroke-width="1" x1="617.5211267605633" x2="617.5211267605633" y1="273.33333333333337" y2="540.0" /><line stroke="gray" stroke-width="1" x1="625.2112676056338" x2="625.2112676056338" y1="273.33333333333337" y2="540.0" /><line stroke="gray" stroke-width="1" x1="632.9014084507043" x2="632.9014084507043" y1="273.33333333333337" y2="540.0" /><line stroke="gray" stroke-width="1" x1="640.5915492957747" x2="640.5915492957747" y1="273.33333333333337" y2="540.0" /><line stroke="gray" stroke-width="1" x1="648.2816901408451" x2="648.2816901408451" y1="273.33333333333337" y2="540.0" /><line stroke="gray" stroke-width="1" x1="655.9718309859155" x2="655.9718309859155" y1="273.33333333333337" y2="540.0" /><line stroke="gray" stroke-width="1" x1="663.661971830986" x2="663.661971830986" y1="273.33333333333337" y2="540.0" /><line stroke="gray" stroke-width="1" x1="671.3521126760563" x2="671.3521126760563" y1="273.33333333333337" y2="540.0" /><line stroke="gray" stroke-width="1" x1="679.0422535211268" x2="679.0422535211268" y1="273.33333333333337" y2="540.0" /><line stroke="gray" stroke-width="1" x1="686.7323943661972" x2="686.7323943661972" y1="273.33333333333337" y2="540.0" /><line stroke="gray" stroke-width="1" x1="694.4225352112676" x2="694.4225352112676" y1="273.33333333333337" y2="540.0" /><line stroke="gray" stroke-width="1" x1="702.112676056338" x2="702.112676056338" y1="273.33333333333337" y2="540.0" /><line stroke="gray" stroke-width="1" x1="709.8028169014085" x2="709.8028169014085" y1="273.33333333333337" y2="540.0" /><line stroke="gray" stroke-width="1" x1="717.4929577464789" x2="717.4929577464789" y1="273.33333333333337" y2="540.0" /><line stroke="gray" stroke-width="1" x1="725.1830985915493" x2="725.1830985915493" y1="273.33333333333337" y2="540.0" /><line stroke="gray" stroke-width="1" x1="732.8732394366198" x2="732.8732394366198" y1="273.33333333333337" y2="540.0" /><line stroke="gray" stroke-width="1" x1="740.5633802816901" x2="740.5633802816901" y1="273.33333333333337" y2="540.0" /><line stroke="gray" stroke-width="1" x1="748.2535211267606" x2="748.2535211267606" y1="273.33333333333337" y2="540.0" /><line stroke="gray" stroke-width="1" x1="755.943661971831" x2="755.943661971831" y1="273.33333333333337" y2="540.0" /><line stroke="gray" stroke-width="1" x1="763.6338028169014" x2="763.6338028169014" y1="273.33333333333337" y2="540.0" /><line stroke="gray" stroke-width="1" x1="771.3239436619718" x2="771.3239436619718" y1="273.33333333333337" y2="540.0" /><line stroke="gray" stroke-width="1" x1="779.0140845070423" x2="779.0140845070423" y1="273.33333333333337" y2="540.0" /><line stroke="gray" stroke-width="1" x1="786.7042253521126" x2="786.7042253521126" y1="273.33333333333337" y2="540.0" /><line stroke="gray" stroke-width="1" x1="557.0985915492957" x2="557.0985915492957" y1="273.33333333333337" y2="540.0" /><line stroke="gray" stroke-width="1" x1="558.1971830985915" x2="558.1971830985915" y1="273.33333333333337" y2="540.0" /><line stroke="gray" stroke-width="1" x1="559.2957746478874" x2="559.2957746478874" y1="273.33333333333337" y2="540.0" /><line stroke="gray" stroke-width="1" x1="560.3943661971831" x2="560.3943661971831" y1="273.33333333333337" y2="540.0" /><line stroke="gray" stroke-width="1" x1="561.4929577464789" x2="561.4929577464789" y1="273.33333333333337" y2="540.0" /><line stroke="gray" stroke-width="1" x1="562.5915492957746" x2="562.5915492957746" y1="273.33333333333337" y2="540.0" /><line stroke="gray" stroke-width="1" x1="563.6901408450705" x2="563.6901408450705" y1="273.33333333333337" y2="540.0" /><line stroke="gray" stroke-width="1" x1="564.7887323943662" x2="564.7887323943662" y1="273.33333333333337" y2="540.0" /><line stroke="gray" stroke-width="1" x1="565.887323943662" x2="565.887323943662" y1="273.33333333333337" y2="540.0" /><line stroke="gray" stroke-width="1" x1="566.9859154929577" x2="566.9859154929577" y1="273.33333333333337" y2="540.0" /><line stroke="gray" stroke-width="1" x1="568.0845070422536" x2="568.0845070422536" y1="273.33333333333337" y2="540.0" /><line stroke="gray" stroke-width="1" x1="569.1830985915493" x2="569.1830985915493" y1="273.33333333333337" y2="540.0" /><line stroke="gray" stroke-width="1" x1="570.2816901408451" x2="570.2816901408451" y1="273.33333333333337" y2="540.0" /><line stroke="gray" stroke-width="1" x1="571.3802816901408" x2="571.3802816901408" y1="273.33333333333337" y2="540.0" /><line stroke="gray" stroke-width="1" x1="572.4788732394367" x2="572.4788732394367" y1="273.33333333333337" y2="540.0" /><line stroke="gray" stroke-width="1" x1="573.5774647887324" x2="573.5774647887324" y1="273.33333333333337" y2="540.0" /><line stroke="gray" stroke-width="1" x1="574.6760563380282" x2="574.6760563380282" y1="273.33333333333337" y2="540.0" /><line stroke="gray" stroke-width="1" x1="575.7746478873239" x2="575.7746478873239" y1="273.33333333333337" y2="540.0" /><line stroke="gray" stroke-width="1" x1="576.8732394366198" x2="576.8732394366198" y1="273.33333333333337" y2="540.0" /><line stroke="gray" stroke-width="1" x1="577.9718309859155" x2="577.9718309859155" y1="273.33333333333337" y2="540.0" /><line stroke="gray" stroke-width="1" x1="579.0704225352113" x2="579.0704225352113" y1="273.33333333333337" y2="540.0" /><line stroke="gray" stroke-width="1" x1="580.169014084507" x2="580.169014084507" y1="273.33333333333337" y2="540.0" /><line stroke="gray" stroke-width="1" x1="581.2676056338029" x2="581.2676056338029" y1="273.33333333333337" y2="540.0" /><line stroke="gray" stroke-width="1" x1="582.3661971830986" x2="582.3661971830986" y1="273.33333333333337" y2="540.0" /><line stroke="gray" stroke-width="1" x1="583.4647887323944" x2="583.4647887323944" y1="273.33333333333337" y2="540.0" /><line stroke="gray" stroke-width="1" x1="584.5633802816901" x2="584.5633802816901" y1="273.33333333333337" y2="540.0" /><line stroke="gray" stroke-width="1" x1="585.661971830986" x2="585.661971830986" y1="273.33333333333337" y2="540.0" /><line stroke="gray" stroke-width="1" x1="586.7605633802817" x2="586.7605633802817" y1="273.33333333333337" y2="540.0" /><line stroke="gray" stroke-width="1" x1="587.8591549295775" x2="587.8591549295775" y1="273.33333333333337" y2="540.0" /><line stroke="gray" stroke-width="1" x1="588.9577464788732" x2="588.9577464788732" y1="273.33333333333337" y2="540.0" /><line stroke="gray" stroke-width="1" x1="590.056338028169" x2="590.056338028169" y1="273.33333333333337" y2="540.0" /><line stroke="gray" stroke-width="1" x1="591.1549295774648" x2="591.1549295774648" y1="273.33333333333337" y2="540.0" /><line stroke="gray" stroke-width="1" x1="592.2535211267606" x2="592.2535211267606" y1="273.33333333333337" y2="540.0" /><line stroke="gray" stroke-width="1" x1="593.3521126760563" x2="593.3521126760563" y1="273.33333333333337" y2="540.0" /><line stroke="gray" stroke-width="1" x1="594.4507042253521" x2="594.4507042253521" y1="273.33333333333337" y2="540.0" /><line stroke="gray" stroke-width="1" x1="595.5492957746479" x2="595.5492957746479" y1="273.33333333333337" y2="540.0" /><line stroke="gray" stroke-width="1" x1="596.6478873239437" x2="596.6478873239437" y1="273.33333333333337" y2="540.0" /><line stroke="gray" stroke-width="1" x1="597.7464788732394" x2="597.7464788732394" y1="273.33333333333337" y2="540.0" /><line stroke="gray" stroke-width="1" x1="598.8450704225352" x2="598.8450704225352" y1="273.33333333333337" y2="540.0" /><line stroke="gray" stroke-width="1" x1="599.943661971831" x2="599.943661971831" y1="273.33333333333337" y2="540.0" /><line stroke="gray" stroke-width="1" x1="601.0422535211268" x2="601.0422535211268" y1="273.33333333333337" y2="540.0" /><line stroke="gray" stroke-width="1" x1="602.1408450704225" x2="602.1408450704225" y1="273.33333333333337" y2="540.0" /><line stroke="gray" stroke-width="1" x1="603.2394366197183" x2="603.2394366197183" y1="273.33333333333337" y2="540.0" /><line stroke="gray" stroke-width="1" x1="604.3380281690141" x2="604.3380281690141" y1="273.33333333333337" y2="540.0" /><line stroke="gray" stroke-width="1" x1="605.4366197183099" x2="605.4366197183099" y1="273.33333333333337" y2="540.0" /><line stroke="gray" stroke-width="1" x1="606.5352112676056" x2="606.5352112676056" y1="273.33333333333337" y2="540.0" /><line stroke="gray" stroke-width="1" x1="607.6338028169014" x2="607.6338028169014" y1="273.33333333333337" y2="540.0" /><line stroke="gray" stroke-width="1" x1="608.7323943661972" x2="608.7323943661972" y1="273.33333333333337" y2="540.0" /><line stroke="gray" stroke-width="1" x1="609.830985915493" x2="609.830985915493" y1="273.33333333333337" y2="540.0" /><line stroke="gray" stroke-width="1" x1="610.9295774647887" x2="610.9295774647887" y1="273.33333333333337" y2="540.0" /><line stroke="gray" stroke-width="1" x1="612.0281690140845" x2="612.0281690140845" y1="273.33333333333337" y2="540.0" /><line stroke="gray" stroke-width="1" x1="613.1267605633802" x2="613.1267605633802" y1="273.33333333333337" y2="540.0" /><line stroke="gray" stroke-width="1" x1="614.2253521126761" x2="614.2253521126761" y1="273.33333333333337" y2="540.0" /><line stroke="gray" stroke-width="1" x1="615.3239436619718" x2="615.3239436619718" y1="273.33333333333337" y2="540.0" /><line stroke="gray" stroke-width="1" x1="616.4225352112676" x2="616.4225352112676" y1="273.33333333333337" y2="540.0" /><line stroke="gray" stroke-width="1" x1="617.5211267605633" x2="617.5211267605633" y1="273.33333333333337" y2="540.0" /><line stroke="gray" stroke-width="1" x1="618.6197183098592" x2="618.6197183098592" y1="273.33333333333337" y2="540.0" /><line stroke="gray" stroke-width="1" x1="619.7183098591549" x2="619.7183098591549" y1="273.33333333333337" y2="540.0" /><line stroke="gray" stroke-width="1" x1="620.8169014084507" x2="620.8169014084507" y1="273.33333333333337" y2="540.0" /><line stroke="gray" stroke-width="1" x1="621.9154929577464" x2="621.9154929577464" y1="273.33333333333337" y2="540.0" /><line stroke="gray" stroke-width="1" x1="623.0140845070423" x2="623.0140845070423" y1="273.33333333333337" y2="540.0" /><line stroke="gray" stroke-width="1" x1="624.112676056338" x2="624.112676056338" y1="273.33333333333337" y2="540.0" /><line stroke="gray" stroke-width="1" x1="625.2112676056338" x2="625.2112676056338" y1="273.33333333333337" y2="540.0" /><line stroke="gray" stroke-width="1" x1="626.3098591549295" x2="626.3098591549295" y1="273.33333333333337" y2="540.0" /><line stroke="gray" stroke-width="1" x1="627.4084507042254" x2="627.4084507042254" y1="273.33333333333337" y2="540.0" /><line stroke="gray" stroke-width="1" x1="628.5070422535211" x2="628.5070422535211" y1="273.33333333333337" y2="540.0" /><line stroke="gray" stroke-width="1" x1="629.6056338028169" x2="629.6056338028169" y1="273.33333333333337" y2="540.0" /><line stroke="gray" stroke-width="1" x1="630.7042253521126" x2="630.7042253521126" y1="273.33333333333337" y2="540.0" /><line stroke="gray" stroke-width="1" x1="631.8028169014085" x2="631.8028169014085" y1="273.33333333333337" y2="540.0" /><line stroke="gray" stroke-width="1" x1="632.9014084507043" x2="632.9014084507043" y1="273.33333333333337" y2="540.0" /><line stroke="gray" stroke-width="1" x1="634.0" x2="634.0" y1="273.33333333333337" y2="540.0" /><line stroke="gray" stroke-width="1" x1="635.0985915492957" x2="635.0985915492957" y1="273.33333333333337" y2="540.0" /><line stroke="gray" stroke-width="1" x1="636.1971830985915" x2="636.1971830985915" y1="273.33333333333337" y2="540.0" /><line stroke="gray" stroke-width="1" x1="637.2957746478874" x2="637.2957746478874" y1="273.33333333333337" y2="540.0" /><line stroke="gray" stroke-width="1" x1="638.3943661971831" x2="638.3943661971831" y1="273.33333333333337" y2="540.0" /><line stroke="gray" stroke-width="1" x1="639.4929577464789" x2="639.4929577464789" y1="273.33333333333337" y2="540.0" /><line stroke="gray" stroke-width="1" x1="640.5915492957747" x2="640.5915492957747" y1="273.33333333333337" y2="540.0" /><line stroke="gray" stroke-width="1" x1="641.6901408450705" x2="641.6901408450705" y1="273.33333333333337" y2="540.0" /><line stroke="gray" stroke-width="1" x1="642.7887323943662" x2="642.7887323943662" y1="273.33333333333337" y2="540.0" /><line stroke="gray" stroke-width="1" x1="643.887323943662" x2="643.887323943662" y1="273.33333333333337" y2="540.0" /><line stroke="gray" stroke-width="1" x1="644.9859154929577" x2="644.9859154929577" y1="273.33333333333337" y2="540.0" /><line stroke="gray" stroke-width="1" x1="646.0845070422536" x2="646.0845070422536" y1="273.33333333333337" y2="540.0" /><line stroke="gray" stroke-width="1" x1="647.1830985915493" x2="647.1830985915493" y1="273.33333333333337" y2="540.0" /><line stroke="gray" stroke-width="1" x1="648.2816901408451" x2="648.2816901408451" y1="273.33333333333337" y2="540.0" /><line stroke="gray" stroke-width="1" x1="649.3802816901408" x2="649.3802816901408" y1="273.33333333333337" y2="540.0" /><line stroke="gray" stroke-width="1" x1="650.4788732394367" x2="650.4788732394367" y1="273.33333333333337" y2="540.0" /><line stroke="gray" stroke-width="1" x1="651.5774647887324" x2="651.5774647887324" y1="273.33333333333337" y2="540.0" /><line stroke="gray" stroke-width="1" x1="652.6760563380282" x2="652.6760563380282" y1="273.33333333333337" y2="540.0" /><line stroke="gray" stroke-width="1" x1="653.7746478873239" x2="653.7746478873239" y1="273.33333333333337" y2="540.0" /><line stroke="gray" stroke-width="1" x1="654.8732394366198" x2="654.8732394366198" y1="273.33333333333337" y2="540.0" /><line stroke="gray" stroke-width="1" x1="655.9718309859155" x2="655.9718309859155" y1="273.33333333333337" y2="540.0" /><line stroke="gray" stroke-width="1" x1="657.0704225352113" x2="657.0704225352113" y1="273.33333333333337" y2="540.0" /><line stroke="gray" stroke-width="1" x1="658.169014084507" x2="658.169014084507" y1="273.33333333333337" y2="540.0" /><line stroke="gray" stroke-width="1" x1="659.2676056338029" x2="659.2676056338029" y1="273.33333333333337" y2="540.0" /><line stroke="gray" stroke-width="1" x1="660.3661971830986" x2="660.3661971830986" y1="273.33333333333337" y2="540.0" /><line stroke="gray" stroke-width="1" x1="661.4647887323944" x2="661.4647887323944" y1="273.33333333333337" y2="540.0" /><line stroke="gray" stroke-width="1" x1="662.5633802816901" x2="662.5633802816901" y1="273.33333333333337" y2="540.0" /><line stroke="gray" stroke-width="1" x1="663.661971830986" x2="663.661971830986" y1="273.33333333333337" y2="540.0" /><line stroke="gray" stroke-width="1" x1="664.7605633802817" x2="664.7605633802817" y1="273.33333333333337" y2="540.0" /><line stroke="gray" stroke-width="1" x1="665.8591549295775" x2="665.8591549295775" y1="273.33333333333337" y2="540.0" /><line stroke="gray" stroke-width="1" x1="666.9577464788732" x2="666.9577464788732" y1="273.33333333333337" y2="540.0" /><line stroke="gray" stroke-width="1" x1="668.056338028169" x2="668.056338028169" y1="273.33333333333337" y2="540.0" /><line stroke="gray" stroke-width="1" x1="669.1549295774648" x2="669.1549295774648" y1="273.33333333333337" y2="540.0" /><line stroke="gray" stroke-width="1" x1="670.2535211267606" x2="670.2535211267606" y1="273.33333333333337" y2="540.0" /><line stroke="gray" stroke-width="1" x1="671.3521126760563" x2="671.3521126760563" y1="273.33333333333337" y2="540.0" /><line stroke="gray" stroke-width="1" x1="672.4507042253522" x2="672.4507042253522" y1="273.33333333333337" y2="540.0" /><line stroke="gray" stroke-width="1" x1="673.5492957746479" x2="673.5492957746479" y1="273.33333333333337" y2="540.0" /><line stroke="gray" stroke-width="1" x1="674.6478873239437" x2="674.6478873239437" y1="273.33333333333337" y2="540.0" /><line stroke="gray" stroke-width="1" x1="675.7464788732394" x2="675.7464788732394" y1="273.33333333333337" y2="540.0" /><line stroke="gray" stroke-width="1" x1="676.8450704225352" x2="676.8450704225352" y1="273.33333333333337" y2="540.0" /><line stroke="gray" stroke-width="1" x1="677.943661971831" x2="677.943661971831" y1="273.33333333333337" y2="540.0" /><line stroke="gray" stroke-width="1" x1="679.0422535211268" x2="679.0422535211268" y1="273.33333333333337" y2="540.0" /><line stroke="gray" stroke-width="1" x1="680.1408450704225" x2="680.1408450704225" y1="273.33333333333337" y2="540.0" /><line stroke="gray" stroke-width="1" x1="681.2394366197183" x2="681.2394366197183" y1="273.33333333333337" y2="540.0" /><line stroke="gray" stroke-width="1" x1="682.3380281690141" x2="682.3380281690141" y1="273.33333333333337" y2="540.0" /><line stroke="gray" stroke-width="1" x1="683.4366197183099" x2="683.4366197183099" y1="273.33333333333337" y2="540.0" /><line stroke="gray" stroke-width="1" x1="684.5352112676056" x2="684.5352112676056" y1="273.33333333333337" y2="540.0" /><line stroke="gray" stroke-width="1" x1="685.6338028169014" x2="685.6338028169014" y1="273.33333333333337" y2="540.0" /><line stroke="gray" stroke-width="1" x1="686.7323943661972" x2="686.7323943661972" y1="273.33333333333337" y2="540.0" /><line stroke="gray" stroke-width="1" x1="687.830985915493" x2="687.830985915493" y1="273.33333333333337" y2="540.0" /><line stroke="gray" stroke-width="1" x1="688.9295774647887" x2="688.9295774647887" y1="273.33333333333337" y2="540.0" /><line stroke="gray" stroke-width="1" x1="690.0281690140845" x2="690.0281690140845" y1="273.33333333333337" y2="540.0" /><line stroke="gray" stroke-width="1" x1="691.1267605633802" x2="691.1267605633802" y1="273.33333333333337" y2="540.0" /><line stroke="gray" stroke-width="1" x1="692.2253521126761" x2="692.2253521126761" y1="273.33333333333337" y2="540.0" /><line stroke="gray" stroke-width="1" x1="693.3239436619718" x2="693.3239436619718" y1="273.33333333333337" y2="540.0" /><line stroke="gray" stroke-width="1" x1="694.4225352112676" x2="694.4225352112676" y1="273.33333333333337" y2="540.0" /><line stroke="gray" stroke-width="1" x1="695.5211267605634" x2="695.5211267605634" y1="273.33333333333337" y2="540.0" /><line stroke="gray" stroke-width="1" x1="696.6197183098592" x2="696.6197183098592" y1="273.33333333333337" y2="540.0" /><line stroke="gray" stroke-width="1" x1="697.7183098591549" x2="697.7183098591549" y1="273.33333333333337" y2="540.0" /><line stroke="gray" stroke-width="1" x1="698.8169014084507" x2="698.8169014084507" y1="273.33333333333337" y2="540.0" /><line stroke="gray" stroke-width="1" x1="699.9154929577464" x2="699.9154929577464" y1="273.33333333333337" y2="540.0" /><line stroke="gray" stroke-width="1" x1="701.0140845070423" x2="701.0140845070423" y1="273.33333333333337" y2="540.0" /><line stroke="gray" stroke-width="1" x1="702.112676056338" x2="702.112676056338" y1="273.33333333333337" y2="540.0" /><line stroke="gray" stroke-width="1" x1="703.2112676056338" x2="703.2112676056338" y1="273.33333333333337" y2="540.0" /><line stroke="gray" stroke-width="1" x1="704.3098591549297" x2="704.3098591549297" y1="273.33333333333337" y2="540.0" /><line stroke="gray" stroke-width="1" x1="705.4084507042254" x2="705.4084507042254" y1="273.33333333333337" y2="540.0" /><line stroke="gray" stroke-width="1" x1="706.5070422535211" x2="706.5070422535211" y1="273.33333333333337" y2="540.0" /><line stroke="gray" stroke-width="1" x1="707.6056338028169" x2="707.6056338028169" y1="273.33333333333337" y2="540.0" /><line stroke="gray" stroke-width="1" x1="708.7042253521126" x2="708.7042253521126" y1="273.33333333333337" y2="540.0" /><line stroke="gray" stroke-width="1" x1="709.8028169014085" x2="709.8028169014085" y1="273.33333333333337" y2="540.0" /><line stroke="gray" stroke-width="1" x1="710.9014084507043" x2="710.9014084507043" y1="273.33333333333337" y2="540.0" /><line stroke="gray" stroke-width="1" x1="712.0" x2="712.0" y1="273.33333333333337" y2="540.0" /><line stroke="gray" stroke-width="1" x1="713.0985915492957" x2="713.0985915492957" y1="273.33333333333337" y2="540.0" /><line stroke="gray" stroke-width="1" x1="714.1971830985915" x2="714.1971830985915" y1="273.33333333333337" y2="540.0" /><line stroke="gray" stroke-width="1" x1="715.2957746478874" x2="715.2957746478874" y1="273.33333333333337" y2="540.0" /><line stroke="gray" stroke-width="1" x1="716.3943661971831" x2="716.3943661971831" y1="273.33333333333337" y2="540.0" /><line stroke="gray" stroke-width="1" x1="717.4929577464789" x2="717.4929577464789" y1="273.33333333333337" y2="540.0" /><line stroke="gray" stroke-width="1" x1="718.5915492957747" x2="718.5915492957747" y1="273.33333333333337" y2="540.0" /><line stroke="gray" stroke-width="1" x1="719.6901408450705" x2="719.6901408450705" y1="273.33333333333337" y2="540.0" /><line stroke="gray" stroke-width="1" x1="720.7887323943662" x2="720.7887323943662" y1="273.33333333333337" y2="540.0" /><line stroke="gray" stroke-width="1" x1="721.887323943662" x2="721.887323943662" y1="273.33333333333337" y2="540.0" /><line stroke="gray" stroke-width="1" x1="722.9859154929577" x2="722.9859154929577" y1="273.33333333333337" y2="540.0" /><line stroke="gray" stroke-width="1" x1="724.0845070422536" x2="724.0845070422536" y1="273.33333333333337" y2="540.0" /><line stroke="gray" stroke-width="1" x1="725.1830985915493" x2="725.1830985915493" y1="273.33333333333337" y2="540.0" /><line stroke="gray" stroke-width="1" x1="726.2816901408451" x2="726.2816901408451" y1="273.33333333333337" y2="540.0" /><line stroke="gray" stroke-width="1" x1="727.3802816901409" x2="727.3802816901409" y1="273.33333333333337" y2="540.0" /><line stroke="gray" stroke-width="1" x1="728.4788732394367" x2="728.4788732394367" y1="273.33333333333337" y2="540.0" /><line stroke="gray" stroke-width="1" x1="729.5774647887324" x2="729.5774647887324" y1="273.33333333333337" y2="540.0" /><line stroke="gray" stroke-width="1" x1="730.6760563380282" x2="730.6760563380282" y1="273.33333333333337" y2="540.0" /><line stroke="gray" stroke-width="1" x1="731.7746478873239" x2="731.7746478873239" y1="273.33333333333337" y2="540.0" /><line stroke="gray" stroke-width="1" x1="732.8732394366198" x2="732.8732394366198" y1="273.33333333333337" y2="540.0" /><line stroke="gray" stroke-width="1" x1="733.9718309859155" x2="733.9718309859155" y1="273.33333333333337" y2="540.0" /><line stroke="gray" stroke-width="1" x1="735.0704225352113" x2="735.0704225352113" y1="273.33333333333337" y2="540.0" /><line stroke="gray" stroke-width="1" x1="736.1690140845071" x2="736.1690140845071" y1="273.33333333333337" y2="540.0" /><line stroke="gray" stroke-width="1" x1="737.2676056338029" x2="737.2676056338029" y1="273.33333333333337" y2="540.0" /><line stroke="gray" stroke-width="1" x1="738.3661971830986" x2="738.3661971830986" y1="273.33333333333337" y2="540.0" /><line stroke="gray" stroke-width="1" x1="739.4647887323944" x2="739.4647887323944" y1="273.33333333333337" y2="540.0" /><line stroke="gray" stroke-width="1" x1="740.5633802816901" x2="740.5633802816901" y1="273.33333333333337" y2="540.0" /><line stroke="gray" stroke-width="1" x1="741.661971830986" x2="741.661971830986" y1="273.33333333333337" y2="540.0" /><line stroke="gray" stroke-width="1" x1="742.7605633802817" x2="742.7605633802817" y1="273.33333333333337" y2="540.0" /><line stroke="gray" stroke-width="1" x1="743.8591549295775" x2="743.8591549295775" y1="273.33333333333337" y2="540.0" /><line stroke="gray" stroke-width="1" x1="744.9577464788732" x2="744.9577464788732" y1="273.33333333333337" y2="540.0" /><line stroke="gray" stroke-width="1" x1="746.056338028169" x2="746.056338028169" y1="273.33333333333337" y2="540.0" /><line stroke="gray" stroke-width="1" x1="747.1549295774648" x2="747.1549295774648" y1="273.33333333333337" y2="540.0" /><line stroke="gray" stroke-width="1" x1="748.2535211267606" x2="748.2535211267606" y1="273.33333333333337" y2="540.0" /><line stroke="gray" stroke-width="1" x1="749.3521126760563" x2="749.3521126760563" y1="273.33333333333337" y2="540.0" /><line stroke="gray" stroke-width="1" x1="750.4507042253522" x2="750.4507042253522" y1="273.33333333333337" y2="540.0" /><line stroke="gray" stroke-width="1" x1="751.5492957746479" x2="751.5492957746479" y1="273.33333333333337" y2="540.0" /><line stroke="gray" stroke-width="1" x1="752.6478873239437" x2="752.6478873239437" y1="273.33333333333337" y2="540.0" /><line stroke="gray" stroke-width="1" x1="753.7464788732394" x2="753.7464788732394" y1="273.33333333333337" y2="540.0" /><line stroke="gray" stroke-width="1" x1="754.8450704225352" x2="754.8450704225352" y1="273.33333333333337" y2="540.0" /><line stroke="gray" stroke-width="1" x1="755.943661971831" x2="755.943661971831" y1="273.33333333333337" y2="540.0" /><line stroke="gray" stroke-width="1" x1="757.0422535211268" x2="757.0422535211268" y1="273.33333333333337" y2="540.0" /><line stroke="gray" stroke-width="1" x1="758.1408450704225" x2="758.1408450704225" y1="273.33333333333337" y2="540.0" /><line stroke="gray" stroke-width="1" x1="759.2394366197184" x2="759.2394366197184" y1="273.33333333333337" y2="540.0" /><line stroke="gray" stroke-width="1" x1="760.3380281690141" x2="760.3380281690141" y1="273.33333333333337" y2="540.0" /><line stroke="gray" stroke-width="1" x1="761.4366197183099" x2="761.4366197183099" y1="273.33333333333337" y2="540.0" /><line stroke="gray" stroke-width="1" x1="762.5352112676056" x2="762.5352112676056" y1="273.33333333333337" y2="540.0" /><line stroke="gray" stroke-width="1" x1="763.6338028169014" x2="763.6338028169014" y1="273.33333333333337" y2="540.0" /><line stroke="gray" stroke-width="1" x1="764.7323943661972" x2="764.7323943661972" y1="273.33333333333337" y2="540.0" /><line stroke="gray" stroke-width="1" x1="765.830985915493" x2="765.830985915493" y1="273.33333333333337" y2="540.0" /><line stroke="gray" stroke-width="1" x1="766.9295774647887" x2="766.9295774647887" y1="273.33333333333337" y2="540.0" /><line stroke="gray" stroke-width="1" x1="768.0281690140845" x2="768.0281690140845" y1="273.33333333333337" y2="540.0" /><line stroke="gray" stroke-width="1" x1="769.1267605633802" x2="769.1267605633802" y1="273.33333333333337" y2="540.0" /><line stroke="gray" stroke-width="1" x1="770.2253521126761" x2="770.2253521126761" y1="273.33333333333337" y2="540.0" /><line stroke="gray" stroke-width="1" x1="771.3239436619718" x2="771.3239436619718" y1="273.33333333333337" y2="540.0" /><line stroke="gray" stroke-width="1" x1="772.4225352112676" x2="772.4225352112676" y1="273.33333333333337" y2="540.0" /><line stroke="gray" stroke-width="1" x1="773.5211267605634" x2="773.5211267605634" y1="273.33333333333337" y2="540.0" /><line stroke="gray" stroke-width="1" x1="774.6197183098592" x2="774.6197183098592" y1="273.33333333333337" y2="540.0" /><line stroke="gray" stroke-width="1" x1="775.7183098591549" x2="775.7183098591549" y1="273.33333333333337" y2="540.0" /><line stroke="gray" stroke-width="1" x1="776.8169014084507" x2="776.8169014084507" y1="273.33333333333337" y2="540.0" /><line stroke="gray" stroke-width="1" x1="777.9154929577464" x2="777.9154929577464" y1="273.33333333333337" y2="540.0" /><line stroke="gray" stroke-width="1" x1="779.0140845070423" x2="779.0140845070423" y1="273.33333333333337" y2="540.0" /><line stroke="gray" stroke-width="1" x1="780.112676056338" x2="780.112676056338" y1="273.33333333333337" y2="540.0" /><line stroke="gray" stroke-width="1" x1="781.2112676056338" x2="781.2112676056338" y1="273.33333333333337" y2="540.0" /><line stroke="gray" stroke-width="1" x1="782.3098591549297" x2="782.3098591549297" y1="273.33333333333337" y2="540.0" /><line stroke="gray" stroke-width="1" x1="783.4084507042254" x2="783.4084507042254" y1="273.33333333333337" y2="540.0" /><line stroke="gray" stroke-width="1" x1="784.5070422535211" x2="784.5070422535211" y1="273.33333333333337" y2="540.0" /><line stroke="gray" stroke-width="1" x1="785.6056338028169" x2="785.6056338028169" y1="273.33333333333337" y2="540.0" /><line stroke="gray" stroke-width="1" x1="786.7042253521126" x2="786.7042253521126" y1="273.33333333333337" y2="540.0" /><line stroke="gray" stroke-width="1" x1="787.8028169014085" x2="787.8028169014085" y1="273.33333333333337" y2="540.0" /><line stroke="gray" stroke-width="1" x1="788.9014084507043" x2="788.9014084507043" y1="273.33333333333337" y2="540.0" /><line stroke="gray" stroke-width="1" x1="790.0" x2="790.0" y1="273.33333333333337" y2="540.0" /><rect fill="blue" height="21.333333333333336" width="148.30985915492965" x="556.0" y="300.00000000000006" /><text fill="white" font-size="10" x="561.0" y="310.66666666666674">Task 1</text></svg>