<?xml version="1.0" encoding="utf-8" ?>
<svg baseProfile="full" height="600.0" version="1.1" width="800.0" xmlns="http://www.w3.org/2000/svg" xmlns:ev="http://www.w3.org/2001/xml-events" xmlns:xlink="http://www.w3.org/1999/xlink"><defs /><rect fill="white" height="600.0" stroke="black" stroke-width="2" width="800.0" x="0" y="0" /><rect fill="lightgray" height="50.0" stroke="black" stroke-width="1" width="780.0" x="10.0" y="10.0" /><text font-size="14" text-anchor="middle" x="400.0" y="35.0">trial 2</text><rect fill="lightgray" height="50.0" stroke="black" stroke-width="1" width="780.0" x="10.0" y="540.0" /><rect fill="none" height="480.0" stroke="blue" stroke-dasharray="4" stroke-width="1" width="780.0" x="10.0" y="60.0" /><rect fill="none" height="480.0" stroke="red" stroke-width="1" width="780.0" x="10.0" y="60.0" /><rect fill="lightgrey" height="53.333333333333336" stroke="black" stroke-width="1" width="780.0" x="10.0" y="60.0" /><text dominant-baseline="middle" font-size="10" text-anchor="middle" x="400.0" y="86.66666666666667">2025</text><rect fill="lightgrey" height="53.333333333333336" stroke="black" stroke-width="1" width="780.0" x="10.0" y="113.33333333333334" /><line stroke="black" stroke-width="1" x1="254.24242424242425" x2="254.24242424242425" y1="113.33333333333334" y2="166.66666666666669" /><text dominant-baseline="middle" font-size="10" text-anchor="middle" x="132.12121212121212" y="140.0">Jan</text><line stroke="black" stroke-width="1" x1="474.8484848484849" x2="474.8484848484849" y1="113.33333333333334" y2="166.66666666666669" /><text dominant-baseline="middle" font-size="10" text-anchor="middle" x="364.54545454545456" y="140.0">Feb</text><line stroke="black" stroke-width="1" x1="719.0909090909091" x2="719.0909090909091" y1="113.33333333333334" y2="166.66666666666669" /><text dominant-baseline="middle" font-size="10" text-anchor="middle" x="596.969696969697" y="140.0">Mar</text><text dominant-baseline="middle" font-size="10" text-anchor="middle" x="754.5454545454545" y="140.0">Apr</text><rect fill="lightgrey" height="53.333333333333336" stroke="black" stroke-width="1" width="780.0" x="10.0" y="166.66666666666669" /><line stroke="black" stroke-width="1" x1="49.39393939393939" x2="49.39393939393939" y1="166.66666666666669" y2="220.00000000000003" /><text dominant-baseline="middle" font-size="10" text-anchor="middle" x="29.696969696969695" y="193.33333333333334">01</text><line stroke="black" stroke-width="1" x1="104.54545454545455" x2="104.54545454545455" y1="166.66666666666669" y2="220.00000000000003" /><text dominant-baseline="middle" font-size="10" text-anchor="middle" x="76.96969696969697" y="193.33333333333334">02 (12)</text><line stroke="black" stroke-width="1" x1="159.6969696969697" x2="159.6969696969697" y1="166.66666666666669" y2="220.00000000000003" /><text dominant-baseline="middle" font-size="10" text-anchor="middle" x="132.12121212121212" y="193.33333333333334">03 (19)</text><line stroke="black" stroke-width="1" x1="214.84848484848484" x2="214.84848484848484" y1="166.66666666666669" y2="220.00000000000003" /><text dominant-baseline="middle" font-size="10" text-anchor="middle" x="187.27272727272725" y="193.33333333333334">04 (26)</text><line stroke="black" stroke-width="1" x1="270.0" x2="270.0" y1="166.66666666666669" y2="220.00000000000003" /><text dominant-baseline="middle" font-size="10" text-anchor="middle" x="242.42424242424244" y="193.33333333333334">05 (02)</text><line stroke="black" stroke-width="1" x1="325.1515151515151" x2="325.1515151515151" y1="166.66666666666669" y2="220.00000000000003" /><text dominant-baseline="middle" font-size="10" text-anchor="middle" x="297.57575757575756" y="193.33333333333334">06 (09)</text><line stroke="black" stroke-width="1" x1="380.3030303030303" x2="380.3030303030303" y1="166.66666666666669" y2="220.00000000000003" /><text dominant-baseline="middle" font-size="10" text-anchor="middle" x="352.72727272727275" y="193.33333333333334">07 (16)</text><line stroke="black" stroke-width="1" x1="435.45454545454544" x2="435.45454545454544" y1="166.66666666666669" y2="220.00000000000003" /><text dominant-baseline="middle" font-size="10" text-anchor="middle" x="407.8787878787879" y="193.33333333333334">08 (23)</text><line stroke="black" stroke-width="1" x1="490.6060606060606" x2="490.6060606060606" y1="166.66666666666669" y2="220.00000000000003" /><text dominant-baseline="middle" font-size="10" text-anchor="middle" x="463.030303030303" y="193.33333333333334">09 (02)</text><line stroke="black" stroke-width="1" x1="545.7575757575758" x2="545.7575757575758" y1="166.66666666666669" y2="220.00000000000003" /><text dominant-baseline="middle" font-size="10" text-anchor="middle" x="518.1818181818182" y="193.33333333333334">10 (09)</text><line stroke="black" stroke-width="1" x1="600.9090909090909" x2="600.9090909090909" y1="166.66666666666669" y2="220.00000000000003" /><text dominant-baseline="middle" font-size="10" text-anchor="middle" x="573.3333333333333" y="193.33333333333334">11 (16)</text><line stroke="black" stroke-width="1" x1="656.0606060606061" x2="656.0606060606061" y1="166.66666666666669" y2="220.00000000000003" /><text dominant-baseline="middle" font-size="10" text-anchor="middle" x="628.4848484848485" y="193.33333333333334">12 (23)</text><line stroke="black" stroke-width="1" x1="711.2121212121212" x2="711.2121212121212" y1="166.66666666666669" y2="220.00000000000003" /><text dominant-baseline="middle" font-size="10" text-anchor="middle" x="683.6363636363637" y="193.33333333333334">13 (30)</text><line stroke="black" stroke-width="1" x1="766.3636363636364" x2="766.3636363636364" y1="166.66666666666669" y2="220.00000000000003" /><text dominant-baseline="middle" font-size="10" text-anchor="middle" x="738.7878787878788" y="193.33333333333334">14 (06)</text><text dominant-baseline="middle" font-size="10" text-anchor="middle" x="778.1818181818182" y="193.33333333333334">15</text><rect fill="lightgrey" height="53.333333333333336" stroke="black" stroke-width="1" width="780.0" x="10.0" y="220.00000000000003" /><line stroke="black" stroke-width="1" x1="17.87878787878788" x2="17.87878787878788" y1="220.00000000000003" y2="273.33333333333337" /><line stroke="black" stroke-width="1" x1="25.757575757575758" x2="25.757575757575758" y1="220.00000000000003" y2="273.33333333333337" /><line stroke="black" stroke-width="1" x1="33.63636363636364" x2="33.63636363636364" y1="220.00000000000003" y2="273.33333333333337" /><line stroke="black" stroke-width="1" x1="41.515151515151516" x2="41.515151515151516" y1="220.00000000000003" y2="273.33333333333337" /><line stroke="black" stroke-width="1" x1="49.39393939393939" x2="49.39393939393939" y1="220.00000000000003" y2="273.33333333333337" /><line stroke="black" stroke-width="1" x1="57.27272727272727" x2="57.27272727272727" y1="220.00000000000003" y2="273.33333333333337" /><line stroke="black" stroke-width="1" x1="65.15151515151516" x2="65.15151515151516" y1="220.00000000000003" y2="273.33333333333337" /><line stroke="black" stroke-width="1" x1="73.03030303030303" x2="73.03030303030303" y1="220.00000000000003" y2="273.33333333333337" /><line stroke="black" stroke-width="1" x1="80.9090909090909" x2="80.9090909090909" y1="220.00000000000003" y2="273.33333333333337" /><line stroke="black" stroke-width="1" x1="88.78787878787878" x2="88.78787878787878" y1="220.00000000000003" y2="273.33333333333337" /><line stroke="black" stroke-width="1" x1="96.66666666666667" x2="96.66666666666667" y1="220.00000000000003" y2="273.33333333333337" /><line stroke="black" stroke-width="1" x1="104.54545454545455" x2="104.54545454545455" y1="220.00000000000003" y2="273.33333333333337" /><line stroke="black" stroke-width="1" x1="112.42424242424242" x2="112.42424242424242" y1="220.00000000000003" y2="273.33333333333337" /><line stroke="black" stroke-width="1" x1="120.30303030303031" x2="120.30303030303031" y1="220.00000000000003" y2="273.33333333333337" /><line stroke="black" stroke-width="1" x1="128.1818181818182" x2="128.1818181818182" y1="220.00000000000003" y2="273.33333333333337" /><line stroke="black" stroke-width="1" x1="136.06060606060606" x2="136.06060606060606" y1="220.00000000000003" y2="273.33333333333337" /><line stroke="black" stroke-width="1" x1="143.93939393939394" x2="143.93939393939394" y1="220.00000000000003" y2="273.33333333333337" /><line stroke="black" stroke-width="1" x1="151.8181818181818" x2="151.8181818181818" y1="220.00000000000003" y2="273.33333333333337" /><line stroke="black" stroke-width="1" x1="159.6969696969697" x2="159.6969696969697" y1="220.00000000000003" y2="273.33333333333337" /><line stroke="black" stroke-width="1" x1="167.57575757575756" x2="167.57575757575756" y1="220.00000000000003" y2="273.33333333333337" /><line stroke="black" stroke-width="1" x1="175.45454545454547" x2="175.45454545454547" y1="220.00000000000003" y2="273.33333333333337" /><line stroke="black" stroke-width="1" x1="183.33333333333334" x2="183.33333333333334" y1="220.00000000000003" y2="273.33333333333337" /><line stroke="black" stroke-width="1" x1="191.21212121212122" x2="191.21212121212122" y1="220.00000000000003" y2="273.33333333333337" /><line stroke="black" stroke-width="1" x1="199.0909090909091" x2="199.0909090909091" y1="220.00000000000003" y2="273.33333333333337" /><line stroke="black" stroke-width="1" x1="206.96969696969697" x2="206.96969696969697" y1="220.00000000000003" y2="273.33333333333337" /><line stroke="black" stroke-width="1" x1="214.84848484848484" x2="214.84848484848484" y1="220.00000000000003" y2="273.33333333333337" /><line stroke="black" stroke-width="1" x1="222.72727272727272" x2="222.72727272727272" y1="220.00000000000003" y2="273.33333333333337" /><line stroke="black" stroke-width="1" x1="230.60606060606062" x2="230.60606060606062" y1="220.00000000000003" y2="273.33333333333337" /><line stroke="black" stroke-width="1" x1="238.4848484848485" x2="238.4848484848485" y1="220.00000000000003" y2="273.33333333333337" /><line stroke="black" stroke-width="1" x1="246.36363636363637" x2="246.36363636363637" y1="220.00000000000003" y2="273.33333333333337" /><line stroke="black" stroke-width="1" x1="254.24242424242425" x2="254.24242424242425" y1="220.00000000000003" y2="273.33333333333337" /><line stroke="black" stroke-width="1" x1="262.1212121212121" x2="262.1212121212121" y1="220.00000000000003" y2="273.33333333333337" /><line stroke="black" stroke-width="1" x1="270.0" x2="270.0" y1="220.00000000000003" y2="273.33333333333337" /><line stroke="black" stroke-width="1" x1="277.8787878787879" x2="277.8787878787879" y1="220.00000000000003" y2="273.33333333333337" /><line stroke="black" stroke-width="1" x1="285.75757575757575" x2="285.75757575757575" y1="220.00000000000003" y2="273.33333333333337" /><line stroke="black" stroke-width="1" x1="293.6363636363636" x2="293.6363636363636" y1="220.00000000000003" y2="273.33333333333337" /><line stroke="black" stroke-width="1" x1="301.5151515151515" x2="301.5151515151515" y1="220.00000000000003" y2="273.33333333333337" /><line stroke="black" stroke-width="1" x1="309.3939393939394" x2="309.3939393939394" y1="220.00000000000003" y2="273.33333333333337" /><line stroke="black" stroke-width="1" x1="317.27272727272725" x2="317.27272727272725" y1="220.00000000000003" y2="273.33333333333337" /><line stroke="black" stroke-width="1" x1="325.1515151515151" x2="325.1515151515151" y1="220.00000000000003" y2="273.33333333333337" /><line stroke="black" stroke-width="1" x1="333.03030303030306" x2="333.03030303030306" y1="220.00000000000003" y2="273.33333333333337" /><line stroke="black" stroke-width="1" x1="340.90909090909093" x2="340.90909090909093" y1="220.00000000000003" y2="273.33333333333337" /><line stroke="black" stroke-width="1" x1="348.7878787878788" x2="348.7878787878788" y1="220.00000000000003" y2="273.33333333333337" /><line stroke="black" stroke-width="1" x1="356.6666666666667" x2="356.6666666666667" y1="220.00000000000003" y2="273.33333333333337" /><line stroke="black" stroke-width="1" x1="364.54545454545456" x2="364.54545454545456" y1="220.00000000000003" y2="273.33333333333337" /><line stroke="black" stroke-width="1" x1="372.42424242424244" x2="372.42424242424244" y1="220.00000000000003" y2="273.33333333333337" /><line stroke="black" stroke-width="1" x1="380.3030303030303" x2="380.3030303030303" y1="220.00000000000003" y2="273.33333333333337" /><line stroke="black" stroke-width="1" x1="388.1818181818182" x2="388.1818181818182" y1="220.00000000000003" y2="273.33333333333337" /><line stroke="black" stroke-width="1" x1="396.06060606060606" x2="396.06060606060606" y1="220.00000000000003" y2="273.33333333333337" /><line stroke="black" stroke-width="1" x1="403.93939393939394" x2="403.93939393939394" y1="220.00000000000003" y2="273.33333333333337" /><line stroke="black" stroke-width="1" x1="411.8181818181818" x2="411.8181818181818" y1="220.00000000000003" y2="273.33333333333337" /><line stroke="black" stroke-width="1" x1="419.6969696969697" x2="419.6969696969697" y1="220.00000000000003" y2="273.33333333333337" /><line stroke="black" stroke-width="1" x1="427.57575757575756" x2="427.57575757575756" y1="220.00000000000003" y2="273.33333333333337" /><line stroke="black" stroke-width="1" x1="435.45454545454544" x2="435.45454545454544" y1="220.00000000000003" y2="273.33333333333337" /><line stroke="black" stroke-width="1" x1="443.3333333333333" x2="443.3333333333333" y1="220.00000000000003" y2="273.33333333333337" /><line stroke="black" stroke-width="1" x1="451.21212121212125" x2="451.21212121212125" y1="220.00000000000003" y2="273.33333333333337" /><line stroke="black" stroke-width="1" x1="459.0909090909091" x2="459.0909090909091" y1="220.00000000000003" y2="273.33333333333337" /><line stroke="black" stroke-width="1" x1="466.969696969697" x2="466.969696969697" y1="220.00000000000003" y2="273.33333333333337" /><line stroke="black" stroke-width="1" x1="474.8484848484849" x2="474.8484848484849" y1="220.00000000000003" y2="273.33333333333337" /><line stroke="black" stroke-width="1" x1="482.72727272727275" x2="482.72727272727275" y1="220.00000000000003" y2="273.33333333333337" /><line stroke="black" stroke-width="1" x1="490.6060606060606" x2="490.6060606060606" y1="220.00000000000003" y2="273.33333333333337" /><line stroke="black" stroke-width="1" x1="498.4848484848485" x2="498.4848484848485" y1="220.00000000000003" y2="273.33333333333337" /><line stroke="black" stroke-width="1" x1="506.3636363636364" x2="506.3636363636364" y1="220.00000000000003" y2="273.33333333333337" /><line stroke="black" stroke-width="1" x1="514.2424242424242" x2="514.2424242424242" y1="220.00000000000003" y2="273.33333333333337" /><line stroke="black" stroke-width="1" x1="522.1212121212121" x2="522.1212121212121" y1="220.00000000000003" y2="273.33333333333337" /><line stroke="black" stroke-width="1" x1="530.0" x2="530.0" y1="220.00000000000003" y2="273.33333333333337" /><line stroke="black" stroke-width="1" x1="537.8787878787879" x2="537.8787878787879" y1="220.00000000000003" y2="273.33333333333337" /><line stroke="black" stroke-width="1" x1="545.7575757575758" x2="545.7575757575758" y1="220.00000000000003" y2="273.33333333333337" /><line stroke="black" stroke-width="1" x1="553.6363636363636" x2="553.6363636363636" y1="220.00000000000003" y2="273.33333333333337" /><line stroke="black" stroke-width="1" x1="561.5151515151515" x2="561.5151515151515" y1="220.00000000000003" y2="273.33333333333337" /><line stroke="black" stroke-width="1" x1="569.3939393939394" x2="569.3939393939394" y1="220.00000000000003" y2="273.33333333333337" /><line stroke="black" stroke-width="1" x1="577.2727272727273" x2="577.2727272727273" y1="220.00000000000003" y2="273.33333333333337" /><line stroke="black" stroke-width="1" x1="585.1515151515151" x2="585.1515151515151" y1="220.00000000000003" y2="273.33333333333337" /><line stroke="black" stroke-width="1" x1="593.030303030303" x2="593.030303030303" y1="220.00000000000003" y2="273.33333333333337" /><line stroke="black" stroke-width="1" x1="600.9090909090909" x2="600.9090909090909" y1="220.00000000000003" y2="273.33333333333337" /><line stroke="black" stroke-width="1" x1="608.7878787878788" x2="608.7878787878788" y1="220.00000000000003" y2="273.33333333333337" /><line stroke="black" stroke-width="1" x1="616.6666666666666" x2="616.6666666666666" y1="220.00000000000003" y2="273.33333333333337" /><line stroke="black" stroke-width="1" x1="624.5454545454545" x2="624.5454545454545" y1="220.00000000000003" y2="273.33333333333337" /><line stroke="black" stroke-width="1" x1="632.4242424242424" x2="632.4242424242424" y1="220.00000000000003" y2="273.33333333333337" /><line stroke="black" stroke-width="1" x1="640.3030303030303" x2="640.3030303030303" y1="220.00000000000003" y2="273.33333333333337" /><line stroke="black" stroke-width="1" x1="648.1818181818182" x2="648.1818181818182" y1="220.00000000000003" y2="273.33333333333337" /><line stroke="black" stroke-width="1" x1="656.0606060606061" x2="656.0606060606061" y1="220.00000000000003" y2="273.33333333333337" /><line stroke="black" stroke-width="1" x1="663.939393939394" x2="663.939393939394" y1="220.00000000000003" y2="273.33333333333337" /><line stroke="black" stroke-width="1" x1="671.8181818181819" x2="671.8181818181819" y1="220.00000000000003" y2="273.33333333333337" /><line stroke="black" stroke-width="1" x1="679.6969696969697" x2="679.6969696969697" y1="220.00000000000003" y2="273.33333333333337" /><line stroke="black" stroke-width="1" x1="687.5757575757576" x2="687.5757575757576" y1="220.00000000000003" y2="273.33333333333337" /><line stroke="black" stroke-width="1" x1="695.4545454545455" x2="695.4545454545455" y1="220.00000000000003" y2="273.33333333333337" /><line stroke="black" stroke-width="1" x1="703.3333333333334" x2="703.3333333333334" y1="220.00000000000003" y2="273.33333333333337" /><line stroke="black" stroke-width="1" x1="711.2121212121212" x2="711.2121212121212" y1="220.00000000000003" y2="273.33333333333337" /><line stroke="black" stroke-width="1" x1="719.0909090909091" x2="719.0909090909091" y1="220.00000000000003" y2="273.33333333333337" /><line stroke="black" stroke-width="1" x1="726.969696969697" x2="726.969696969697" y1="220.00000000000003" y2="273.33333333333337" /><line stroke="black" stroke-width="1" x1="734.8484848484849" x2="734.8484848484849" y1="220.00000000000003" y2="273.33333333333337" /><line stroke="black" stroke-width="1" x1="742.7272727272727" x2="742.7272727272727" y1="220.00000000000003" y2="273.33333333333337" /><line stroke="black" stroke-width="1" x1="750.6060606060606" x2="750.6060606060606" y1="220.00000000000003" y2="273.33333333333337" /><line stroke="black" stroke-width="1" x1="758.4848484848485" x2="758.4848484848485" y1="220.00000000000003" y2="273.33333333333337" /><line stroke="black" stroke-width="1" x1="766.3636363636364" x2="766.3636363636364" y1="220.00000000000003" y2="273.33333333333337" /><line stroke="black" stroke-width="1" x1="774.2424242424242" x2="774.2424242424242" y1="220.00000000000003" y2="273.33333333333337" /><line stroke="black" stroke-width="1" x1="782.1212121212121" x2="782.1212121212121" y1="220.00000000000003" y2="273.33333333333337" /><line stroke="black" stroke-width="1" x1="790.0" x2="790.0" y1="220.00000000000003" y2="273.33333333333337" /><rect fill="none" height="266.6666666666667" stroke="purple" stroke-width="1" width="780.0" x="10.0" y="273.33333333333337" /><line stroke="gray" stroke-width="1" x1="10.0" x2="790.0" y1="273.33333333333337" y2="273.33333333333337" /><line stroke="gray" stroke-width="1" x1="10.0" x2="790.0" y1="326.6666666666667" y2="326.6666666666667" /><line stroke="gray" stroke-width="1" x1="10.0" x2="790.0" y1="380.00000000000006" y2="380.00000000000006" /><line stroke="gray" stroke-width="1" x1="10.0" x2="790.0" y1="433.33333333333337" y2="433.33333333333337" /><line stroke="gray" stroke-width="1" x1="10.0" x2="790.0" y1="486.66666666666674" y2="486.66666666666674" /><line stroke="gray" stroke-width="1" x1="10.0" x2="790.0" y1="540.0" y2="540.0" /><line stroke="gray" stroke-width="1" x1="254.24242424242425" x2="254.24242424242425" y1="273.33333333333337" y2="540.0" /><line stroke="gray" stroke-width="1" x1="474.8484848484849" x2="474.8484848484849" y1="273.33333333333337" y2="540.0" /><line stroke="gray" stroke-width="1" x1="719.0909090909091" x2="719.0909090909091" y1="273.33333333333337" y2="540.0" /><line stroke="gray" stroke-width="1" x1="49.39393939393939" x2="49.39393939393939" y1="273.33333333333337" y2="540.0" /><line stroke="gray" stroke-width="1" x1="104.54545454545455" x2="104.54545454545455" y1="273.33333333333337" y2="540.0" /><line stroke="gray" stroke-width="1" x1="159.6969696969697" x2="159.6969696969697" y1="273.33333333333337" y2="540.0" /><line stroke="gray" stroke-width="1" x1="214.84848484848484" x2="214.84848484848484" y1="273.33333333333337" y2="540.0" /><line stroke="gray" stroke-width="1" x1="270.0" x2="270.0" y1="273.33333333333337" y2="540.0" /><line stroke="gray" stroke-width="1" x1="325.1515151515151" x2="325.1515151515151" y1="273.33333333333337" y2="540.0" /><line stroke="gray" stroke-width="1" x1="380.3030303030303" x2="380.3030303030303" y1="273.33333333333337" y2="540.0" /><line stroke="gray" stroke-width="1" x1="435.45454545454544" x2="435.45454545454544" y1="273.33333333333337" y2="540.0" /><line stroke="gray" stroke-width="1" x1="490.6060606060606" x2="490.6060606060606" y1="273.33333333333337" y2="540.0" /><line stroke="gray" stroke-width="1" x1="545.7575757575758" x2="545.7575757575758" y1="273.33333333333337" y2="540.0" /><line stroke="gray" stroke-width="1" x1="600.9090909090909" x2="600.9090909090909" y1="273.33333333333337" y2="540.0" /><line stroke="gray" stroke-width="1" x1="656.0606060606061" x2="656.0606060606061" y1="273.33333333333337" y2="540.0" /><line stroke="gray" stroke-width="1" x1="711.2121212121212" x2="711.2121212121212" y1="273.33333333333337" y2="540.0" /><line stroke="gray" stroke-width="1" x1="766.3636363636364" x2="766.3636363636364" y1="273.33333333333337" y2="540.0" /><line stroke="gray" stroke-width="1" x1="17.87878787878788" x2="17.87878787878788" y1="273.33333333333337" y2="540.0" /><line stroke="gray" stroke-width="1" x1="25.757575757575758" x2="25.757575757575758" y1="273.33333333333337" y2="540.0" /><line stroke="gray" stroke-width="1" x1="33.63636363636364" x2="33.63636363636364" y1="273.33333333333337" y2="540.0" /><line stroke="gray" stroke-width="1" x1="41.515151515151516" x2="41.515151515151516" y1="273.33333333333337" y2="540.0" /><line stroke="gray" stroke-width="1" x1="49.39393939393939" x2="49.39393939393939" y1="273.33333333333337" y2="540.0" /><line stroke="gray" stroke-width="1" x1="57.27272727272727" x2="57.27272727272727" y1="273.33333333333337" y2="540.0" /><line stroke="gray" stroke-width="1" x1="65.15151515151516" x2="65.15151515151516" y1="273.33333333333337" y2="540.0" /><line stroke="gray" stroke-width="1" x1="73.03030303030303" x2="73.03030303030303" y1="273.33333333333337" y2="540.0" /><line stroke="gray" stroke-width="1" x1="80.9090909090909" x2="80.9090909090909" y1="273.33333333333337" y2="540.0" /><line stroke="gray" stroke-width="1" x1="88.78787878787878" x2="88.78787878787878" y1="273.33333333333337" y2="540.0" /><line stroke="gray" stroke-width="1" x1="96.66666666666667" x2="96.66666666666667" y1="273.33333333333337" y2="540.0" /><line stroke="gray" stroke-width="1" x1="104.54545454545455" x2="104.54545454545455" y1="273.33333333333337" y2="540.0" /><line stroke="gray" stroke-width="1" x1="112.42424242424242" x2="112.42424242424242" y1="273.33333333333337" y2="540.0" /><line stroke="gray" stroke-width="1" x1="120.30303030303031" x2="120.30303030303031" y1="273.33333333333337" y2="540.0" /><line stroke="gray" stroke-width="1" x1="128.1818181818182" x2="128.1818181818182" y1="273.33333333333337" y2="540.0" /><line stroke="gray" stroke-width="1" x1="136.06060606060606" x2="136.06060606060606" y1="273.33333333333337" y2="540.0" /><line stroke="gray" stroke-width="1" x1="143.93939393939394" x2="143.93939393939394" y1="273.33333333333337" y2="540.0" /><line stroke="gray" stroke-width="1" x1="151.8181818181818" x2="151.8181818181818" y1="273.33333333333337" y2="540.0" /><line stroke="gray" stroke-width="1" x1="159.6969696969697" x2="159.6969696969697" y1="273.33333333333337" y2="540.0" /><line stroke="gray" stroke-width="1" x1="167.57575757575756" x2="167.57575757575756" y1="273.33333333333337" y2="540.0" /><line stroke="gray" stroke-width="1" x1="175.45454545454547" x2="175.45454545454547" y1="273.33333333333337" y2="540.0" /><line stroke="gray" stroke-width="1" x1="183.33333333333334" x2="183.33333333333334" y1="273.33333333333337" y2="540.0" /><line stroke="gray" stroke-width="1" x1="191.21212121212122" x2="191.21212121212122" y1="273.33333333333337" y2="540.0" /><line stroke="gray" stroke-width="1" x1="199.0909090909091" x2="199.0909090909091" y1="273.33333333333337" y2="540.0" /><line stroke="gray" stroke-width="1" x1="206.96969696969697" x2="206.96969696969697" y1="273.33333333333337" y2="540.0" /><line stroke="gray" stroke-width="1" x1="214.84848484848484" x2="214.84848484848484" y1="273.33333333333337" y2="540.0" /><line stroke="gray" stroke-width="1" x1="222.72727272727272" x2="222.72727272727272" y1="273.33333333333337" y2="540.0" /><line stroke="gray" stroke-width="1" x1="230.60606060606062" x2="230.60606060606062" y1="273.33333333333337" y2="540.0" /><line stroke="gray" stroke-width="1" x1="238.4848484848485" x2="238.4848484848485" y1="273.33333333333337" y2="540.0" /><line stroke="gray" stroke-width="1" x1="246.36363636363637" x2="246.36363636363637" y1="273.33333333333337" y2="540.0" /><line stroke="gray" stroke-width="1" x1="254.24242424242425" x2="254.24242424242425" y1="273.33333333333337" y2="540.0" /><line stroke="gray" stroke-width="1" x1="262.1212121212121" x2="262.1212121212121" y1="273.33333333333337" y2="540.0" /><line stroke="gray" stroke-width="1" x1="270.0" x2="270.0" y1="273.33333333333337" y2="540.0" /><line stroke="gray" stroke-width="1" x1="277.8787878787879" x2="277.8787878787879" y1="273.33333333333337" y2="540.0" /><line stroke="gray" stroke-width="1" x1="285.75757575757575" x2="285.75757575757575" y1="273.33333333333337" y2="540.0" /><line stroke="gray" stroke-width="1" x1="293.6363636363636" x2="293.6363636363636" y1="273.33333333333337" y2="540.0" /><line stroke="gray" stroke-width="1" x1="301.5151515151515" x2="301.5151515151515" y1="273.33333333333337" y2="540.0" /><line stroke="gray" stroke-width="1" x1="309.3939393939394" x2="309.3939393939394" y1="273.33333333333337" y2="540.0" /><line stroke="gray" stroke-width="1" x1="317.27272727272725" x2="317.27272727272725" y1="273.33333333333337" y2="540.0" /><line stroke="gray" stroke-width="1" x1="325.1515151515151" x2="325.1515151515151" y1="273.33333333333337" y2="540.0" /><line stroke="gray" stroke-width="1" x1="333.03030303030306" x2="333.03030303030306" y1="273.33333333333337" y2="540.0" /><line stroke="gray" stroke-width="1" x1="340.90909090909093" x2="340.90909090909093" y1="273.33333333333337" y2="540.0" /><line stroke="gray" stroke-width="1" x1="348.7878787878788" x2="348.7878787878788" y1="273.33333333333337" y2="540.0" /><line stroke="gray" stroke-width="1" x1="356.6666666666667" x2="356.6666666666667" y1="273.33333333333337" y2="540.0" /><line stroke="gray" stroke-width="1" x1="364.54545454545456" x2="364.54545454545456" y1="273.33333333333337" y2="540.0" /><line stroke="gray" stroke-width="1" x1="372.42424242424244" x2="372.42424242424244" y1="273.33333333333337" y2="540.0" /><line stroke="gray" stroke-width="1" x1="380.3030303030303" x2="380.3030303030303" y1="273.33333333333337" y2="540.0" /><line stroke="gray" stroke-width="1" x1="388.1818181818182" x2="388.1818181818182" y1="273.33333333333337" y2="540.0" /><line stroke="gray" stroke-width="1" x1="396.06060606060606" x2="396.06060606060606" y1="273.33333333333337" y2="540.0" /><line stroke="gray" stroke-width="1" x1="403.93939393939394" x2="403.93939393939394" y1="273.33333333333337" y2="540.0" /><line stroke="gray" stroke-width="1" x1="411.8181818181818" x2="411.8181818181818" y1="273.33333333333337" y2="540.0" /><line stroke="gray" stroke-width="1" x1="419.6969696969697" x2="419.6969696969697" y1="273.33333333333337" y2="540.0" /><line stroke="gray" stroke-width="1" x1="427.57575757575756" x2="427.57575757575756" y1="273.33333333333337" y2="540.0" /><line stroke="gray" stroke-width="1" x1="435.45454545454544" x2="435.45454545454544" y1="273.33333333333337" y2="540.0" /><line stroke="gray" stroke-width="1" x1="443.3333333333333" x2="443.3333333333333" y1="273.33333333333337" y2="540.0" /><line stroke="gray" stroke-width="1" x1="451.21212121212125" x2="451.21212121212125" y1="273.33333333333337" y2="540.0" /><line stroke="gray" stroke-width="1" x1="459.0909090909091" x2="459.0909090909091" y1="273.33333333333337" y2="540.0" /><line stroke="gray" stroke-width="1" x1="466.969696969697" x2="466.969696969697" y1="273.33333333333337" y2="540.0" /><line stroke="gray" stroke-width="1" x1="474.8484848484849" x2="474.8484848484849" y1="273.33333333333337" y2="540.0" /><line stroke="gray" stroke-width="1" x1="482.72727272727275" x2="482.72727272727275" y1="273.33333333333337" y2="540.0" /><line stroke="gray" stroke-width="1" x1="490.6060606060606" x2="490.6060606060606" y1="273.33333333333337" y2="540.0" /><line stroke="gray" stroke-width="1" x1="498.4848484848485" x2="498.4848484848485" y1="273.33333333333337" y2="540.0" /><line stroke="gray" stroke-width="1" x1="506.3636363636364" x2="506.3636363636364" y1="273.33333333333337" y2="540.0" /><line stroke="gray" stroke-width="1" x1="514.2424242424242" x2="514.2424242424242" y1="273.33333333333337" y2="540.0" /><line stroke="gray" stroke-width="1" x1="522.1212121212121" x2="522.1212121212121" y1="273.33333333333337" y2="540.0" /><line stroke="gray" stroke-width="1" x1="530.0" x2="530.0" y1="273.33333333333337" y2="540.0" /><line stroke="gray" stroke-width="1" x1="537.8787878787879" x2="537.8787878787879" y1="273.33333333333337" y2="540.0" /><line stroke="gray" stroke-width="1" x1="545.7575757575758" x2="545.7575757575758" y1="273.33333333333337" y2="540.0" /><line stroke="gray" stroke-width="1" x1="553.6363636363636" x2="553.6363636363636" y1="273.33333333333337" y2="540.0" /><line stroke="gray" stroke-width="1" x1="561.5151515151515" x2="561.5151515151515" y1="273.33333333333337" y2="540.0" /><line stroke="gray" stroke-width="1" x1="569.3939393939394" x2="569.3939393939394" y1="273.33333333333337" y2="540.0" /><line stroke="gray" stroke-width="1" x1="577.2727272727273" x2="577.2727272727273" y1="273.33333333333337" y2="540.0" /><line stroke="gray" stroke-width="1" x1="585.1515151515151" x2="585.1515151515151" y1="273.33333333333337" y2="540.0" /><line stroke="gray" stroke-width="1" x1="593.030303030303" x2="593.030303030303" y1="273.33333333333337" y2="540.0" /><line stroke="gray" stroke-width="1" x1="600.9090909090909" x2="600.9090909090909" y1="273.33333333333337" y2="540.0" /><line stroke="gray" stroke-width="1" x1="608.7878787878788" x2="608.7878787878788" y1="273.33333333333337" y2="540.0" /><line stroke="gray" stroke-width="1" x1="616.6666666666666" x2="616.6666666666666" y1="273.33333333333337" y2="540.0" /><line stroke="gray" stroke-width="1" x1="624.5454545454545" x2="624.5454545454545" y1="273.33333333333337" y2="540.0" /><line stroke="gray" stroke-width="1" x1="632.4242424242424" x2="632.4242424242424" y1="273.33333333333337" y2="540.0" /><line stroke="gray" stroke-width="1" x1="640.3030303030303" x2="640.3030303030303" y1="273.33333333333337" y2="540.0" /><line stroke="gray" stroke-width="1" x1="648.1818181818182" x2="648.1818181818182" y1="273.33333333333337" y2="540.0" /><line stroke="gray" stroke-width="1" x1="656.0606060606061" x2="656.0606060606061" y1="273.33333333333337" y2="540.0" /><line stroke="gray" stroke-width="1" x1="663.939393939394" x2="663.939393939394" y1="273.33333333333337" y2="540.0" /><line stroke="gray" stroke-width="1" x1="671.8181818181819" x2="671.8181818181819" y1="273.33333333333337" y2="540.0" /><line stroke="gray" stroke-width="1" x1="679.6969696969697" x2="679.6969696969697" y1="273.33333333333337" y2="540.0" /><line stroke="gray" stroke-width="1" x1="687.5757575757576" x2="687.5757575757576" y1="273.33333333333337" y2="540.0" /><line stroke="gray" stroke-width="1" x1="695.4545454545455" x2="695.4545454545455" y1="273.33333333333337" y2="540.0" /><line stroke="gray" stroke-width="1" x1="703.3333333333334" x2="703.3333333333334" y1="273.33333333333337" y2="540.0" /><line stroke="gray" stroke-width="1" x1="711.2121212121212" x2="711.2121212121212" y1="273.33333333333337" y2="540.0" /><line stroke="gray" stroke-width="1" x1="719.0909090909091" x2="719.0909090909091" y1="273.33333333333337" y2="540.0" /><line stroke="gray" stroke-width="1" x1="726.969696969697" x2="726.969696969697" y1="273.33333333333337" y2="540.0" /><line stroke="gray" stroke-width="1" x1="734.8484848484849" x2="734.8484848484849" y1="273.33333333333337" y2="540.0" /><line stroke="gray" stroke-width="1" x1="742.7272727272727" x2="742.7272727272727" y1="273.33333333333337" y2="540.0" /><line stroke="gray" stroke-width="1" x1="750.6060606060606" x2="750.6060606060606" y1="273.33333333333337" y2="540.0" /><line stroke="gray" stroke-width="1" x1="758.4848484848485" x2="758.4848484848485" y1="273.33333333333337" y2="540.0" /><line stroke="gray" stroke-width="1" x1="766.3636363636364" x2="766.3636363636364" y1="273.33333333333337" y2="540.0" /><line stroke="gray" stroke-width="1" x1="774.2424242424242" x2="774.2424242424242" y1="273.33333333333337" y2="540.0" /><line stroke="gray" stroke-width="1" x1="782.1212121212121" x2="782.1212121212121" y1="273.33333333333337" y2="540.0" /><line stroke="gray" stroke-width="1" x1="790.0" x2="790.0" y1="273.33333333333337" y2="540.0" /><rect fill="blue" height="42.66666666666667" width="47.27272727272728" x="80.9090909090909" y="438.6666666666667" /><text fill="black" font-size="10" text-anchor="end" x="73.03030303030303" y="463.0">fiverfiverfiverfiver</text><line stroke="black" stroke-width="1" x1="73.03030303030303" x2="80.9090909090909" y1="460.0" y2="460.0" /><text fill="black" font-family="Arial" font-size="10" text-anchor="end" x="343.21212121212125" y="356.33333333333337">fiverfiverfiver</text><line stroke="black" stroke-width="1" x1="343.21212121212125" x2="351.0909090909091" y1="353.33333333333337" y2="353.33333333333337" /><polygon fill="red" points="372.42424242424244,332.00000000000006 393.75757575757575,353.33333333333337 372.42424242424244,374.6666666666667 351.0909090909091,353.33333333333337" stroke="black" stroke-width="1" /></svg>