<?xml version="1.0" encoding="utf-8" ?>
<svg baseProfile="full" height="400" version="1.1" width="800" xmlns="http://www.w3.org/2000/svg" xmlns:ev="http://www.w3.org/2001/xml-events" xmlns:xlink="http://www.w3.org/1999/xlink"><defs /><rect fill="white" height="400" width="800" x="0" y="0" /><rect fill="grey" height="300" width="186.66666666666666" x="96.66666666666666" y="50" /><text fill="black" font-size="12" text-anchor="middle" x="190.0" y="200.0">Curtain 1</text><text font-size="12" x="5" y="70">Task 1</text><rect fill="blue" height="30" width="93.33333333333333" x="96.66666666666666" y="50" /><text font-size="12" x="5" y="100">Task 2</text><rect fill="blue" height="30" width="466.66666666666663" x="143.33333333333331" y="80" /><text font-size="12" x="5" y="130">Task 3</text><rect fill="blue" height="30" width="560.0" x="143.33333333333331" y="110" /><line stroke="red" stroke-dasharray="4,4" stroke-width="1" x1="283.3333333333333" x2="283.3333333333333" y1="30" y2="350" /><text fill="red" font-size="10" text-anchor="middle" x="283.3333333333333" y="25">Pipe 1</text><line stroke="red" stroke-dasharray="4,4" stroke-width="1" x1="563.3333333333333" x2="563.3333333333333" y1="30" y2="350" /><text fill="red" font-size="10" text-anchor="middle" x="563.3333333333333" y="25">Data Date</text><line stroke="gray" stroke-width="0.5" x1="50.0" x2="50.0" y1="30" y2="350" /><text font-size="10" text-anchor="middle" x="50.0" y="25">2025-03-25</text><line stroke="gray" stroke-width="0.5" x1="96.66666666666666" x2="96.66666666666666" y1="30" y2="350" /><line stroke="gray" stroke-width="0.5" x1="143.33333333333331" x2="143.33333333333331" y1="30" y2="350" /><line stroke="gray" stroke-width="0.5" x1="190.0" x2="190.0" y1="30" y2="350" /><line stroke="gray" stroke-width="0.5" x1="236.66666666666666" x2="236.66666666666666" y1="30" y2="350" /><line stroke="gray" stroke-width="0.5" x1="283.3333333333333" x2="283.3333333333333" y1="30" y2="350" /><text font-size="10" text-anchor="middle" x="283.3333333333333" y="25">2025-03-30</text><line stroke="gray" stroke-width="0.5" x1="330.0" x2="330.0" y1="30" y2="350" /><line stroke="gray" stroke-width="0.5" x1="376.66666666666663" x2="376.66666666666663" y1="30" y2="350" /><line stroke="gray" stroke-width="0.5" x1="423.3333333333333" x2="423.3333333333333" y1="30" y2="350" /><line stroke="gray" stroke-width="0.5" x1="470.0" x2="470.0" y1="30" y2="350" /><line stroke="gray" stroke-width="0.5" x1="516.6666666666666" x2="516.6666666666666" y1="30" y2="350" /><text font-size="10" text-anchor="middle" x="516.6666666666666" y="25">2025-04-04</text><line stroke="gray" stroke-width="0.5" x1="563.3333333333333" x2="563.3333333333333" y1="30" y2="350" /><line stroke="gray" stroke-width="0.5" x1="610.0" x2="610.0" y1="30" y2="350" /><line stroke="gray" stroke-width="0.5" x1="656.6666666666666" x2="656.6666666666666" y1="30" y2="350" /><line stroke="gray" stroke-width="0.5" x1="703.3333333333333" x2="703.3333333333333" y1="30" y2="350" /><line stroke="gray" stroke-width="0.5" x1="750.0" x2="750.0" y1="30" y2="350" /><text font-size="10" text-anchor="middle" x="750.0" y="25">2025-04-09</text></svg>