<?xml version="1.0" encoding="utf-8" ?>
<svg baseProfile="full" height="600.0" version="1.1" width="800.0" xmlns="http://www.w3.org/2000/svg" xmlns:ev="http://www.w3.org/2001/xml-events" xmlns:xlink="http://www.w3.org/1999/xlink"><defs /><rect fill="white" height="600.0" stroke="black" stroke-width="2" width="800.0" x="0" y="0" /><rect fill="lightgray" height="50.0" stroke="black" stroke-width="1" width="780.0" x="10.0" y="10.0" /><text font-size="14" text-anchor="middle" x="400.0" y="35.0">weeks</text><rect fill="lightgray" height="50.0" stroke="black" stroke-width="1" width="780.0" x="10.0" y="540.0" /><text font-size="14" text-anchor="middle" x="400.0" y="565.0">footer</text><rect fill="none" height="480.0" stroke="blue" stroke-dasharray="4" stroke-width="1" width="780.0" x="10.0" y="60.0" /><rect fill="none" height="480.0" stroke="red" stroke-width="1" width="546.0" x="10.0" y="60.0" /><rect fill="lightgrey" height="53.333333333333336" stroke="black" stroke-width="1" width="546.0" x="10.0" y="60.0" /><text dominant-baseline="middle" font-size="10" text-anchor="middle" x="283.0" y="86.66666666666667">2025</text><rect fill="lightgrey" height="53.333333333333336" stroke="black" stroke-width="1" width="546.0" x="10.0" y="113.33333333333334" /><text dominant-baseline="middle" font-size="10" text-anchor="middle" x="283.0" y="140.0">Jan</text><rect fill="lightgrey" height="53.333333333333336" stroke="black" stroke-width="1" width="546.0" x="10.0" y="166.66666666666669" /><line stroke="black" stroke-width="1" x1="313.3333333333333" x2="313.3333333333333" y1="166.66666666666669" y2="220.00000000000003" /><text dominant-baseline="middle" font-size="10" text-anchor="middle" x="161.66666666666666" y="193.33333333333334">01 (05)</text><text dominant-baseline="middle" font-size="10" text-anchor="middle" x="434.66666666666663" y="193.33333333333334">02 (12)</text><rect fill="lightgrey" height="53.333333333333336" stroke="black" stroke-width="1" width="546.0" x="10.0" y="220.00000000000003" /><line stroke="black" stroke-width="1" x1="70.66666666666666" x2="70.66666666666666" y1="220.00000000000003" y2="273.33333333333337" /><text dominant-baseline="middle" font-size="10" text-anchor="middle" x="40.33333333333333" y="246.66666666666669">Wed</text><line stroke="black" stroke-width="1" x1="131.33333333333331" x2="131.33333333333331" y1="220.00000000000003" y2="273.33333333333337" /><text dominant-baseline="middle" font-size="10" text-anchor="middle" x="100.99999999999999" y="246.66666666666669">Thu</text><line stroke="black" stroke-width="1" x1="192.0" x2="192.0" y1="220.00000000000003" y2="273.33333333333337" /><text dominant-baseline="middle" font-size="10" text-anchor="middle" x="161.66666666666666" y="246.66666666666669">Fri</text><line stroke="black" stroke-width="1" x1="252.66666666666666" x2="252.66666666666666" y1="220.00000000000003" y2="273.33333333333337" /><text dominant-baseline="middle" font-size="10" text-anchor="middle" x="222.33333333333331" y="246.66666666666669">Sat</text><line stroke="black" stroke-width="1" x1="313.3333333333333" x2="313.3333333333333" y1="220.00000000000003" y2="273.33333333333337" /><text dominant-baseline="middle" font-size="10" text-anchor="middle" x="283.0" y="246.66666666666669">Sun</text><line stroke="black" stroke-width="1" x1="374.0" x2="374.0" y1="220.00000000000003" y2="273.33333333333337" /><text dominant-baseline="middle" font-size="10" text-anchor="middle" x="343.66666666666663" y="246.66666666666669">Mon</text><line stroke="black" stroke-width="1" x1="434.66666666666663" x2="434.66666666666663" y1="220.00000000000003" y2="273.33333333333337" /><text dominant-baseline="middle" font-size="10" text-anchor="middle" x="404.3333333333333" y="246.66666666666669">Tue</text><line stroke="black" stroke-width="1" x1="495.3333333333333" x2="495.3333333333333" y1="220.00000000000003" y2="273.33333333333337" /><text dominant-baseline="middle" font-size="10" text-anchor="middle" x="465.0" y="246.66666666666669">Wed</text><line stroke="black" stroke-width="1" x1="556.0" x2="556.0" y1="220.00000000000003" y2="273.33333333333337" /><text dominant-baseline="middle" font-size="10" text-anchor="middle" x="525.6666666666666" y="246.66666666666669">Thu</text><rect fill="none" height="266.6666666666667" stroke="purple" stroke-width="1" width="546.0" x="10.0" y="273.33333333333337" /><line stroke="gray" stroke-width="1" x1="10.0" x2="556.0" y1="273.33333333333337" y2="273.33333333333337" /><line stroke="gray" stroke-width="1" x1="10.0" x2="556.0" y1="300.00000000000006" y2="300.00000000000006" /><line stroke="gray" stroke-width="1" x1="10.0" x2="556.0" y1="326.6666666666667" y2="326.6666666666667" /><line stroke="gray" stroke-width="1" x1="10.0" x2="556.0" y1="353.33333333333337" y2="353.33333333333337" /><line stroke="gray" stroke-width="1" x1="10.0" x2="556.0" y1="380.00000000000006" y2="380.00000000000006" /><line stroke="gray" stroke-width="1" x1="10.0" x2="556.0" y1="406.66666666666674" y2="406.66666666666674" /><line stroke="gray" stroke-width="1" x1="10.0" x2="556.0" y1="433.33333333333337" y2="433.33333333333337" /><line stroke="gray" stroke-width="1" x1="10.0" x2="556.0" y1="460.00000000000006" y2="460.00000000000006" /><line stroke="gray" stroke-width="1" x1="10.0" x2="556.0" y1="486.66666666666674" y2="486.66666666666674" /><line stroke="gray" stroke-width="1" x1="10.0" x2="556.0" y1="513.3333333333334" y2="513.3333333333334" /><line stroke="gray" stroke-width="1" x1="10.0" x2="556.0" y1="540.0" y2="540.0" /><line stroke="gray" stroke-width="1" x1="313.3333333333333" x2="313.3333333333333" y1="273.33333333333337" y2="540.0" /><line stroke="gray" stroke-width="1" x1="70.66666666666666" x2="70.66666666666666" y1="273.33333333333337" y2="540.0" /><line stroke="gray" stroke-width="1" x1="131.33333333333331" x2="131.33333333333331" y1="273.33333333333337" y2="540.0" /><line stroke="gray" stroke-width="1" x1="192.0" x2="192.0" y1="273.33333333333337" y2="540.0" /><line stroke="gray" stroke-width="1" x1="252.66666666666666" x2="252.66666666666666" y1="273.33333333333337" y2="540.0" /><line stroke="gray" stroke-width="1" x1="313.3333333333333" x2="313.3333333333333" y1="273.33333333333337" y2="540.0" /><line stroke="gray" stroke-width="1" x1="374.0" x2="374.0" y1="273.33333333333337" y2="540.0" /><line stroke="gray" stroke-width="1" x1="434.66666666666663" x2="434.66666666666663" y1="273.33333333333337" y2="540.0" /><line stroke="gray" stroke-width="1" x1="495.3333333333333" x2="495.3333333333333" y1="273.33333333333337" y2="540.0" /><line stroke="gray" stroke-width="1" x1="556.0" x2="556.0" y1="273.33333333333337" y2="540.0" /><rect fill="none" height="480.0" stroke="red" stroke-width="1" width="234.0" x="556.0" y="60.0" /><rect fill="lightgrey" height="53.333333333333336" stroke="black" stroke-width="1" width="234.0" x="556.0" y="60.0" /><text dominant-baseline="middle" font-size="10" text-anchor="middle" x="673.0" y="86.66666666666667">2025</text><rect fill="lightgrey" height="53.333333333333336" stroke="black" stroke-width="1" width="234.0" x="556.0" y="113.33333333333334" /><text dominant-baseline="middle" font-size="10" text-anchor="middle" x="673.0" y="140.0">Jan</text><rect fill="lightgrey" height="53.333333333333336" stroke="black" stroke-width="1" width="234.0" x="556.0" y="166.66666666666669" /><line stroke="black" stroke-width="1" x1="608.0" x2="608.0" y1="166.66666666666669" y2="220.00000000000003" /><text dominant-baseline="middle" font-size="10" text-anchor="middle" x="582.0" y="193.33333333333334">02 (12)</text><line stroke="black" stroke-width="1" x1="790.0" x2="790.0" y1="166.66666666666669" y2="220.00000000000003" /><text dominant-baseline="middle" font-size="10" text-anchor="middle" x="699.0" y="193.33333333333334">03 (19)</text><rect fill="lightgrey" height="53.333333333333336" stroke="black" stroke-width="1" width="234.0" x="556.0" y="220.00000000000003" /><line stroke="black" stroke-width="1" x1="582.0" x2="582.0" y1="220.00000000000003" y2="273.33333333333337" /><text dominant-baseline="middle" font-size="10" text-anchor="middle" x="569.0" y="246.66666666666669">S</text><line stroke="black" stroke-width="1" x1="608.0" x2="608.0" y1="220.00000000000003" y2="273.33333333333337" /><text dominant-baseline="middle" font-size="10" text-anchor="middle" x="595.0" y="246.66666666666669">S</text><line stroke="black" stroke-width="1" x1="634.0" x2="634.0" y1="220.00000000000003" y2="273.33333333333337" /><text dominant-baseline="middle" font-size="10" text-anchor="middle" x="621.0" y="246.66666666666669">M</text><line stroke="black" stroke-width="1" x1="660.0" x2="660.0" y1="220.00000000000003" y2="273.33333333333337" /><text dominant-baseline="middle" font-size="10" text-anchor="middle" x="647.0" y="246.66666666666669">T</text><line stroke="black" stroke-width="1" x1="686.0" x2="686.0" y1="220.00000000000003" y2="273.33333333333337" /><text dominant-baseline="middle" font-size="10" text-anchor="middle" x="673.0" y="246.66666666666669">W</text><line stroke="black" stroke-width="1" x1="712.0" x2="712.0" y1="220.00000000000003" y2="273.33333333333337" /><text dominant-baseline="middle" font-size="10" text-anchor="middle" x="699.0" y="246.66666666666669">T</text><line stroke="black" stroke-width="1" x1="738.0" x2="738.0" y1="220.00000000000003" y2="273.33333333333337" /><text dominant-baseline="middle" font-size="10" text-anchor="middle" x="725.0" y="246.66666666666669">F</text><line stroke="black" stroke-width="1" x1="764.0" x2="764.0" y1="220.00000000000003" y2="273.33333333333337" /><text dominant-baseline="middle" font-size="10" text-anchor="middle" x="751.0" y="246.66666666666669">S</text><line stroke="black" stroke-width="1" x1="790.0" x2="790.0" y1="220.00000000000003" y2="273.33333333333337" /><text dominant-baseline="middle" font-size="10" text-anchor="middle" x="777.0" y="246.66666666666669">S</text><rect fill="none" height="266.6666666666667" stroke="purple" stroke-width="1" width="234.0" x="556.0" y="273.33333333333337" /><line stroke="gray" stroke-width="1" x1="556.0" x2="790.0" y1="273.33333333333337" y2="273.33333333333337" /><line stroke="gray" stroke-width="1" x1="556.0" x2="790.0" y1="300.00000000000006" y2="300.00000000000006" /><line stroke="gray" stroke-width="1" x1="556.0" x2="790.0" y1="326.6666666666667" y2="326.6666666666667" /><line stroke="gray" stroke-width="1" x1="556.0" x2="790.0" y1="353.33333333333337" y2="353.33333333333337" /><line stroke="gray" stroke-width="1" x1="556.0" x2="790.0" y1="380.00000000000006" y2="380.00000000000006" /><line stroke="gray" stroke-width="1" x1="556.0" x2="790.0" y1="406.66666666666674" y2="406.66666666666674" /><line stroke="gray" stroke-width="1" x1="556.0" x2="790.0" y1="433.33333333333337" y2="433.33333333333337" /><line stroke="gray" stroke-width="1" x1="556.0" x2="790.0" y1="460.00000000000006" y2="460.00000000000006" /><line stroke="gray" stroke-width="1" x1="556.0" x2="790.0" y1="486.66666666666674" y2="486.66666666666674" /><line stroke="gray" stroke-width="1" x1="556.0" x2="790.0" y1="513.3333333333334" y2="513.3333333333334" /><line stroke="gray" stroke-width="1" x1="556.0" x2="790.0" y1="540.0" y2="540.0" /><line stroke="gray" stroke-width="1" x1="608.0" x2="608.0" y1="273.33333333333337" y2="540.0" /><line stroke="gray" stroke-width="1" x1="790.0" x2="790.0" y1="273.33333333333337" y2="540.0" /><line stroke="gray" stroke-width="1" x1="582.0" x2="582.0" y1="273.33333333333337" y2="540.0" /><line stroke="gray" stroke-width="1" x1="608.0" x2="608.0" y1="273.33333333333337" y2="540.0" /><line stroke="gray" stroke-width="1" x1="634.0" x2="634.0" y1="273.33333333333337" y2="540.0" /><line stroke="gray" stroke-width="1" x1="660.0" x2="660.0" y1="273.33333333333337" y2="540.0" /><line stroke="gray" stroke-width="1" x1="686.0" x2="686.0" y1="273.33333333333337" y2="540.0" /><line stroke="gray" stroke-width="1" x1="712.0" x2="712.0" y1="273.33333333333337" y2="540.0" /><line stroke="gray" stroke-width="1" x1="738.0" x2="738.0" y1="273.33333333333337" y2="540.0" /><line stroke="gray" stroke-width="1" x1="764.0" x2="764.0" y1="273.33333333333337" y2="540.0" /><line stroke="gray" stroke-width="1" x1="790.0" x2="790.0" y1="273.33333333333337" y2="540.0" /></svg>