<?xml version="1.0" encoding="utf-8" ?>
<svg baseProfile="full" height="600.0" version="1.1" width="800.0" xmlns="http://www.w3.org/2000/svg" xmlns:ev="http://www.w3.org/2001/xml-events" xmlns:xlink="http://www.w3.org/1999/xlink"><defs /><rect fill="white" height="600.0" stroke="black" stroke-width="2" width="800.0" x="0" y="0" /><rect fill="lightgray" height="50.0" stroke="black" stroke-width="1" width="780.0" x="10.0" y="10.0" /><rect fill="lightgray" height="50.0" stroke="black" stroke-width="1" width="780.0" x="10.0" y="540.0" /><rect fill="none" height="480.0" stroke="blue" stroke-dasharray="4" stroke-width="1" width="780.0" x="10.0" y="60.0" /><rect fill="none" height="480.0" stroke="red" stroke-width="1" width="780.0" x="10.0" y="60.0" /><rect fill="lightgrey" height="53.333333333333336" stroke="black" stroke-width="1" width="780.0" x="10.0" y="60.0" /><text dominant-baseline="middle" font-size="10" text-anchor="middle" x="400.0" y="86.66666666666667">2025</text><rect fill="lightgrey" height="53.333333333333336" stroke="black" stroke-width="1" width="780.0" x="10.0" y="113.33333333333334" /><line stroke="black" stroke-width="1" x1="270.0" x2="270.0" y1="113.33333333333334" y2="166.66666666666669" /><text dominant-baseline="middle" font-size="10" text-anchor="middle" x="140.0" y="140.0">Jan</text><line stroke="black" stroke-width="1" x1="504.83870967741933" x2="504.83870967741933" y1="113.33333333333334" y2="166.66666666666669" /><text dominant-baseline="middle" font-size="10" text-anchor="middle" x="387.41935483870964" y="140.0">Feb</text><line stroke="black" stroke-width="1" x1="764.8387096774193" x2="764.8387096774193" y1="113.33333333333334" y2="166.66666666666669" /><text dominant-baseline="middle" font-size="10" text-anchor="middle" x="634.8387096774193" y="140.0">Mar</text><text dominant-baseline="middle" font-size="10" text-anchor="middle" x="777.4193548387096" y="140.0">A</text><rect fill="lightgrey" height="53.333333333333336" stroke="black" stroke-width="1" width="780.0" x="10.0" y="166.66666666666669" /><line stroke="black" stroke-width="1" x1="51.935483870967744" x2="51.935483870967744" y1="166.66666666666669" y2="220.00000000000003" /><text dominant-baseline="middle" font-size="10" text-anchor="middle" x="30.967741935483872" y="193.33333333333334">01</text><line stroke="black" stroke-width="1" x1="110.64516129032258" x2="110.64516129032258" y1="166.66666666666669" y2="220.00000000000003" /><text dominant-baseline="middle" font-size="10" text-anchor="middle" x="81.29032258064515" y="193.33333333333334">02 (12)</text><line stroke="black" stroke-width="1" x1="169.3548387096774" x2="169.3548387096774" y1="166.66666666666669" y2="220.00000000000003" /><text dominant-baseline="middle" font-size="10" text-anchor="middle" x="140.0" y="193.33333333333334">03 (19)</text><line stroke="black" stroke-width="1" x1="228.06451612903226" x2="228.06451612903226" y1="166.66666666666669" y2="220.00000000000003" /><text dominant-baseline="middle" font-size="10" text-anchor="middle" x="198.70967741935482" y="193.33333333333334">04 (26)</text><line stroke="black" stroke-width="1" x1="286.7741935483871" x2="286.7741935483871" y1="166.66666666666669" y2="220.00000000000003" /><text dominant-baseline="middle" font-size="10" text-anchor="middle" x="257.41935483870964" y="193.33333333333334">05 (02)</text><line stroke="black" stroke-width="1" x1="345.48387096774195" x2="345.48387096774195" y1="166.66666666666669" y2="220.00000000000003" /><text dominant-baseline="middle" font-size="10" text-anchor="middle" x="316.1290322580645" y="193.33333333333334">06 (09)</text><line stroke="black" stroke-width="1" x1="404.19354838709677" x2="404.19354838709677" y1="166.66666666666669" y2="220.00000000000003" /><text dominant-baseline="middle" font-size="10" text-anchor="middle" x="374.8387096774194" y="193.33333333333334">07 (16)</text><line stroke="black" stroke-width="1" x1="462.9032258064516" x2="462.9032258064516" y1="166.66666666666669" y2="220.00000000000003" /><text dominant-baseline="middle" font-size="10" text-anchor="middle" x="433.54838709677415" y="193.33333333333334">08 (23)</text><line stroke="black" stroke-width="1" x1="521.6129032258063" x2="521.6129032258063" y1="166.66666666666669" y2="220.00000000000003" /><text dominant-baseline="middle" font-size="10" text-anchor="middle" x="492.25806451612897" y="193.33333333333334">09 (02)</text><line stroke="black" stroke-width="1" x1="580.3225806451612" x2="580.3225806451612" y1="166.66666666666669" y2="220.00000000000003" /><text dominant-baseline="middle" font-size="10" text-anchor="middle" x="550.9677419354838" y="193.33333333333334">10 (09)</text><line stroke="black" stroke-width="1" x1="639.0322580645161" x2="639.0322580645161" y1="166.66666666666669" y2="220.00000000000003" /><text dominant-baseline="middle" font-size="10" text-anchor="middle" x="609.6774193548387" y="193.33333333333334">11 (16)</text><line stroke="black" stroke-width="1" x1="697.741935483871" x2="697.741935483871" y1="166.66666666666669" y2="220.00000000000003" /><text dominant-baseline="middle" font-size="10" text-anchor="middle" x="668.3870967741935" y="193.33333333333334">12 (23)</text><line stroke="black" stroke-width="1" x1="756.4516129032257" x2="756.4516129032257" y1="166.66666666666669" y2="220.00000000000003" /><text dominant-baseline="middle" font-size="10" text-anchor="middle" x="727.0967741935483" y="193.33333333333334">13 (30)</text><text dominant-baseline="middle" font-size="10" text-anchor="middle" x="773.2258064516129" y="193.33333333333334">14</text><rect fill="lightgrey" height="53.333333333333336" stroke="black" stroke-width="1" width="780.0" x="10.0" y="220.00000000000003" /><line stroke="black" stroke-width="1" x1="18.387096774193548" x2="18.387096774193548" y1="220.00000000000003" y2="273.33333333333337" /><line stroke="black" stroke-width="1" x1="26.774193548387096" x2="26.774193548387096" y1="220.00000000000003" y2="273.33333333333337" /><line stroke="black" stroke-width="1" x1="35.16129032258064" x2="35.16129032258064" y1="220.00000000000003" y2="273.33333333333337" /><line stroke="black" stroke-width="1" x1="43.54838709677419" x2="43.54838709677419" y1="220.00000000000003" y2="273.33333333333337" /><line stroke="black" stroke-width="1" x1="51.935483870967744" x2="51.935483870967744" y1="220.00000000000003" y2="273.33333333333337" /><line stroke="black" stroke-width="1" x1="60.32258064516129" x2="60.32258064516129" y1="220.00000000000003" y2="273.33333333333337" /><line stroke="black" stroke-width="1" x1="68.70967741935483" x2="68.70967741935483" y1="220.00000000000003" y2="273.33333333333337" /><line stroke="black" stroke-width="1" x1="77.09677419354838" x2="77.09677419354838" y1="220.00000000000003" y2="273.33333333333337" /><line stroke="black" stroke-width="1" x1="85.48387096774194" x2="85.48387096774194" y1="220.00000000000003" y2="273.33333333333337" /><line stroke="black" stroke-width="1" x1="93.87096774193549" x2="93.87096774193549" y1="220.00000000000003" y2="273.33333333333337" /><line stroke="black" stroke-width="1" x1="102.25806451612902" x2="102.25806451612902" y1="220.00000000000003" y2="273.33333333333337" /><line stroke="black" stroke-width="1" x1="110.64516129032258" x2="110.64516129032258" y1="220.00000000000003" y2="273.33333333333337" /><line stroke="black" stroke-width="1" x1="119.03225806451613" x2="119.03225806451613" y1="220.00000000000003" y2="273.33333333333337" /><line stroke="black" stroke-width="1" x1="127.41935483870967" x2="127.41935483870967" y1="220.00000000000003" y2="273.33333333333337" /><line stroke="black" stroke-width="1" x1="135.80645161290323" x2="135.80645161290323" y1="220.00000000000003" y2="273.33333333333337" /><line stroke="black" stroke-width="1" x1="144.19354838709677" x2="144.19354838709677" y1="220.00000000000003" y2="273.33333333333337" /><line stroke="black" stroke-width="1" x1="152.5806451612903" x2="152.5806451612903" y1="220.00000000000003" y2="273.33333333333337" /><line stroke="black" stroke-width="1" x1="160.96774193548387" x2="160.96774193548387" y1="220.00000000000003" y2="273.33333333333337" /><line stroke="black" stroke-width="1" x1="169.3548387096774" x2="169.3548387096774" y1="220.00000000000003" y2="273.33333333333337" /><line stroke="black" stroke-width="1" x1="177.74193548387098" x2="177.74193548387098" y1="220.00000000000003" y2="273.33333333333337" /><line stroke="black" stroke-width="1" x1="186.1290322580645" x2="186.1290322580645" y1="220.00000000000003" y2="273.33333333333337" /><line stroke="black" stroke-width="1" x1="194.51612903225805" x2="194.51612903225805" y1="220.00000000000003" y2="273.33333333333337" /><line stroke="black" stroke-width="1" x1="202.90322580645162" x2="202.90322580645162" y1="220.00000000000003" y2="273.33333333333337" /><line stroke="black" stroke-width="1" x1="211.29032258064515" x2="211.29032258064515" y1="220.00000000000003" y2="273.33333333333337" /><line stroke="black" stroke-width="1" x1="219.6774193548387" x2="219.6774193548387" y1="220.00000000000003" y2="273.33333333333337" /><line stroke="black" stroke-width="1" x1="228.06451612903226" x2="228.06451612903226" y1="220.00000000000003" y2="273.33333333333337" /><line stroke="black" stroke-width="1" x1="236.4516129032258" x2="236.4516129032258" y1="220.00000000000003" y2="273.33333333333337" /><line stroke="black" stroke-width="1" x1="244.83870967741933" x2="244.83870967741933" y1="220.00000000000003" y2="273.33333333333337" /><line stroke="black" stroke-width="1" x1="253.2258064516129" x2="253.2258064516129" y1="220.00000000000003" y2="273.33333333333337" /><line stroke="black" stroke-width="1" x1="261.61290322580646" x2="261.61290322580646" y1="220.00000000000003" y2="273.33333333333337" /><line stroke="black" stroke-width="1" x1="270.0" x2="270.0" y1="220.00000000000003" y2="273.33333333333337" /><line stroke="black" stroke-width="1" x1="278.38709677419354" x2="278.38709677419354" y1="220.00000000000003" y2="273.33333333333337" /><line stroke="black" stroke-width="1" x1="286.7741935483871" x2="286.7741935483871" y1="220.00000000000003" y2="273.33333333333337" /><line stroke="black" stroke-width="1" x1="295.1612903225806" x2="295.1612903225806" y1="220.00000000000003" y2="273.33333333333337" /><line stroke="black" stroke-width="1" x1="303.5483870967742" x2="303.5483870967742" y1="220.00000000000003" y2="273.33333333333337" /><line stroke="black" stroke-width="1" x1="311.93548387096774" x2="311.93548387096774" y1="220.00000000000003" y2="273.33333333333337" /><line stroke="black" stroke-width="1" x1="320.3225806451613" x2="320.3225806451613" y1="220.00000000000003" y2="273.33333333333337" /><line stroke="black" stroke-width="1" x1="328.7096774193548" x2="328.7096774193548" y1="220.00000000000003" y2="273.33333333333337" /><line stroke="black" stroke-width="1" x1="337.09677419354836" x2="337.09677419354836" y1="220.00000000000003" y2="273.33333333333337" /><line stroke="black" stroke-width="1" x1="345.48387096774195" x2="345.48387096774195" y1="220.00000000000003" y2="273.33333333333337" /><line stroke="black" stroke-width="1" x1="353.8709677419355" x2="353.8709677419355" y1="220.00000000000003" y2="273.33333333333337" /><line stroke="black" stroke-width="1" x1="362.258064516129" x2="362.258064516129" y1="220.00000000000003" y2="273.33333333333337" /><line stroke="black" stroke-width="1" x1="370.64516129032256" x2="370.64516129032256" y1="220.00000000000003" y2="273.33333333333337" /><line stroke="black" stroke-width="1" x1="379.0322580645161" x2="379.0322580645161" y1="220.00000000000003" y2="273.33333333333337" /><line stroke="black" stroke-width="1" x1="387.41935483870964" x2="387.41935483870964" y1="220.00000000000003" y2="273.33333333333337" /><line stroke="black" stroke-width="1" x1="395.80645161290323" x2="395.80645161290323" y1="220.00000000000003" y2="273.33333333333337" /><line stroke="black" stroke-width="1" x1="404.19354838709677" x2="404.19354838709677" y1="220.00000000000003" y2="273.33333333333337" /><line stroke="black" stroke-width="1" x1="412.5806451612903" x2="412.5806451612903" y1="220.00000000000003" y2="273.33333333333337" /><line stroke="black" stroke-width="1" x1="420.96774193548384" x2="420.96774193548384" y1="220.00000000000003" y2="273.33333333333337" /><line stroke="black" stroke-width="1" x1="429.3548387096774" x2="429.3548387096774" y1="220.00000000000003" y2="273.33333333333337" /><line stroke="black" stroke-width="1" x1="437.741935483871" x2="437.741935483871" y1="220.00000000000003" y2="273.33333333333337" /><line stroke="black" stroke-width="1" x1="446.1290322580645" x2="446.1290322580645" y1="220.00000000000003" y2="273.33333333333337" /><line stroke="black" stroke-width="1" x1="454.51612903225805" x2="454.51612903225805" y1="220.00000000000003" y2="273.33333333333337" /><line stroke="black" stroke-width="1" x1="462.9032258064516" x2="462.9032258064516" y1="220.00000000000003" y2="273.33333333333337" /><line stroke="black" stroke-width="1" x1="471.2903225806451" x2="471.2903225806451" y1="220.00000000000003" y2="273.33333333333337" /><line stroke="black" stroke-width="1" x1="479.67741935483866" x2="479.67741935483866" y1="220.00000000000003" y2="273.33333333333337" /><line stroke="black" stroke-width="1" x1="488.06451612903226" x2="488.06451612903226" y1="220.00000000000003" y2="273.33333333333337" /><line stroke="black" stroke-width="1" x1="496.4516129032258" x2="496.4516129032258" y1="220.00000000000003" y2="273.33333333333337" /><line stroke="black" stroke-width="1" x1="504.83870967741933" x2="504.83870967741933" y1="220.00000000000003" y2="273.33333333333337" /><line stroke="black" stroke-width="1" x1="513.2258064516129" x2="513.2258064516129" y1="220.00000000000003" y2="273.33333333333337" /><line stroke="black" stroke-width="1" x1="521.6129032258063" x2="521.6129032258063" y1="220.00000000000003" y2="273.33333333333337" /><line stroke="black" stroke-width="1" x1="530.0" x2="530.0" y1="220.00000000000003" y2="273.33333333333337" /><line stroke="black" stroke-width="1" x1="538.3870967741935" x2="538.3870967741935" y1="220.00000000000003" y2="273.33333333333337" /><line stroke="black" stroke-width="1" x1="546.7741935483871" x2="546.7741935483871" y1="220.00000000000003" y2="273.33333333333337" /><line stroke="black" stroke-width="1" x1="555.1612903225806" x2="555.1612903225806" y1="220.00000000000003" y2="273.33333333333337" /><line stroke="black" stroke-width="1" x1="563.5483870967741" x2="563.5483870967741" y1="220.00000000000003" y2="273.33333333333337" /><line stroke="black" stroke-width="1" x1="571.9354838709677" x2="571.9354838709677" y1="220.00000000000003" y2="273.33333333333337" /><line stroke="black" stroke-width="1" x1="580.3225806451612" x2="580.3225806451612" y1="220.00000000000003" y2="273.33333333333337" /><line stroke="black" stroke-width="1" x1="588.7096774193548" x2="588.7096774193548" y1="220.00000000000003" y2="273.33333333333337" /><line stroke="black" stroke-width="1" x1="597.0967741935484" x2="597.0967741935484" y1="220.00000000000003" y2="273.33333333333337" /><line stroke="black" stroke-width="1" x1="605.483870967742" x2="605.483870967742" y1="220.00000000000003" y2="273.33333333333337" /><line stroke="black" stroke-width="1" x1="613.8709677419355" x2="613.8709677419355" y1="220.00000000000003" y2="273.33333333333337" /><line stroke="black" stroke-width="1" x1="622.258064516129" x2="622.258064516129" y1="220.00000000000003" y2="273.33333333333337" /><line stroke="black" stroke-width="1" x1="630.6451612903226" x2="630.6451612903226" y1="220.00000000000003" y2="273.33333333333337" /><line stroke="black" stroke-width="1" x1="639.0322580645161" x2="639.0322580645161" y1="220.00000000000003" y2="273.33333333333337" /><line stroke="black" stroke-width="1" x1="647.4193548387096" x2="647.4193548387096" y1="220.00000000000003" y2="273.33333333333337" /><line stroke="black" stroke-width="1" x1="655.8064516129032" x2="655.8064516129032" y1="220.00000000000003" y2="273.33333333333337" /><line stroke="black" stroke-width="1" x1="664.1935483870967" x2="664.1935483870967" y1="220.00000000000003" y2="273.33333333333337" /><line stroke="black" stroke-width="1" x1="672.5806451612902" x2="672.5806451612902" y1="220.00000000000003" y2="273.33333333333337" /><line stroke="black" stroke-width="1" x1="680.9677419354839" x2="680.9677419354839" y1="220.00000000000003" y2="273.33333333333337" /><line stroke="black" stroke-width="1" x1="689.3548387096774" x2="689.3548387096774" y1="220.00000000000003" y2="273.33333333333337" /><line stroke="black" stroke-width="1" x1="697.741935483871" x2="697.741935483871" y1="220.00000000000003" y2="273.33333333333337" /><line stroke="black" stroke-width="1" x1="706.1290322580645" x2="706.1290322580645" y1="220.00000000000003" y2="273.33333333333337" /><line stroke="black" stroke-width="1" x1="714.516129032258" x2="714.516129032258" y1="220.00000000000003" y2="273.33333333333337" /><line stroke="black" stroke-width="1" x1="722.9032258064516" x2="722.9032258064516" y1="220.00000000000003" y2="273.33333333333337" /><line stroke="black" stroke-width="1" x1="731.2903225806451" x2="731.2903225806451" y1="220.00000000000003" y2="273.33333333333337" /><line stroke="black" stroke-width="1" x1="739.6774193548387" x2="739.6774193548387" y1="220.00000000000003" y2="273.33333333333337" /><line stroke="black" stroke-width="1" x1="748.0645161290322" x2="748.0645161290322" y1="220.00000000000003" y2="273.33333333333337" /><line stroke="black" stroke-width="1" x1="756.4516129032257" x2="756.4516129032257" y1="220.00000000000003" y2="273.33333333333337" /><line stroke="black" stroke-width="1" x1="764.8387096774193" x2="764.8387096774193" y1="220.00000000000003" y2="273.33333333333337" /><line stroke="black" stroke-width="1" x1="773.2258064516129" x2="773.2258064516129" y1="220.00000000000003" y2="273.33333333333337" /><line stroke="black" stroke-width="1" x1="781.6129032258065" x2="781.6129032258065" y1="220.00000000000003" y2="273.33333333333337" /><line stroke="black" stroke-width="1" x1="790.0" x2="790.0" y1="220.00000000000003" y2="273.33333333333337" /><rect fill="none" height="266.6666666666667" stroke="purple" stroke-width="1" width="780.0" x="10.0" y="273.33333333333337" /><line stroke="gray" stroke-width="1" x1="10.0" x2="790.0" y1="273.33333333333337" y2="273.33333333333337" /><line stroke="gray" stroke-width="1" x1="10.0" x2="790.0" y1="540.0" y2="540.0" /><line stroke="gray" stroke-width="1" x1="270.0" x2="270.0" y1="273.33333333333337" y2="540.0" /><line stroke="gray" stroke-width="1" x1="504.83870967741933" x2="504.83870967741933" y1="273.33333333333337" y2="540.0" /><line stroke="gray" stroke-width="1" x1="764.8387096774193" x2="764.8387096774193" y1="273.33333333333337" y2="540.0" /><line stroke="gray" stroke-width="1" x1="51.935483870967744" x2="51.935483870967744" y1="273.33333333333337" y2="540.0" /><line stroke="gray" stroke-width="1" x1="110.64516129032258" x2="110.64516129032258" y1="273.33333333333337" y2="540.0" /><line stroke="gray" stroke-width="1" x1="169.3548387096774" x2="169.3548387096774" y1="273.33333333333337" y2="540.0" /><line stroke="gray" stroke-width="1" x1="228.06451612903226" x2="228.06451612903226" y1="273.33333333333337" y2="540.0" /><line stroke="gray" stroke-width="1" x1="286.7741935483871" x2="286.7741935483871" y1="273.33333333333337" y2="540.0" /><line stroke="gray" stroke-width="1" x1="345.48387096774195" x2="345.48387096774195" y1="273.33333333333337" y2="540.0" /><line stroke="gray" stroke-width="1" x1="404.19354838709677" x2="404.19354838709677" y1="273.33333333333337" y2="540.0" /><line stroke="gray" stroke-width="1" x1="462.9032258064516" x2="462.9032258064516" y1="273.33333333333337" y2="540.0" /><line stroke="gray" stroke-width="1" x1="521.6129032258063" x2="521.6129032258063" y1="273.33333333333337" y2="540.0" /><line stroke="gray" stroke-width="1" x1="580.3225806451612" x2="580.3225806451612" y1="273.33333333333337" y2="540.0" /><line stroke="gray" stroke-width="1" x1="639.0322580645161" x2="639.0322580645161" y1="273.33333333333337" y2="540.0" /><line stroke="gray" stroke-width="1" x1="697.741935483871" x2="697.741935483871" y1="273.33333333333337" y2="540.0" /><line stroke="gray" stroke-width="1" x1="756.4516129032257" x2="756.4516129032257" y1="273.33333333333337" y2="540.0" /><line stroke="gray" stroke-width="1" x1="18.387096774193548" x2="18.387096774193548" y1="273.33333333333337" y2="540.0" /><line stroke="gray" stroke-width="1" x1="26.774193548387096" x2="26.774193548387096" y1="273.33333333333337" y2="540.0" /><line stroke="gray" stroke-width="1" x1="35.16129032258064" x2="35.16129032258064" y1="273.33333333333337" y2="540.0" /><line stroke="gray" stroke-width="1" x1="43.54838709677419" x2="43.54838709677419" y1="273.33333333333337" y2="540.0" /><line stroke="gray" stroke-width="1" x1="51.935483870967744" x2="51.935483870967744" y1="273.33333333333337" y2="540.0" /><line stroke="gray" stroke-width="1" x1="60.32258064516129" x2="60.32258064516129" y1="273.33333333333337" y2="540.0" /><line stroke="gray" stroke-width="1" x1="68.70967741935483" x2="68.70967741935483" y1="273.33333333333337" y2="540.0" /><line stroke="gray" stroke-width="1" x1="77.09677419354838" x2="77.09677419354838" y1="273.33333333333337" y2="540.0" /><line stroke="gray" stroke-width="1" x1="85.48387096774194" x2="85.48387096774194" y1="273.33333333333337" y2="540.0" /><line stroke="gray" stroke-width="1" x1="93.87096774193549" x2="93.87096774193549" y1="273.33333333333337" y2="540.0" /><line stroke="gray" stroke-width="1" x1="102.25806451612902" x2="102.25806451612902" y1="273.33333333333337" y2="540.0" /><line stroke="gray" stroke-width="1" x1="110.64516129032258" x2="110.64516129032258" y1="273.33333333333337" y2="540.0" /><line stroke="gray" stroke-width="1" x1="119.03225806451613" x2="119.03225806451613" y1="273.33333333333337" y2="540.0" /><line stroke="gray" stroke-width="1" x1="127.41935483870967" x2="127.41935483870967" y1="273.33333333333337" y2="540.0" /><line stroke="gray" stroke-width="1" x1="135.80645161290323" x2="135.80645161290323" y1="273.33333333333337" y2="540.0" /><line stroke="gray" stroke-width="1" x1="144.19354838709677" x2="144.19354838709677" y1="273.33333333333337" y2="540.0" /><line stroke="gray" stroke-width="1" x1="152.5806451612903" x2="152.5806451612903" y1="273.33333333333337" y2="540.0" /><line stroke="gray" stroke-width="1" x1="160.96774193548387" x2="160.96774193548387" y1="273.33333333333337" y2="540.0" /><line stroke="gray" stroke-width="1" x1="169.3548387096774" x2="169.3548387096774" y1="273.33333333333337" y2="540.0" /><line stroke="gray" stroke-width="1" x1="177.74193548387098" x2="177.74193548387098" y1="273.33333333333337" y2="540.0" /><line stroke="gray" stroke-width="1" x1="186.1290322580645" x2="186.1290322580645" y1="273.33333333333337" y2="540.0" /><line stroke="gray" stroke-width="1" x1="194.51612903225805" x2="194.51612903225805" y1="273.33333333333337" y2="540.0" /><line stroke="gray" stroke-width="1" x1="202.90322580645162" x2="202.90322580645162" y1="273.33333333333337" y2="540.0" /><line stroke="gray" stroke-width="1" x1="211.29032258064515" x2="211.29032258064515" y1="273.33333333333337" y2="540.0" /><line stroke="gray" stroke-width="1" x1="219.6774193548387" x2="219.6774193548387" y1="273.33333333333337" y2="540.0" /><line stroke="gray" stroke-width="1" x1="228.06451612903226" x2="228.06451612903226" y1="273.33333333333337" y2="540.0" /><line stroke="gray" stroke-width="1" x1="236.4516129032258" x2="236.4516129032258" y1="273.33333333333337" y2="540.0" /><line stroke="gray" stroke-width="1" x1="244.83870967741933" x2="244.83870967741933" y1="273.33333333333337" y2="540.0" /><line stroke="gray" stroke-width="1" x1="253.2258064516129" x2="253.2258064516129" y1="273.33333333333337" y2="540.0" /><line stroke="gray" stroke-width="1" x1="261.61290322580646" x2="261.61290322580646" y1="273.33333333333337" y2="540.0" /><line stroke="gray" stroke-width="1" x1="270.0" x2="270.0" y1="273.33333333333337" y2="540.0" /><line stroke="gray" stroke-width="1" x1="278.38709677419354" x2="278.38709677419354" y1="273.33333333333337" y2="540.0" /><line stroke="gray" stroke-width="1" x1="286.7741935483871" x2="286.7741935483871" y1="273.33333333333337" y2="540.0" /><line stroke="gray" stroke-width="1" x1="295.1612903225806" x2="295.1612903225806" y1="273.33333333333337" y2="540.0" /><line stroke="gray" stroke-width="1" x1="303.5483870967742" x2="303.5483870967742" y1="273.33333333333337" y2="540.0" /><line stroke="gray" stroke-width="1" x1="311.93548387096774" x2="311.93548387096774" y1="273.33333333333337" y2="540.0" /><line stroke="gray" stroke-width="1" x1="320.3225806451613" x2="320.3225806451613" y1="273.33333333333337" y2="540.0" /><line stroke="gray" stroke-width="1" x1="328.7096774193548" x2="328.7096774193548" y1="273.33333333333337" y2="540.0" /><line stroke="gray" stroke-width="1" x1="337.09677419354836" x2="337.09677419354836" y1="273.33333333333337" y2="540.0" /><line stroke="gray" stroke-width="1" x1="345.48387096774195" x2="345.48387096774195" y1="273.33333333333337" y2="540.0" /><line stroke="gray" stroke-width="1" x1="353.8709677419355" x2="353.8709677419355" y1="273.33333333333337" y2="540.0" /><line stroke="gray" stroke-width="1" x1="362.258064516129" x2="362.258064516129" y1="273.33333333333337" y2="540.0" /><line stroke="gray" stroke-width="1" x1="370.64516129032256" x2="370.64516129032256" y1="273.33333333333337" y2="540.0" /><line stroke="gray" stroke-width="1" x1="379.0322580645161" x2="379.0322580645161" y1="273.33333333333337" y2="540.0" /><line stroke="gray" stroke-width="1" x1="387.41935483870964" x2="387.41935483870964" y1="273.33333333333337" y2="540.0" /><line stroke="gray" stroke-width="1" x1="395.80645161290323" x2="395.80645161290323" y1="273.33333333333337" y2="540.0" /><line stroke="gray" stroke-width="1" x1="404.19354838709677" x2="404.19354838709677" y1="273.33333333333337" y2="540.0" /><line stroke="gray" stroke-width="1" x1="412.5806451612903" x2="412.5806451612903" y1="273.33333333333337" y2="540.0" /><line stroke="gray" stroke-width="1" x1="420.96774193548384" x2="420.96774193548384" y1="273.33333333333337" y2="540.0" /><line stroke="gray" stroke-width="1" x1="429.3548387096774" x2="429.3548387096774" y1="273.33333333333337" y2="540.0" /><line stroke="gray" stroke-width="1" x1="437.741935483871" x2="437.741935483871" y1="273.33333333333337" y2="540.0" /><line stroke="gray" stroke-width="1" x1="446.1290322580645" x2="446.1290322580645" y1="273.33333333333337" y2="540.0" /><line stroke="gray" stroke-width="1" x1="454.51612903225805" x2="454.51612903225805" y1="273.33333333333337" y2="540.0" /><line stroke="gray" stroke-width="1" x1="462.9032258064516" x2="462.9032258064516" y1="273.33333333333337" y2="540.0" /><line stroke="gray" stroke-width="1" x1="471.2903225806451" x2="471.2903225806451" y1="273.33333333333337" y2="540.0" /><line stroke="gray" stroke-width="1" x1="479.67741935483866" x2="479.67741935483866" y1="273.33333333333337" y2="540.0" /><line stroke="gray" stroke-width="1" x1="488.06451612903226" x2="488.06451612903226" y1="273.33333333333337" y2="540.0" /><line stroke="gray" stroke-width="1" x1="496.4516129032258" x2="496.4516129032258" y1="273.33333333333337" y2="540.0" /><line stroke="gray" stroke-width="1" x1="504.83870967741933" x2="504.83870967741933" y1="273.33333333333337" y2="540.0" /><line stroke="gray" stroke-width="1" x1="513.2258064516129" x2="513.2258064516129" y1="273.33333333333337" y2="540.0" /><line stroke="gray" stroke-width="1" x1="521.6129032258063" x2="521.6129032258063" y1="273.33333333333337" y2="540.0" /><line stroke="gray" stroke-width="1" x1="530.0" x2="530.0" y1="273.33333333333337" y2="540.0" /><line stroke="gray" stroke-width="1" x1="538.3870967741935" x2="538.3870967741935" y1="273.33333333333337" y2="540.0" /><line stroke="gray" stroke-width="1" x1="546.7741935483871" x2="546.7741935483871" y1="273.33333333333337" y2="540.0" /><line stroke="gray" stroke-width="1" x1="555.1612903225806" x2="555.1612903225806" y1="273.33333333333337" y2="540.0" /><line stroke="gray" stroke-width="1" x1="563.5483870967741" x2="563.5483870967741" y1="273.33333333333337" y2="540.0" /><line stroke="gray" stroke-width="1" x1="571.9354838709677" x2="571.9354838709677" y1="273.33333333333337" y2="540.0" /><line stroke="gray" stroke-width="1" x1="580.3225806451612" x2="580.3225806451612" y1="273.33333333333337" y2="540.0" /><line stroke="gray" stroke-width="1" x1="588.7096774193548" x2="588.7096774193548" y1="273.33333333333337" y2="540.0" /><line stroke="gray" stroke-width="1" x1="597.0967741935484" x2="597.0967741935484" y1="273.33333333333337" y2="540.0" /><line stroke="gray" stroke-width="1" x1="605.483870967742" x2="605.483870967742" y1="273.33333333333337" y2="540.0" /><line stroke="gray" stroke-width="1" x1="613.8709677419355" x2="613.8709677419355" y1="273.33333333333337" y2="540.0" /><line stroke="gray" stroke-width="1" x1="622.258064516129" x2="622.258064516129" y1="273.33333333333337" y2="540.0" /><line stroke="gray" stroke-width="1" x1="630.6451612903226" x2="630.6451612903226" y1="273.33333333333337" y2="540.0" /><line stroke="gray" stroke-width="1" x1="639.0322580645161" x2="639.0322580645161" y1="273.33333333333337" y2="540.0" /><line stroke="gray" stroke-width="1" x1="647.4193548387096" x2="647.4193548387096" y1="273.33333333333337" y2="540.0" /><line stroke="gray" stroke-width="1" x1="655.8064516129032" x2="655.8064516129032" y1="273.33333333333337" y2="540.0" /><line stroke="gray" stroke-width="1" x1="664.1935483870967" x2="664.1935483870967" y1="273.33333333333337" y2="540.0" /><line stroke="gray" stroke-width="1" x1="672.5806451612902" x2="672.5806451612902" y1="273.33333333333337" y2="540.0" /><line stroke="gray" stroke-width="1" x1="680.9677419354839" x2="680.9677419354839" y1="273.33333333333337" y2="540.0" /><line stroke="gray" stroke-width="1" x1="689.3548387096774" x2="689.3548387096774" y1="273.33333333333337" y2="540.0" /><line stroke="gray" stroke-width="1" x1="697.741935483871" x2="697.741935483871" y1="273.33333333333337" y2="540.0" /><line stroke="gray" stroke-width="1" x1="706.1290322580645" x2="706.1290322580645" y1="273.33333333333337" y2="540.0" /><line stroke="gray" stroke-width="1" x1="714.516129032258" x2="714.516129032258" y1="273.33333333333337" y2="540.0" /><line stroke="gray" stroke-width="1" x1="722.9032258064516" x2="722.9032258064516" y1="273.33333333333337" y2="540.0" /><line stroke="gray" stroke-width="1" x1="731.2903225806451" x2="731.2903225806451" y1="273.33333333333337" y2="540.0" /><line stroke="gray" stroke-width="1" x1="739.6774193548387" x2="739.6774193548387" y1="273.33333333333337" y2="540.0" /><line stroke="gray" stroke-width="1" x1="748.0645161290322" x2="748.0645161290322" y1="273.33333333333337" y2="540.0" /><line stroke="gray" stroke-width="1" x1="756.4516129032257" x2="756.4516129032257" y1="273.33333333333337" y2="540.0" /><line stroke="gray" stroke-width="1" x1="764.8387096774193" x2="764.8387096774193" y1="273.33333333333337" y2="540.0" /><line stroke="gray" stroke-width="1" x1="773.2258064516129" x2="773.2258064516129" y1="273.33333333333337" y2="540.0" /><line stroke="gray" stroke-width="1" x1="781.6129032258065" x2="781.6129032258065" y1="273.33333333333337" y2="540.0" /><line stroke="gray" stroke-width="1" x1="790.0" x2="790.0" y1="273.33333333333337" y2="540.0" /><polygon fill="red" points="790.0,300.00000000000006 896.6666666666667,406.66666666666674 790.0,513.3333333333335 683.3333333333333,406.66666666666674" stroke="black" stroke-width="1" /><text fill="black" font-size="10" x="901.6666666666667" y="406.66666666666674">Task 1</text></svg>