<?xml version="1.0" encoding="utf-8" ?>
<svg baseProfile="full" height="400" version="1.1" width="800" xmlns="http://www.w3.org/2000/svg" xmlns:ev="http://www.w3.org/2001/xml-events" xmlns:xlink="http://www.w3.org/1999/xlink"><defs /><rect fill="white" height="400" width="800" x="0" y="0" /><rect fill="red" height="300" width="164.7058823529412" x="91.1764705882353" y="50" /><text fill="black" font-size="12" text-anchor="middle" x="173.5294117647059" y="200.0">Curtain 1</text><text font-size="12" x="5" y="70">Task 1</text><rect fill="blue" height="30" width="82.3529411764706" x="91.1764705882353" y="50" /><text font-size="12" x="5" y="100">Task 2</text><rect fill="blue" height="30" width="494.11764705882354" x="132.3529411764706" y="80" /><text font-size="12" x="5" y="130">Task 3</text><rect fill="blue" height="30" width="576.4705882352941" x="132.3529411764706" y="110" /><line stroke="red" stroke-dasharray="4,4" stroke-width="1" x1="255.8823529411765" x2="255.8823529411765" y1="30" y2="350" /><text fill="red" font-size="10" text-anchor="middle" x="255.8823529411765" y="25">Pipe 1</text><line stroke="gray" stroke-width="0.5" x1="50.0" x2="50.0" y1="30" y2="350" /><text font-size="10" text-anchor="middle" x="50.0" y="25">2025-03-25</text><line stroke="gray" stroke-width="0.5" x1="91.1764705882353" x2="91.1764705882353" y1="30" y2="350" /><line stroke="gray" stroke-width="0.5" x1="132.3529411764706" x2="132.3529411764706" y1="30" y2="350" /><line stroke="gray" stroke-width="0.5" x1="173.52941176470588" x2="173.52941176470588" y1="30" y2="350" /><line stroke="gray" stroke-width="0.5" x1="214.7058823529412" x2="214.7058823529412" y1="30" y2="350" /><line stroke="gray" stroke-width="0.5" x1="255.8823529411765" x2="255.8823529411765" y1="30" y2="350" /><text font-size="10" text-anchor="middle" x="255.8823529411765" y="25">2025-03-30</text><line stroke="gray" stroke-width="0.5" x1="297.05882352941177" x2="297.05882352941177" y1="30" y2="350" /><line stroke="gray" stroke-width="0.5" x1="338.2352941176471" x2="338.2352941176471" y1="30" y2="350" /><line stroke="gray" stroke-width="0.5" x1="379.4117647058824" x2="379.4117647058824" y1="30" y2="350" /><line stroke="gray" stroke-width="0.5" x1="420.5882352941177" x2="420.5882352941177" y1="30" y2="350" /><line stroke="gray" stroke-width="0.5" x1="461.764705882353" x2="461.764705882353" y1="30" y2="350" /><text font-size="10" text-anchor="middle" x="461.764705882353" y="25">2025-04-04</text><line stroke="gray" stroke-width="0.5" x1="502.9411764705883" x2="502.9411764705883" y1="30" y2="350" /><line stroke="gray" stroke-width="0.5" x1="544.1176470588235" x2="544.1176470588235" y1="30" y2="350" /><line stroke="gray" stroke-width="0.5" x1="585.2941176470589" x2="585.2941176470589" y1="30" y2="350" /><line stroke="gray" stroke-width="0.5" x1="626.4705882352941" x2="626.4705882352941" y1="30" y2="350" /><line stroke="gray" stroke-width="0.5" x1="667.6470588235295" x2="667.6470588235295" y1="30" y2="350" /><text font-size="10" text-anchor="middle" x="667.6470588235295" y="25">2025-04-09</text><line stroke="gray" stroke-width="0.5" x1="708.8235294117648" x2="708.8235294117648" y1="30" y2="350" /><line stroke="gray" stroke-width="0.5" x1="750.0" x2="750.0" y1="30" y2="350" /></svg>