<?xml version="1.0" encoding="utf-8" ?>
<svg baseProfile="full" height="600" version="1.1" width="800" xmlns="http://www.w3.org/2000/svg" xmlns:ev="http://www.w3.org/2001/xml-events" xmlns:xlink="http://www.w3.org/1999/xlink"><defs /><rect fill="white" height="600" stroke="black" stroke-width="2" width="800" x="0" y="0" /><rect fill="lightgray" height="50" stroke="black" stroke-width="1" width="780" x="10" y="10" /><rect fill="lightgray" height="50" stroke="black" stroke-width="1" width="780" x="10" y="540" /><rect fill="none" height="480" stroke="blue" stroke-dasharray="4" stroke-width="1" width="780" x="10" y="60" /><rect fill="none" height="480" stroke="red" stroke-width="1" width="390.0" x="10" y="60" /><rect fill="lightgrey" height="53.333333333333336" stroke="black" stroke-width="1" width="390.0" x="10" y="60" /><text dominant-baseline="middle" font-size="10" text-anchor="middle" x="205.0" y="86.66666666666667">2025</text><rect fill="lightgrey" height="53.333333333333336" stroke="black" stroke-width="1" width="390.0" x="10" y="113.33333333333334" /><line stroke="black" stroke-width="1" x1="106.72" x2="106.72" y1="113.33333333333334" y2="166.66666666666669" /><text dominant-baseline="middle" font-size="10" text-anchor="middle" x="58.36" y="140.0">Jan</text><line stroke="black" stroke-width="1" x1="194.08" x2="194.08" y1="113.33333333333334" y2="166.66666666666669" /><text dominant-baseline="middle" font-size="10" text-anchor="middle" x="150.4" y="140.0">Feb</text><line stroke="black" stroke-width="1" x1="290.8" x2="290.8" y1="113.33333333333334" y2="166.66666666666669" /><text dominant-baseline="middle" font-size="10" text-anchor="middle" x="242.44" y="140.0">Mar</text><line stroke="black" stroke-width="1" x1="384.40000000000003" x2="384.40000000000003" y1="113.33333333333334" y2="166.66666666666669" /><text dominant-baseline="middle" font-size="10" text-anchor="middle" x="337.6" y="140.0">Apr</text><rect fill="lightgrey" height="53.333333333333336" stroke="black" stroke-width="1" width="390.0" x="10" y="166.66666666666669" /><line stroke="black" stroke-width="1" x1="25.6" x2="25.6" y1="166.66666666666669" y2="220.00000000000003" /><line stroke="black" stroke-width="1" x1="47.44" x2="47.44" y1="166.66666666666669" y2="220.00000000000003" /><text dominant-baseline="middle" font-size="10" text-anchor="middle" x="36.519999999999996" y="193.33333333333334">02</text><line stroke="black" stroke-width="1" x1="69.28" x2="69.28" y1="166.66666666666669" y2="220.00000000000003" /><text dominant-baseline="middle" font-size="10" text-anchor="middle" x="58.36" y="193.33333333333334">03</text><line stroke="black" stroke-width="1" x1="91.12" x2="91.12" y1="166.66666666666669" y2="220.00000000000003" /><text dominant-baseline="middle" font-size="10" text-anchor="middle" x="80.2" y="193.33333333333334">04</text><line stroke="black" stroke-width="1" x1="112.96000000000001" x2="112.96000000000001" y1="166.66666666666669" y2="220.00000000000003" /><text dominant-baseline="middle" font-size="10" text-anchor="middle" x="102.04" y="193.33333333333334">05</text><line stroke="black" stroke-width="1" x1="134.8" x2="134.8" y1="166.66666666666669" y2="220.00000000000003" /><text dominant-baseline="middle" font-size="10" text-anchor="middle" x="123.88000000000001" y="193.33333333333334">06</text><line stroke="black" stroke-width="1" x1="156.64000000000001" x2="156.64000000000001" y1="166.66666666666669" y2="220.00000000000003" /><text dominant-baseline="middle" font-size="10" text-anchor="middle" x="145.72000000000003" y="193.33333333333334">07</text><line stroke="black" stroke-width="1" x1="178.48000000000002" x2="178.48000000000002" y1="166.66666666666669" y2="220.00000000000003" /><text dominant-baseline="middle" font-size="10" text-anchor="middle" x="167.56" y="193.33333333333334">08</text><line stroke="black" stroke-width="1" x1="200.32" x2="200.32" y1="166.66666666666669" y2="220.00000000000003" /><text dominant-baseline="middle" font-size="10" text-anchor="middle" x="189.4" y="193.33333333333334">09</text><line stroke="black" stroke-width="1" x1="222.16" x2="222.16" y1="166.66666666666669" y2="220.00000000000003" /><text dominant-baseline="middle" font-size="10" text-anchor="middle" x="211.24" y="193.33333333333334">10</text><line stroke="black" stroke-width="1" x1="244.0" x2="244.0" y1="166.66666666666669" y2="220.00000000000003" /><text dominant-baseline="middle" font-size="10" text-anchor="middle" x="233.07999999999998" y="193.33333333333334">11</text><line stroke="black" stroke-width="1" x1="265.84000000000003" x2="265.84000000000003" y1="166.66666666666669" y2="220.00000000000003" /><text dominant-baseline="middle" font-size="10" text-anchor="middle" x="254.92000000000002" y="193.33333333333334">12</text><line stroke="black" stroke-width="1" x1="287.68" x2="287.68" y1="166.66666666666669" y2="220.00000000000003" /><text dominant-baseline="middle" font-size="10" text-anchor="middle" x="276.76" y="193.33333333333334">13</text><line stroke="black" stroke-width="1" x1="309.52" x2="309.52" y1="166.66666666666669" y2="220.00000000000003" /><text dominant-baseline="middle" font-size="10" text-anchor="middle" x="298.6" y="193.33333333333334">14</text><line stroke="black" stroke-width="1" x1="331.36" x2="331.36" y1="166.66666666666669" y2="220.00000000000003" /><text dominant-baseline="middle" font-size="10" text-anchor="middle" x="320.44" y="193.33333333333334">15</text><line stroke="black" stroke-width="1" x1="353.2" x2="353.2" y1="166.66666666666669" y2="220.00000000000003" /><text dominant-baseline="middle" font-size="10" text-anchor="middle" x="342.28" y="193.33333333333334">16</text><line stroke="black" stroke-width="1" x1="375.04" x2="375.04" y1="166.66666666666669" y2="220.00000000000003" /><text dominant-baseline="middle" font-size="10" text-anchor="middle" x="364.12" y="193.33333333333334">17</text><line stroke="black" stroke-width="1" x1="396.88" x2="396.88" y1="166.66666666666669" y2="220.00000000000003" /><text dominant-baseline="middle" font-size="10" text-anchor="middle" x="385.96000000000004" y="193.33333333333334">18</text><rect fill="lightgrey" height="53.333333333333336" stroke="black" stroke-width="1" width="390.0" x="10" y="220.00000000000003" /><rect fill="none" height="266.6666666666667" stroke="purple" stroke-width="1" width="390.0" x="10" y="273.33333333333337" /><line stroke="gray" stroke-width="1" x1="10" x2="400.0" y1="273.33333333333337" y2="273.33333333333337" /><line stroke="gray" stroke-width="1" x1="10" x2="400.0" y1="540.0" y2="540.0" /><line stroke="gray" stroke-width="1" x1="106.72" x2="106.72" y1="273.33333333333337" y2="540.0" /><line stroke="gray" stroke-width="1" x1="194.08" x2="194.08" y1="273.33333333333337" y2="540.0" /><line stroke="gray" stroke-width="1" x1="290.8" x2="290.8" y1="273.33333333333337" y2="540.0" /><line stroke="gray" stroke-width="1" x1="384.40000000000003" x2="384.40000000000003" y1="273.33333333333337" y2="540.0" /><line stroke="gray" stroke-width="1" x1="25.6" x2="25.6" y1="273.33333333333337" y2="540.0" /><line stroke="gray" stroke-width="1" x1="47.44" x2="47.44" y1="273.33333333333337" y2="540.0" /><line stroke="gray" stroke-width="1" x1="69.28" x2="69.28" y1="273.33333333333337" y2="540.0" /><line stroke="gray" stroke-width="1" x1="91.12" x2="91.12" y1="273.33333333333337" y2="540.0" /><line stroke="gray" stroke-width="1" x1="112.96000000000001" x2="112.96000000000001" y1="273.33333333333337" y2="540.0" /><line stroke="gray" stroke-width="1" x1="134.8" x2="134.8" y1="273.33333333333337" y2="540.0" /><line stroke="gray" stroke-width="1" x1="156.64000000000001" x2="156.64000000000001" y1="273.33333333333337" y2="540.0" /><line stroke="gray" stroke-width="1" x1="178.48000000000002" x2="178.48000000000002" y1="273.33333333333337" y2="540.0" /><line stroke="gray" stroke-width="1" x1="200.32" x2="200.32" y1="273.33333333333337" y2="540.0" /><line stroke="gray" stroke-width="1" x1="222.16" x2="222.16" y1="273.33333333333337" y2="540.0" /><line stroke="gray" stroke-width="1" x1="244.0" x2="244.0" y1="273.33333333333337" y2="540.0" /><line stroke="gray" stroke-width="1" x1="265.84000000000003" x2="265.84000000000003" y1="273.33333333333337" y2="540.0" /><line stroke="gray" stroke-width="1" x1="287.68" x2="287.68" y1="273.33333333333337" y2="540.0" /><line stroke="gray" stroke-width="1" x1="309.52" x2="309.52" y1="273.33333333333337" y2="540.0" /><line stroke="gray" stroke-width="1" x1="331.36" x2="331.36" y1="273.33333333333337" y2="540.0" /><line stroke="gray" stroke-width="1" x1="353.2" x2="353.2" y1="273.33333333333337" y2="540.0" /><line stroke="gray" stroke-width="1" x1="375.04" x2="375.04" y1="273.33333333333337" y2="540.0" /><line stroke="gray" stroke-width="1" x1="396.88" x2="396.88" y1="273.33333333333337" y2="540.0" /><line stroke="gray" stroke-width="1" x1="13.120000000000001" x2="13.120000000000001" y1="273.33333333333337" y2="540.0" /><line stroke="gray" stroke-width="1" x1="16.240000000000002" x2="16.240000000000002" y1="273.33333333333337" y2="540.0" /><line stroke="gray" stroke-width="1" x1="19.36" x2="19.36" y1="273.33333333333337" y2="540.0" /><line stroke="gray" stroke-width="1" x1="22.48" x2="22.48" y1="273.33333333333337" y2="540.0" /><line stroke="gray" stroke-width="1" x1="25.6" x2="25.6" y1="273.33333333333337" y2="540.0" /><line stroke="gray" stroke-width="1" x1="28.72" x2="28.72" y1="273.33333333333337" y2="540.0" /><line stroke="gray" stroke-width="1" x1="31.84" x2="31.84" y1="273.33333333333337" y2="540.0" /><line stroke="gray" stroke-width="1" x1="34.96" x2="34.96" y1="273.33333333333337" y2="540.0" /><line stroke="gray" stroke-width="1" x1="38.08" x2="38.08" y1="273.33333333333337" y2="540.0" /><line stroke="gray" stroke-width="1" x1="41.2" x2="41.2" y1="273.33333333333337" y2="540.0" /><line stroke="gray" stroke-width="1" x1="44.32" x2="44.32" y1="273.33333333333337" y2="540.0" /><line stroke="gray" stroke-width="1" x1="47.44" x2="47.44" y1="273.33333333333337" y2="540.0" /><line stroke="gray" stroke-width="1" x1="50.56" x2="50.56" y1="273.33333333333337" y2="540.0" /><line stroke="gray" stroke-width="1" x1="53.68" x2="53.68" y1="273.33333333333337" y2="540.0" /><line stroke="gray" stroke-width="1" x1="56.800000000000004" x2="56.800000000000004" y1="273.33333333333337" y2="540.0" /><line stroke="gray" stroke-width="1" x1="59.92" x2="59.92" y1="273.33333333333337" y2="540.0" /><line stroke="gray" stroke-width="1" x1="63.04" x2="63.04" y1="273.33333333333337" y2="540.0" /><line stroke="gray" stroke-width="1" x1="66.16" x2="66.16" y1="273.33333333333337" y2="540.0" /><line stroke="gray" stroke-width="1" x1="69.28" x2="69.28" y1="273.33333333333337" y2="540.0" /><line stroke="gray" stroke-width="1" x1="72.4" x2="72.4" y1="273.33333333333337" y2="540.0" /><line stroke="gray" stroke-width="1" x1="75.52" x2="75.52" y1="273.33333333333337" y2="540.0" /><line stroke="gray" stroke-width="1" x1="78.64" x2="78.64" y1="273.33333333333337" y2="540.0" /><line stroke="gray" stroke-width="1" x1="81.76" x2="81.76" y1="273.33333333333337" y2="540.0" /><line stroke="gray" stroke-width="1" x1="84.88" x2="84.88" y1="273.33333333333337" y2="540.0" /><line stroke="gray" stroke-width="1" x1="88.0" x2="88.0" y1="273.33333333333337" y2="540.0" /><line stroke="gray" stroke-width="1" x1="91.12" x2="91.12" y1="273.33333333333337" y2="540.0" /><line stroke="gray" stroke-width="1" x1="94.24000000000001" x2="94.24000000000001" y1="273.33333333333337" y2="540.0" /><line stroke="gray" stroke-width="1" x1="97.36" x2="97.36" y1="273.33333333333337" y2="540.0" /><line stroke="gray" stroke-width="1" x1="100.48" x2="100.48" y1="273.33333333333337" y2="540.0" /><line stroke="gray" stroke-width="1" x1="103.60000000000001" x2="103.60000000000001" y1="273.33333333333337" y2="540.0" /><line stroke="gray" stroke-width="1" x1="106.72" x2="106.72" y1="273.33333333333337" y2="540.0" /><line stroke="gray" stroke-width="1" x1="109.84" x2="109.84" y1="273.33333333333337" y2="540.0" /><line stroke="gray" stroke-width="1" x1="112.96000000000001" x2="112.96000000000001" y1="273.33333333333337" y2="540.0" /><line stroke="gray" stroke-width="1" x1="116.08" x2="116.08" y1="273.33333333333337" y2="540.0" /><line stroke="gray" stroke-width="1" x1="119.2" x2="119.2" y1="273.33333333333337" y2="540.0" /><line stroke="gray" stroke-width="1" x1="122.32000000000001" x2="122.32000000000001" y1="273.33333333333337" y2="540.0" /><line stroke="gray" stroke-width="1" x1="125.44" x2="125.44" y1="273.33333333333337" y2="540.0" /><line stroke="gray" stroke-width="1" x1="128.56" x2="128.56" y1="273.33333333333337" y2="540.0" /><line stroke="gray" stroke-width="1" x1="131.68" x2="131.68" y1="273.33333333333337" y2="540.0" /><line stroke="gray" stroke-width="1" x1="134.8" x2="134.8" y1="273.33333333333337" y2="540.0" /><line stroke="gray" stroke-width="1" x1="137.92000000000002" x2="137.92000000000002" y1="273.33333333333337" y2="540.0" /><line stroke="gray" stroke-width="1" x1="141.04" x2="141.04" y1="273.33333333333337" y2="540.0" /><line stroke="gray" stroke-width="1" x1="144.16" x2="144.16" y1="273.33333333333337" y2="540.0" /><line stroke="gray" stroke-width="1" x1="147.28" x2="147.28" y1="273.33333333333337" y2="540.0" /><line stroke="gray" stroke-width="1" x1="150.4" x2="150.4" y1="273.33333333333337" y2="540.0" /><line stroke="gray" stroke-width="1" x1="153.52" x2="153.52" y1="273.33333333333337" y2="540.0" /><line stroke="gray" stroke-width="1" x1="156.64000000000001" x2="156.64000000000001" y1="273.33333333333337" y2="540.0" /><line stroke="gray" stroke-width="1" x1="159.76" x2="159.76" y1="273.33333333333337" y2="540.0" /><line stroke="gray" stroke-width="1" x1="162.88" x2="162.88" y1="273.33333333333337" y2="540.0" /><line stroke="gray" stroke-width="1" x1="166.0" x2="166.0" y1="273.33333333333337" y2="540.0" /><line stroke="gray" stroke-width="1" x1="169.12" x2="169.12" y1="273.33333333333337" y2="540.0" /><line stroke="gray" stroke-width="1" x1="172.24" x2="172.24" y1="273.33333333333337" y2="540.0" /><line stroke="gray" stroke-width="1" x1="175.36" x2="175.36" y1="273.33333333333337" y2="540.0" /><line stroke="gray" stroke-width="1" x1="178.48000000000002" x2="178.48000000000002" y1="273.33333333333337" y2="540.0" /><line stroke="gray" stroke-width="1" x1="181.6" x2="181.6" y1="273.33333333333337" y2="540.0" /><line stroke="gray" stroke-width="1" x1="184.72" x2="184.72" y1="273.33333333333337" y2="540.0" /><line stroke="gray" stroke-width="1" x1="187.84" x2="187.84" y1="273.33333333333337" y2="540.0" /><line stroke="gray" stroke-width="1" x1="190.96" x2="190.96" y1="273.33333333333337" y2="540.0" /><line stroke="gray" stroke-width="1" x1="194.08" x2="194.08" y1="273.33333333333337" y2="540.0" /><line stroke="gray" stroke-width="1" x1="197.20000000000002" x2="197.20000000000002" y1="273.33333333333337" y2="540.0" /><line stroke="gray" stroke-width="1" x1="200.32" x2="200.32" y1="273.33333333333337" y2="540.0" /><line stroke="gray" stroke-width="1" x1="203.44" x2="203.44" y1="273.33333333333337" y2="540.0" /><line stroke="gray" stroke-width="1" x1="206.56" x2="206.56" y1="273.33333333333337" y2="540.0" /><line stroke="gray" stroke-width="1" x1="209.68" x2="209.68" y1="273.33333333333337" y2="540.0" /><line stroke="gray" stroke-width="1" x1="212.8" x2="212.8" y1="273.33333333333337" y2="540.0" /><line stroke="gray" stroke-width="1" x1="215.92000000000002" x2="215.92000000000002" y1="273.33333333333337" y2="540.0" /><line stroke="gray" stroke-width="1" x1="219.04000000000002" x2="219.04000000000002" y1="273.33333333333337" y2="540.0" /><line stroke="gray" stroke-width="1" x1="222.16" x2="222.16" y1="273.33333333333337" y2="540.0" /><line stroke="gray" stroke-width="1" x1="225.28" x2="225.28" y1="273.33333333333337" y2="540.0" /><line stroke="gray" stroke-width="1" x1="228.4" x2="228.4" y1="273.33333333333337" y2="540.0" /><line stroke="gray" stroke-width="1" x1="231.52" x2="231.52" y1="273.33333333333337" y2="540.0" /><line stroke="gray" stroke-width="1" x1="234.64000000000001" x2="234.64000000000001" y1="273.33333333333337" y2="540.0" /><line stroke="gray" stroke-width="1" x1="237.76000000000002" x2="237.76000000000002" y1="273.33333333333337" y2="540.0" /><line stroke="gray" stroke-width="1" x1="240.88" x2="240.88" y1="273.33333333333337" y2="540.0" /><line stroke="gray" stroke-width="1" x1="244.0" x2="244.0" y1="273.33333333333337" y2="540.0" /><line stroke="gray" stroke-width="1" x1="247.12" x2="247.12" y1="273.33333333333337" y2="540.0" /><line stroke="gray" stroke-width="1" x1="250.24" x2="250.24" y1="273.33333333333337" y2="540.0" /><line stroke="gray" stroke-width="1" x1="253.36" x2="253.36" y1="273.33333333333337" y2="540.0" /><line stroke="gray" stroke-width="1" x1="256.48" x2="256.48" y1="273.33333333333337" y2="540.0" /><line stroke="gray" stroke-width="1" x1="259.6" x2="259.6" y1="273.33333333333337" y2="540.0" /><line stroke="gray" stroke-width="1" x1="262.72" x2="262.72" y1="273.33333333333337" y2="540.0" /><line stroke="gray" stroke-width="1" x1="265.84000000000003" x2="265.84000000000003" y1="273.33333333333337" y2="540.0" /><line stroke="gray" stroke-width="1" x1="268.96000000000004" x2="268.96000000000004" y1="273.33333333333337" y2="540.0" /><line stroke="gray" stroke-width="1" x1="272.08" x2="272.08" y1="273.33333333333337" y2="540.0" /><line stroke="gray" stroke-width="1" x1="275.2" x2="275.2" y1="273.33333333333337" y2="540.0" /><line stroke="gray" stroke-width="1" x1="278.32" x2="278.32" y1="273.33333333333337" y2="540.0" /><line stroke="gray" stroke-width="1" x1="281.44" x2="281.44" y1="273.33333333333337" y2="540.0" /><line stroke="gray" stroke-width="1" x1="284.56" x2="284.56" y1="273.33333333333337" y2="540.0" /><line stroke="gray" stroke-width="1" x1="287.68" x2="287.68" y1="273.33333333333337" y2="540.0" /><line stroke="gray" stroke-width="1" x1="290.8" x2="290.8" y1="273.33333333333337" y2="540.0" /><line stroke="gray" stroke-width="1" x1="293.92" x2="293.92" y1="273.33333333333337" y2="540.0" /><line stroke="gray" stroke-width="1" x1="297.04" x2="297.04" y1="273.33333333333337" y2="540.0" /><line stroke="gray" stroke-width="1" x1="300.16" x2="300.16" y1="273.33333333333337" y2="540.0" /><line stroke="gray" stroke-width="1" x1="303.28000000000003" x2="303.28000000000003" y1="273.33333333333337" y2="540.0" /><line stroke="gray" stroke-width="1" x1="306.40000000000003" x2="306.40000000000003" y1="273.33333333333337" y2="540.0" /><line stroke="gray" stroke-width="1" x1="309.52" x2="309.52" y1="273.33333333333337" y2="540.0" /><line stroke="gray" stroke-width="1" x1="312.64" x2="312.64" y1="273.33333333333337" y2="540.0" /><line stroke="gray" stroke-width="1" x1="315.76" x2="315.76" y1="273.33333333333337" y2="540.0" /><line stroke="gray" stroke-width="1" x1="318.88" x2="318.88" y1="273.33333333333337" y2="540.0" /><line stroke="gray" stroke-width="1" x1="322.0" x2="322.0" y1="273.33333333333337" y2="540.0" /><line stroke="gray" stroke-width="1" x1="325.12" x2="325.12" y1="273.33333333333337" y2="540.0" /><line stroke="gray" stroke-width="1" x1="328.24" x2="328.24" y1="273.33333333333337" y2="540.0" /><line stroke="gray" stroke-width="1" x1="331.36" x2="331.36" y1="273.33333333333337" y2="540.0" /><line stroke="gray" stroke-width="1" x1="334.48" x2="334.48" y1="273.33333333333337" y2="540.0" /><line stroke="gray" stroke-width="1" x1="337.6" x2="337.6" y1="273.33333333333337" y2="540.0" /><line stroke="gray" stroke-width="1" x1="340.72" x2="340.72" y1="273.33333333333337" y2="540.0" /><line stroke="gray" stroke-width="1" x1="343.84000000000003" x2="343.84000000000003" y1="273.33333333333337" y2="540.0" /><line stroke="gray" stroke-width="1" x1="346.96000000000004" x2="346.96000000000004" y1="273.33333333333337" y2="540.0" /><line stroke="gray" stroke-width="1" x1="350.08" x2="350.08" y1="273.33333333333337" y2="540.0" /><line stroke="gray" stroke-width="1" x1="353.2" x2="353.2" y1="273.33333333333337" y2="540.0" /><line stroke="gray" stroke-width="1" x1="356.32" x2="356.32" y1="273.33333333333337" y2="540.0" /><line stroke="gray" stroke-width="1" x1="359.44" x2="359.44" y1="273.33333333333337" y2="540.0" /><line stroke="gray" stroke-width="1" x1="362.56" x2="362.56" y1="273.33333333333337" y2="540.0" /><line stroke="gray" stroke-width="1" x1="365.68" x2="365.68" y1="273.33333333333337" y2="540.0" /><line stroke="gray" stroke-width="1" x1="368.8" x2="368.8" y1="273.33333333333337" y2="540.0" /><line stroke="gray" stroke-width="1" x1="371.92" x2="371.92" y1="273.33333333333337" y2="540.0" /><line stroke="gray" stroke-width="1" x1="375.04" x2="375.04" y1="273.33333333333337" y2="540.0" /><line stroke="gray" stroke-width="1" x1="378.16" x2="378.16" y1="273.33333333333337" y2="540.0" /><line stroke="gray" stroke-width="1" x1="381.28000000000003" x2="381.28000000000003" y1="273.33333333333337" y2="540.0" /><line stroke="gray" stroke-width="1" x1="384.40000000000003" x2="384.40000000000003" y1="273.33333333333337" y2="540.0" /><line stroke="gray" stroke-width="1" x1="387.52000000000004" x2="387.52000000000004" y1="273.33333333333337" y2="540.0" /><line stroke="gray" stroke-width="1" x1="390.64" x2="390.64" y1="273.33333333333337" y2="540.0" /><line stroke="gray" stroke-width="1" x1="393.76" x2="393.76" y1="273.33333333333337" y2="540.0" /><line stroke="gray" stroke-width="1" x1="396.88" x2="396.88" y1="273.33333333333337" y2="540.0" /><line stroke="gray" stroke-width="1" x1="400.0" x2="400.0" y1="273.33333333333337" y2="540.0" /><rect fill="blue" height="213.33333333333337" width="3.12" x="378.16" y="300.0" /><rect fill="blue" height="213.33333333333337" width="3.12" x="378.16" y="300.0" /><rect fill="blue" height="213.33333333333337" width="3.12" x="378.16" y="300.0" /><text fill="white" font-family="Arial" font-size="10" text-anchor="start" x="378.16" y="409.6666666666667" /><rect fill="blue" height="213.33333333333337" width="3.12" x="378.16" y="300.0" /></svg>