<?xml version="1.0" encoding="utf-8" ?>
<svg baseProfile="full" height="600.0" version="1.1" width="800.0" xmlns="http://www.w3.org/2000/svg" xmlns:ev="http://www.w3.org/2001/xml-events" xmlns:xlink="http://www.w3.org/1999/xlink"><defs /><rect fill="white" height="600.0" stroke="black" stroke-width="2" width="800.0" x="0" y="0" /><rect fill="lightgray" height="50.0" stroke="black" stroke-width="1" width="780.0" x="10.0" y="10.0" /><text font-size="14" text-anchor="middle" x="400.0" y="35.0">test</text><rect fill="lightgray" height="50.0" stroke="black" stroke-width="1" width="780.0" x="10.0" y="540.0" /><text font-size="14" text-anchor="middle" x="400.0" y="565.0">footer</text><rect fill="none" height="480.0" stroke="blue" stroke-dasharray="4" stroke-width="1" width="780.0" x="10.0" y="60.0" /><rect fill="none" height="480.0" stroke="red" stroke-width="1" width="546.0" x="10.0" y="60.0" /><rect fill="lightgrey" height="53.333333333333336" stroke="black" stroke-width="1" width="546.0" x="10.0" y="60.0" /><text dominant-baseline="middle" font-size="10" text-anchor="middle" x="283.0" y="86.66666666666667">2025</text><rect fill="lightgrey" height="53.333333333333336" stroke="black" stroke-width="1" width="546.0" x="10.0" y="113.33333333333334" /><line stroke="black" stroke-width="1" x1="309.4193548387097" x2="309.4193548387097" y1="113.33333333333334" y2="166.66666666666669" /><text dominant-baseline="middle" font-size="10" text-anchor="middle" x="159.70967741935485" y="140.0">Jan</text><text dominant-baseline="middle" font-size="10" text-anchor="middle" x="432.7096774193549" y="140.0">Feb</text><rect fill="lightgrey" height="53.333333333333336" stroke="black" stroke-width="1" width="546.0" x="10.0" y="166.66666666666669" /><line stroke="black" stroke-width="1" x1="98.06451612903226" x2="98.06451612903226" y1="166.66666666666669" y2="220.00000000000003" /><text dominant-baseline="middle" font-size="10" text-anchor="middle" x="54.03225806451613" y="193.33333333333334">03 (19)</text><line stroke="black" stroke-width="1" x1="221.35483870967744" x2="221.35483870967744" y1="166.66666666666669" y2="220.00000000000003" /><text dominant-baseline="middle" font-size="10" text-anchor="middle" x="159.70967741935485" y="193.33333333333334">04 (26)</text><line stroke="black" stroke-width="1" x1="344.64516129032256" x2="344.64516129032256" y1="166.66666666666669" y2="220.00000000000003" /><text dominant-baseline="middle" font-size="10" text-anchor="middle" x="283.0" y="193.33333333333334">05 (02)</text><line stroke="black" stroke-width="1" x1="467.93548387096774" x2="467.93548387096774" y1="166.66666666666669" y2="220.00000000000003" /><text dominant-baseline="middle" font-size="10" text-anchor="middle" x="406.2903225806451" y="193.33333333333334">06 (09)</text><text dominant-baseline="middle" font-size="10" text-anchor="middle" x="511.9677419354839" y="193.33333333333334">07 (16)</text><rect fill="lightgrey" height="53.333333333333336" stroke="black" stroke-width="1" width="546.0" x="10.0" y="220.00000000000003" /><line stroke="black" stroke-width="1" x1="27.612903225806452" x2="27.612903225806452" y1="220.00000000000003" y2="273.33333333333337" /><line stroke="black" stroke-width="1" x1="45.225806451612904" x2="45.225806451612904" y1="220.00000000000003" y2="273.33333333333337" /><line stroke="black" stroke-width="1" x1="62.83870967741936" x2="62.83870967741936" y1="220.00000000000003" y2="273.33333333333337" /><line stroke="black" stroke-width="1" x1="80.45161290322581" x2="80.45161290322581" y1="220.00000000000003" y2="273.33333333333337" /><line stroke="black" stroke-width="1" x1="98.06451612903226" x2="98.06451612903226" y1="220.00000000000003" y2="273.33333333333337" /><line stroke="black" stroke-width="1" x1="115.67741935483872" x2="115.67741935483872" y1="220.00000000000003" y2="273.33333333333337" /><line stroke="black" stroke-width="1" x1="133.29032258064518" x2="133.29032258064518" y1="220.00000000000003" y2="273.33333333333337" /><line stroke="black" stroke-width="1" x1="150.90322580645162" x2="150.90322580645162" y1="220.00000000000003" y2="273.33333333333337" /><line stroke="black" stroke-width="1" x1="168.51612903225808" x2="168.51612903225808" y1="220.00000000000003" y2="273.33333333333337" /><line stroke="black" stroke-width="1" x1="186.1290322580645" x2="186.1290322580645" y1="220.00000000000003" y2="273.33333333333337" /><line stroke="black" stroke-width="1" x1="203.74193548387098" x2="203.74193548387098" y1="220.00000000000003" y2="273.33333333333337" /><line stroke="black" stroke-width="1" x1="221.35483870967744" x2="221.35483870967744" y1="220.00000000000003" y2="273.33333333333337" /><line stroke="black" stroke-width="1" x1="238.96774193548387" x2="238.96774193548387" y1="220.00000000000003" y2="273.33333333333337" /><line stroke="black" stroke-width="1" x1="256.58064516129036" x2="256.58064516129036" y1="220.00000000000003" y2="273.33333333333337" /><line stroke="black" stroke-width="1" x1="274.19354838709677" x2="274.19354838709677" y1="220.00000000000003" y2="273.33333333333337" /><line stroke="black" stroke-width="1" x1="291.80645161290323" x2="291.80645161290323" y1="220.00000000000003" y2="273.33333333333337" /><line stroke="black" stroke-width="1" x1="309.4193548387097" x2="309.4193548387097" y1="220.00000000000003" y2="273.33333333333337" /><line stroke="black" stroke-width="1" x1="327.03225806451616" x2="327.03225806451616" y1="220.00000000000003" y2="273.33333333333337" /><line stroke="black" stroke-width="1" x1="344.64516129032256" x2="344.64516129032256" y1="220.00000000000003" y2="273.33333333333337" /><line stroke="black" stroke-width="1" x1="362.258064516129" x2="362.258064516129" y1="220.00000000000003" y2="273.33333333333337" /><line stroke="black" stroke-width="1" x1="379.8709677419355" x2="379.8709677419355" y1="220.00000000000003" y2="273.33333333333337" /><line stroke="black" stroke-width="1" x1="397.48387096774195" x2="397.48387096774195" y1="220.00000000000003" y2="273.33333333333337" /><line stroke="black" stroke-width="1" x1="415.0967741935484" x2="415.0967741935484" y1="220.00000000000003" y2="273.33333333333337" /><line stroke="black" stroke-width="1" x1="432.7096774193549" x2="432.7096774193549" y1="220.00000000000003" y2="273.33333333333337" /><line stroke="black" stroke-width="1" x1="450.3225806451613" x2="450.3225806451613" y1="220.00000000000003" y2="273.33333333333337" /><line stroke="black" stroke-width="1" x1="467.93548387096774" x2="467.93548387096774" y1="220.00000000000003" y2="273.33333333333337" /><line stroke="black" stroke-width="1" x1="485.5483870967742" x2="485.5483870967742" y1="220.00000000000003" y2="273.33333333333337" /><line stroke="black" stroke-width="1" x1="503.16129032258067" x2="503.16129032258067" y1="220.00000000000003" y2="273.33333333333337" /><line stroke="black" stroke-width="1" x1="520.7741935483871" x2="520.7741935483871" y1="220.00000000000003" y2="273.33333333333337" /><line stroke="black" stroke-width="1" x1="538.3870967741935" x2="538.3870967741935" y1="220.00000000000003" y2="273.33333333333337" /><line stroke="black" stroke-width="1" x1="556.0" x2="556.0" y1="220.00000000000003" y2="273.33333333333337" /><rect fill="none" height="266.6666666666667" stroke="purple" stroke-width="1" width="546.0" x="10.0" y="273.33333333333337" /><line stroke="gray" stroke-width="1" x1="10.0" x2="556.0" y1="273.33333333333337" y2="273.33333333333337" /><line stroke="gray" stroke-width="1" x1="10.0" x2="556.0" y1="300.00000000000006" y2="300.00000000000006" /><line stroke="gray" stroke-width="1" x1="10.0" x2="556.0" y1="326.6666666666667" y2="326.6666666666667" /><line stroke="gray" stroke-width="1" x1="10.0" x2="556.0" y1="353.33333333333337" y2="353.33333333333337" /><line stroke="gray" stroke-width="1" x1="10.0" x2="556.0" y1="380.00000000000006" y2="380.00000000000006" /><line stroke="gray" stroke-width="1" x1="10.0" x2="556.0" y1="406.66666666666674" y2="406.66666666666674" /><line stroke="gray" stroke-width="1" x1="10.0" x2="556.0" y1="433.33333333333337" y2="433.33333333333337" /><line stroke="gray" stroke-width="1" x1="10.0" x2="556.0" y1="460.00000000000006" y2="460.00000000000006" /><line stroke="gray" stroke-width="1" x1="10.0" x2="556.0" y1="486.66666666666674" y2="486.66666666666674" /><line stroke="gray" stroke-width="1" x1="10.0" x2="556.0" y1="513.3333333333334" y2="513.3333333333334" /><line stroke="gray" stroke-width="1" x1="10.0" x2="556.0" y1="540.0" y2="540.0" /><line stroke="gray" stroke-width="1" x1="309.4193548387097" x2="309.4193548387097" y1="273.33333333333337" y2="540.0" /><line stroke="gray" stroke-width="1" x1="98.06451612903226" x2="98.06451612903226" y1="273.33333333333337" y2="540.0" /><line stroke="gray" stroke-width="1" x1="221.35483870967744" x2="221.35483870967744" y1="273.33333333333337" y2="540.0" /><line stroke="gray" stroke-width="1" x1="344.64516129032256" x2="344.64516129032256" y1="273.33333333333337" y2="540.0" /><line stroke="gray" stroke-width="1" x1="467.93548387096774" x2="467.93548387096774" y1="273.33333333333337" y2="540.0" /><line stroke="gray" stroke-width="1" x1="27.612903225806452" x2="27.612903225806452" y1="273.33333333333337" y2="540.0" /><line stroke="gray" stroke-width="1" x1="45.225806451612904" x2="45.225806451612904" y1="273.33333333333337" y2="540.0" /><line stroke="gray" stroke-width="1" x1="62.83870967741936" x2="62.83870967741936" y1="273.33333333333337" y2="540.0" /><line stroke="gray" stroke-width="1" x1="80.45161290322581" x2="80.45161290322581" y1="273.33333333333337" y2="540.0" /><line stroke="gray" stroke-width="1" x1="98.06451612903226" x2="98.06451612903226" y1="273.33333333333337" y2="540.0" /><line stroke="gray" stroke-width="1" x1="115.67741935483872" x2="115.67741935483872" y1="273.33333333333337" y2="540.0" /><line stroke="gray" stroke-width="1" x1="133.29032258064518" x2="133.29032258064518" y1="273.33333333333337" y2="540.0" /><line stroke="gray" stroke-width="1" x1="150.90322580645162" x2="150.90322580645162" y1="273.33333333333337" y2="540.0" /><line stroke="gray" stroke-width="1" x1="168.51612903225808" x2="168.51612903225808" y1="273.33333333333337" y2="540.0" /><line stroke="gray" stroke-width="1" x1="186.1290322580645" x2="186.1290322580645" y1="273.33333333333337" y2="540.0" /><line stroke="gray" stroke-width="1" x1="203.74193548387098" x2="203.74193548387098" y1="273.33333333333337" y2="540.0" /><line stroke="gray" stroke-width="1" x1="221.35483870967744" x2="221.35483870967744" y1="273.33333333333337" y2="540.0" /><line stroke="gray" stroke-width="1" x1="238.96774193548387" x2="238.96774193548387" y1="273.33333333333337" y2="540.0" /><line stroke="gray" stroke-width="1" x1="256.58064516129036" x2="256.58064516129036" y1="273.33333333333337" y2="540.0" /><line stroke="gray" stroke-width="1" x1="274.19354838709677" x2="274.19354838709677" y1="273.33333333333337" y2="540.0" /><line stroke="gray" stroke-width="1" x1="291.80645161290323" x2="291.80645161290323" y1="273.33333333333337" y2="540.0" /><line stroke="gray" stroke-width="1" x1="309.4193548387097" x2="309.4193548387097" y1="273.33333333333337" y2="540.0" /><line stroke="gray" stroke-width="1" x1="327.03225806451616" x2="327.03225806451616" y1="273.33333333333337" y2="540.0" /><line stroke="gray" stroke-width="1" x1="344.64516129032256" x2="344.64516129032256" y1="273.33333333333337" y2="540.0" /><line stroke="gray" stroke-width="1" x1="362.258064516129" x2="362.258064516129" y1="273.33333333333337" y2="540.0" /><line stroke="gray" stroke-width="1" x1="379.8709677419355" x2="379.8709677419355" y1="273.33333333333337" y2="540.0" /><line stroke="gray" stroke-width="1" x1="397.48387096774195" x2="397.48387096774195" y1="273.33333333333337" y2="540.0" /><line stroke="gray" stroke-width="1" x1="415.0967741935484" x2="415.0967741935484" y1="273.33333333333337" y2="540.0" /><line stroke="gray" stroke-width="1" x1="432.7096774193549" x2="432.7096774193549" y1="273.33333333333337" y2="540.0" /><line stroke="gray" stroke-width="1" x1="450.3225806451613" x2="450.3225806451613" y1="273.33333333333337" y2="540.0" /><line stroke="gray" stroke-width="1" x1="467.93548387096774" x2="467.93548387096774" y1="273.33333333333337" y2="540.0" /><line stroke="gray" stroke-width="1" x1="485.5483870967742" x2="485.5483870967742" y1="273.33333333333337" y2="540.0" /><line stroke="gray" stroke-width="1" x1="503.16129032258067" x2="503.16129032258067" y1="273.33333333333337" y2="540.0" /><line stroke="gray" stroke-width="1" x1="520.7741935483871" x2="520.7741935483871" y1="273.33333333333337" y2="540.0" /><line stroke="gray" stroke-width="1" x1="538.3870967741935" x2="538.3870967741935" y1="273.33333333333337" y2="540.0" /><line stroke="gray" stroke-width="1" x1="556.0" x2="556.0" y1="273.33333333333337" y2="540.0" /><rect fill="blue" height="21.333333333333336" width="369.8709677419355" x="98.06451612903226" y="273.33333333333337" /><text fill="white" font-size="10" x="103.06451612903226" y="281.86666666666673">Task 1</text><polygon fill="red" points="457.26881720430106,276.0 467.93548387096774,286.6666666666667 457.26881720430106,297.33333333333337 446.6021505376344,286.6666666666667" stroke="black" stroke-width="1" /><text fill="black" font-size="10" x="472.93548387096774" y="286.6666666666667">Task 2</text><rect fill="none" height="480.0" stroke="red" stroke-width="1" width="234.0" x="556.0" y="60.0" /><rect fill="lightgrey" height="53.333333333333336" stroke="black" stroke-width="1" width="234.0" x="556.0" y="60.0" /><text dominant-baseline="middle" font-size="10" text-anchor="middle" x="673.0" y="86.66666666666667">2025</text><rect fill="lightgrey" height="53.333333333333336" stroke="black" stroke-width="1" width="234.0" x="556.0" y="113.33333333333334" /><line stroke="black" stroke-width="1" x1="668.6666666666666" x2="668.6666666666666" y1="113.33333333333334" y2="166.66666666666669" /><text dominant-baseline="middle" font-size="10" text-anchor="middle" x="612.3333333333333" y="140.0">Feb</text><text dominant-baseline="middle" font-size="10" text-anchor="middle" x="729.3333333333333" y="140.0">Mar</text><rect fill="lightgrey" height="53.333333333333336" stroke="black" stroke-width="1" width="234.0" x="556.0" y="166.66666666666669" /><line stroke="black" stroke-width="1" x1="564.6666666666666" x2="564.6666666666666" y1="166.66666666666669" y2="220.00000000000003" /><line stroke="black" stroke-width="1" x1="625.3333333333334" x2="625.3333333333334" y1="166.66666666666669" y2="220.00000000000003" /><text dominant-baseline="middle" font-size="10" text-anchor="middle" x="595.0" y="193.33333333333334">08 (23)</text><line stroke="black" stroke-width="1" x1="686.0" x2="686.0" y1="166.66666666666669" y2="220.00000000000003" /><text dominant-baseline="middle" font-size="10" text-anchor="middle" x="655.6666666666667" y="193.33333333333334">09 (02)</text><line stroke="black" stroke-width="1" x1="746.6666666666666" x2="746.6666666666666" y1="166.66666666666669" y2="220.00000000000003" /><text dominant-baseline="middle" font-size="10" text-anchor="middle" x="716.3333333333333" y="193.33333333333334">10 (09)</text><text dominant-baseline="middle" font-size="10" text-anchor="middle" x="768.3333333333333" y="193.33333333333334">11</text><rect fill="lightgrey" height="53.333333333333336" stroke="black" stroke-width="1" width="234.0" x="556.0" y="220.00000000000003" /><line stroke="black" stroke-width="1" x1="564.6666666666666" x2="564.6666666666666" y1="220.00000000000003" y2="273.33333333333337" /><line stroke="black" stroke-width="1" x1="573.3333333333334" x2="573.3333333333334" y1="220.00000000000003" y2="273.33333333333337" /><line stroke="black" stroke-width="1" x1="582.0" x2="582.0" y1="220.00000000000003" y2="273.33333333333337" /><line stroke="black" stroke-width="1" x1="590.6666666666666" x2="590.6666666666666" y1="220.00000000000003" y2="273.33333333333337" /><line stroke="black" stroke-width="1" x1="599.3333333333334" x2="599.3333333333334" y1="220.00000000000003" y2="273.33333333333337" /><line stroke="black" stroke-width="1" x1="608.0" x2="608.0" y1="220.00000000000003" y2="273.33333333333337" /><line stroke="black" stroke-width="1" x1="616.6666666666666" x2="616.6666666666666" y1="220.00000000000003" y2="273.33333333333337" /><line stroke="black" stroke-width="1" x1="625.3333333333334" x2="625.3333333333334" y1="220.00000000000003" y2="273.33333333333337" /><line stroke="black" stroke-width="1" x1="634.0" x2="634.0" y1="220.00000000000003" y2="273.33333333333337" /><line stroke="black" stroke-width="1" x1="642.6666666666666" x2="642.6666666666666" y1="220.00000000000003" y2="273.33333333333337" /><line stroke="black" stroke-width="1" x1="651.3333333333334" x2="651.3333333333334" y1="220.00000000000003" y2="273.33333333333337" /><line stroke="black" stroke-width="1" x1="660.0" x2="660.0" y1="220.00000000000003" y2="273.33333333333337" /><line stroke="black" stroke-width="1" x1="668.6666666666666" x2="668.6666666666666" y1="220.00000000000003" y2="273.33333333333337" /><line stroke="black" stroke-width="1" x1="677.3333333333334" x2="677.3333333333334" y1="220.00000000000003" y2="273.33333333333337" /><line stroke="black" stroke-width="1" x1="686.0" x2="686.0" y1="220.00000000000003" y2="273.33333333333337" /><line stroke="black" stroke-width="1" x1="694.6666666666666" x2="694.6666666666666" y1="220.00000000000003" y2="273.33333333333337" /><line stroke="black" stroke-width="1" x1="703.3333333333333" x2="703.3333333333333" y1="220.00000000000003" y2="273.33333333333337" /><line stroke="black" stroke-width="1" x1="712.0" x2="712.0" y1="220.00000000000003" y2="273.33333333333337" /><line stroke="black" stroke-width="1" x1="720.6666666666666" x2="720.6666666666666" y1="220.00000000000003" y2="273.33333333333337" /><line stroke="black" stroke-width="1" x1="729.3333333333333" x2="729.3333333333333" y1="220.00000000000003" y2="273.33333333333337" /><line stroke="black" stroke-width="1" x1="738.0" x2="738.0" y1="220.00000000000003" y2="273.33333333333337" /><line stroke="black" stroke-width="1" x1="746.6666666666666" x2="746.6666666666666" y1="220.00000000000003" y2="273.33333333333337" /><line stroke="black" stroke-width="1" x1="755.3333333333333" x2="755.3333333333333" y1="220.00000000000003" y2="273.33333333333337" /><line stroke="black" stroke-width="1" x1="764.0" x2="764.0" y1="220.00000000000003" y2="273.33333333333337" /><line stroke="black" stroke-width="1" x1="772.6666666666666" x2="772.6666666666666" y1="220.00000000000003" y2="273.33333333333337" /><line stroke="black" stroke-width="1" x1="781.3333333333333" x2="781.3333333333333" y1="220.00000000000003" y2="273.33333333333337" /><line stroke="black" stroke-width="1" x1="790.0" x2="790.0" y1="220.00000000000003" y2="273.33333333333337" /><rect fill="none" height="266.6666666666667" stroke="purple" stroke-width="1" width="234.0" x="556.0" y="273.33333333333337" /><line stroke="gray" stroke-width="1" x1="556.0" x2="790.0" y1="273.33333333333337" y2="273.33333333333337" /><line stroke="gray" stroke-width="1" x1="556.0" x2="790.0" y1="300.00000000000006" y2="300.00000000000006" /><line stroke="gray" stroke-width="1" x1="556.0" x2="790.0" y1="326.6666666666667" y2="326.6666666666667" /><line stroke="gray" stroke-width="1" x1="556.0" x2="790.0" y1="353.33333333333337" y2="353.33333333333337" /><line stroke="gray" stroke-width="1" x1="556.0" x2="790.0" y1="380.00000000000006" y2="380.00000000000006" /><line stroke="gray" stroke-width="1" x1="556.0" x2="790.0" y1="406.66666666666674" y2="406.66666666666674" /><line stroke="gray" stroke-width="1" x1="556.0" x2="790.0" y1="433.33333333333337" y2="433.33333333333337" /><line stroke="gray" stroke-width="1" x1="556.0" x2="790.0" y1="460.00000000000006" y2="460.00000000000006" /><line stroke="gray" stroke-width="1" x1="556.0" x2="790.0" y1="486.66666666666674" y2="486.66666666666674" /><line stroke="gray" stroke-width="1" x1="556.0" x2="790.0" y1="513.3333333333334" y2="513.3333333333334" /><line stroke="gray" stroke-width="1" x1="556.0" x2="790.0" y1="540.0" y2="540.0" /><line stroke="gray" stroke-width="1" x1="668.6666666666666" x2="668.6666666666666" y1="273.33333333333337" y2="540.0" /><line stroke="gray" stroke-width="1" x1="564.6666666666666" x2="564.6666666666666" y1="273.33333333333337" y2="540.0" /><line stroke="gray" stroke-width="1" x1="625.3333333333334" x2="625.3333333333334" y1="273.33333333333337" y2="540.0" /><line stroke="gray" stroke-width="1" x1="686.0" x2="686.0" y1="273.33333333333337" y2="540.0" /><line stroke="gray" stroke-width="1" x1="746.6666666666666" x2="746.6666666666666" y1="273.33333333333337" y2="540.0" /><line stroke="gray" stroke-width="1" x1="564.6666666666666" x2="564.6666666666666" y1="273.33333333333337" y2="540.0" /><line stroke="gray" stroke-width="1" x1="573.3333333333334" x2="573.3333333333334" y1="273.33333333333337" y2="540.0" /><line stroke="gray" stroke-width="1" x1="582.0" x2="582.0" y1="273.33333333333337" y2="540.0" /><line stroke="gray" stroke-width="1" x1="590.6666666666666" x2="590.6666666666666" y1="273.33333333333337" y2="540.0" /><line stroke="gray" stroke-width="1" x1="599.3333333333334" x2="599.3333333333334" y1="273.33333333333337" y2="540.0" /><line stroke="gray" stroke-width="1" x1="608.0" x2="608.0" y1="273.33333333333337" y2="540.0" /><line stroke="gray" stroke-width="1" x1="616.6666666666666" x2="616.6666666666666" y1="273.33333333333337" y2="540.0" /><line stroke="gray" stroke-width="1" x1="625.3333333333334" x2="625.3333333333334" y1="273.33333333333337" y2="540.0" /><line stroke="gray" stroke-width="1" x1="634.0" x2="634.0" y1="273.33333333333337" y2="540.0" /><line stroke="gray" stroke-width="1" x1="642.6666666666666" x2="642.6666666666666" y1="273.33333333333337" y2="540.0" /><line stroke="gray" stroke-width="1" x1="651.3333333333334" x2="651.3333333333334" y1="273.33333333333337" y2="540.0" /><line stroke="gray" stroke-width="1" x1="660.0" x2="660.0" y1="273.33333333333337" y2="540.0" /><line stroke="gray" stroke-width="1" x1="668.6666666666666" x2="668.6666666666666" y1="273.33333333333337" y2="540.0" /><line stroke="gray" stroke-width="1" x1="677.3333333333334" x2="677.3333333333334" y1="273.33333333333337" y2="540.0" /><line stroke="gray" stroke-width="1" x1="686.0" x2="686.0" y1="273.33333333333337" y2="540.0" /><line stroke="gray" stroke-width="1" x1="694.6666666666666" x2="694.6666666666666" y1="273.33333333333337" y2="540.0" /><line stroke="gray" stroke-width="1" x1="703.3333333333333" x2="703.3333333333333" y1="273.33333333333337" y2="540.0" /><line stroke="gray" stroke-width="1" x1="712.0" x2="712.0" y1="273.33333333333337" y2="540.0" /><line stroke="gray" stroke-width="1" x1="720.6666666666666" x2="720.6666666666666" y1="273.33333333333337" y2="540.0" /><line stroke="gray" stroke-width="1" x1="729.3333333333333" x2="729.3333333333333" y1="273.33333333333337" y2="540.0" /><line stroke="gray" stroke-width="1" x1="738.0" x2="738.0" y1="273.33333333333337" y2="540.0" /><line stroke="gray" stroke-width="1" x1="746.6666666666666" x2="746.6666666666666" y1="273.33333333333337" y2="540.0" /><line stroke="gray" stroke-width="1" x1="755.3333333333333" x2="755.3333333333333" y1="273.33333333333337" y2="540.0" /><line stroke="gray" stroke-width="1" x1="764.0" x2="764.0" y1="273.33333333333337" y2="540.0" /><line stroke="gray" stroke-width="1" x1="772.6666666666666" x2="772.6666666666666" y1="273.33333333333337" y2="540.0" /><line stroke="gray" stroke-width="1" x1="781.3333333333333" x2="781.3333333333333" y1="273.33333333333337" y2="540.0" /><line stroke="gray" stroke-width="1" x1="790.0" x2="790.0" y1="273.33333333333337" y2="540.0" /></svg>