<?xml version="1.0" encoding="utf-8" ?>
<svg baseProfile="full" height="400" version="1.1" width="800" xmlns="http://www.w3.org/2000/svg" xmlns:ev="http://www.w3.org/2001/xml-events" xmlns:xlink="http://www.w3.org/1999/xlink"><defs /><rect fill="white" height="400" width="800" x="0" y="0" /><rect fill="yellow" height="300" width="400.0" x="150.0" y="50" /><text fill="black" font-size="12" text-anchor="middle" x="350.0" y="200.0">Curtain 1</text><text font-size="12" x="5" y="70">Task 1</text><rect fill="blue" height="30" width="50.0" x="100.0" y="50" /><text font-size="12" x="5" y="100">Task 2</text><rect fill="blue" height="30" width="600.0" x="100.0" y="80" /><line stroke="red" stroke-dasharray="4,4" stroke-width="1" x1="100.0" x2="100.0" y1="30" y2="350" /><text fill="red" font-size="10" text-anchor="middle" x="100.0" y="25">Pipe 1</text><line stroke="gray" stroke-width="0.5" x1="50.0" x2="50.0" y1="30" y2="350" /><text font-size="10" text-anchor="middle" x="50.0" y="25">2025-03-26</text><line stroke="gray" stroke-width="0.5" x1="100.0" x2="100.0" y1="30" y2="350" /><line stroke="gray" stroke-width="0.5" x1="150.0" x2="150.0" y1="30" y2="350" /><line stroke="gray" stroke-width="0.5" x1="200.0" x2="200.0" y1="30" y2="350" /><line stroke="gray" stroke-width="0.5" x1="250.0" x2="250.0" y1="30" y2="350" /><line stroke="gray" stroke-width="0.5" x1="300.0" x2="300.0" y1="30" y2="350" /><text font-size="10" text-anchor="middle" x="300.0" y="25">2025-03-31</text><line stroke="gray" stroke-width="0.5" x1="350.0" x2="350.0" y1="30" y2="350" /><line stroke="gray" stroke-width="0.5" x1="400.0" x2="400.0" y1="30" y2="350" /><line stroke="gray" stroke-width="0.5" x1="450.0" x2="450.0" y1="30" y2="350" /><line stroke="gray" stroke-width="0.5" x1="500.0" x2="500.0" y1="30" y2="350" /><line stroke="gray" stroke-width="0.5" x1="550.0" x2="550.0" y1="30" y2="350" /><text font-size="10" text-anchor="middle" x="550.0" y="25">2025-04-05</text><line stroke="gray" stroke-width="0.5" x1="600.0" x2="600.0" y1="30" y2="350" /><line stroke="gray" stroke-width="0.5" x1="650.0" x2="650.0" y1="30" y2="350" /><line stroke="gray" stroke-width="0.5" x1="700.0" x2="700.0" y1="30" y2="350" /><line stroke="gray" stroke-width="0.5" x1="750.0" x2="750.0" y1="30" y2="350" /></svg>