<?xml version="1.0" encoding="utf-8"?>
<!-- Generator: Adobe Illustrator 22.0.1, SVG Export Plug-In . SVG Version: 6.00 Build 0)  -->
<svg version="1.1" id="Layer_1" xmlns="http://www.w3.org/2000/svg" xmlns:xlink="http://www.w3.org/1999/xlink" x="0px" y="0px"
	 viewBox="0 0 1600 1200" enable-background="new 0 0 1600 1200" xml:space="preserve">
<g>
	<linearGradient id="SVGID_1_" gradientUnits="userSpaceOnUse" x1="674.3922" y1="431.2145" x2="959.41" y2="814.2072">
		<stop  offset="0" style="stop-color:#FBB040"/>
		<stop  offset="1" style="stop-color:#F15A29"/>
	</linearGradient>
	<path fill="url(#SVGID_1_)" d="M929.7,826H670.3c-53.2,0-96.3-43.1-96.3-96.3V470.3c0-53.2,43.1-96.3,96.3-96.3h259.3
		c53.2,0,96.3,43.1,96.3,96.3v259.3C1026,782.9,982.9,826,929.7,826z"/>
	<g>
		<path fill="#FFFFFF" d="M893.3,686.4c-6.7-6.7-17.3-7.6-25-2c-17.2,12.6-38.5,20-61.4,20c-57.8,0-104.8-47.3-104.4-105.2
			c0.4-57,47.2-103.5,104.2-103.6c23,0,44.3,7.4,61.6,20.1c7.6,5.5,18,4.9,24.6-1.8l0.3-0.3c8.3-8.3,7.4-22.2-2.1-29.1
			c-24.2-17.7-54-27.9-86.3-27.5c-77.8,1.1-140.8,64.9-141,142.7c-0.2,79,64,143.4,143,143.4c31.4,0,60.4-10.1,84-27.3
			C900.5,708.7,901.7,694.8,893.3,686.4L893.3,686.4z"/>
		<path fill="#FFFFFF" d="M804.1,557.1c8-0.5,15.5,1.2,22,4.5c7.5,3.8,16.6,2.5,22.6-3.4l0.1-0.1c9.2-9.2,6.7-24.8-4.9-30.7
			c-11.9-6.1-25.4-9.3-39.7-8.9c-43.3,1.4-78.3,37-78.9,80.3c-0.7,45.6,36.2,82.9,81.6,82.9c22.5,0,42.9-9.2,57.7-23.9
			c10.4-10.4,18-23.6,21.6-38.3c1.5-6.2,2.3-12.7,2.3-19.3c0-6.7-0.8-13.1-2.3-19.3h-40.9h-40.3h0c-10.7,0-19.3,8.7-19.3,19.3l0,0
			c0,10.7,8.7,19.3,19.3,19.3h0h40.3c-2.1,4.1-4.8,7.8-8,11c-7.8,7.8-18.5,12.6-30.4,12.6c-24.3,0-44-20.3-42.9-44.8
			C764.9,576.4,782.3,558.5,804.1,557.1z"/>
	</g>
</g>
</svg>
